<?xml version="1.0" encoding="UTF-8" standalone="no"?>
<!-- Created with Inkscape (http://www.inkscape.org/) -->

<svg
   width="33.272732mm"
   height="29.893782mm"
   viewBox="0 0 33.272732 29.893782"
   version="1.1"
   id="svg13588"
   inkscape:version="1.2.2 (b0a84865, 2022-12-01)"
   sodipodi:docname="AVL_case2_balanced.svg"
   xmlns:inkscape="http://www.inkscape.org/namespaces/inkscape"
   xmlns:sodipodi="http://sodipodi.sourceforge.net/DTD/sodipodi-0.dtd"
   xmlns="http://www.w3.org/2000/svg"
   xmlns:svg="http://www.w3.org/2000/svg">
  <sodipodi:namedview
     id="namedview13590"
     pagecolor="#ffffff"
     bordercolor="#666666"
     borderopacity="1.0"
     inkscape:showpageshadow="2"
     inkscape:pageopacity="0.0"
     inkscape:pagecheckerboard="0"
     inkscape:deskcolor="#d1d1d1"
     inkscape:document-units="mm"
     showgrid="false"
     inkscape:zoom="7.2841932"
     inkscape:cx="62.944514"
     inkscape:cy="56.492186"
     inkscape:window-width="1417"
     inkscape:window-height="984"
     inkscape:window-x="2101"
     inkscape:window-y="594"
     inkscape:window-maximized="0"
     inkscape:current-layer="layer1" />
  <defs
     id="defs13585">
    <clipPath
       id="clip-16">
      <path
         clip-rule="nonzero"
         d="m 252,382 h 14 v 49.06641 h -14 z m 0,0"
         id="path6808" />
    </clipPath>
    <clipPath
       id="clip-17">
      <path
         clip-rule="nonzero"
         d="m 322,382 h 14.3125 v 49.06641 H 322 Z m 0,0"
         id="path6811" />
    </clipPath>
    <clipPath
       id="clip-18">
      <path
         clip-rule="nonzero"
         d="m 275,417 h 15 v 14.06641 h -15 z m 0,0"
         id="path6814" />
    </clipPath>
    <clipPath
       id="clip-19">
      <path
         clip-rule="nonzero"
         d="m 299,417 h 14 v 14.06641 h -14 z m 0,0"
         id="path6817" />
    </clipPath>
    <clipPath
       id="clip-20">
      <path
         clip-rule="nonzero"
         d="M 241.99609,402 H 251 v 10 h -9.00391 z m 0,0"
         id="path6820" />
    </clipPath>
    <clipPath
       id="clip-21">
      <path
         clip-rule="nonzero"
         d="m 293,346.32812 h 2 V 354 h -2 z m 0,0"
         id="path6823" />
    </clipPath>
  </defs>
  <g
     inkscape:label="Layer 1"
     inkscape:groupmode="layer"
     id="layer1"
     transform="translate(-84.0416,-139.84548)">
    <g
       id="g13635"
       transform="matrix(0.35277777,0,0,0.35277777,-1.3292413,17.668618)">
      <path
         fill="none"
         stroke-width="0.5"
         stroke-linecap="butt"
         stroke-linejoin="round"
         stroke="#000000"
         stroke-opacity="1"
         stroke-miterlimit="10"
         d="m -17.010969,-12.554683 c 0,3.609375 -2.921875,6.53125 -6.53125,6.53125 -3.605468,0 -6.53125,-2.921875 -6.53125,-6.53125 0,-3.605468 2.925782,-6.527343 6.53125,-6.527343 3.609375,0 6.53125,2.921875 6.53125,6.527343 z m 0,0"
         transform="matrix(1,0,0,-1,294.218,359.64063)"
         id="path9420" />
      <path
         fill="none"
         stroke-width="0.5"
         stroke-linecap="butt"
         stroke-linejoin="round"
         stroke="#000000"
         stroke-opacity="1"
         stroke-miterlimit="10"
         d="m 30.071063,-12.554683 c 0,3.609375 -2.921875,6.53125 -6.53125,6.53125 -3.605469,0 -6.53125,-2.921875 -6.53125,-6.53125 0,-3.605468 2.925781,-6.527343 6.53125,-6.527343 3.609375,0 6.53125,2.921875 6.53125,6.527343 z m 0,0"
         transform="matrix(1,0,0,-1,294.218,359.64063)"
         id="path9422" />
      <path
         fill-rule="nonzero"
         fill="#000000"
         fill-opacity="1"
         d="m 295.71094,359.64062 c 0,-0.39453 -0.15625,-0.77734 -0.4375,-1.05859 -0.27735,-0.27734 -0.66016,-0.4375 -1.05469,-0.4375 -0.39844,0 -0.77734,0.16016 -1.05859,0.4375 -0.27735,0.28125 -0.4375,0.66406 -0.4375,1.05859 0,0.39454 0.16015,0.77735 0.4375,1.0586 0.28125,0.27734 0.66015,0.4375 1.05859,0.4375 0.39453,0 0.77734,-0.16016 1.05469,-0.4375 0.28125,-0.28125 0.4375,-0.66406 0.4375,-1.0586 z m 0,0"
         id="path9424" />
      <path
         fill="none"
         stroke-width="0.5"
         stroke-linecap="butt"
         stroke-linejoin="round"
         stroke="#000000"
         stroke-opacity="1"
         stroke-miterlimit="10"
         d="m 6.532,5e-6 c 0,3.605469 -2.925781,6.53125 -6.53125,6.53125 -3.609375,0 -6.53125,-2.925781 -6.53125,-6.53125 0,-3.605469 2.921875,-6.53125 6.53125,-6.53125 3.605469,0 6.53125,2.925781 6.53125,6.53125 z m 0,0"
         transform="matrix(1,0,0,-1,294.218,359.64063)"
         id="path9426" />
      <g
         fill="#000000"
         fill-opacity="1"
         id="g9430">
        <g
           id="use9428"
           transform="translate(256.18661,391.24423)">
          <path
             d="m 4.0625,-1.109375 c 0.75,-0.8125 1,-1.859375 1,-1.921875 0,-0.0625 -0.046875,-0.09375 -0.109375,-0.09375 -0.109375,0 -0.109375,0.03125 -0.15625,0.1875 C 4.5625,-2.125 4.09375,-1.5 4.0625,-1.5 4.046875,-1.5 4.046875,-1.703125 4.046875,-1.828125 4.03125,-3.234375 3.125,-3.515625 2.578125,-3.515625 c -1.125,0 -2.234375,1.09375 -2.234375,2.21875 0,0.78125 0.5625,1.375 1.40625,1.375 0.546875,0 1.140625,-0.203125 1.765625,-0.671875 0.1875,0.640625 0.640625,0.671875 0.78125,0.671875 0.453125,0 0.71875,-0.40625 0.71875,-0.5625 0,-0.09375 -0.09375,-0.09375 -0.109375,-0.09375 -0.09375,0 -0.109375,0.03125 -0.140625,0.078125 -0.125,0.34375 -0.390625,0.359375 -0.4375,0.359375 -0.109375,0 -0.234375,0 -0.265625,-0.96875 z m -0.59375,0.25 C 2.90625,-0.34375 2.234375,-0.140625 1.765625,-0.140625 1.359375,-0.140625 1,-0.375 1,-1.015625 1,-1.296875 1.125,-2.125 1.5,-2.65625 c 0.3125,-0.4375 0.75,-0.640625 1.078125,-0.640625 0.4375,0 0.6875,0.3125 0.78125,0.796875 0.125,0.546875 0.0625,1.1875 0.109375,1.640625 z m 0,0"
             id="path13927" />
        </g>
      </g>
      <g
         clip-path="url(#clip-16)"
         id="g9434">
        <path
           fill="none"
           stroke-width="0.5"
           stroke-linecap="butt"
           stroke-linejoin="round"
           stroke="#000000"
           stroke-opacity="1"
           stroke-miterlimit="10"
           d="m -41.843,-23.355464 h 13.0625 V -71.175776 H -41.843 Z m 0,0"
           transform="matrix(1,0,0,-1,294.218,359.64063)"
           id="path9432" />
      </g>
      <g
         fill="#000000"
         fill-opacity="1"
         id="g9438">
        <g
           id="use9436"
           transform="translate(327.5069,392.29593)">
          <path
             d="m 2.171875,-3.46875 c -1.203125,0.328125 -1.828125,1.375 -1.828125,2.1875 0,0.890625 0.671875,1.375 1.375,1.375 0.9375,0 1.65625,-1.140625 1.65625,-2.3125 0,-0.765625 -0.359375,-1.1875 -0.640625,-1.5 -0.25,-0.3125 -0.8125,-0.953125 -0.8125,-1.3125 0,-0.1875 0.171875,-0.359375 0.421875,-0.359375 0.265625,0 0.4375,0.109375 0.65625,0.25 0.203125,0.109375 0.34375,0.171875 0.4375,0.171875 0.203125,0 0.328125,-0.1875 0.328125,-0.328125 0,-0.1875 -0.09375,-0.203125 -0.5,-0.296875 C 2.8125,-5.6875 2.578125,-5.6875 2.5625,-5.6875 c -0.34375,0 -0.90625,0.171875 -0.90625,0.84375 0,0.40625 0.21875,0.875 0.515625,1.375 z m 0.125,0.21875 C 2.578125,-2.78125 2.75,-2.375 2.75,-1.890625 c 0,0.625 -0.34375,1.765625 -1.03125,1.765625 -0.3125,0 -0.8125,-0.203125 -0.8125,-0.9375 0,-0.421875 0.234375,-1.890625 1.390625,-2.1875 z m 0,0"
             id="path13923" />
        </g>
      </g>
      <g
         clip-path="url(#clip-17)"
         id="g9442">
        <path
           fill="none"
           stroke-width="0.5"
           stroke-linecap="butt"
           stroke-linejoin="round"
           stroke="#000000"
           stroke-opacity="1"
           stroke-miterlimit="10"
           d="M 28.782,-23.355464 H 41.8445 V -71.175776 H 28.782 Z m 0,0"
           transform="matrix(1,0,0,-1,294.218,359.64063)"
           id="path9440" />
      </g>
      <g
         fill="#000000"
         fill-opacity="1"
         id="g9446">
        <g
           id="use9444"
           transform="translate(279.86679,391.52103)">
          <path
             d="m 4.78125,-4.53125 c 0,-0.734375 -0.59375,-1.09375 -1.25,-1.09375 -1.03125,0 -1.796875,1.171875 -2.015625,2.046875 L 0.25,1.453125 C 0.234375,1.5 0.296875,1.546875 0.34375,1.546875 c 0.078125,0 0.140625,0 0.15625,-0.0625 l 0.53125,-2.125 c 0.1875,0.421875 0.5625,0.71875 1.140625,0.71875 1.09375,0 2.296875,-0.78125 2.296875,-2.046875 C 4.46875,-2.5 4.265625,-2.859375 3.875,-3.171875 3.921875,-3.1875 4.0625,-3.296875 4.109375,-3.328125 4.5,-3.59375 4.78125,-4.046875 4.78125,-4.53125 Z m -1.5625,1.359375 c -0.15625,0.015625 -0.296875,0.03125 -0.453125,0.03125 -0.078125,0 -0.171875,0 -0.25,-0.03125 0.140625,-0.046875 0.3125,-0.046875 0.453125,-0.046875 0.078125,0 0.15625,0.015625 0.25,0.046875 z M 4.28125,-4.6875 c 0,0.40625 -0.171875,0.875 -0.453125,1.15625 C 3.78125,-3.5 3.625,-3.34375 3.5625,-3.34375 3.34375,-3.375 3.171875,-3.4375 2.9375,-3.4375 c -0.203125,0 -0.703125,-0.015625 -0.703125,0.296875 0,0.234375 0.453125,0.21875 0.609375,0.21875 0.25,0 0.484375,-0.015625 0.703125,-0.109375 0.25,0.1875 0.359375,0.453125 0.359375,0.84375 0,0.46875 -0.15625,1 -0.390625,1.3125 -0.28125,0.421875 -0.78125,0.71875 -1.375,0.71875 -0.53125,0 -0.953125,-0.40625 -0.953125,-0.953125 0,-0.109375 0.015625,-0.21875 0.046875,-0.296875 L 1.75,-3.515625 c 0.171875,-0.703125 0.859375,-1.875 1.75,-1.875 0.40625,0 0.78125,0.1875 0.78125,0.703125 z m 0,0"
             id="path13919" />
        </g>
      </g>
      <path
         fill="none"
         stroke-width="0.5"
         stroke-linecap="round"
         stroke-linejoin="round"
         stroke="#000000"
         stroke-opacity="1"
         stroke-miterlimit="10"
         d="m -18.300031,-56.121089 v 32.765625 h 13.058594 v -32.765625"
         transform="matrix(1,0,0,-1,294.218,359.64063)"
         id="path9448" />
      <g
         clip-path="url(#clip-18)"
         id="g9452">
        <path
           fill="none"
           stroke-width="0.5"
           stroke-linecap="round"
           stroke-linejoin="round"
           stroke="#000000"
           stroke-opacity="1"
           stroke-dasharray="1.5, 1.5"
           stroke-miterlimit="10"
           d="m -18.300031,-58.117183 h 13.058594 v -13.058593 h -13.058594 z m 0,0"
           transform="matrix(1,0,0,-1,294.218,359.64063)"
           id="path9450" />
      </g>
      <g
         fill="#000000"
         fill-opacity="1"
         id="g9456">
        <g
           id="use9454"
           transform="translate(303.5726,390.46942)">
          <path
             d="m 3.265625,-1.28125 c -0.09375,-0.984375 -0.5,-1.625 -0.5,-1.640625 -0.171875,-0.265625 -0.46875,-0.59375 -1,-0.59375 -1.03125,0 -1.625,1.15625 -1.625,1.4375 0,0.0625 0.0625,0.09375 0.125,0.09375 0.078125,0 0.09375,-0.03125 0.125,-0.09375 0.234375,-0.703125 1.03125,-0.8125 1.265625,-0.8125 1.28125,0 1.375,1.390625 1.375,2.046875 0,0.453125 -0.015625,0.515625 -0.078125,0.703125 -0.171875,0.5625 -0.40625,1.453125 -0.40625,1.671875 0,0.015625 0,0.1875 0.125,0.1875 0.09375,0 0.171875,-0.125 0.234375,-0.328125 C 3.125,0.65625 3.203125,0.125 3.25,-0.234375 c 0.03125,-0.15625 0.46875,-1.5 1.21875,-2.890625 0.09375,-0.171875 0.09375,-0.1875 0.09375,-0.21875 0,0 0,-0.09375 -0.125,-0.09375 -0.03125,0 -0.0625,0.015625 -0.09375,0.03125 C 4.3125,-3.375 3.6875,-2.203125 3.296875,-1.109375 Z m 0,0"
             id="path13903" />
        </g>
      </g>
      <path
         fill="none"
         stroke-width="0.5"
         stroke-linecap="round"
         stroke-linejoin="round"
         stroke="#000000"
         stroke-opacity="1"
         stroke-miterlimit="10"
         d="m 5.239031,-56.121089 v 32.765625 h 13.0625 v -32.765625"
         transform="matrix(1,0,0,-1,294.218,359.64063)"
         id="path9458" />
      <g
         clip-path="url(#clip-19)"
         id="g9462">
        <path
           fill="none"
           stroke-width="0.5"
           stroke-linecap="round"
           stroke-linejoin="round"
           stroke="#000000"
           stroke-opacity="1"
           stroke-dasharray="1.5, 1.5"
           stroke-miterlimit="10"
           d="m 5.239031,-58.117183 h 13.0625 v -13.058593 h -13.0625 z m 0,0"
           transform="matrix(1,0,0,-1,294.218,359.64063)"
           id="path9460" />
      </g>
      <path
         fill="none"
         stroke-width="0.5"
         stroke-linecap="round"
         stroke-linejoin="round"
         stroke="#000000"
         stroke-opacity="1"
         stroke-miterlimit="10"
         d="m -5.764875,-3.074214 -12.011719,-6.40625"
         transform="matrix(1,0,0,-1,294.218,359.64063)"
         id="path9464" />
      <path
         fill="none"
         stroke-width="0.5"
         stroke-linecap="round"
         stroke-linejoin="round"
         stroke="#000000"
         stroke-opacity="1"
         stroke-miterlimit="10"
         d="m 5.762469,-3.074214 12.015625,-6.40625"
         transform="matrix(1,0,0,-1,294.218,359.64063)"
         id="path9466" />
      <path
         fill="none"
         stroke-width="0.5"
         stroke-linecap="round"
         stroke-linejoin="round"
         stroke="#000000"
         stroke-opacity="1"
         stroke-miterlimit="10"
         d="m -28.350812,-16.968745 -6.960938,-6.386719"
         transform="matrix(1,0,0,-1,294.218,359.64063)"
         id="path9468" />
      <path
         fill="none"
         stroke-width="0.5"
         stroke-linecap="round"
         stroke-linejoin="round"
         stroke="#000000"
         stroke-opacity="1"
         stroke-miterlimit="10"
         d="m -18.729719,-16.968745 6.960938,-6.386719"
         transform="matrix(1,0,0,-1,294.218,359.64063)"
         id="path9470" />
      <path
         fill="none"
         stroke-width="0.5"
         stroke-linecap="round"
         stroke-linejoin="round"
         stroke="#000000"
         stroke-opacity="1"
         stroke-miterlimit="10"
         d="m 18.731219,-16.968745 -6.960938,-6.386719"
         transform="matrix(1,0,0,-1,294.218,359.64063)"
         id="path9472" />
      <path
         fill="none"
         stroke-width="0.5"
         stroke-linecap="round"
         stroke-linejoin="round"
         stroke="#000000"
         stroke-opacity="1"
         stroke-miterlimit="10"
         d="m 28.352313,-16.968745 6.960937,-6.386719"
         transform="matrix(1,0,0,-1,294.218,359.64063)"
         id="path9474" />
      <g
         fill="#000000"
         fill-opacity="1"
         id="g9478">
        <g
           id="use9476"
           transform="translate(277.1001,362.36374)">
          <path
             d="M 4.15625,-3.046875 C 4.546875,-3.4375 5.671875,-4.59375 5.859375,-4.75 6.203125,-5 6.40625,-5.140625 6.96875,-5.171875 c 0.046875,-0.015625 0.109375,-0.0625 0.109375,-0.15625 0,-0.078125 -0.0625,-0.109375 -0.109375,-0.109375 -0.078125,0 -0.125,0.015625 -0.75,0.015625 -0.59375,0 -0.8125,-0.015625 -0.84375,-0.015625 -0.03125,0 -0.15625,0 -0.15625,0.140625 0,0.015625 0,0.109375 0.109375,0.125 0.0625,0 0.28125,0.015625 0.28125,0.203125 0,0.046875 -0.046875,0.140625 -0.109375,0.203125 L 5.484375,-4.71875 C 5.453125,-4.703125 5.453125,-4.6875 5.375,-4.609375 l -1.328125,1.34375 -0.8125,-1.6875 c 0.109375,-0.1875 0.34375,-0.21875 0.453125,-0.21875 0.03125,0 0.140625,-0.015625 0.140625,-0.15625 0,-0.0625 -0.046875,-0.109375 -0.125,-0.109375 -0.078125,0 -0.375,0.015625 -0.453125,0.015625 -0.046875,0 -0.34375,0 -0.515625,0 -0.75,0 -0.84375,-0.015625 -0.90625,-0.015625 -0.03125,0 -0.15625,0 -0.15625,0.140625 0,0.125 0.09375,0.125 0.21875,0.125 0.40625,0 0.46875,0.078125 0.546875,0.21875 L 3.5,-2.71875 1.859375,-1.046875 c -0.46875,0.46875 -0.84375,0.75 -1.40625,0.78125 C 0.34375,-0.25 0.25,-0.25 0.25,-0.109375 0.25,-0.0625 0.296875,0 0.375,0 0.4375,0 0.515625,-0.03125 1.125,-0.03125 1.703125,-0.03125 1.9375,0 1.96875,0 c 0.046875,0 0.171875,0 0.171875,-0.15625 0,-0.015625 -0.015625,-0.09375 -0.125,-0.109375 -0.15625,0 -0.265625,-0.0625 -0.265625,-0.203125 0,-0.125 0.09375,-0.234375 0.203125,-0.359375 0.140625,-0.140625 0.5625,-0.5625 0.84375,-0.84375 0.1875,-0.171875 0.625,-0.640625 0.8125,-0.8125 l 0.921875,1.90625 C 4.5625,-0.5 4.5625,-0.5 4.5625,-0.484375 c 0,0.0625 -0.15625,0.203125 -0.421875,0.21875 -0.0625,0 -0.171875,0.015625 -0.171875,0.15625 0,0 0.015625,0.109375 0.140625,0.109375 0.078125,0 0.375,-0.015625 0.453125,-0.03125 H 5.078125 C 5.8125,-0.03125 5.921875,0 6,0 c 0.03125,0 0.140625,0 0.140625,-0.15625 0,-0.109375 -0.09375,-0.109375 -0.21875,-0.109375 -0.4375,0 -0.484375,-0.09375 -0.53125,-0.21875 z m 0,0"
             id="path13907" />
        </g>
      </g>
      <g
         fill="#000000"
         fill-opacity="1"
         id="g9482">
        <g
           id="use9480"
           transform="translate(254.8027,374.91653)">
          <path
             d="M 1.46875,-0.953125 C 1.109375,-0.359375 0.78125,-0.28125 0.5,-0.265625 0.421875,-0.25 0.3125,-0.25 0.3125,-0.109375 0.3125,-0.09375 0.328125,0 0.4375,0 0.5,0 0.546875,-0.03125 1.109375,-0.03125 1.65625,-0.03125 1.828125,0 1.875,0 c 0.03125,0 0.15625,0 0.15625,-0.15625 0,-0.09375 -0.109375,-0.109375 -0.140625,-0.109375 -0.171875,0 -0.34375,-0.0625 -0.34375,-0.25 0,-0.109375 0.078125,-0.21875 0.21875,-0.453125 L 2.3125,-1.84375 H 4.5 L 4.65625,-0.5 c 0,0.125 -0.140625,0.234375 -0.515625,0.234375 -0.109375,0 -0.21875,0 -0.21875,0.15625 0,0 0,0.109375 0.140625,0.109375 0.078125,0 0.375,-0.015625 0.453125,-0.03125 h 0.5 C 5.734375,-0.03125 5.859375,0 5.921875,0 5.953125,0 6.09375,0 6.09375,-0.15625 c 0,-0.109375 -0.109375,-0.109375 -0.234375,-0.109375 -0.4375,0 -0.453125,-0.0625 -0.46875,-0.265625 L 4.75,-5.453125 C 4.734375,-5.640625 4.71875,-5.6875 4.59375,-5.6875 c -0.140625,0 -0.1875,0.078125 -0.25,0.15625 z M 2.484375,-2.109375 4.125,-4.71875 4.46875,-2.109375 Z m 0,0"
             id="path13911" />
        </g>
      </g>
      <g
         fill="#000000"
         fill-opacity="1"
         id="g9486">
        <g
           id="use9484"
           transform="translate(327.28915,374.91653)">
          <path
             d="m 1.34375,-0.625 c -0.0625,0.296875 -0.078125,0.359375 -0.671875,0.359375 -0.15625,0 -0.25,0 -0.25,0.15625 C 0.421875,0 0.53125,0 0.65625,0 H 3.625 C 4.9375,0 5.90625,-0.9375 5.90625,-1.703125 5.90625,-2.28125 5.40625,-2.75 4.609375,-2.84375 5.53125,-3.015625 6.328125,-3.625 6.328125,-4.328125 6.328125,-4.921875 5.75,-5.4375 4.75,-5.4375 H 1.96875 c -0.140625,0 -0.25,0 -0.25,0.140625 0,0.125 0.09375,0.125 0.234375,0.125 0.265625,0 0.5,0 0.5,0.125 0,0.03125 -0.015625,0.03125 -0.03125,0.140625 z m 1.25,-2.3125 0.484375,-1.953125 c 0.0625,-0.265625 0.078125,-0.28125 0.40625,-0.28125 H 4.625 c 0.78125,0 0.96875,0.5 0.96875,0.828125 0,0.671875 -0.734375,1.40625 -1.75,1.40625 z M 2.046875,-0.265625 C 1.96875,-0.28125 1.9375,-0.28125 1.9375,-0.328125 c 0,-0.0625 0.015625,-0.140625 0.03125,-0.1875 l 0.5625,-2.203125 h 1.625 c 0.734375,0 0.984375,0.5 0.984375,0.953125 0,0.78125 -0.765625,1.5 -1.71875,1.5 z m 0,0"
             id="path13899" />
        </g>
      </g>
      <path
         fill="none"
         stroke-width="0.29887"
         stroke-linecap="round"
         stroke-linejoin="round"
         stroke="#000000"
         stroke-opacity="1"
         stroke-miterlimit="10"
         d="M -47.819562,-23.355464 V -71.175776"
         transform="matrix(1,0,0,-1,294.218,359.64063)"
         id="path9488" />
      <path
         fill="none"
         stroke-width="0.29887"
         stroke-linecap="round"
         stroke-linejoin="round"
         stroke="#000000"
         stroke-opacity="1"
         stroke-miterlimit="10"
         d="m -51.046125,-66.117183 c 1.625,-1.265625 2.761719,-3.054687 3.226563,-5.058593 0.460937,2.003906 1.601562,3.792968 3.222656,5.058593"
         transform="matrix(1,0,0,-1,294.218,359.64063)"
         id="path9490" />
      <path
         fill="none"
         stroke-width="0.29887"
         stroke-linecap="round"
         stroke-linejoin="round"
         stroke="#000000"
         stroke-opacity="1"
         stroke-miterlimit="10"
         d="m -44.596906,-28.417964 c -1.621094,1.269531 -2.761719,3.054688 -3.222656,5.0625 -0.464844,-2.007812 -1.601563,-3.792969 -3.226563,-5.0625"
         transform="matrix(1,0,0,-1,294.218,359.64063)"
         id="path9492" />
      <g
         clip-path="url(#clip-20)"
         id="g9496">
        <path
           fill-rule="nonzero"
           fill="#ffffff"
           fill-opacity="1"
           d="m 241.99609,411.67578 h 8.87891 v -9.53516 h -8.87891 z m 0,0"
           id="path9494" />
      </g>
      <g
         fill="#000000"
         fill-opacity="1"
         id="g9500">
        <g
           id="use9498"
           transform="translate(243.99699,409.67514)">
          <path
             d="m 2.328125,-5.296875 c 0,-0.015625 0.03125,-0.109375 0.03125,-0.125 0,-0.03125 -0.03125,-0.109375 -0.125,-0.109375 -0.03125,0 -0.28125,0.03125 -0.46875,0.046875 l -0.4375,0.03125 C 1.140625,-5.4375 1.0625,-5.4375 1.0625,-5.296875 c 0,0.125 0.109375,0.125 0.21875,0.125 0.375,0 0.375,0.046875 0.375,0.109375 0,0.03125 0,0.046875 -0.03125,0.1875 l -1.140625,4.53125 c -0.03125,0.125 -0.03125,0.171875 -0.03125,0.171875 0,0.140625 0.109375,0.25 0.265625,0.25 0.125,0 0.234375,-0.078125 0.296875,-0.1875 0.03125,-0.046875 0.09375,-0.296875 0.125,-0.453125 l 0.1875,-0.71875 c 0.03125,-0.109375 0.109375,-0.421875 0.125,-0.53125 0.125,-0.46875 0.125,-0.484375 0.296875,-0.734375 0.28125,-0.390625 0.65625,-0.75 1.1875,-0.75 0.28125,0 0.453125,0.171875 0.453125,0.546875 0,0.4375 -0.34375,1.34375 -0.484375,1.734375 -0.109375,0.265625 -0.109375,0.3125 -0.109375,0.421875 0,0.453125 0.375,0.671875 0.71875,0.671875 0.78125,0 1.109375,-1.109375 1.109375,-1.21875 C 4.625,-1.21875 4.5625,-1.25 4.5,-1.25 c -0.09375,0 -0.109375,0.0625 -0.140625,0.140625 -0.1875,0.65625 -0.515625,0.96875 -0.828125,0.96875 -0.125,0 -0.1875,-0.078125 -0.1875,-0.265625 0,-0.1875 0.0625,-0.359375 0.140625,-0.5625 0.125,-0.296875 0.46875,-1.21875 0.46875,-1.65625 0,-0.609375 -0.40625,-0.890625 -0.984375,-0.890625 -0.4375,0 -0.859375,0.1875 -1.234375,0.609375 z m 0,0"
             id="path13915" />
        </g>
      </g>
      <g
         clip-path="url(#clip-21)"
         id="g9504">
        <path
           fill="none"
           stroke-width="0.5"
           stroke-linecap="round"
           stroke-linejoin="round"
           stroke="#000000"
           stroke-opacity="1"
           stroke-miterlimit="10"
           d="m 7.5e-4,6.531255 v 6.53125"
           transform="matrix(1,0,0,-1,294.218,359.64063)"
           id="path9502" />
      </g>
    </g>
  </g>
</svg>
