<?xml version="1.0" encoding="UTF-8" standalone="no"?>
<!-- Created with Inkscape (http://www.inkscape.org/) -->

<svg
   width="42.389832mm"
   height="34.322796mm"
   viewBox="0 0 42.389832 34.322796"
   version="1.1"
   id="svg12936"
   inkscape:version="1.2.2 (b0a84865, 2022-12-01)"
   sodipodi:docname="AVL_case2_imbalanced.svg"
   xmlns:inkscape="http://www.inkscape.org/namespaces/inkscape"
   xmlns:sodipodi="http://sodipodi.sourceforge.net/DTD/sodipodi-0.dtd"
   xmlns="http://www.w3.org/2000/svg"
   xmlns:svg="http://www.w3.org/2000/svg">
  <sodipodi:namedview
     id="namedview12938"
     pagecolor="#ffffff"
     bordercolor="#666666"
     borderopacity="1.0"
     inkscape:showpageshadow="2"
     inkscape:pageopacity="0.0"
     inkscape:pagecheckerboard="0"
     inkscape:deskcolor="#d1d1d1"
     inkscape:document-units="mm"
     showgrid="false"
     inkscape:zoom="2.4590678"
     inkscape:cx="80.111659"
     inkscape:cy="64.861978"
     inkscape:window-width="1082"
     inkscape:window-height="480"
     inkscape:window-x="0"
     inkscape:window-y="25"
     inkscape:window-maximized="0"
     inkscape:current-layer="layer1" />
  <defs
     id="defs12933">
    <clipPath
       id="clip-4">
      <path
         clip-rule="nonzero"
         d="m 286,198 h 15 v 14.34375 h -15 z m 0,0"
         id="path6772" />
    </clipPath>
    <clipPath
       id="clip-5">
      <path
         clip-rule="nonzero"
         d="m 310,198 h 14 v 14.34375 h -14 z m 0,0"
         id="path6775" />
    </clipPath>
    <clipPath
       id="clip-6">
      <path
         clip-rule="nonzero"
         d="M 240.78516,158 H 250 v 10 h -9.21484 z m 0,0"
         id="path6778" />
    </clipPath>
    <clipPath
       id="clip-7">
      <path
         clip-rule="nonzero"
         d="m 352,170 h 8.94531 v 11 H 352 Z m 0,0"
         id="path6781" />
    </clipPath>
    <clipPath
       id="clip-8">
      <path
         clip-rule="nonzero"
         d="m 329,164 h 1 v 48.34375 h -1 z m 0,0"
         id="path6784" />
    </clipPath>
    <clipPath
       id="clip-9">
      <path
         clip-rule="nonzero"
         d="m 326,206 h 7 v 6.34375 h -7 z m 0,0"
         id="path6787" />
    </clipPath>
    <clipPath
       id="clip-10">
      <path
         clip-rule="nonzero"
         d="m 276,115.05078 h 2 V 123 h -2 z m 0,0"
         id="path6790" />
    </clipPath>
  </defs>
  <g
     inkscape:label="Layer 1"
     inkscape:groupmode="layer"
     id="layer1"
     transform="translate(-61.864407,-79.741144)">
    <g
       id="g12835"
       transform="matrix(0.35277777,0,0,0.35277777,-23.079245,39.153786)">
      <g
         fill="#000000"
         fill-opacity="1"
         id="g7678">
        <g
           id="use7676"
           transform="translate(271.50629,129.60818)">
          <path
             d="M 3.109375,-1.03125 H 5.03125 c 0.046875,0 0.265625,0 0.265625,-0.21875 0,-0.203125 -0.21875,-0.203125 -0.265625,-0.203125 H 3.109375 v -1.9375 c 0,-0.046875 0,-0.265625 -0.21875,-0.265625 -0.203125,0 -0.203125,0.21875 -0.203125,0.265625 v 1.9375 H 0.75 c -0.046875,0 -0.265625,0 -0.265625,0.203125 0,0.21875 0.21875,0.21875 0.265625,0.21875 h 1.9375 v 1.921875 c 0,0.046875 0,0.265625 0.203125,0.265625 0.21875,0 0.21875,-0.21875 0.21875,-0.265625 z m 0,0"
             id="path13234" />
        </g>
      </g>
      <g
         fill="#000000"
         fill-opacity="1"
         id="g7682">
        <g
           id="use7680"
           transform="translate(276.9115,129.60818)">
          <path
             d="M 3.109375,-1.03125 H 5.03125 c 0.046875,0 0.265625,0 0.265625,-0.21875 0,-0.203125 -0.21875,-0.203125 -0.265625,-0.203125 H 3.109375 v -1.9375 c 0,-0.046875 0,-0.265625 -0.21875,-0.265625 -0.203125,0 -0.203125,0.21875 -0.203125,0.265625 v 1.9375 H 0.75 c -0.046875,0 -0.265625,0 -0.265625,0.203125 0,0.21875 0.21875,0.21875 0.265625,0.21875 h 1.9375 v 1.921875 c 0,0.046875 0,0.265625 0.203125,0.265625 0.21875,0 0.21875,-0.21875 0.21875,-0.265625 z m 0,0"
             id="path13238" />
        </g>
      </g>
      <path
         fill="none"
         stroke-width="0.5"
         stroke-linecap="butt"
         stroke-linejoin="round"
         stroke="#000000"
         stroke-opacity="1"
         stroke-miterlimit="10"
         d="m 6.531713,-4.0125e-4 c 0,3.60546825 -2.925782,6.53125025 -6.5312505,6.53125025 -3.6093745,0 -6.5312495,-2.925782 -6.5312495,-6.53125025 0,-3.60546875 2.921875,-6.53124975 6.5312495,-6.53124975 3.6054685,0 6.5312505,2.925781 6.5312505,6.53124975 z m 0,0"
         transform="matrix(1,0,0,-1,277.1011,128.36288)"
         id="path7684" />
      <g
         fill="#000000"
         fill-opacity="1"
         id="g7688">
        <g
           id="use7686"
           transform="translate(320.8338,142.90817)">
          <path
             d="m 6.390625,-1.71875 c 0.109375,0 0.375,0 0.375,-0.265625 0,-0.28125 -0.265625,-0.28125 -0.375,-0.28125 H 1.1875 c -0.109375,0 -0.375,0 -0.375,0.28125 0,0.265625 0.265625,0.265625 0.375,0.265625 z m 0,0"
             id="path13294" />
        </g>
      </g>
      <path
         fill="none"
         stroke-width="0.5"
         stroke-linecap="butt"
         stroke-linejoin="round"
         stroke="#000000"
         stroke-opacity="1"
         stroke-miterlimit="10"
         d="m 54.059056,-12.551183 c 0,3.605469 -2.921875,6.53125 -6.53125,6.53125 -3.605468,0 -6.527343,-2.925781 -6.527343,-6.53125 0,-3.609375 2.921875,-6.53125 6.527343,-6.53125 3.609375,0 6.53125,2.921875 6.53125,6.53125 z m 0,0"
         transform="matrix(1,0,0,-1,277.1011,128.36288)"
         id="path7690" />
      <path
         fill="none"
         stroke-width="0.5"
         stroke-linecap="butt"
         stroke-linejoin="round"
         stroke="#000000"
         stroke-opacity="1"
         stroke-miterlimit="10"
         d="m 34.656713,-25.10587 c 0,3.605469 -2.925782,6.53125 -6.53125,6.53125 -3.609375,0 -6.53125,-2.925781 -6.53125,-6.53125 0,-3.605469 2.921875,-6.53125 6.53125,-6.53125 3.605468,0 6.53125,2.925781 6.53125,6.53125 z m 0,0"
         transform="matrix(1,0,0,-1,277.1011,128.36288)"
         id="path7692" />
      <g
         fill="#000000"
         fill-opacity="1"
         id="g7696">
        <g
           id="use7694"
           transform="translate(254.97659,147.41377)">
          <path
             d="m 4.0625,-1.109375 c 0.75,-0.8125 1,-1.859375 1,-1.921875 0,-0.0625 -0.046875,-0.09375 -0.109375,-0.09375 -0.109375,0 -0.109375,0.03125 -0.15625,0.1875 C 4.5625,-2.125 4.09375,-1.5 4.0625,-1.5 4.046875,-1.5 4.046875,-1.703125 4.046875,-1.828125 4.03125,-3.234375 3.125,-3.515625 2.578125,-3.515625 c -1.125,0 -2.234375,1.09375 -2.234375,2.21875 0,0.78125 0.5625,1.375 1.40625,1.375 0.546875,0 1.140625,-0.203125 1.765625,-0.671875 0.1875,0.640625 0.640625,0.671875 0.78125,0.671875 0.453125,0 0.71875,-0.40625 0.71875,-0.5625 0,-0.09375 -0.09375,-0.09375 -0.109375,-0.09375 -0.09375,0 -0.109375,0.03125 -0.140625,0.078125 -0.125,0.34375 -0.390625,0.359375 -0.4375,0.359375 -0.109375,0 -0.234375,0 -0.265625,-0.96875 z m -0.59375,0.25 C 2.90625,-0.34375 2.234375,-0.140625 1.765625,-0.140625 1.359375,-0.140625 1,-0.375 1,-1.015625 1,-1.296875 1.125,-2.125 1.5,-2.65625 c 0.3125,-0.4375 0.75,-0.640625 1.078125,-0.640625 0.4375,0 0.6875,0.3125 0.78125,0.796875 0.125,0.546875 0.0625,1.1875 0.109375,1.640625 z m 0,0"
             id="path13290" />
        </g>
      </g>
      <path
         fill="none"
         stroke-width="0.5"
         stroke-linecap="butt"
         stroke-linejoin="round"
         stroke="#000000"
         stroke-opacity="1"
         stroke-miterlimit="10"
         d="m -25.937037,-10.805089 h 13.0625 v -47.820312 h -13.0625 z m 0,0"
         transform="matrix(1,0,0,-1,277.1011,128.36288)"
         id="path7698" />
      <g
         fill="#000000"
         fill-opacity="1"
         id="g7702">
        <g
           id="use7700"
           transform="translate(342.0127,161.01817)">
          <path
             d="m 2.171875,-3.46875 c -1.203125,0.328125 -1.828125,1.375 -1.828125,2.1875 0,0.890625 0.671875,1.375 1.375,1.375 0.9375,0 1.65625,-1.140625 1.65625,-2.3125 0,-0.765625 -0.359375,-1.1875 -0.640625,-1.5 -0.25,-0.3125 -0.8125,-0.953125 -0.8125,-1.3125 0,-0.1875 0.171875,-0.359375 0.421875,-0.359375 0.265625,0 0.4375,0.109375 0.65625,0.25 0.203125,0.109375 0.34375,0.171875 0.4375,0.171875 0.203125,0 0.328125,-0.1875 0.328125,-0.328125 0,-0.1875 -0.09375,-0.203125 -0.5,-0.296875 C 2.8125,-5.6875 2.578125,-5.6875 2.5625,-5.6875 c -0.34375,0 -0.90625,0.171875 -0.90625,0.84375 0,0.40625 0.21875,0.875 0.515625,1.375 z m 0.125,0.21875 C 2.578125,-2.78125 2.75,-2.375 2.75,-1.890625 c 0,0.625 -0.34375,1.765625 -1.03125,1.765625 -0.3125,0 -0.8125,-0.203125 -0.8125,-0.9375 0,-0.421875 0.234375,-1.890625 1.390625,-2.1875 z m 0,0"
             id="path13286" />
        </g>
      </g>
      <path
         fill="none"
         stroke-width="0.5"
         stroke-linecap="butt"
         stroke-linejoin="round"
         stroke="#000000"
         stroke-opacity="1"
         stroke-miterlimit="10"
         d="m 60.402806,-23.35587 h 13.0625 v -47.820313 h -13.0625 z m 0,0"
         transform="matrix(1,0,0,-1,277.1011,128.36288)"
         id="path7704" />
      <g
         fill="#000000"
         fill-opacity="1"
         id="g7708">
        <g
           id="use7706"
           transform="translate(290.87439,172.79597)">
          <path
             d="m 4.78125,-4.53125 c 0,-0.734375 -0.59375,-1.09375 -1.25,-1.09375 -1.03125,0 -1.796875,1.171875 -2.015625,2.046875 L 0.25,1.453125 C 0.234375,1.5 0.296875,1.546875 0.34375,1.546875 c 0.078125,0 0.140625,0 0.15625,-0.0625 l 0.53125,-2.125 c 0.1875,0.421875 0.5625,0.71875 1.140625,0.71875 1.09375,0 2.296875,-0.78125 2.296875,-2.046875 C 4.46875,-2.5 4.265625,-2.859375 3.875,-3.171875 3.921875,-3.1875 4.0625,-3.296875 4.109375,-3.328125 4.5,-3.59375 4.78125,-4.046875 4.78125,-4.53125 Z m -1.5625,1.359375 c -0.15625,0.015625 -0.296875,0.03125 -0.453125,0.03125 -0.078125,0 -0.171875,0 -0.25,-0.03125 0.140625,-0.046875 0.3125,-0.046875 0.453125,-0.046875 0.078125,0 0.15625,0.015625 0.25,0.046875 z M 4.28125,-4.6875 c 0,0.40625 -0.171875,0.875 -0.453125,1.15625 C 3.78125,-3.5 3.625,-3.34375 3.5625,-3.34375 3.34375,-3.375 3.171875,-3.4375 2.9375,-3.4375 c -0.203125,0 -0.703125,-0.015625 -0.703125,0.296875 0,0.234375 0.453125,0.21875 0.609375,0.21875 0.25,0 0.484375,-0.015625 0.703125,-0.109375 0.25,0.1875 0.359375,0.453125 0.359375,0.84375 0,0.46875 -0.15625,1 -0.390625,1.3125 -0.28125,0.421875 -0.78125,0.71875 -1.375,0.71875 -0.53125,0 -0.953125,-0.40625 -0.953125,-0.953125 0,-0.109375 0.015625,-0.21875 0.046875,-0.296875 L 1.75,-3.515625 c 0.171875,-0.703125 0.859375,-1.875 1.75,-1.875 0.40625,0 0.78125,0.1875 0.78125,0.703125 z m 0,0"
             id="path13282" />
        </g>
      </g>
      <path
         fill="none"
         stroke-width="0.5"
         stroke-linecap="round"
         stroke-linejoin="round"
         stroke="#000000"
         stroke-opacity="1"
         stroke-miterlimit="10"
         d="m 9.824681,-68.676183 v 32.765625 h 13.058594 v -32.765625"
         transform="matrix(1,0,0,-1,277.1011,128.36288)"
         id="path7710" />
      <g
         clip-path="url(#clip-4)"
         id="g7714">
        <path
           fill="none"
           stroke-width="0.5"
           stroke-linecap="round"
           stroke-linejoin="round"
           stroke="#000000"
           stroke-opacity="1"
           stroke-dasharray="1.5, 1.5"
           stroke-miterlimit="10"
           d="m 9.824681,-70.66837 h 13.058594 v -13.0625 H 9.824681 Z m 0,0"
           transform="matrix(1,0,0,-1,277.1011,128.36288)"
           id="path7712" />
      </g>
      <g
         fill="#000000"
         fill-opacity="1"
         id="g7718">
        <g
           id="use7716"
           transform="translate(314.5802,171.74438)">
          <path
             d="m 3.265625,-1.28125 c -0.09375,-0.984375 -0.5,-1.625 -0.5,-1.640625 -0.171875,-0.265625 -0.46875,-0.59375 -1,-0.59375 -1.03125,0 -1.625,1.15625 -1.625,1.4375 0,0.0625 0.0625,0.09375 0.125,0.09375 0.078125,0 0.09375,-0.03125 0.125,-0.09375 0.234375,-0.703125 1.03125,-0.8125 1.265625,-0.8125 1.28125,0 1.375,1.390625 1.375,2.046875 0,0.453125 -0.015625,0.515625 -0.078125,0.703125 -0.171875,0.5625 -0.40625,1.453125 -0.40625,1.671875 0,0.015625 0,0.1875 0.125,0.1875 0.09375,0 0.171875,-0.125 0.234375,-0.328125 C 3.125,0.65625 3.203125,0.125 3.25,-0.234375 c 0.03125,-0.15625 0.46875,-1.5 1.21875,-2.890625 0.09375,-0.171875 0.09375,-0.1875 0.09375,-0.21875 0,0 0,-0.09375 -0.125,-0.09375 -0.03125,0 -0.0625,0.015625 -0.09375,0.03125 C 4.3125,-3.375 3.6875,-2.203125 3.296875,-1.109375 Z m 0,0"
             id="path13246" />
        </g>
      </g>
      <path
         fill="none"
         stroke-width="0.5"
         stroke-linecap="round"
         stroke-linejoin="round"
         stroke="#000000"
         stroke-opacity="1"
         stroke-miterlimit="10"
         d="m 33.363744,-68.676183 v 32.765625 h 13.0625 v -32.765625"
         transform="matrix(1,0,0,-1,277.1011,128.36288)"
         id="path7720" />
      <g
         clip-path="url(#clip-5)"
         id="g7724">
        <path
           fill="none"
           stroke-width="0.5"
           stroke-linecap="round"
           stroke-linejoin="round"
           stroke="#000000"
           stroke-opacity="1"
           stroke-dasharray="1.5, 1.5"
           stroke-miterlimit="10"
           d="m 33.363744,-70.66837 h 13.0625 v -13.0625 h -13.0625 z m 0,0"
           transform="matrix(1,0,0,-1,277.1011,128.36288)"
           id="path7722" />
      </g>
      <path
         fill="none"
         stroke-width="0.5"
         stroke-linecap="round"
         stroke-linejoin="round"
         stroke="#000000"
         stroke-opacity="1"
         stroke-miterlimit="10"
         d="M 6.316869,-1.66837 41.2114,-10.883214"
         transform="matrix(1,0,0,-1,277.1011,128.36288)"
         id="path7726" />
      <path
         fill="none"
         stroke-width="0.5"
         stroke-linecap="round"
         stroke-linejoin="round"
         stroke="#000000"
         stroke-opacity="1"
         stroke-miterlimit="10"
         d="m 42.043431,-16.101964 -8.433593,-5.457031"
         transform="matrix(1,0,0,-1,277.1011,128.36288)"
         id="path7728" />
      <path
         fill="none"
         stroke-width="0.5"
         stroke-linecap="round"
         stroke-linejoin="round"
         stroke="#000000"
         stroke-opacity="1"
         stroke-miterlimit="10"
         d="m -5.706569,-3.176183 -13.699218,-7.628906"
         transform="matrix(1,0,0,-1,277.1011,128.36288)"
         id="path7730" />
      <path
         fill="none"
         stroke-width="0.5"
         stroke-linecap="round"
         stroke-linejoin="round"
         stroke="#000000"
         stroke-opacity="1"
         stroke-miterlimit="10"
         d="m 53.238744,-15.73087 13.695312,-7.625"
         transform="matrix(1,0,0,-1,277.1011,128.36288)"
         id="path7732" />
      <path
         fill="none"
         stroke-width="0.5"
         stroke-linecap="round"
         stroke-linejoin="round"
         stroke="#000000"
         stroke-opacity="1"
         stroke-miterlimit="10"
         d="m 23.312963,-29.519933 -6.960938,-6.390625"
         transform="matrix(1,0,0,-1,277.1011,128.36288)"
         id="path7734" />
      <path
         fill="none"
         stroke-width="0.5"
         stroke-linecap="round"
         stroke-linejoin="round"
         stroke="#000000"
         stroke-opacity="1"
         stroke-miterlimit="10"
         d="m 32.937963,-29.519933 6.957031,-6.390625"
         transform="matrix(1,0,0,-1,277.1011,128.36288)"
         id="path7736" />
      <g
         fill="#000000"
         fill-opacity="1"
         id="g7740">
        <g
           id="use7738"
           transform="translate(334.1618,143.63869)">
          <path
             d="m 1.34375,-0.625 c -0.0625,0.296875 -0.078125,0.359375 -0.671875,0.359375 -0.15625,0 -0.25,0 -0.25,0.15625 C 0.421875,0 0.53125,0 0.65625,0 H 3.625 C 4.9375,0 5.90625,-0.9375 5.90625,-1.703125 5.90625,-2.28125 5.40625,-2.75 4.609375,-2.84375 5.53125,-3.015625 6.328125,-3.625 6.328125,-4.328125 6.328125,-4.921875 5.75,-5.4375 4.75,-5.4375 H 1.96875 c -0.140625,0 -0.25,0 -0.25,0.140625 0,0.125 0.09375,0.125 0.234375,0.125 0.265625,0 0.5,0 0.5,0.125 0,0.03125 -0.015625,0.03125 -0.03125,0.140625 z m 1.25,-2.3125 0.484375,-1.953125 c 0.0625,-0.265625 0.078125,-0.28125 0.40625,-0.28125 H 4.625 c 0.78125,0 0.96875,0.5 0.96875,0.828125 0,0.671875 -0.734375,1.40625 -1.75,1.40625 z M 2.046875,-0.265625 C 1.96875,-0.28125 1.9375,-0.28125 1.9375,-0.328125 c 0,-0.0625 0.015625,-0.140625 0.03125,-0.1875 l 0.5625,-2.203125 h 1.625 c 0.734375,0 0.984375,0.5 0.984375,0.953125 0,0.78125 -0.765625,1.5 -1.71875,1.5 z m 0,0"
             id="path13242" />
        </g>
      </g>
      <g
         fill="#000000"
         fill-opacity="1"
         id="g7744">
        <g
           id="use7742"
           transform="translate(314.75671,156.19148)">
          <path
             d="M 4.15625,-3.046875 C 4.546875,-3.4375 5.671875,-4.59375 5.859375,-4.75 6.203125,-5 6.40625,-5.140625 6.96875,-5.171875 c 0.046875,-0.015625 0.109375,-0.0625 0.109375,-0.15625 0,-0.078125 -0.0625,-0.109375 -0.109375,-0.109375 -0.078125,0 -0.125,0.015625 -0.75,0.015625 -0.59375,0 -0.8125,-0.015625 -0.84375,-0.015625 -0.03125,0 -0.15625,0 -0.15625,0.140625 0,0.015625 0,0.109375 0.109375,0.125 0.0625,0 0.28125,0.015625 0.28125,0.203125 0,0.046875 -0.046875,0.140625 -0.109375,0.203125 L 5.484375,-4.71875 C 5.453125,-4.703125 5.453125,-4.6875 5.375,-4.609375 l -1.328125,1.34375 -0.8125,-1.6875 c 0.109375,-0.1875 0.34375,-0.21875 0.453125,-0.21875 0.03125,0 0.140625,-0.015625 0.140625,-0.15625 0,-0.0625 -0.046875,-0.109375 -0.125,-0.109375 -0.078125,0 -0.375,0.015625 -0.453125,0.015625 -0.046875,0 -0.34375,0 -0.515625,0 -0.75,0 -0.84375,-0.015625 -0.90625,-0.015625 -0.03125,0 -0.15625,0 -0.15625,0.140625 0,0.125 0.09375,0.125 0.21875,0.125 0.40625,0 0.46875,0.078125 0.546875,0.21875 L 3.5,-2.71875 1.859375,-1.046875 c -0.46875,0.46875 -0.84375,0.75 -1.40625,0.78125 C 0.34375,-0.25 0.25,-0.25 0.25,-0.109375 0.25,-0.0625 0.296875,0 0.375,0 0.4375,0 0.515625,-0.03125 1.125,-0.03125 1.703125,-0.03125 1.9375,0 1.96875,0 c 0.046875,0 0.171875,0 0.171875,-0.15625 0,-0.015625 -0.015625,-0.09375 -0.125,-0.109375 -0.15625,0 -0.265625,-0.0625 -0.265625,-0.203125 0,-0.125 0.09375,-0.234375 0.203125,-0.359375 0.140625,-0.140625 0.5625,-0.5625 0.84375,-0.84375 0.1875,-0.171875 0.625,-0.640625 0.8125,-0.8125 l 0.921875,1.90625 C 4.5625,-0.5 4.5625,-0.5 4.5625,-0.484375 c 0,0.0625 -0.15625,0.203125 -0.421875,0.21875 -0.0625,0 -0.171875,0.015625 -0.171875,0.15625 0,0 0.015625,0.109375 0.140625,0.109375 0.078125,0 0.375,-0.015625 0.453125,-0.03125 H 5.078125 C 5.8125,-0.03125 5.921875,0 6,0 c 0.03125,0 0.140625,0 0.140625,-0.15625 0,-0.109375 -0.09375,-0.109375 -0.21875,-0.109375 -0.4375,0 -0.484375,-0.09375 -0.53125,-0.21875 z m 0,0"
             id="path13250" />
        </g>
      </g>
      <g
         fill="#000000"
         fill-opacity="1"
         id="g7748">
        <g
           id="use7746"
           transform="translate(261.22711,131.08598)">
          <path
             d="M 1.46875,-0.953125 C 1.109375,-0.359375 0.78125,-0.28125 0.5,-0.265625 0.421875,-0.25 0.3125,-0.25 0.3125,-0.109375 0.3125,-0.09375 0.328125,0 0.4375,0 0.5,0 0.546875,-0.03125 1.109375,-0.03125 1.65625,-0.03125 1.828125,0 1.875,0 c 0.03125,0 0.15625,0 0.15625,-0.15625 0,-0.09375 -0.109375,-0.109375 -0.140625,-0.109375 -0.171875,0 -0.34375,-0.0625 -0.34375,-0.25 0,-0.109375 0.078125,-0.21875 0.21875,-0.453125 L 2.3125,-1.84375 H 4.5 L 4.65625,-0.5 c 0,0.125 -0.140625,0.234375 -0.515625,0.234375 -0.109375,0 -0.21875,0 -0.21875,0.15625 0,0 0,0.109375 0.140625,0.109375 0.078125,0 0.375,-0.015625 0.453125,-0.03125 h 0.5 C 5.734375,-0.03125 5.859375,0 5.921875,0 5.953125,0 6.09375,0 6.09375,-0.15625 c 0,-0.109375 -0.109375,-0.109375 -0.234375,-0.109375 -0.4375,0 -0.453125,-0.0625 -0.46875,-0.265625 L 4.75,-5.453125 C 4.734375,-5.640625 4.71875,-5.6875 4.59375,-5.6875 c -0.140625,0 -0.1875,0.078125 -0.25,0.15625 z M 2.484375,-2.109375 4.125,-4.71875 4.46875,-2.109375 Z m 0,0"
             id="path13258" />
        </g>
      </g>
      <path
         fill="none"
         stroke-width="0.29887"
         stroke-linecap="round"
         stroke-linejoin="round"
         stroke="#000000"
         stroke-opacity="1"
         stroke-miterlimit="10"
         d="M -31.9136,-10.805089 V -58.625401"
         transform="matrix(1,0,0,-1,277.1011,128.36288)"
         id="path7750" />
      <path
         fill="none"
         stroke-width="0.29887"
         stroke-linecap="round"
         stroke-linejoin="round"
         stroke="#000000"
         stroke-opacity="1"
         stroke-miterlimit="10"
         d="m -35.136256,-53.562901 c 1.621094,-1.269532 2.757812,-3.054688 3.222656,-5.0625 0.464844,2.007812 1.601563,3.792968 3.222656,5.0625"
         transform="matrix(1,0,0,-1,277.1011,128.36288)"
         id="path7752" />
      <path
         fill="none"
         stroke-width="0.29887"
         stroke-linecap="round"
         stroke-linejoin="round"
         stroke="#000000"
         stroke-opacity="1"
         stroke-miterlimit="10"
         d="m -28.690944,-15.863683 c -1.621093,1.265625 -2.757812,3.054688 -3.222656,5.058594 -0.464844,-2.003906 -1.601562,-3.792969 -3.222656,-5.058594"
         transform="matrix(1,0,0,-1,277.1011,128.36288)"
         id="path7754" />
      <g
         clip-path="url(#clip-6)"
         id="g7758">
        <path
           fill-rule="nonzero"
           fill="#ffffff"
           fill-opacity="1"
           d="m 240.78516,167.84375 h 8.88281 v -9.53516 h -8.88281 z m 0,0"
           id="path7756" />
      </g>
      <g
         fill="#000000"
         fill-opacity="1"
         id="g7762">
        <g
           id="use7760"
           transform="translate(242.787,165.84457)">
          <path
             d="m 2.328125,-5.296875 c 0,-0.015625 0.03125,-0.109375 0.03125,-0.125 0,-0.03125 -0.03125,-0.109375 -0.125,-0.109375 -0.03125,0 -0.28125,0.03125 -0.46875,0.046875 l -0.4375,0.03125 C 1.140625,-5.4375 1.0625,-5.4375 1.0625,-5.296875 c 0,0.125 0.109375,0.125 0.21875,0.125 0.375,0 0.375,0.046875 0.375,0.109375 0,0.03125 0,0.046875 -0.03125,0.1875 l -1.140625,4.53125 c -0.03125,0.125 -0.03125,0.171875 -0.03125,0.171875 0,0.140625 0.109375,0.25 0.265625,0.25 0.125,0 0.234375,-0.078125 0.296875,-0.1875 0.03125,-0.046875 0.09375,-0.296875 0.125,-0.453125 l 0.1875,-0.71875 c 0.03125,-0.109375 0.109375,-0.421875 0.125,-0.53125 0.125,-0.46875 0.125,-0.484375 0.296875,-0.734375 0.28125,-0.390625 0.65625,-0.75 1.1875,-0.75 0.28125,0 0.453125,0.171875 0.453125,0.546875 0,0.4375 -0.34375,1.34375 -0.484375,1.734375 -0.109375,0.265625 -0.109375,0.3125 -0.109375,0.421875 0,0.453125 0.375,0.671875 0.71875,0.671875 0.78125,0 1.109375,-1.109375 1.109375,-1.21875 C 4.625,-1.21875 4.5625,-1.25 4.5,-1.25 c -0.09375,0 -0.109375,0.0625 -0.140625,0.140625 -0.1875,0.65625 -0.515625,0.96875 -0.828125,0.96875 -0.125,0 -0.1875,-0.078125 -0.1875,-0.265625 0,-0.1875 0.0625,-0.359375 0.140625,-0.5625 0.125,-0.296875 0.46875,-1.21875 0.46875,-1.65625 0,-0.609375 -0.40625,-0.890625 -0.984375,-0.890625 -0.4375,0 -0.859375,0.1875 -1.234375,0.609375 z m 0,0"
             id="path13262" />
        </g>
      </g>
      <path
         fill="none"
         stroke-width="0.29887"
         stroke-linecap="round"
         stroke-linejoin="round"
         stroke="#000000"
         stroke-opacity="1"
         stroke-miterlimit="10"
         d="M 79.441869,-23.35587 V -71.176183"
         transform="matrix(1,0,0,-1,277.1011,128.36288)"
         id="path7764" />
      <path
         fill="none"
         stroke-width="0.29887"
         stroke-linecap="round"
         stroke-linejoin="round"
         stroke="#000000"
         stroke-opacity="1"
         stroke-miterlimit="10"
         d="m 76.219213,-66.117589 c 1.621093,-1.265625 2.761718,-3.054687 3.222656,-5.058594 0.464844,2.003907 1.601562,3.792969 3.226562,5.058594"
         transform="matrix(1,0,0,-1,277.1011,128.36288)"
         id="path7766" />
      <path
         fill="none"
         stroke-width="0.29887"
         stroke-linecap="round"
         stroke-linejoin="round"
         stroke="#000000"
         stroke-opacity="1"
         stroke-miterlimit="10"
         d="m 82.668431,-28.41837 c -1.625,1.269531 -2.761718,3.054687 -3.226562,5.0625 -0.460938,-2.007813 -1.601563,-3.792969 -3.222656,-5.0625"
         transform="matrix(1,0,0,-1,277.1011,128.36288)"
         id="path7768" />
      <g
         clip-path="url(#clip-7)"
         id="g7772">
        <path
           fill-rule="nonzero"
           fill="#ffffff"
           fill-opacity="1"
           d="m 352.06641,180.39844 h 8.8789 v -9.53516 h -8.8789 z m 0,0"
           id="path7770" />
      </g>
      <g
         fill="#000000"
         fill-opacity="1"
         id="g7776">
        <g
           id="use7774"
           transform="translate(354.06491,178.39738)">
          <path
             d="m 2.328125,-5.296875 c 0,-0.015625 0.03125,-0.109375 0.03125,-0.125 0,-0.03125 -0.03125,-0.109375 -0.125,-0.109375 -0.03125,0 -0.28125,0.03125 -0.46875,0.046875 l -0.4375,0.03125 C 1.140625,-5.4375 1.0625,-5.4375 1.0625,-5.296875 c 0,0.125 0.109375,0.125 0.21875,0.125 0.375,0 0.375,0.046875 0.375,0.109375 0,0.03125 0,0.046875 -0.03125,0.1875 l -1.140625,4.53125 c -0.03125,0.125 -0.03125,0.171875 -0.03125,0.171875 0,0.140625 0.109375,0.25 0.265625,0.25 0.125,0 0.234375,-0.078125 0.296875,-0.1875 0.03125,-0.046875 0.09375,-0.296875 0.125,-0.453125 l 0.1875,-0.71875 c 0.03125,-0.109375 0.109375,-0.421875 0.125,-0.53125 0.125,-0.46875 0.125,-0.484375 0.296875,-0.734375 0.28125,-0.390625 0.65625,-0.75 1.1875,-0.75 0.28125,0 0.453125,0.171875 0.453125,0.546875 0,0.4375 -0.34375,1.34375 -0.484375,1.734375 -0.109375,0.265625 -0.109375,0.3125 -0.109375,0.421875 0,0.453125 0.375,0.671875 0.71875,0.671875 0.78125,0 1.109375,-1.109375 1.109375,-1.21875 C 4.625,-1.21875 4.5625,-1.25 4.5,-1.25 c -0.09375,0 -0.109375,0.0625 -0.140625,0.140625 -0.1875,0.65625 -0.515625,0.96875 -0.828125,0.96875 -0.125,0 -0.1875,-0.078125 -0.1875,-0.265625 0,-0.1875 0.0625,-0.359375 0.140625,-0.5625 0.125,-0.296875 0.46875,-1.21875 0.46875,-1.65625 0,-0.609375 -0.40625,-0.890625 -0.984375,-0.890625 -0.4375,0 -0.859375,0.1875 -1.234375,0.609375 z m 0,0"
             id="path13266" />
        </g>
      </g>
      <g
         clip-path="url(#clip-8)"
         id="g7780">
        <path
           fill="none"
           stroke-width="0.29887"
           stroke-linecap="round"
           stroke-linejoin="round"
           stroke="#000000"
           stroke-opacity="1"
           stroke-miterlimit="10"
           d="M 52.402806,-35.910558 V -83.73087"
           transform="matrix(1,0,0,-1,277.1011,128.36288)"
           id="path7778" />
      </g>
      <g
         clip-path="url(#clip-9)"
         id="g7784">
        <path
           fill="none"
           stroke-width="0.29887"
           stroke-linecap="round"
           stroke-linejoin="round"
           stroke="#000000"
           stroke-opacity="1"
           stroke-miterlimit="10"
           d="m 49.18015,-78.66837 c 1.621094,-1.269531 2.761719,-3.054688 3.222656,-5.0625 0.464844,2.007812 1.601563,3.792969 3.226563,5.0625"
           transform="matrix(1,0,0,-1,277.1011,128.36288)"
           id="path7782" />
      </g>
      <path
         fill="none"
         stroke-width="0.29887"
         stroke-linecap="round"
         stroke-linejoin="round"
         stroke="#000000"
         stroke-opacity="1"
         stroke-miterlimit="10"
         d="m 55.629369,-40.969151 c -1.625,1.265625 -2.761719,3.054687 -3.226563,5.058593 -0.460937,-2.003906 -1.601562,-3.792968 -3.222656,-5.058593"
         transform="matrix(1,0,0,-1,277.1011,128.36288)"
         id="path7786" />
      <path
         fill-rule="nonzero"
         fill="#ffffff"
         fill-opacity="1"
         d="m 325.02734,192.94922 h 8.87891 v -9.53516 h -8.87891 z m 0,0"
         id="path7788" />
      <g
         fill="#000000"
         fill-opacity="1"
         id="g7792">
        <g
           id="use7790"
           transform="translate(327.02551,190.95007)">
          <path
             d="m 2.328125,-5.296875 c 0,-0.015625 0.03125,-0.109375 0.03125,-0.125 0,-0.03125 -0.03125,-0.109375 -0.125,-0.109375 -0.03125,0 -0.28125,0.03125 -0.46875,0.046875 l -0.4375,0.03125 C 1.140625,-5.4375 1.0625,-5.4375 1.0625,-5.296875 c 0,0.125 0.109375,0.125 0.21875,0.125 0.375,0 0.375,0.046875 0.375,0.109375 0,0.03125 0,0.046875 -0.03125,0.1875 l -1.140625,4.53125 c -0.03125,0.125 -0.03125,0.171875 -0.03125,0.171875 0,0.140625 0.109375,0.25 0.265625,0.25 0.125,0 0.234375,-0.078125 0.296875,-0.1875 0.03125,-0.046875 0.09375,-0.296875 0.125,-0.453125 l 0.1875,-0.71875 c 0.03125,-0.109375 0.109375,-0.421875 0.125,-0.53125 0.125,-0.46875 0.125,-0.484375 0.296875,-0.734375 0.28125,-0.390625 0.65625,-0.75 1.1875,-0.75 0.28125,0 0.453125,0.171875 0.453125,0.546875 0,0.4375 -0.34375,1.34375 -0.484375,1.734375 -0.109375,0.265625 -0.109375,0.3125 -0.109375,0.421875 0,0.453125 0.375,0.671875 0.71875,0.671875 0.78125,0 1.109375,-1.109375 1.109375,-1.21875 C 4.625,-1.21875 4.5625,-1.25 4.5,-1.25 c -0.09375,0 -0.109375,0.0625 -0.140625,0.140625 -0.1875,0.65625 -0.515625,0.96875 -0.828125,0.96875 -0.125,0 -0.1875,-0.078125 -0.1875,-0.265625 0,-0.1875 0.0625,-0.359375 0.140625,-0.5625 0.125,-0.296875 0.46875,-1.21875 0.46875,-1.65625 0,-0.609375 -0.40625,-0.890625 -0.984375,-0.890625 -0.4375,0 -0.859375,0.1875 -1.234375,0.609375 z m 0,0"
             id="path13270" />
        </g>
      </g>
      <path
         fill="none"
         stroke-width="0.29887"
         stroke-linecap="round"
         stroke-linejoin="round"
         stroke="#000000"
         stroke-opacity="1"
         stroke-miterlimit="10"
         d="M 3.844213,-35.910558 V -70.66837"
         transform="matrix(1,0,0,-1,277.1011,128.36288)"
         id="path7794" />
      <path
         fill="none"
         stroke-width="0.29887"
         stroke-linecap="round"
         stroke-linejoin="round"
         stroke="#000000"
         stroke-opacity="1"
         stroke-miterlimit="10"
         d="m 0.621556,-65.60587 c 1.621094,-1.269531 2.761719,-3.054688 3.222657,-5.0625 0.464843,2.007812 1.601562,3.792969 3.226562,5.0625"
         transform="matrix(1,0,0,-1,277.1011,128.36288)"
         id="path7796" />
      <path
         fill="none"
         stroke-width="0.29887"
         stroke-linecap="round"
         stroke-linejoin="round"
         stroke="#000000"
         stroke-opacity="1"
         stroke-miterlimit="10"
         d="m 7.070775,-40.969151 c -1.625,1.265625 -2.761719,3.054687 -3.226562,5.058593 -0.460938,-2.003906 -1.601563,-3.792968 -3.222657,-5.058593"
         transform="matrix(1,0,0,-1,277.1011,128.36288)"
         id="path7798" />
      <path
         fill-rule="nonzero"
         fill="#ffffff"
         fill-opacity="1"
         d="m 265.72656,186.83594 h 19.69922 v -10.36719 h -19.69922 z m 0,0"
         id="path7800" />
      <g
         fill="#000000"
         fill-opacity="1"
         id="g7804">
        <g
           id="use7802"
           transform="translate(267.72519,184.00398)">
          <path
             d="m 2.328125,-5.296875 c 0,-0.015625 0.03125,-0.109375 0.03125,-0.125 0,-0.03125 -0.03125,-0.109375 -0.125,-0.109375 -0.03125,0 -0.28125,0.03125 -0.46875,0.046875 l -0.4375,0.03125 C 1.140625,-5.4375 1.0625,-5.4375 1.0625,-5.296875 c 0,0.125 0.109375,0.125 0.21875,0.125 0.375,0 0.375,0.046875 0.375,0.109375 0,0.03125 0,0.046875 -0.03125,0.1875 l -1.140625,4.53125 c -0.03125,0.125 -0.03125,0.171875 -0.03125,0.171875 0,0.140625 0.109375,0.25 0.265625,0.25 0.125,0 0.234375,-0.078125 0.296875,-0.1875 0.03125,-0.046875 0.09375,-0.296875 0.125,-0.453125 l 0.1875,-0.71875 c 0.03125,-0.109375 0.109375,-0.421875 0.125,-0.53125 0.125,-0.46875 0.125,-0.484375 0.296875,-0.734375 0.28125,-0.390625 0.65625,-0.75 1.1875,-0.75 0.28125,0 0.453125,0.171875 0.453125,0.546875 0,0.4375 -0.34375,1.34375 -0.484375,1.734375 -0.109375,0.265625 -0.109375,0.3125 -0.109375,0.421875 0,0.453125 0.375,0.671875 0.71875,0.671875 0.78125,0 1.109375,-1.109375 1.109375,-1.21875 C 4.625,-1.21875 4.5625,-1.25 4.5,-1.25 c -0.09375,0 -0.109375,0.0625 -0.140625,0.140625 -0.1875,0.65625 -0.515625,0.96875 -0.828125,0.96875 -0.125,0 -0.1875,-0.078125 -0.1875,-0.265625 0,-0.1875 0.0625,-0.359375 0.140625,-0.5625 0.125,-0.296875 0.46875,-1.21875 0.46875,-1.65625 0,-0.609375 -0.40625,-0.890625 -0.984375,-0.890625 -0.4375,0 -0.859375,0.1875 -1.234375,0.609375 z m 0,0"
             id="path13274" />
        </g>
      </g>
      <g
         fill="#000000"
         fill-opacity="1"
         id="g7808">
        <g
           id="use7806"
           transform="translate(272.60519,184.00398)">
          <path
             d="m 5.5625,-1.8125 c 0.140625,0 0.3125,0 0.3125,-0.171875 0,-0.1875 -0.171875,-0.1875 -0.3125,-0.1875 H 1 c -0.125,0 -0.296875,0 -0.296875,0.1875 C 0.703125,-1.8125 0.875,-1.8125 1,-1.8125 Z m 0,0"
             id="path13254" />
        </g>
      </g>
      <g
         fill="#000000"
         fill-opacity="1"
         id="g7812">
        <g
           id="use7810"
           transform="translate(279.19159,184.00398)">
          <path
             d="m 2.5,-5.078125 c 0,-0.21875 -0.015625,-0.21875 -0.234375,-0.21875 -0.328125,0.3125 -0.75,0.5 -1.5,0.5 v 0.265625 c 0.21875,0 0.640625,0 1.109375,-0.203125 v 4.078125 c 0,0.296875 -0.03125,0.390625 -0.78125,0.390625 H 0.8125 V 0 c 0.328125,-0.03125 1.015625,-0.03125 1.375,-0.03125 0.359375,0 1.046875,0 1.375,0.03125 V -0.265625 H 3.28125 c -0.75,0 -0.78125,-0.09375 -0.78125,-0.390625 z m 0,0"
             id="path13278" />
        </g>
      </g>
      <g
         clip-path="url(#clip-10)"
         id="g7816">
        <path
           fill="none"
           stroke-width="0.5"
           stroke-linecap="round"
           stroke-linejoin="round"
           stroke="#000000"
           stroke-opacity="1"
           stroke-miterlimit="10"
           d="m 4.625e-4,6.530849 v 6.53125"
           transform="matrix(1,0,0,-1,277.1011,128.36288)"
           id="path7814" />
      </g>
    </g>
  </g>
</svg>
