<?xml version="1.0" encoding="UTF-8" standalone="no"?>
<!-- Created with Inkscape (http://www.inkscape.org/) -->

<svg
   width="33.591057mm"
   height="34.111954mm"
   viewBox="0 0 33.591057 34.111954"
   version="1.1"
   id="svg11790"
   inkscape:version="1.2.2 (b0a84865, 2022-12-01)"
   sodipodi:docname="AVL_case1_imbalanced.svg"
   xmlns:inkscape="http://www.inkscape.org/namespaces/inkscape"
   xmlns:sodipodi="http://sodipodi.sourceforge.net/DTD/sodipodi-0.dtd"
   xmlns="http://www.w3.org/2000/svg"
   xmlns:svg="http://www.w3.org/2000/svg">
  <sodipodi:namedview
     id="namedview11792"
     pagecolor="#ffffff"
     bordercolor="#666666"
     borderopacity="1.0"
     inkscape:showpageshadow="2"
     inkscape:pageopacity="0.0"
     inkscape:pagecheckerboard="0"
     inkscape:deskcolor="#d1d1d1"
     inkscape:document-units="mm"
     showgrid="false"
     inkscape:zoom="2.4742669"
     inkscape:cx="65.676018"
     inkscape:cy="65.271858"
     inkscape:window-width="1425"
     inkscape:window-height="890"
     inkscape:window-x="1753"
     inkscape:window-y="714"
     inkscape:window-maximized="0"
     inkscape:current-layer="layer1" />
  <defs
     id="defs11787">
    <clipPath
       id="clip-0">
      <path
         clip-rule="nonzero"
         d="m 147,151 h 15 v 61.04297 h -15 z m 0,0"
         id="path6760" />
    </clipPath>
    <clipPath
       id="clip-1">
      <path
         clip-rule="nonzero"
         d="M 86.84375,158 H 96 v 11 h -9.15625 z m 0,0"
         id="path6763" />
    </clipPath>
    <clipPath
       id="clip-2">
      <path
         clip-rule="nonzero"
         d="m 162,176 h 20.0625 v 12 H 162 Z m 0,0"
         id="path6766" />
    </clipPath>
    <clipPath
       id="clip-3">
      <path
         clip-rule="nonzero"
         d="m 122,115.34766 h 2 V 123 h -2 z m 0,0"
         id="path6769" />
    </clipPath>
  </defs>
  <g
     inkscape:label="Layer 1"
     inkscape:groupmode="layer"
     id="layer1"
     transform="translate(-62.488369,-116.34233)">
    <g
       id="g11715"
       transform="matrix(0.35277777,0,0,0.35277777,31.851825,75.650237)">
      <g
         fill="#000000"
         fill-opacity="1"
         id="g7562">
        <g
           id="use7560"
           transform="translate(117.5623,129.9068)">
          <path
             d="M 3.109375,-1.03125 H 5.03125 c 0.046875,0 0.265625,0 0.265625,-0.21875 0,-0.203125 -0.21875,-0.203125 -0.265625,-0.203125 H 3.109375 v -1.9375 c 0,-0.046875 0,-0.265625 -0.21875,-0.265625 -0.203125,0 -0.203125,0.21875 -0.203125,0.265625 v 1.9375 H 0.75 c -0.046875,0 -0.265625,0 -0.265625,0.203125 0,0.21875 0.21875,0.21875 0.265625,0.21875 h 1.9375 v 1.921875 c 0,0.046875 0,0.265625 0.203125,0.265625 0.21875,0 0.21875,-0.21875 0.21875,-0.265625 z m 0,0"
             id="path12018" />
        </g>
      </g>
      <g
         fill="#000000"
         fill-opacity="1"
         id="g7566">
        <g
           id="use7564"
           transform="translate(122.96751,129.9068)">
          <path
             d="M 3.109375,-1.03125 H 5.03125 c 0.046875,0 0.265625,0 0.265625,-0.21875 0,-0.203125 -0.21875,-0.203125 -0.265625,-0.203125 H 3.109375 v -1.9375 c 0,-0.046875 0,-0.265625 -0.21875,-0.265625 -0.203125,0 -0.203125,0.21875 -0.203125,0.265625 v 1.9375 H 0.75 c -0.046875,0 -0.265625,0 -0.265625,0.203125 0,0.21875 0.21875,0.21875 0.265625,0.21875 h 1.9375 v 1.921875 c 0,0.046875 0,0.265625 0.203125,0.265625 0.21875,0 0.21875,-0.21875 0.21875,-0.265625 z m 0,0"
             id="path12022" />
        </g>
      </g>
      <path
         fill="none"
         stroke-width="0.5"
         stroke-linecap="butt"
         stroke-linejoin="round"
         stroke="#000000"
         stroke-opacity="1"
         stroke-miterlimit="10"
         d="M 6.5304,0.00134375 C 6.5304,3.606812 3.608525,6.532594 -8.5e-4,6.532594 c -3.605469,0 -6.53125,-2.925782 -6.53125,-6.53125025 0,-3.60937475 2.925781,-6.53124975 6.53125,-6.53124975 3.609375,0 6.53125,2.921875 6.53125,6.53124975 z m 0,0"
         transform="matrix(1,0,0,-1,123.1571,128.6615)"
         id="path7568" />
      <g
         fill="#000000"
         fill-opacity="1"
         id="g7572">
        <g
           id="use7570"
           transform="translate(138.7652,143.2067)">
          <path
             d="m 4.0625,-1.71875 h 2.609375 c 0.109375,0 0.375,0 0.375,-0.265625 0,-0.28125 -0.28125,-0.28125 -0.375,-0.28125 H 4.0625 V -4.875 c 0,-0.109375 0,-0.375 -0.265625,-0.375 -0.28125,0 -0.28125,0.28125 -0.28125,0.375 v 2.609375 H 0.90625 c -0.09375,0 -0.359375,0 -0.359375,0.28125 0,0.265625 0.265625,0.265625 0.359375,0.265625 h 2.609375 v 2.609375 c 0,0.109375 0,0.375 0.28125,0.375 0.265625,0 0.265625,-0.28125 0.265625,-0.375 z m 0,0"
             id="path12014" />
        </g>
      </g>
      <path
         fill="none"
         stroke-width="0.5"
         stroke-linecap="butt"
         stroke-linejoin="round"
         stroke="#000000"
         stroke-opacity="1"
         stroke-miterlimit="10"
         d="m 25.93665,-12.553344 c 0,3.609375 -2.925781,6.53125 -6.53125,6.53125 -3.605469,0 -6.53125,-2.921875 -6.53125,-6.53125 0,-3.605469 2.925781,-6.53125 6.53125,-6.53125 3.605469,0 6.53125,2.925781 6.53125,6.53125 z m 0,0"
         transform="matrix(1,0,0,-1,123.1571,128.6615)"
         id="path7574" />
      <g
         fill="#000000"
         fill-opacity="1"
         id="g7578">
        <g
           id="use7576"
           transform="translate(101.0326,147.7124)">
          <path
             d="m 4.0625,-1.109375 c 0.75,-0.8125 1,-1.859375 1,-1.921875 0,-0.0625 -0.046875,-0.09375 -0.109375,-0.09375 -0.109375,0 -0.109375,0.03125 -0.15625,0.1875 C 4.5625,-2.125 4.09375,-1.5 4.0625,-1.5 4.046875,-1.5 4.046875,-1.703125 4.046875,-1.828125 4.03125,-3.234375 3.125,-3.515625 2.578125,-3.515625 c -1.125,0 -2.234375,1.09375 -2.234375,2.21875 0,0.78125 0.5625,1.375 1.40625,1.375 0.546875,0 1.140625,-0.203125 1.765625,-0.671875 0.1875,0.640625 0.640625,0.671875 0.78125,0.671875 0.453125,0 0.71875,-0.40625 0.71875,-0.5625 0,-0.09375 -0.09375,-0.09375 -0.109375,-0.09375 -0.09375,0 -0.109375,0.03125 -0.140625,0.078125 -0.125,0.34375 -0.390625,0.359375 -0.4375,0.359375 -0.109375,0 -0.234375,0 -0.265625,-0.96875 z m -0.59375,0.25 C 2.90625,-0.34375 2.234375,-0.140625 1.765625,-0.140625 1.359375,-0.140625 1,-0.375 1,-1.015625 1,-1.296875 1.125,-2.125 1.5,-2.65625 c 0.3125,-0.4375 0.75,-0.640625 1.078125,-0.640625 0.4375,0 0.6875,0.3125 0.78125,0.796875 0.125,0.546875 0.0625,1.1875 0.109375,1.640625 z m 0,0"
             id="path12010" />
        </g>
      </g>
      <path
         fill="none"
         stroke-width="0.5"
         stroke-linecap="butt"
         stroke-linejoin="round"
         stroke="#000000"
         stroke-opacity="1"
         stroke-miterlimit="10"
         d="m -25.934444,-10.803344 h 13.058594 v -47.820312 h -13.058594 z m 0,0"
         transform="matrix(1,0,0,-1,123.1571,128.6615)"
         id="path7580" />
      <g
         fill="#000000"
         fill-opacity="1"
         id="g7584">
        <g
           id="use7582"
           transform="translate(128.21091,160.5419)">
          <path
             d="m 4.78125,-4.53125 c 0,-0.734375 -0.59375,-1.09375 -1.25,-1.09375 -1.03125,0 -1.796875,1.171875 -2.015625,2.046875 L 0.25,1.453125 C 0.234375,1.5 0.296875,1.546875 0.34375,1.546875 c 0.078125,0 0.140625,0 0.15625,-0.0625 l 0.53125,-2.125 c 0.1875,0.421875 0.5625,0.71875 1.140625,0.71875 1.09375,0 2.296875,-0.78125 2.296875,-2.046875 C 4.46875,-2.5 4.265625,-2.859375 3.875,-3.171875 3.921875,-3.1875 4.0625,-3.296875 4.109375,-3.328125 4.5,-3.59375 4.78125,-4.046875 4.78125,-4.53125 Z m -1.5625,1.359375 c -0.15625,0.015625 -0.296875,0.03125 -0.453125,0.03125 -0.078125,0 -0.171875,0 -0.25,-0.03125 0.140625,-0.046875 0.3125,-0.046875 0.453125,-0.046875 0.078125,0 0.15625,0.015625 0.25,0.046875 z M 4.28125,-4.6875 c 0,0.40625 -0.171875,0.875 -0.453125,1.15625 C 3.78125,-3.5 3.625,-3.34375 3.5625,-3.34375 3.34375,-3.375 3.171875,-3.4375 2.9375,-3.4375 c -0.203125,0 -0.703125,-0.015625 -0.703125,0.296875 0,0.234375 0.453125,0.21875 0.609375,0.21875 0.25,0 0.484375,-0.015625 0.703125,-0.109375 0.25,0.1875 0.359375,0.453125 0.359375,0.84375 0,0.46875 -0.15625,1 -0.390625,1.3125 -0.28125,0.421875 -0.78125,0.71875 -1.375,0.71875 -0.53125,0 -0.953125,-0.40625 -0.953125,-0.953125 0,-0.109375 0.015625,-0.21875 0.046875,-0.296875 L 1.75,-3.515625 c 0.171875,-0.703125 0.859375,-1.875 1.75,-1.875 0.40625,0 0.78125,0.1875 0.78125,0.703125 z m 0,0"
             id="path12006" />
        </g>
      </g>
      <path
         fill="none"
         stroke-width="0.5"
         stroke-linecap="butt"
         stroke-linejoin="round"
         stroke="#000000"
         stroke-opacity="1"
         stroke-miterlimit="10"
         d="m 1.104619,-23.358031 h 13.0625 v -47.820313 h -13.0625 z m 0,0"
         transform="matrix(1,0,0,-1,123.1571,128.6615)"
         id="path7586" />
      <g
         fill="#000000"
         fill-opacity="1"
         id="g7590">
        <g
           id="use7588"
           transform="translate(151.9167,159.4903)">
          <path
             d="m 3.265625,-1.28125 c -0.09375,-0.984375 -0.5,-1.625 -0.5,-1.640625 -0.171875,-0.265625 -0.46875,-0.59375 -1,-0.59375 -1.03125,0 -1.625,1.15625 -1.625,1.4375 0,0.0625 0.0625,0.09375 0.125,0.09375 0.078125,0 0.09375,-0.03125 0.125,-0.09375 0.234375,-0.703125 1.03125,-0.8125 1.265625,-0.8125 1.28125,0 1.375,1.390625 1.375,2.046875 0,0.453125 -0.015625,0.515625 -0.078125,0.703125 -0.171875,0.5625 -0.40625,1.453125 -0.40625,1.671875 0,0.015625 0,0.1875 0.125,0.1875 0.09375,0 0.171875,-0.125 0.234375,-0.328125 C 3.125,0.65625 3.203125,0.125 3.25,-0.234375 c 0.03125,-0.15625 0.46875,-1.5 1.21875,-2.890625 0.09375,-0.171875 0.09375,-0.1875 0.09375,-0.21875 0,0 0,-0.09375 -0.125,-0.09375 -0.03125,0 -0.0625,0.015625 -0.09375,0.03125 C 4.3125,-3.375 3.6875,-2.203125 3.296875,-1.109375 Z m 0,0"
             id="path12026" />
        </g>
      </g>
      <g
         clip-path="url(#clip-0)"
         id="g7594">
        <path
           fill="none"
           stroke-width="0.5"
           stroke-linecap="butt"
           stroke-linejoin="round"
           stroke="#000000"
           stroke-opacity="1"
           stroke-miterlimit="10"
           d="m 24.643681,-23.358031 h 13.0625 v -59.773438 h -13.0625 z m 0,0"
           transform="matrix(1,0,0,-1,123.1571,128.6615)"
           id="path7592" />
      </g>
      <path
         fill="none"
         stroke-width="0.5"
         stroke-linecap="round"
         stroke-linejoin="round"
         stroke="#000000"
         stroke-opacity="1"
         stroke-miterlimit="10"
         d="m 5.483525,-3.549438 8.4375,-5.457031"
         transform="matrix(1,0,0,-1,123.1571,128.6615)"
         id="path7596" />
      <path
         fill="none"
         stroke-width="0.5"
         stroke-linecap="round"
         stroke-linejoin="round"
         stroke="#000000"
         stroke-opacity="1"
         stroke-miterlimit="10"
         d="m -5.707881,-3.178344 -13.695313,-7.625"
         transform="matrix(1,0,0,-1,123.1571,128.6615)"
         id="path7598" />
      <path
         fill="none"
         stroke-width="0.5"
         stroke-linecap="round"
         stroke-linejoin="round"
         stroke="#000000"
         stroke-opacity="1"
         stroke-miterlimit="10"
         d="M 14.5929,-16.967406 7.635869,-23.358031"
         transform="matrix(1,0,0,-1,123.1571,128.6615)"
         id="path7600" />
      <path
         fill="none"
         stroke-width="0.5"
         stroke-linecap="round"
         stroke-linejoin="round"
         stroke="#000000"
         stroke-opacity="1"
         stroke-miterlimit="10"
         d="m 24.2179,-16.967406 6.957031,-6.390625"
         transform="matrix(1,0,0,-1,123.1571,128.6615)"
         id="path7602" />
      <g
         fill="#000000"
         fill-opacity="1"
         id="g7606">
        <g
           id="use7604"
           transform="translate(152.0932,143.9373)">
          <path
             d="m 1.34375,-0.625 c -0.0625,0.296875 -0.078125,0.359375 -0.671875,0.359375 -0.15625,0 -0.25,0 -0.25,0.15625 C 0.421875,0 0.53125,0 0.65625,0 H 3.625 C 4.9375,0 5.90625,-0.9375 5.90625,-1.703125 5.90625,-2.28125 5.40625,-2.75 4.609375,-2.84375 5.53125,-3.015625 6.328125,-3.625 6.328125,-4.328125 6.328125,-4.921875 5.75,-5.4375 4.75,-5.4375 H 1.96875 c -0.140625,0 -0.25,0 -0.25,0.140625 0,0.125 0.09375,0.125 0.234375,0.125 0.265625,0 0.5,0 0.5,0.125 0,0.03125 -0.015625,0.03125 -0.03125,0.140625 z m 1.25,-2.3125 0.484375,-1.953125 c 0.0625,-0.265625 0.078125,-0.28125 0.40625,-0.28125 H 4.625 c 0.78125,0 0.96875,0.5 0.96875,0.828125 0,0.671875 -0.734375,1.40625 -1.75,1.40625 z M 2.046875,-0.265625 C 1.96875,-0.28125 1.9375,-0.28125 1.9375,-0.328125 c 0,-0.0625 0.015625,-0.140625 0.03125,-0.1875 l 0.5625,-2.203125 h 1.625 c 0.734375,0 0.984375,0.5 0.984375,0.953125 0,0.78125 -0.765625,1.5 -1.71875,1.5 z m 0,0"
             id="path12054" />
        </g>
      </g>
      <g
         fill="#000000"
         fill-opacity="1"
         id="g7610">
        <g
           id="use7608"
           transform="translate(107.2831,131.3846)">
          <path
             d="M 1.46875,-0.953125 C 1.109375,-0.359375 0.78125,-0.28125 0.5,-0.265625 0.421875,-0.25 0.3125,-0.25 0.3125,-0.109375 0.3125,-0.09375 0.328125,0 0.4375,0 0.5,0 0.546875,-0.03125 1.109375,-0.03125 1.65625,-0.03125 1.828125,0 1.875,0 c 0.03125,0 0.15625,0 0.15625,-0.15625 0,-0.09375 -0.109375,-0.109375 -0.140625,-0.109375 -0.171875,0 -0.34375,-0.0625 -0.34375,-0.25 0,-0.109375 0.078125,-0.21875 0.21875,-0.453125 L 2.3125,-1.84375 H 4.5 L 4.65625,-0.5 c 0,0.125 -0.140625,0.234375 -0.515625,0.234375 -0.109375,0 -0.21875,0 -0.21875,0.15625 0,0 0,0.109375 0.140625,0.109375 0.078125,0 0.375,-0.015625 0.453125,-0.03125 h 0.5 C 5.734375,-0.03125 5.859375,0 5.921875,0 5.953125,0 6.09375,0 6.09375,-0.15625 c 0,-0.109375 -0.109375,-0.109375 -0.234375,-0.109375 -0.4375,0 -0.453125,-0.0625 -0.46875,-0.265625 L 4.75,-5.453125 C 4.734375,-5.640625 4.71875,-5.6875 4.59375,-5.6875 c -0.140625,0 -0.1875,0.078125 -0.25,0.15625 z M 2.484375,-2.109375 4.125,-4.71875 4.46875,-2.109375 Z m 0,0"
             id="path12050" />
        </g>
      </g>
      <path
         fill="none"
         stroke-width="0.29887"
         stroke-linecap="round"
         stroke-linejoin="round"
         stroke="#000000"
         stroke-opacity="1"
         stroke-miterlimit="10"
         d="M -31.914912,-10.803344 V -58.623656"
         transform="matrix(1,0,0,-1,123.1571,128.6615)"
         id="path7612" />
      <path
         fill="none"
         stroke-width="0.29887"
         stroke-linecap="round"
         stroke-linejoin="round"
         stroke="#000000"
         stroke-opacity="1"
         stroke-miterlimit="10"
         d="m -35.137569,-53.565063 c 1.621094,-1.265625 2.761719,-3.054687 3.222657,-5.058593 0.464843,2.003906 1.601562,3.792968 3.226562,5.058593"
         transform="matrix(1,0,0,-1,123.1571,128.6615)"
         id="path7614" />
      <path
         fill="none"
         stroke-width="0.29887"
         stroke-linecap="round"
         stroke-linejoin="round"
         stroke="#000000"
         stroke-opacity="1"
         stroke-miterlimit="10"
         d="m -28.68835,-15.865844 c -1.625,1.269531 -2.761719,3.054688 -3.226562,5.0625 -0.460938,-2.007812 -1.601563,-3.792969 -3.222657,-5.0625"
         transform="matrix(1,0,0,-1,123.1571,128.6615)"
         id="path7616" />
      <g
         clip-path="url(#clip-1)"
         id="g7620">
        <path
           fill-rule="nonzero"
           fill="#ffffff"
           fill-opacity="1"
           d="m 86.84375,168.14453 h 8.878906 v -9.53516 H 86.84375 Z m 0,0"
           id="path7618" />
      </g>
      <g
         fill="#000000"
         fill-opacity="1"
         id="g7624">
        <g
           id="use7622"
           transform="translate(88.843002,166.1432)">
          <path
             d="m 2.328125,-5.296875 c 0,-0.015625 0.03125,-0.109375 0.03125,-0.125 0,-0.03125 -0.03125,-0.109375 -0.125,-0.109375 -0.03125,0 -0.28125,0.03125 -0.46875,0.046875 l -0.4375,0.03125 C 1.140625,-5.4375 1.0625,-5.4375 1.0625,-5.296875 c 0,0.125 0.109375,0.125 0.21875,0.125 0.375,0 0.375,0.046875 0.375,0.109375 0,0.03125 0,0.046875 -0.03125,0.1875 l -1.140625,4.53125 c -0.03125,0.125 -0.03125,0.171875 -0.03125,0.171875 0,0.140625 0.109375,0.25 0.265625,0.25 0.125,0 0.234375,-0.078125 0.296875,-0.1875 0.03125,-0.046875 0.09375,-0.296875 0.125,-0.453125 l 0.1875,-0.71875 c 0.03125,-0.109375 0.109375,-0.421875 0.125,-0.53125 0.125,-0.46875 0.125,-0.484375 0.296875,-0.734375 0.28125,-0.390625 0.65625,-0.75 1.1875,-0.75 0.28125,0 0.453125,0.171875 0.453125,0.546875 0,0.4375 -0.34375,1.34375 -0.484375,1.734375 -0.109375,0.265625 -0.109375,0.3125 -0.109375,0.421875 0,0.453125 0.375,0.671875 0.71875,0.671875 0.78125,0 1.109375,-1.109375 1.109375,-1.21875 C 4.625,-1.21875 4.5625,-1.25 4.5,-1.25 c -0.09375,0 -0.109375,0.0625 -0.140625,0.140625 -0.1875,0.65625 -0.515625,0.96875 -0.828125,0.96875 -0.125,0 -0.1875,-0.078125 -0.1875,-0.265625 0,-0.1875 0.0625,-0.359375 0.140625,-0.5625 0.125,-0.296875 0.46875,-1.21875 0.46875,-1.65625 0,-0.609375 -0.40625,-0.890625 -0.984375,-0.890625 -0.4375,0 -0.859375,0.1875 -1.234375,0.609375 z m 0,0"
             id="path12038" />
        </g>
      </g>
      <path
         fill="none"
         stroke-width="0.29887"
         stroke-linecap="round"
         stroke-linejoin="round"
         stroke="#000000"
         stroke-opacity="1"
         stroke-miterlimit="10"
         d="M -4.87585,-23.358031 V -71.178344"
         transform="matrix(1,0,0,-1,123.1571,128.6615)"
         id="path7626" />
      <path
         fill="none"
         stroke-width="0.29887"
         stroke-linecap="round"
         stroke-linejoin="round"
         stroke="#000000"
         stroke-opacity="1"
         stroke-miterlimit="10"
         d="m -8.098506,-66.115844 c 1.621094,-1.269531 2.761719,-3.054687 3.222656,-5.0625 0.464844,2.007813 1.601563,3.792969 3.226563,5.0625"
         transform="matrix(1,0,0,-1,123.1571,128.6615)"
         id="path7628" />
      <path
         fill="none"
         stroke-width="0.29887"
         stroke-linecap="round"
         stroke-linejoin="round"
         stroke="#000000"
         stroke-opacity="1"
         stroke-miterlimit="10"
         d="m -1.649287,-28.416625 c -1.625,1.265625 -2.761719,3.054687 -3.226563,5.058594 -0.460937,-2.003907 -1.601562,-3.792969 -3.222656,-5.058594"
         transform="matrix(1,0,0,-1,123.1571,128.6615)"
         id="path7630" />
      <path
         fill-rule="nonzero"
         fill="#ffffff"
         fill-opacity="1"
         d="m 113.88281,180.69531 h 8.87891 v -9.53515 h -8.87891 z m 0,0"
         id="path7632" />
      <g
         fill="#000000"
         fill-opacity="1"
         id="g7636">
        <g
           id="use7634"
           transform="translate(115.8824,178.696)">
          <path
             d="m 2.328125,-5.296875 c 0,-0.015625 0.03125,-0.109375 0.03125,-0.125 0,-0.03125 -0.03125,-0.109375 -0.125,-0.109375 -0.03125,0 -0.28125,0.03125 -0.46875,0.046875 l -0.4375,0.03125 C 1.140625,-5.4375 1.0625,-5.4375 1.0625,-5.296875 c 0,0.125 0.109375,0.125 0.21875,0.125 0.375,0 0.375,0.046875 0.375,0.109375 0,0.03125 0,0.046875 -0.03125,0.1875 l -1.140625,4.53125 c -0.03125,0.125 -0.03125,0.171875 -0.03125,0.171875 0,0.140625 0.109375,0.25 0.265625,0.25 0.125,0 0.234375,-0.078125 0.296875,-0.1875 0.03125,-0.046875 0.09375,-0.296875 0.125,-0.453125 l 0.1875,-0.71875 c 0.03125,-0.109375 0.109375,-0.421875 0.125,-0.53125 0.125,-0.46875 0.125,-0.484375 0.296875,-0.734375 0.28125,-0.390625 0.65625,-0.75 1.1875,-0.75 0.28125,0 0.453125,0.171875 0.453125,0.546875 0,0.4375 -0.34375,1.34375 -0.484375,1.734375 -0.109375,0.265625 -0.109375,0.3125 -0.109375,0.421875 0,0.453125 0.375,0.671875 0.71875,0.671875 0.78125,0 1.109375,-1.109375 1.109375,-1.21875 C 4.625,-1.21875 4.5625,-1.25 4.5,-1.25 c -0.09375,0 -0.109375,0.0625 -0.140625,0.140625 -0.1875,0.65625 -0.515625,0.96875 -0.828125,0.96875 -0.125,0 -0.1875,-0.078125 -0.1875,-0.265625 0,-0.1875 0.0625,-0.359375 0.140625,-0.5625 0.125,-0.296875 0.46875,-1.21875 0.46875,-1.65625 0,-0.609375 -0.40625,-0.890625 -0.984375,-0.890625 -0.4375,0 -0.859375,0.1875 -1.234375,0.609375 z m 0,0"
             id="path12042" />
        </g>
      </g>
      <path
         fill="none"
         stroke-width="0.29887"
         stroke-linecap="round"
         stroke-linejoin="round"
         stroke="#000000"
         stroke-opacity="1"
         stroke-miterlimit="10"
         d="M 43.682744,-23.358031 V -83.131469"
         transform="matrix(1,0,0,-1,123.1571,128.6615)"
         id="path7638" />
      <path
         fill="none"
         stroke-width="0.29887"
         stroke-linecap="round"
         stroke-linejoin="round"
         stroke="#000000"
         stroke-opacity="1"
         stroke-miterlimit="10"
         d="m 40.460088,-78.072875 c 1.625,-1.265625 2.761718,-3.054688 3.222656,-5.058594 0.464844,2.003906 1.601562,3.792969 3.226562,5.058594"
         transform="matrix(1,0,0,-1,123.1571,128.6615)"
         id="path7640" />
      <path
         fill="none"
         stroke-width="0.29887"
         stroke-linecap="round"
         stroke-linejoin="round"
         stroke="#000000"
         stroke-opacity="1"
         stroke-miterlimit="10"
         d="m 46.909306,-28.416625 c -1.625,1.265625 -2.761718,3.054687 -3.226562,5.058594 -0.460938,-2.003907 -1.597656,-3.792969 -3.222656,-5.058594"
         transform="matrix(1,0,0,-1,123.1571,128.6615)"
         id="path7642" />
      <g
         clip-path="url(#clip-2)"
         id="g7646">
        <path
           fill-rule="nonzero"
           fill="#ffffff"
           fill-opacity="1"
           d="m 162.36328,187.08984 h 19.69922 v -10.36718 h -19.69922 z m 0,0"
           id="path7644" />
      </g>
      <g
         fill="#000000"
         fill-opacity="1"
         id="g7650">
        <g
           id="use7648"
           transform="translate(164.362,184.25841)">
          <path
             d="m 2.328125,-5.296875 c 0,-0.015625 0.03125,-0.109375 0.03125,-0.125 0,-0.03125 -0.03125,-0.109375 -0.125,-0.109375 -0.03125,0 -0.28125,0.03125 -0.46875,0.046875 l -0.4375,0.03125 C 1.140625,-5.4375 1.0625,-5.4375 1.0625,-5.296875 c 0,0.125 0.109375,0.125 0.21875,0.125 0.375,0 0.375,0.046875 0.375,0.109375 0,0.03125 0,0.046875 -0.03125,0.1875 l -1.140625,4.53125 c -0.03125,0.125 -0.03125,0.171875 -0.03125,0.171875 0,0.140625 0.109375,0.25 0.265625,0.25 0.125,0 0.234375,-0.078125 0.296875,-0.1875 0.03125,-0.046875 0.09375,-0.296875 0.125,-0.453125 l 0.1875,-0.71875 c 0.03125,-0.109375 0.109375,-0.421875 0.125,-0.53125 0.125,-0.46875 0.125,-0.484375 0.296875,-0.734375 0.28125,-0.390625 0.65625,-0.75 1.1875,-0.75 0.28125,0 0.453125,0.171875 0.453125,0.546875 0,0.4375 -0.34375,1.34375 -0.484375,1.734375 -0.109375,0.265625 -0.109375,0.3125 -0.109375,0.421875 0,0.453125 0.375,0.671875 0.71875,0.671875 0.78125,0 1.109375,-1.109375 1.109375,-1.21875 C 4.625,-1.21875 4.5625,-1.25 4.5,-1.25 c -0.09375,0 -0.109375,0.0625 -0.140625,0.140625 -0.1875,0.65625 -0.515625,0.96875 -0.828125,0.96875 -0.125,0 -0.1875,-0.078125 -0.1875,-0.265625 0,-0.1875 0.0625,-0.359375 0.140625,-0.5625 0.125,-0.296875 0.46875,-1.21875 0.46875,-1.65625 0,-0.609375 -0.40625,-0.890625 -0.984375,-0.890625 -0.4375,0 -0.859375,0.1875 -1.234375,0.609375 z m 0,0"
             id="path12046" />
        </g>
      </g>
      <g
         fill="#000000"
         fill-opacity="1"
         id="g7656">
        <g
           id="use7652"
           transform="translate(169.2419,184.25841)">
          <path
             d="M 3.46875,-1.8125 H 5.8125 c 0.109375,0 0.296875,0 0.296875,-0.171875 0,-0.1875 -0.1875,-0.1875 -0.296875,-0.1875 H 3.46875 V -4.53125 c 0,-0.109375 0,-0.28125 -0.171875,-0.28125 -0.1875,0 -0.1875,0.171875 -0.1875,0.28125 v 2.359375 H 0.75 c -0.109375,0 -0.28125,0 -0.28125,0.1875 0,0.171875 0.171875,0.171875 0.28125,0.171875 h 2.359375 v 2.359375 c 0,0.109375 0,0.28125 0.1875,0.28125 0.171875,0 0.171875,-0.171875 0.171875,-0.28125 z m 0,0"
             id="path12034" />
        </g>
        <g
           id="use7654"
           transform="translate(175.82838,184.25841)">
          <path
             d="m 2.5,-5.078125 c 0,-0.21875 -0.015625,-0.21875 -0.234375,-0.21875 -0.328125,0.3125 -0.75,0.5 -1.5,0.5 v 0.265625 c 0.21875,0 0.640625,0 1.109375,-0.203125 v 4.078125 c 0,0.296875 -0.03125,0.390625 -0.78125,0.390625 H 0.8125 V 0 c 0.328125,-0.03125 1.015625,-0.03125 1.375,-0.03125 0.359375,0 1.046875,0 1.375,0.03125 V -0.265625 H 3.28125 c -0.75,0 -0.78125,-0.09375 -0.78125,-0.390625 z m 0,0"
             id="path12030" />
        </g>
      </g>
      <g
         clip-path="url(#clip-3)"
         id="g7660">
        <path
           fill="none"
           stroke-width="0.5"
           stroke-linecap="round"
           stroke-linejoin="round"
           stroke="#000000"
           stroke-opacity="1"
           stroke-miterlimit="10"
           d="m -8.5e-4,6.532594 v 6.53125"
           transform="matrix(1,0,0,-1,123.1571,128.6615)"
           id="path7658" />
      </g>
    </g>
  </g>
</svg>
