<?xml version="1.0" encoding="UTF-8" standalone="no"?>
<!-- Created with Inkscape (http://www.inkscape.org/) -->

<svg
   width="32.357716mm"
   height="29.893782mm"
   viewBox="0 0 32.357716 29.893782"
   version="1.1"
   id="svg12219"
   inkscape:version="1.2.2 (b0a84865, 2022-12-01)"
   sodipodi:docname="AVL_case1_balanced.svg"
   xmlns:inkscape="http://www.inkscape.org/namespaces/inkscape"
   xmlns:sodipodi="http://sodipodi.sourceforge.net/DTD/sodipodi-0.dtd"
   xmlns="http://www.w3.org/2000/svg"
   xmlns:svg="http://www.w3.org/2000/svg">
  <sodipodi:namedview
     id="namedview12221"
     pagecolor="#ffffff"
     bordercolor="#666666"
     borderopacity="1.0"
     inkscape:showpageshadow="2"
     inkscape:pageopacity="0.0"
     inkscape:pagecheckerboard="0"
     inkscape:deskcolor="#d1d1d1"
     inkscape:document-units="mm"
     showgrid="false"
     inkscape:zoom="5.7264557"
     inkscape:cx="61.207144"
     inkscape:cy="56.492186"
     inkscape:window-width="1085"
     inkscape:window-height="808"
     inkscape:window-x="1867"
     inkscape:window-y="953"
     inkscape:window-maximized="0"
     inkscape:current-layer="layer1" />
  <defs
     id="defs12216">
    <clipPath
       id="clip-11">
      <path
         clip-rule="nonzero"
         d="m 101,382 h 15 v 49.06641 h -15 z m 0,0"
         id="path6793" />
    </clipPath>
    <clipPath
       id="clip-12">
      <path
         clip-rule="nonzero"
         d="m 125,382 h 14 v 49.06641 h -14 z m 0,0"
         id="path6796" />
    </clipPath>
    <clipPath
       id="clip-13">
      <path
         clip-rule="nonzero"
         d="M 91.550781,402 H 101 v 10 h -9.449219 z m 0,0"
         id="path6799" />
    </clipPath>
    <clipPath
       id="clip-14">
      <path
         clip-rule="nonzero"
         d="m 163,395 h 20.27344 v 11 H 163 Z m 0,0"
         id="path6802" />
    </clipPath>
    <clipPath
       id="clip-15">
      <path
         clip-rule="nonzero"
         d="m 137,346.32812 h 2 V 354 h -2 z m 0,0"
         id="path6805" />
    </clipPath>
  </defs>
  <g
     inkscape:label="Layer 1"
     inkscape:groupmode="layer"
     id="layer1"
     transform="translate(-55.554193,-156.20565)">
    <g
       id="g12265"
       transform="matrix(0.35277777,0,0,0.35277777,23.257113,34.028788)">
      <path
         fill-rule="nonzero"
         fill="#000000"
         fill-opacity="1"
         d="m 139.38281,359.64062 c 0,-0.39453 -0.16015,-0.77734 -0.4414,-1.05859 -0.27735,-0.27734 -0.66016,-0.4375 -1.05469,-0.4375 -0.39453,0 -0.77735,0.16016 -1.0586,0.4375 -0.27734,0.28125 -0.4375,0.66406 -0.4375,1.05859 0,0.39454 0.16016,0.77735 0.4375,1.0586 0.28125,0.27734 0.66407,0.4375 1.0586,0.4375 0.39453,0 0.77734,-0.16016 1.05469,-0.4375 0.28125,-0.28125 0.4414,-0.66406 0.4414,-1.0586 z m 0,0"
         id="path9322" />
      <path
         fill="none"
         stroke-width="0.5"
         stroke-linecap="butt"
         stroke-linejoin="round"
         stroke="#000000"
         stroke-opacity="1"
         stroke-miterlimit="10"
         d="m 6.531289,5e-6 c 0,3.605469 -2.925781,6.53125 -6.53125025,6.53125 C -3.60543,6.531255 -6.531211,3.605474 -6.531211,5e-6 c 0,-3.605469 2.925781,-6.53125 6.53124975,-6.53125 3.60546925,0 6.53125025,2.925781 6.53125025,6.53125 z m 0,0"
         transform="matrix(1,0,0,-1,137.88668,359.64063)"
         id="path9324" />
      <path
         fill-rule="nonzero"
         fill="#000000"
         fill-opacity="1"
         d="m 121.72656,372.19531 c 0,-0.39844 -0.16015,-0.77734 -0.4375,-1.05859 -0.28125,-0.28125 -0.66015,-0.4375 -1.05859,-0.4375 -0.39453,0 -0.77734,0.15625 -1.05469,0.4375 -0.28125,0.28125 -0.4414,0.66015 -0.4414,1.05859 0,0.39453 0.16015,0.77344 0.4414,1.05469 0.27735,0.28125 0.66016,0.4375 1.05469,0.4375 0.39844,0 0.77734,-0.15625 1.05859,-0.4375 0.27735,-0.28125 0.4375,-0.66016 0.4375,-1.05469 z m 0,0"
         id="path9326" />
      <path
         fill="none"
         stroke-width="0.5"
         stroke-linecap="butt"
         stroke-linejoin="round"
         stroke="#000000"
         stroke-opacity="1"
         stroke-miterlimit="10"
         d="m -11.124961,-12.554683 c 0,3.609375 -2.925781,6.53125 -6.53125,6.53125 -3.605469,0 -6.53125,-2.921875 -6.53125,-6.53125 0,-3.605468 2.925781,-6.527343 6.53125,-6.527343 3.605469,0 6.53125,2.921875 6.53125,6.527343 z m 0,0"
         transform="matrix(1,0,0,-1,137.88668,359.64063)"
         id="path9328" />
      <g
         fill="#000000"
         fill-opacity="1"
         id="g9332">
        <g
           id="use9330"
           transform="translate(105.74058,391.24423)">
          <path
             d="m 4.0625,-1.109375 c 0.75,-0.8125 1,-1.859375 1,-1.921875 0,-0.0625 -0.046875,-0.09375 -0.109375,-0.09375 -0.109375,0 -0.109375,0.03125 -0.15625,0.1875 C 4.5625,-2.125 4.09375,-1.5 4.0625,-1.5 4.046875,-1.5 4.046875,-1.703125 4.046875,-1.828125 4.03125,-3.234375 3.125,-3.515625 2.578125,-3.515625 c -1.125,0 -2.234375,1.09375 -2.234375,2.21875 0,0.78125 0.5625,1.375 1.40625,1.375 0.546875,0 1.140625,-0.203125 1.765625,-0.671875 0.1875,0.640625 0.640625,0.671875 0.78125,0.671875 0.453125,0 0.71875,-0.40625 0.71875,-0.5625 0,-0.09375 -0.09375,-0.09375 -0.109375,-0.09375 -0.09375,0 -0.109375,0.03125 -0.140625,0.078125 -0.125,0.34375 -0.390625,0.359375 -0.4375,0.359375 -0.109375,0 -0.234375,0 -0.265625,-0.96875 z m -0.59375,0.25 C 2.90625,-0.34375 2.234375,-0.140625 1.765625,-0.140625 1.359375,-0.140625 1,-0.375 1,-1.015625 1,-1.296875 1.125,-2.125 1.5,-2.65625 c 0.3125,-0.4375 0.75,-0.640625 1.078125,-0.640625 0.4375,0 0.6875,0.3125 0.78125,0.796875 0.125,0.546875 0.0625,1.1875 0.109375,1.640625 z m 0,0"
             id="path12521" />
        </g>
      </g>
      <g
         clip-path="url(#clip-11)"
         id="g9336">
        <path
           fill="none"
           stroke-width="0.5"
           stroke-linecap="butt"
           stroke-linejoin="round"
           stroke="#000000"
           stroke-opacity="1"
           stroke-miterlimit="10"
           d="m -35.956992,-23.355464 h 13.0625 v -47.820312 h -13.0625 z m 0,0"
           transform="matrix(1,0,0,-1,137.88668,359.64063)"
           id="path9334" />
      </g>
      <g
         fill="#000000"
         fill-opacity="1"
         id="g9340">
        <g
           id="use9338"
           transform="translate(129.42078,391.52103)">
          <path
             d="m 4.78125,-4.53125 c 0,-0.734375 -0.59375,-1.09375 -1.25,-1.09375 -1.03125,0 -1.796875,1.171875 -2.015625,2.046875 L 0.25,1.453125 C 0.234375,1.5 0.296875,1.546875 0.34375,1.546875 c 0.078125,0 0.140625,0 0.15625,-0.0625 l 0.53125,-2.125 c 0.1875,0.421875 0.5625,0.71875 1.140625,0.71875 1.09375,0 2.296875,-0.78125 2.296875,-2.046875 C 4.46875,-2.5 4.265625,-2.859375 3.875,-3.171875 3.921875,-3.1875 4.0625,-3.296875 4.109375,-3.328125 4.5,-3.59375 4.78125,-4.046875 4.78125,-4.53125 Z m -1.5625,1.359375 c -0.15625,0.015625 -0.296875,0.03125 -0.453125,0.03125 -0.078125,0 -0.171875,0 -0.25,-0.03125 0.140625,-0.046875 0.3125,-0.046875 0.453125,-0.046875 0.078125,0 0.15625,0.015625 0.25,0.046875 z M 4.28125,-4.6875 c 0,0.40625 -0.171875,0.875 -0.453125,1.15625 C 3.78125,-3.5 3.625,-3.34375 3.5625,-3.34375 3.34375,-3.375 3.171875,-3.4375 2.9375,-3.4375 c -0.203125,0 -0.703125,-0.015625 -0.703125,0.296875 0,0.234375 0.453125,0.21875 0.609375,0.21875 0.25,0 0.484375,-0.015625 0.703125,-0.109375 0.25,0.1875 0.359375,0.453125 0.359375,0.84375 0,0.46875 -0.15625,1 -0.390625,1.3125 -0.28125,0.421875 -0.78125,0.71875 -1.375,0.71875 -0.53125,0 -0.953125,-0.40625 -0.953125,-0.953125 0,-0.109375 0.015625,-0.21875 0.046875,-0.296875 L 1.75,-3.515625 c 0.171875,-0.703125 0.859375,-1.875 1.75,-1.875 0.40625,0 0.78125,0.1875 0.78125,0.703125 z m 0,0"
             id="path12517" />
        </g>
      </g>
      <g
         clip-path="url(#clip-12)"
         id="g9344">
        <path
           fill="none"
           stroke-width="0.5"
           stroke-linecap="butt"
           stroke-linejoin="round"
           stroke="#000000"
           stroke-opacity="1"
           stroke-miterlimit="10"
           d="m -12.41793,-23.355464 h 13.0625 v -47.820312 h -13.0625 z m 0,0"
           transform="matrix(1,0,0,-1,137.88668,359.64063)"
           id="path9342" />
      </g>
      <g
         fill="#000000"
         fill-opacity="1"
         id="g9348">
        <g
           id="use9346"
           transform="translate(153.12659,377.91663)">
          <path
             d="m 3.265625,-1.28125 c -0.09375,-0.984375 -0.5,-1.625 -0.5,-1.640625 -0.171875,-0.265625 -0.46875,-0.59375 -1,-0.59375 -1.03125,0 -1.625,1.15625 -1.625,1.4375 0,0.0625 0.0625,0.09375 0.125,0.09375 0.078125,0 0.09375,-0.03125 0.125,-0.09375 0.234375,-0.703125 1.03125,-0.8125 1.265625,-0.8125 1.28125,0 1.375,1.390625 1.375,2.046875 0,0.453125 -0.015625,0.515625 -0.078125,0.703125 -0.171875,0.5625 -0.40625,1.453125 -0.40625,1.671875 0,0.015625 0,0.1875 0.125,0.1875 0.09375,0 0.171875,-0.125 0.234375,-0.328125 C 3.125,0.65625 3.203125,0.125 3.25,-0.234375 c 0.03125,-0.15625 0.46875,-1.5 1.21875,-2.890625 0.09375,-0.171875 0.09375,-0.1875 0.09375,-0.21875 0,0 0,-0.09375 -0.125,-0.09375 -0.03125,0 -0.0625,0.015625 -0.09375,0.03125 C 4.3125,-3.375 3.6875,-2.203125 3.296875,-1.109375 Z m 0,0"
             id="path12525" />
        </g>
      </g>
      <path
         fill="none"
         stroke-width="0.5"
         stroke-linecap="butt"
         stroke-linejoin="round"
         stroke="#000000"
         stroke-opacity="1"
         stroke-miterlimit="10"
         d="m 11.125039,-10.804683 h 13.0625 V -70.57812 h -13.0625 z m 0,0"
         transform="matrix(1,0,0,-1,137.88668,359.64063)"
         id="path9350" />
      <path
         fill="none"
         stroke-width="0.5"
         stroke-linecap="round"
         stroke-linejoin="round"
         stroke="#000000"
         stroke-opacity="1"
         stroke-miterlimit="10"
         d="m -5.32418,-3.785151 -7.007812,-4.984375"
         transform="matrix(1,0,0,-1,137.88668,359.64063)"
         id="path9352" />
      <path
         fill="none"
         stroke-width="0.5"
         stroke-linecap="round"
         stroke-linejoin="round"
         stroke="#000000"
         stroke-opacity="1"
         stroke-miterlimit="10"
         d="m 5.570351,-3.410151 12.085938,-7.394532"
         transform="matrix(1,0,0,-1,137.88668,359.64063)"
         id="path9354" />
      <path
         fill="none"
         stroke-width="0.5"
         stroke-linecap="round"
         stroke-linejoin="round"
         stroke="#000000"
         stroke-opacity="1"
         stroke-miterlimit="10"
         d="m -22.468711,-16.968745 -6.957031,-6.386719"
         transform="matrix(1,0,0,-1,137.88668,359.64063)"
         id="path9356" />
      <path
         fill="none"
         stroke-width="0.5"
         stroke-linecap="round"
         stroke-linejoin="round"
         stroke="#000000"
         stroke-opacity="1"
         stroke-miterlimit="10"
         d="m -12.843711,-16.968745 6.957031,-6.386719"
         transform="matrix(1,0,0,-1,137.88668,359.64063)"
         id="path9358" />
      <g
         fill="#000000"
         fill-opacity="1"
         id="g9362">
        <g
           id="use9360"
           transform="translate(121.57548,362.36374)">
          <path
             d="m 1.34375,-0.625 c -0.0625,0.296875 -0.078125,0.359375 -0.671875,0.359375 -0.15625,0 -0.25,0 -0.25,0.15625 C 0.421875,0 0.53125,0 0.65625,0 H 3.625 C 4.9375,0 5.90625,-0.9375 5.90625,-1.703125 5.90625,-2.28125 5.40625,-2.75 4.609375,-2.84375 5.53125,-3.015625 6.328125,-3.625 6.328125,-4.328125 6.328125,-4.921875 5.75,-5.4375 4.75,-5.4375 H 1.96875 c -0.140625,0 -0.25,0 -0.25,0.140625 0,0.125 0.09375,0.125 0.234375,0.125 0.265625,0 0.5,0 0.5,0.125 0,0.03125 -0.015625,0.03125 -0.03125,0.140625 z m 1.25,-2.3125 0.484375,-1.953125 c 0.0625,-0.265625 0.078125,-0.28125 0.40625,-0.28125 H 4.625 c 0.78125,0 0.96875,0.5 0.96875,0.828125 0,0.671875 -0.734375,1.40625 -1.75,1.40625 z M 2.046875,-0.265625 C 1.96875,-0.28125 1.9375,-0.28125 1.9375,-0.328125 c 0,-0.0625 0.015625,-0.140625 0.03125,-0.1875 l 0.5625,-2.203125 h 1.625 c 0.734375,0 0.984375,0.5 0.984375,0.953125 0,0.78125 -0.765625,1.5 -1.71875,1.5 z m 0,0"
             id="path12549" />
        </g>
      </g>
      <g
         fill="#000000"
         fill-opacity="1"
         id="g9366">
        <g
           id="use9364"
           transform="translate(104.35668,374.91653)">
          <path
             d="M 1.46875,-0.953125 C 1.109375,-0.359375 0.78125,-0.28125 0.5,-0.265625 0.421875,-0.25 0.3125,-0.25 0.3125,-0.109375 0.3125,-0.09375 0.328125,0 0.4375,0 0.5,0 0.546875,-0.03125 1.109375,-0.03125 1.65625,-0.03125 1.828125,0 1.875,0 c 0.03125,0 0.15625,0 0.15625,-0.15625 0,-0.09375 -0.109375,-0.109375 -0.140625,-0.109375 -0.171875,0 -0.34375,-0.0625 -0.34375,-0.25 0,-0.109375 0.078125,-0.21875 0.21875,-0.453125 L 2.3125,-1.84375 H 4.5 L 4.65625,-0.5 c 0,0.125 -0.140625,0.234375 -0.515625,0.234375 -0.109375,0 -0.21875,0 -0.21875,0.15625 0,0 0,0.109375 0.140625,0.109375 0.078125,0 0.375,-0.015625 0.453125,-0.03125 h 0.5 C 5.734375,-0.03125 5.859375,0 5.921875,0 5.953125,0 6.09375,0 6.09375,-0.15625 c 0,-0.109375 -0.109375,-0.109375 -0.234375,-0.109375 -0.4375,0 -0.453125,-0.0625 -0.46875,-0.265625 L 4.75,-5.453125 C 4.734375,-5.640625 4.71875,-5.6875 4.59375,-5.6875 c -0.140625,0 -0.1875,0.078125 -0.25,0.15625 z M 2.484375,-2.109375 4.125,-4.71875 4.46875,-2.109375 Z m 0,0"
             id="path12545" />
        </g>
      </g>
      <path
         fill="none"
         stroke-width="0.29887"
         stroke-linecap="round"
         stroke-linejoin="round"
         stroke="#000000"
         stroke-opacity="1"
         stroke-miterlimit="10"
         d="M -41.933555,-23.355464 V -71.175776"
         transform="matrix(1,0,0,-1,137.88668,359.64063)"
         id="path9368" />
      <path
         fill="none"
         stroke-width="0.29887"
         stroke-linecap="round"
         stroke-linejoin="round"
         stroke="#000000"
         stroke-opacity="1"
         stroke-miterlimit="10"
         d="m -45.160117,-66.117183 c 1.625,-1.265625 2.761718,-3.054687 3.226562,-5.058593 0.460938,2.003906 1.597656,3.792968 3.222656,5.058593"
         transform="matrix(1,0,0,-1,137.88668,359.64063)"
         id="path9370" />
      <path
         fill="none"
         stroke-width="0.29887"
         stroke-linecap="round"
         stroke-linejoin="round"
         stroke="#000000"
         stroke-opacity="1"
         stroke-miterlimit="10"
         d="m -38.710899,-28.417964 c -1.625,1.269531 -2.761718,3.054688 -3.222656,5.0625 -0.464844,-2.007812 -1.601562,-3.792969 -3.226562,-5.0625"
         transform="matrix(1,0,0,-1,137.88668,359.64063)"
         id="path9372" />
      <g
         clip-path="url(#clip-13)"
         id="g9376">
        <path
           fill-rule="nonzero"
           fill="#ffffff"
           fill-opacity="1"
           d="m 91.550781,411.67578 h 8.878909 v -9.53516 h -8.878909 z m 0,0"
           id="path9374" />
      </g>
      <g
         fill="#000000"
         fill-opacity="1"
         id="g9380">
        <g
           id="use9378"
           transform="translate(93.55098,409.67514)">
          <path
             d="m 2.328125,-5.296875 c 0,-0.015625 0.03125,-0.109375 0.03125,-0.125 0,-0.03125 -0.03125,-0.109375 -0.125,-0.109375 -0.03125,0 -0.28125,0.03125 -0.46875,0.046875 l -0.4375,0.03125 C 1.140625,-5.4375 1.0625,-5.4375 1.0625,-5.296875 c 0,0.125 0.109375,0.125 0.21875,0.125 0.375,0 0.375,0.046875 0.375,0.109375 0,0.03125 0,0.046875 -0.03125,0.1875 l -1.140625,4.53125 c -0.03125,0.125 -0.03125,0.171875 -0.03125,0.171875 0,0.140625 0.109375,0.25 0.265625,0.25 0.125,0 0.234375,-0.078125 0.296875,-0.1875 0.03125,-0.046875 0.09375,-0.296875 0.125,-0.453125 l 0.1875,-0.71875 c 0.03125,-0.109375 0.109375,-0.421875 0.125,-0.53125 0.125,-0.46875 0.125,-0.484375 0.296875,-0.734375 0.28125,-0.390625 0.65625,-0.75 1.1875,-0.75 0.28125,0 0.453125,0.171875 0.453125,0.546875 0,0.4375 -0.34375,1.34375 -0.484375,1.734375 -0.109375,0.265625 -0.109375,0.3125 -0.109375,0.421875 0,0.453125 0.375,0.671875 0.71875,0.671875 0.78125,0 1.109375,-1.109375 1.109375,-1.21875 C 4.625,-1.21875 4.5625,-1.25 4.5,-1.25 c -0.09375,0 -0.109375,0.0625 -0.140625,0.140625 -0.1875,0.65625 -0.515625,0.96875 -0.828125,0.96875 -0.125,0 -0.1875,-0.078125 -0.1875,-0.265625 0,-0.1875 0.0625,-0.359375 0.140625,-0.5625 0.125,-0.296875 0.46875,-1.21875 0.46875,-1.65625 0,-0.609375 -0.40625,-0.890625 -0.984375,-0.890625 -0.4375,0 -0.859375,0.1875 -1.234375,0.609375 z m 0,0"
             id="path12537" />
        </g>
      </g>
      <path
         fill="none"
         stroke-width="0.29887"
         stroke-linecap="round"
         stroke-linejoin="round"
         stroke="#000000"
         stroke-opacity="1"
         stroke-miterlimit="10"
         d="M 30.164101,-10.804683 V -70.57812"
         transform="matrix(1,0,0,-1,137.88668,359.64063)"
         id="path9382" />
      <path
         fill="none"
         stroke-width="0.29887"
         stroke-linecap="round"
         stroke-linejoin="round"
         stroke="#000000"
         stroke-opacity="1"
         stroke-miterlimit="10"
         d="m 26.941445,-65.519526 c 1.621094,-1.269532 2.761719,-3.054688 3.222656,-5.058594 0.464844,2.003906 1.601563,3.789062 3.222657,5.058594"
         transform="matrix(1,0,0,-1,137.88668,359.64063)"
         id="path9384" />
      <path
         fill="none"
         stroke-width="0.29887"
         stroke-linecap="round"
         stroke-linejoin="round"
         stroke="#000000"
         stroke-opacity="1"
         stroke-miterlimit="10"
         d="m 33.386758,-15.863276 c -1.621094,1.265625 -2.757813,3.054687 -3.222657,5.058593 -0.460937,-2.003906 -1.601562,-3.792968 -3.222656,-5.058593"
         transform="matrix(1,0,0,-1,137.88668,359.64063)"
         id="path9386" />
      <g
         clip-path="url(#clip-14)"
         id="g9390">
        <path
           fill-rule="nonzero"
           fill="#ffffff"
           fill-opacity="1"
           d="m 163.57031,405.51562 h 19.70313 v -10.36718 h -19.70313 z m 0,0"
           id="path9388" />
      </g>
      <g
         fill="#000000"
         fill-opacity="1"
         id="g9394">
        <g
           id="use9392"
           transform="translate(165.57178,402.68484)">
          <path
             d="m 2.328125,-5.296875 c 0,-0.015625 0.03125,-0.109375 0.03125,-0.125 0,-0.03125 -0.03125,-0.109375 -0.125,-0.109375 -0.03125,0 -0.28125,0.03125 -0.46875,0.046875 l -0.4375,0.03125 C 1.140625,-5.4375 1.0625,-5.4375 1.0625,-5.296875 c 0,0.125 0.109375,0.125 0.21875,0.125 0.375,0 0.375,0.046875 0.375,0.109375 0,0.03125 0,0.046875 -0.03125,0.1875 l -1.140625,4.53125 c -0.03125,0.125 -0.03125,0.171875 -0.03125,0.171875 0,0.140625 0.109375,0.25 0.265625,0.25 0.125,0 0.234375,-0.078125 0.296875,-0.1875 0.03125,-0.046875 0.09375,-0.296875 0.125,-0.453125 l 0.1875,-0.71875 c 0.03125,-0.109375 0.109375,-0.421875 0.125,-0.53125 0.125,-0.46875 0.125,-0.484375 0.296875,-0.734375 0.28125,-0.390625 0.65625,-0.75 1.1875,-0.75 0.28125,0 0.453125,0.171875 0.453125,0.546875 0,0.4375 -0.34375,1.34375 -0.484375,1.734375 -0.109375,0.265625 -0.109375,0.3125 -0.109375,0.421875 0,0.453125 0.375,0.671875 0.71875,0.671875 0.78125,0 1.109375,-1.109375 1.109375,-1.21875 C 4.625,-1.21875 4.5625,-1.25 4.5,-1.25 c -0.09375,0 -0.109375,0.0625 -0.140625,0.140625 -0.1875,0.65625 -0.515625,0.96875 -0.828125,0.96875 -0.125,0 -0.1875,-0.078125 -0.1875,-0.265625 0,-0.1875 0.0625,-0.359375 0.140625,-0.5625 0.125,-0.296875 0.46875,-1.21875 0.46875,-1.65625 0,-0.609375 -0.40625,-0.890625 -0.984375,-0.890625 -0.4375,0 -0.859375,0.1875 -1.234375,0.609375 z m 0,0"
             id="path12541" />
        </g>
      </g>
      <g
         fill="#000000"
         fill-opacity="1"
         id="g9400">
        <g
           id="use9396"
           transform="translate(170.45168,402.68484)">
          <path
             d="M 3.46875,-1.8125 H 5.8125 c 0.109375,0 0.296875,0 0.296875,-0.171875 0,-0.1875 -0.1875,-0.1875 -0.296875,-0.1875 H 3.46875 V -4.53125 c 0,-0.109375 0,-0.28125 -0.171875,-0.28125 -0.1875,0 -0.1875,0.171875 -0.1875,0.28125 v 2.359375 H 0.75 c -0.109375,0 -0.28125,0 -0.28125,0.1875 0,0.171875 0.171875,0.171875 0.28125,0.171875 h 2.359375 v 2.359375 c 0,0.109375 0,0.28125 0.1875,0.28125 0.171875,0 0.171875,-0.171875 0.171875,-0.28125 z m 0,0"
             id="path12533" />
        </g>
        <g
           id="use9398"
           transform="translate(177.03818,402.68484)">
          <path
             d="m 2.5,-5.078125 c 0,-0.21875 -0.015625,-0.21875 -0.234375,-0.21875 -0.328125,0.3125 -0.75,0.5 -1.5,0.5 v 0.265625 c 0.21875,0 0.640625,0 1.109375,-0.203125 v 4.078125 c 0,0.296875 -0.03125,0.390625 -0.78125,0.390625 H 0.8125 V 0 c 0.328125,-0.03125 1.015625,-0.03125 1.375,-0.03125 0.359375,0 1.046875,0 1.375,0.03125 V -0.265625 H 3.28125 c -0.75,0 -0.78125,-0.09375 -0.78125,-0.390625 z m 0,0"
             id="path12529" />
        </g>
      </g>
      <g
         clip-path="url(#clip-15)"
         id="g9404">
        <path
           fill="none"
           stroke-width="0.5"
           stroke-linecap="round"
           stroke-linejoin="round"
           stroke="#000000"
           stroke-opacity="1"
           stroke-miterlimit="10"
           d="m 3.875e-5,6.531255 v 6.53125"
           transform="matrix(1,0,0,-1,137.88668,359.64063)"
           id="path9402" />
      </g>
    </g>
  </g>
</svg>
