<?xml version="1.0" encoding="UTF-8" standalone="no"?>
<!-- Created with Inkscape (http://www.inkscape.org/) -->

<svg
   width="60.522278mm"
   height="31.576477mm"
   viewBox="0 0 60.522278 31.576477"
   version="1.1"
   id="svg6703"
   inkscape:version="1.2.2 (732a01da63, 2022-12-09)"
   sodipodi:docname="Boruvka_overall_algorithm.svg"
   xmlns:inkscape="http://www.inkscape.org/namespaces/inkscape"
   xmlns:sodipodi="http://sodipodi.sourceforge.net/DTD/sodipodi-0.dtd"
   xmlns="http://www.w3.org/2000/svg"
   xmlns:svg="http://www.w3.org/2000/svg">
  <sodipodi:namedview
     id="namedview6705"
     pagecolor="#ffffff"
     bordercolor="#666666"
     borderopacity="1.0"
     inkscape:showpageshadow="2"
     inkscape:pageopacity="0.0"
     inkscape:pagecheckerboard="0"
     inkscape:deskcolor="#d1d1d1"
     inkscape:document-units="mm"
     showgrid="false"
     inkscape:zoom="3.9465691"
     inkscape:cx="114.40316"
     inkscape:cy="59.672083"
     inkscape:window-width="1307"
     inkscape:window-height="630"
     inkscape:window-x="0"
     inkscape:window-y="25"
     inkscape:window-maximized="0"
     inkscape:current-layer="layer1" />
  <defs
     id="defs6700" />
  <g
     inkscape:label="Layer 1"
     inkscape:groupmode="layer"
     id="layer1"
     transform="translate(-42.730386,-118.86854)">
    <g
       id="g6510"
       transform="matrix(0.35277777,0,0,0.35277777,-8.8177772,93.468652)">
      <path
         fill="none"
         stroke-width="0.61"
         stroke-linecap="butt"
         stroke-linejoin="miter"
         stroke="#231f20"
         stroke-opacity="1"
         stroke-miterlimit="10"
         d="M 9.375e-5,3.125e-4 H 171.55869"
         transform="matrix(1,0,0,-1,146.121,72.305)"
         id="path1503" />
      <g
         fill="#231f20"
         fill-opacity="1"
         id="g1507">
        <g
           id="use1505"
           transform="translate(152.709,80.978996)">
          <path
             d="m 0.3125,-6.421875 v 0.390625 l 0.546875,0.0625 0.15625,0.125 v 5.265625 L 0.859375,-0.4375 0.3125,-0.390625 V 0 h 2.53125 c 1.625,0 2.484375,-0.671875 2.484375,-1.875 0,-0.9375 -0.640625,-1.515625 -1.765625,-1.53125 0.90625,-0.25 1.375,-0.734375 1.375,-1.46875 0,-1.046875 -0.71875,-1.546875 -2.1875,-1.546875 z m 1.578125,2.90625 V -5.96875 C 2.125,-5.96875 2.296875,-6 2.421875,-6 3.484375,-6 4,-5.609375 4,-4.828125 4,-3.90625 3.4375,-3.5 2.25,-3.5 c -0.125,0 -0.234375,0 -0.359375,-0.015625 z m 0,3.03125 V -3.03125 c 0.359375,-0.03125 0.6875,-0.0625 0.9375,-0.0625 1.046875,0 1.578125,0.421875 1.578125,1.28125 0,0.96875 -0.59375,1.359375 -1.875,1.359375 -0.203125,0 -0.421875,0 -0.640625,-0.03125 z m 0,0"
             id="path7649" />
        </g>
      </g>
      <g
         fill="#231f20"
         fill-opacity="1"
         id="g1511">
        <g
           id="use1509"
           transform="translate(158.29449,80.978996)">
          <path
             d="m 3.03125,-4.84375 c -0.671875,0 -1.265625,0.203125 -1.734375,0.609375 -0.53125,0.46875 -0.8125,1.109375 -0.8125,1.875 0,0.765625 0.28125,1.40625 0.8125,1.875 0.46875,0.390625 1.0625,0.59375 1.734375,0.59375 0.921875,0 1.703125,-0.40625 2.140625,-1.078125 0.265625,-0.421875 0.40625,-0.875 0.40625,-1.390625 0,-0.765625 -0.296875,-1.40625 -0.8125,-1.875 -0.46875,-0.40625 -1.0625,-0.609375 -1.734375,-0.609375 z m 0,0.5 c 0.9375,0 1.59375,0.75 1.59375,1.984375 0,1.234375 -0.65625,1.984375 -1.59375,1.984375 -0.953125,0 -1.59375,-0.75 -1.59375,-1.984375 0,-1.25 0.640625,-1.984375 1.59375,-1.984375 z m 0,0"
             id="path7653" />
        </g>
      </g>
      <g
         fill="#231f20"
         fill-opacity="1"
         id="g1523">
        <g
           id="use1513"
           transform="translate(164.00432,80.978996)">
          <path
             d="m 0.421875,-4.71875 v 0.375 L 0.953125,-4.3125 1.125,-4.203125 v 3.6875 l -0.171875,0.09375 -0.53125,0.03125 v 0.375 H 2.5 v -0.375 l -0.4375,-0.03125 -0.125,-0.09375 v -1.53125 C 2.078125,-2.0625 2.21875,-2.0625 2.34375,-2.0625 c 0.75,0 1.0625,0.171875 1.28125,0.75 0.171875,0.4375 0.203125,0.875 0.609375,1.171875 0.1875,0.125 0.453125,0.203125 0.8125,0.203125 0.1875,0 0.390625,-0.03125 0.640625,-0.078125 V -0.375 H 5.609375 c -0.640625,0 -0.921875,-0.078125 -1.09375,-0.46875 -0.15625,-0.328125 -0.171875,-0.703125 -0.40625,-1 C 3.9375,-2.0625 3.65625,-2.203125 3.234375,-2.296875 4.15625,-2.46875 4.625,-2.859375 4.625,-3.46875 c 0,-0.859375 -0.671875,-1.25 -2.046875,-1.25 z M 1.9375,-4.296875 h 0.359375 c 0.953125,0 1.421875,0.25 1.421875,0.921875 0,0.640625 -0.4375,0.890625 -1.359375,0.890625 -0.046875,0 -0.171875,0 -0.421875,-0.015625 z m 0,0"
             id="path7645" />
        </g>
        <g
           id="use1515"
           transform="translate(169.80978,80.978996)">
          <path
             d="m 3.25,-7.46875 c -0.625,0 -1.125,0.484375 -1.125,1.125 0,0.625 0.5,1.125 1.125,1.125 0.625,0 1.125,-0.5 1.125,-1.125 0,-0.640625 -0.5,-1.125 -1.125,-1.125 z m 0,0.4375 c 0.390625,0 0.703125,0.296875 0.703125,0.6875 0,0.390625 -0.3125,0.6875 -0.703125,0.6875 -0.375,0 -0.6875,-0.296875 -0.6875,-0.6875 0,-0.390625 0.3125,-0.6875 0.6875,-0.6875 z m -2.890625,2.3125 v 0.375 l 0.546875,0.046875 0.15625,0.09375 v 2.5625 c 0,0.5 0.03125,0.890625 0.34375,1.203125 0.296875,0.328125 0.890625,0.53125 1.640625,0.53125 0.734375,0 1.328125,-0.203125 1.625,-0.53125 0.3125,-0.3125 0.34375,-0.703125 0.34375,-1.203125 V -4.15625 L 5.1875,-4.28125 5.75,-4.34375 v -0.375 H 3.953125 v 0.375 l 0.4375,0.0625 0.140625,0.125 v 2.359375 c 0,0.90625 -0.390625,1.3125 -1.3125,1.3125 -0.953125,0 -1.328125,-0.40625 -1.328125,-1.3125 v -2.40625 L 2.03125,-4.296875 2.484375,-4.34375 v -0.375 z m 0,0"
             id="path7641" />
        </g>
        <g
           id="use1517"
           transform="translate(175.8448,80.978996)">
          <path
             d="m 0.03125,-4.71875 v 0.375 L 0.453125,-4.25 2.140625,0.015625 H 2.65625 L 4.296875,-4.25 4.75,-4.34375 v -0.375 H 3.328125 v 0.375 l 0.375,0.046875 0.078125,0.09375 L 2.484375,-0.75 1.203125,-4.203125 1.28125,-4.296875 1.703125,-4.34375 v -0.375 z m 0,0"
             id="path7637" />
        </g>
        <g
           id="use1519"
           transform="translate(180.64603,80.978996)">
          <path
             d="m 0.421875,-0.015625 h 2.09375 v -0.375 L 2.0625,-0.421875 1.9375,-0.515625 V -2.0625 H 2.484375 L 3.875,-0.28125 v 0.265625 h 1.203125 v -0.375 l -0.53125,-0.03125 -1.65625,-2.234375 1.53125,-1.625 0.46875,-0.0625 v -0.375 h -1.5 v 0.375 l 0.390625,0.046875 0.046875,0.09375 -1.609375,1.75 H 1.9375 v -1.75 l 0.125,-0.09375 0.453125,-0.046875 v -0.375 h -2.09375 v 0.375 l 0.53125,0.046875 0.171875,0.09375 v 3.6875 l -0.171875,0.09375 -0.53125,0.03125 z m 0,0"
             id="path7633" />
        </g>
        <g
           id="use1521"
           transform="translate(185.80113,80.978996)">
          <path
             d="m 2.234375,-4.765625 -1.6875,4.3125 L 0.140625,-0.375 V 0 h 1.40625 V -0.375 L 1.109375,-0.40625 1.046875,-0.5 1.515625,-1.71875 H 3.1875 L 3.703125,-0.5 3.65625,-0.40625 3.21875,-0.375 V 0 H 4.9375 V -0.375 L 4.5,-0.453125 2.796875,-4.765625 Z m 0.109375,0.71875 0.734375,1.90625 h -1.4375 z m 0,0"
             id="path7617" />
        </g>
      </g>
      <g
         fill="#231f20"
         fill-opacity="1"
         id="g1527">
        <g
           id="use1525"
           transform="translate(190.755,80.978996)">
          <path
             d="m 1.34375,-2.75 c 0,-2.625 0.765625,-3.921875 1.875,-4.109375 V -7.3125 c -1.59375,0.203125 -2.6875,1.671875 -2.6875,4.5625 0,2.890625 1.09375,4.359375 2.6875,4.546875 v -0.4375 c -1.109375,-0.1875 -1.875,-1.5 -1.875,-4.109375 z m 0,0"
             id="path7385" />
        </g>
      </g>
      <g
         fill="#231f20"
         fill-opacity="1"
         id="g1531">
        <g
           id="use1529"
           transform="translate(194.75301,80.978996)">
          <path
             d="m 0.296875,-6.421875 v 0.375 L 0.75,-6 l 0.15625,0.171875 0.921875,5.875 h 0.59375 L 5.703125,-6 l 0.5,-0.046875 v -0.375 H 4.40625 v 0.375 L 4.96875,-6 5.046875,-5.859375 2.453125,-0.875 1.6875,-5.859375 1.765625,-6 2.296875,-6.046875 v -0.375 z m 0,0"
             id="path7377" />
        </g>
      </g>
      <g
         fill="#231f20"
         fill-opacity="1"
         id="g1535">
        <g
           id="use1533"
           transform="translate(199.908,80.978996)">
          <path
             d="m 0.375,1.609375 c 0.96875,-0.09375 1.609375,-0.84375 1.609375,-1.671875 0,-0.609375 -0.28125,-0.953125 -0.765625,-0.953125 -0.3125,0 -0.5625,0.21875 -0.5625,0.53125 0,0.171875 0.046875,0.296875 0.15625,0.421875 h 0.609375 c 0,0.03125 0,0.078125 0,0.09375 0,0.703125 -0.34375,1.140625 -1.046875,1.265625 z m 0,0"
             id="path7673" />
        </g>
      </g>
      <g
         fill="#231f20"
         fill-opacity="1"
         id="g1539">
        <g
           id="use1537"
           transform="translate(204.379,80.978996)">
          <path
             d="m 0.84375,-6.421875 v 0.375 L 1.453125,-6 1.5625,-5.859375 l -1.03125,5.3125 -0.15625,0.125 -0.609375,0.0625 V 0 H 4.40625 l 0.296875,-1.5625 h -0.4375 L 3.9375,-0.59375 3.765625,-0.4375 h -2.4375 L 1.84375,-3.109375 H 3.3125 l 0.109375,0.140625 -0.03125,0.6875 H 3.78125 L 4.171875,-4.390625 H 3.765625 L 3.5625,-3.6875 3.390625,-3.5625 H 1.9375 L 2.40625,-5.96875 H 4.453125 L 4.5625,-5.828125 v 0.8125 h 0.453125 l 0.265625,-1.40625 z m 0,0"
             id="path7369" />
        </g>
      </g>
      <g
         fill="#231f20"
         fill-opacity="1"
         id="g1543">
        <g
           id="use1541"
           transform="translate(210.147,80.978996)">
          <path
             d="m 2.40625,-2.75 c 0,2.609375 -0.765625,3.921875 -1.875,4.109375 v 0.4375 C 2.125,1.609375 3.21875,0.140625 3.21875,-2.75 c 0,-2.890625 -1.09375,-4.359375 -2.6875,-4.5625 v 0.453125 c 1.109375,0.1875 1.875,1.484375 1.875,4.109375 z m 0,0"
             id="path7577" />
        </g>
      </g>
      <g
         fill="#231f20"
         fill-opacity="1"
         id="g1547">
        <g
           id="use1545"
           transform="translate(213.905,80.978996)">
          <path
             d="m 1.515625,-4.59375 c -0.328125,0 -0.59375,0.25 -0.59375,0.59375 0,0.34375 0.265625,0.609375 0.59375,0.609375 C 1.859375,-3.390625 2.125,-3.65625 2.125,-4 c 0,-0.34375 -0.265625,-0.59375 -0.609375,-0.59375 z m 0,3.46875 c -0.328125,0 -0.59375,0.265625 -0.59375,0.609375 0,0.34375 0.265625,0.609375 0.59375,0.609375 C 1.859375,0.09375 2.125,-0.1875 2.125,-0.515625 2.125,-0.859375 1.859375,-1.125 1.515625,-1.125 Z m 0,0"
             id="path7613" />
        </g>
      </g>
      <path
         fill="none"
         stroke-width="0.574"
         stroke-linecap="butt"
         stroke-linejoin="miter"
         stroke="#231f20"
         stroke-opacity="1"
         stroke-miterlimit="10"
         d="M 0.0019375,4.0625e-4 H 64.248031"
         transform="matrix(1,0,0,-1,152.709,83.059)"
         id="path1549" />
      <g
         fill="#231f20"
         fill-opacity="1"
         id="g1553">
        <g
           id="use1551"
           transform="translate(162.75101,92.933998)">
          <path
             d="m 0.828125,-6.421875 v 0.375 L 1.4375,-6 1.53125,-5.859375 0.5,-0.546875 0.359375,-0.40625 -0.25,-0.359375 V 0 H 2.15625 V -0.375 L 1.484375,-0.4375 1.34375,-0.578125 1.8125,-3.015625 H 3.171875 L 3.28125,-2.875 3.234375,-2.1875 H 3.65625 L 4.0625,-4.28125 H 3.640625 L 3.421875,-3.59375 3.25,-3.453125 H 1.90625 L 2.375,-5.96875 h 1.9375 l 0.09375,0.140625 v 0.90625 H 4.875 l 0.28125,-1.5 z m 0,0"
             id="path7349" />
        </g>
      </g>
      <g
         fill="#231f20"
         fill-opacity="1"
         id="g1557">
        <g
           id="use1555"
           transform="translate(170.85699,92.933998)">
          <path
             d="m 0.53125,-3.5 h 6.4375 v -0.578125 h -6.4375 z m 0,2.0625 h 6.4375 v -0.578125 h -6.4375 z m 0,0"
             id="path7781" />
        </g>
      </g>
      <g
         fill="#231f20"
         fill-opacity="1"
         id="g1561">
        <g
           id="use1559"
           transform="translate(180.61153,92.933998)">
          <path
             d="m 1.34375,-2.75 c 0,-2.625 0.765625,-3.921875 1.875,-4.109375 V -7.3125 c -1.59375,0.203125 -2.6875,1.671875 -2.6875,4.5625 0,2.890625 1.09375,4.359375 2.6875,4.546875 v -0.4375 c -1.109375,-0.1875 -1.875,-1.5 -1.875,-4.109375 z m 0,0"
             id="path7389" />
        </g>
      </g>
      <g
         fill="#231f20"
         fill-opacity="1"
         id="g1565">
        <g
           id="use1563"
           transform="translate(184.605,92.933998)">
          <path
             d="m 0.296875,-6.421875 v 0.375 L 0.75,-6 l 0.15625,0.171875 0.921875,5.875 h 0.59375 L 5.703125,-6 l 0.5,-0.046875 v -0.375 H 4.40625 v 0.375 L 4.96875,-6 5.046875,-5.859375 2.453125,-0.875 1.6875,-5.859375 1.765625,-6 2.296875,-6.046875 v -0.375 z m 0,0"
             id="path7381" />
        </g>
      </g>
      <g
         fill="#231f20"
         fill-opacity="1"
         id="g1569">
        <g
           id="use1567"
           transform="translate(189.75999,92.933998)">
          <path
             d="m 0.375,1.609375 c 0.96875,-0.09375 1.609375,-0.84375 1.609375,-1.671875 0,-0.609375 -0.28125,-0.953125 -0.765625,-0.953125 -0.3125,0 -0.5625,0.21875 -0.5625,0.53125 0,0.171875 0.046875,0.296875 0.15625,0.421875 h 0.609375 c 0,0.03125 0,0.078125 0,0.09375 0,0.703125 -0.34375,1.140625 -1.046875,1.265625 z m 0,0"
             id="path7677" />
        </g>
      </g>
      <g
         fill="#231f20"
         fill-opacity="1"
         id="g1573">
        <g
           id="use1571"
           transform="translate(193.75301,92.933998)">
          <path
             d="m 6.265625,-4.96875 0.8125,-0.859375 -0.40625,-0.390625 -0.8125,0.84375 C 5.265625,-5.828125 4.546875,-6.109375 3.75,-6.109375 c -1.859375,0 -3.359375,1.5 -3.359375,3.359375 0,0.84375 0.3125,1.625 0.84375,2.21875 l -0.8125,0.859375 0.40625,0.390625 0.8125,-0.859375 c 0.59375,0.46875 1.3125,0.75 2.109375,0.75 1.859375,0 3.359375,-1.515625 3.359375,-3.359375 0,-0.859375 -0.3125,-1.640625 -0.84375,-2.21875 z m -4.21875,4.421875 3.8125,-4.015625 c 0.421875,0.484375 0.671875,1.125 0.671875,1.8125 0,1.53125 -1.25,2.78125 -2.78125,2.78125 -0.640625,0 -1.234375,-0.21875 -1.703125,-0.578125 z m 3.40625,-4.40625 -3.8125,4 C 1.21875,-1.4375 0.96875,-2.0625 0.96875,-2.75 c 0,-1.546875 1.234375,-2.78125 2.78125,-2.78125 0.640625,0 1.234375,0.21875 1.703125,0.578125 z m 0,0"
             id="path7665" />
        </g>
      </g>
      <g
         fill="#231f20"
         fill-opacity="1"
         id="g1577">
        <g
           id="use1575"
           transform="translate(201.28,92.933998)">
          <path
             d="m 2.40625,-2.75 c 0,2.609375 -0.765625,3.921875 -1.875,4.109375 v 0.4375 C 2.125,1.609375 3.21875,0.140625 3.21875,-2.75 c 0,-2.890625 -1.09375,-4.359375 -2.6875,-4.5625 v 0.453125 c 1.109375,0.1875 1.875,1.484375 1.875,4.109375 z m 0,0"
             id="path7581" />
        </g>
      </g>
      <g
         fill="#231f20"
         fill-opacity="1"
         id="g1583">
        <g
           id="use1579"
           transform="translate(162.27299,104.889)">
          <path
             d="m 2.9375,-3.4375 c 0.359375,-0.015625 0.59375,-0.234375 0.59375,-0.53125 0,-0.359375 -0.359375,-0.671875 -0.875,-0.671875 -0.59375,0 -1.234375,0.296875 -1.71875,0.828125 -0.5,0.5625 -0.796875,1.3125 -0.796875,2.171875 0,1.078125 0.578125,1.734375 1.421875,1.734375 0.5625,0 1.1875,-0.296875 1.78125,-0.921875 v -0.4375 c -0.515625,0.515625 -1.046875,0.78125 -1.484375,0.78125 -0.59375,0 -0.953125,-0.46875 -0.953125,-1.296875 0,-1.421875 0.65625,-2.390625 1.421875,-2.390625 H 2.375 Z m 0,0"
             id="path7737" />
        </g>
        <g
           id="use1581"
           transform="translate(166.04129,104.889)">
          <path
             d="M 2.671875,-4.625 C 2.015625,-4.625 1.4375,-4.34375 0.96875,-3.828125 0.5,-3.28125 0.203125,-2.5 0.203125,-1.734375 c 0,1.109375 0.640625,1.828125 1.640625,1.828125 0.65625,0 1.21875,-0.265625 1.671875,-0.78125 0.5,-0.578125 0.78125,-1.296875 0.78125,-2.0625 0,-1.15625 -0.640625,-1.875 -1.625,-1.875 z m -0.125,0.375 c 0.578125,0 0.9375,0.5 0.9375,1.453125 0,1.453125 -0.71875,2.484375 -1.53125,2.484375 -0.578125,0 -0.9375,-0.484375 -0.9375,-1.40625 0,-1.484375 0.703125,-2.53125 1.53125,-2.53125 z m 0,0"
             id="path7721" />
        </g>
      </g>
      <g
         fill="#231f20"
         fill-opacity="1"
         id="g1591">
        <g
           id="use1585"
           transform="translate(170.74689,104.889)">
          <path
             d="m 1.78125,-4.625 -1.5,0.328125 v 0.25 L 1.078125,-3.90625 0.53125,-1.390625 c -0.046875,0.21875 -0.078125,0.40625 -0.078125,0.5625 0,0.5625 0.34375,0.90625 0.921875,0.90625 0.515625,0 1.09375,-0.265625 1.734375,-0.796875 -0.015625,0.0625 -0.015625,0.125 -0.015625,0.1875 0,0.421875 0.1875,0.609375 0.578125,0.609375 0.296875,0 0.703125,-0.109375 1.21875,-0.296875 v -0.265625 c -0.21875,0.0625 -0.40625,0.109375 -0.53125,0.109375 -0.3125,0 -0.5,-0.171875 -0.5,-0.375 0,-0.203125 0.046875,-0.421875 0.09375,-0.65625 l 0.6875,-3.109375 h -0.78125 l -0.71875,3.4375 C 2.609375,-0.65625 2.125,-0.46875 1.78125,-0.46875 1.4375,-0.46875 1.234375,-0.65625 1.234375,-1 c 0,-0.140625 0.03125,-0.375 0.109375,-0.703125 l 0.59375,-2.78125 z m 0,0"
             id="path7705" />
        </g>
        <g
           id="use1587"
           transform="translate(176.03589,104.889)">
          <path
             d="m 1.734375,-4.609375 -1.421875,0.3125 v 0.25 L 1.09375,-3.90625 0.3125,0 H 1.125 l 0.59375,-3.234375 c 0.578125,-0.53125 1.078125,-0.78125 1.40625,-0.78125 0.359375,0 0.515625,0.1875 0.515625,0.609375 0,0.109375 -0.015625,0.328125 -0.078125,0.609375 L 3.140625,-1.03125 C 3.09375,-0.828125 3.0625,-0.640625 3.0625,-0.515625 c 0,0.375 0.234375,0.578125 0.703125,0.578125 0.265625,0 0.65625,-0.09375 1.15625,-0.296875 V -0.5 c -0.234375,0.0625 -0.40625,0.09375 -0.53125,0.09375 -0.3125,0 -0.5,-0.171875 -0.5,-0.46875 C 3.890625,-1.015625 3.9375,-1.234375 4,-1.515625 L 4.328125,-3 c 0.078125,-0.34375 0.125,-0.609375 0.125,-0.84375 0,-0.46875 -0.296875,-0.765625 -0.796875,-0.765625 -0.515625,0 -1.109375,0.3125 -1.859375,0.921875 L 1.96875,-4.609375 Z m 0,0"
             id="path7689" />
        </g>
        <g
           id="use1589"
           transform="translate(181.35358,104.889)">
          <path
             d="M 1.59375,-5.53125 1.125,-4.578125 0.421875,-4.28125 v 0.296875 L 1.015625,-4.03125 0.5,-1.4375 c -0.0625,0.265625 -0.078125,0.484375 -0.078125,0.640625 0,0.578125 0.25,0.859375 0.796875,0.859375 0.34375,0 0.84375,-0.140625 1.484375,-0.421875 V -0.65625 c -0.390625,0.125 -0.6875,0.1875 -0.921875,0.1875 -0.375,0 -0.578125,-0.203125 -0.578125,-0.59375 0,-0.109375 0.03125,-0.25 0.0625,-0.421875 l 0.5,-2.546875 H 3.21875 v -0.421875 h -1.375 l 0.1875,-1.078125 z m 0,0"
             id="path7753" />
        </g>
      </g>
      <g
         fill="#231f20"
         fill-opacity="1"
         id="g1595">
        <g
           id="use1593"
           transform="translate(186.76199,104.889)">
          <path
             d="M 9.109375,-3.046875 H 1.6875 L 2.84375,-4.25 2.4375,-4.65625 0.53125,-2.828125 V -2.6875 L 2.4375,-0.84375 2.84375,-1.265625 1.6875,-2.46875 h 7.421875 z m 0,0"
             id="path7773" />
        </g>
      </g>
      <g
         fill="#231f20"
         fill-opacity="1"
         id="g1599">
        <g
           id="use1597"
           transform="translate(198.66499,104.889)">
          <path
             d="M 5.625,-0.21875 V -1.734375 H 5.09375 l -0.21875,1.0625 -0.15625,0.15625 c -0.28125,0.078125 -0.5625,0.125 -0.828125,0.125 -1.546875,0 -2.5,-1.078125 -2.5,-2.890625 0,-1.703125 0.9375,-2.75 2.359375,-2.75 0.375,0 0.71875,0.09375 1.0625,0.25 l 0.125,0.171875 0.15625,0.875 H 5.625 v -1.46875 C 4.921875,-6.421875 4.296875,-6.53125 3.734375,-6.53125 c -2,0 -3.328125,1.328125 -3.328125,3.3125 0,1.265625 0.640625,2.375 1.65625,2.953125 0.4375,0.25 1,0.375 1.625,0.375 C 4.328125,0.109375 4.984375,0 5.625,-0.21875 Z m 0,0"
             id="path7605" />
        </g>
      </g>
      <g
         fill="#231f20"
         fill-opacity="1"
         id="g1603">
        <g
           id="use1601"
           transform="translate(204.45134,104.889)">
          <path
             d="m 3.03125,-4.84375 c -0.671875,0 -1.265625,0.203125 -1.734375,0.609375 -0.53125,0.46875 -0.8125,1.109375 -0.8125,1.875 0,0.765625 0.28125,1.40625 0.8125,1.875 0.46875,0.390625 1.0625,0.59375 1.734375,0.59375 0.921875,0 1.703125,-0.40625 2.140625,-1.078125 0.265625,-0.421875 0.40625,-0.875 0.40625,-1.390625 0,-0.765625 -0.296875,-1.40625 -0.8125,-1.875 -0.46875,-0.40625 -1.0625,-0.609375 -1.734375,-0.609375 z m 0,0.5 c 0.9375,0 1.59375,0.75 1.59375,1.984375 0,1.234375 -0.65625,1.984375 -1.59375,1.984375 -0.953125,0 -1.59375,-0.75 -1.59375,-1.984375 0,-1.25 0.640625,-1.984375 1.59375,-1.984375 z m 0,0"
             id="path7657" />
        </g>
      </g>
      <g
         fill="#231f20"
         fill-opacity="1"
         id="g1613">
        <g
           id="use1605"
           transform="translate(210.20898,104.889)">
          <path
             d="m 0.359375,-4.71875 v 0.375 l 0.546875,0.046875 0.15625,0.09375 v 2.5625 c 0,0.5 0.03125,0.890625 0.34375,1.203125 0.296875,0.328125 0.890625,0.53125 1.640625,0.53125 0.734375,0 1.328125,-0.203125 1.625,-0.53125 0.3125,-0.3125 0.34375,-0.703125 0.34375,-1.203125 V -4.15625 L 5.1875,-4.28125 5.75,-4.34375 v -0.375 H 3.953125 v 0.375 l 0.4375,0.0625 0.140625,0.125 v 2.359375 c 0,0.90625 -0.390625,1.3125 -1.3125,1.3125 -0.953125,0 -1.328125,-0.40625 -1.328125,-1.3125 v -2.40625 L 2.03125,-4.296875 2.484375,-4.34375 v -0.375 z m 0,0"
             id="path7597" />
        </g>
        <g
           id="use1607"
           transform="translate(216.244,104.889)">
          <path
             d="M 0.40625,-0.015625 H 2.1875 v -0.375 l -0.453125,-0.0625 -0.125,-0.125 v -3.34375 l 2.796875,3.90625 H 4.984375 V -4.15625 l 0.171875,-0.125 0.5625,-0.0625 v -0.375 H 3.9375 v 0.375 l 0.4375,0.0625 0.125,0.125 v 3.140625 L 2,-4.484375 V -4.71875 H 0.375 v 0.375 l 0.578125,0.046875 0.171875,0.09375 v 3.625 l -0.171875,0.125 -0.546875,0.0625 z m 0,0"
             id="path7561" />
        </g>
        <g
           id="use1609"
           transform="translate(222.32683,104.889)">
          <path
             d="m 0.296875,-4.71875 v 1.40625 h 0.5 L 0.90625,-4.15625 1.015625,-4.296875 h 1.21875 V -0.5 L 2.09375,-0.421875 1.5625,-0.390625 v 0.375 h 2.171875 v -0.375 L 3.203125,-0.421875 3.0625,-0.5 V -4.296875 H 4.28125 L 4.390625,-4.15625 4.5,-3.3125 h 0.484375 v -1.40625 z m 0,0"
             id="path7553" />
        </g>
        <g
           id="use1611"
           transform="translate(227.61583,104.889)">
          <path
             d="m 2.71875,-6.5 -2.234375,6 -0.5625,0.109375 V 0 h 1.875 v -0.390625 l -0.625,-0.046875 -0.09375,-0.140625 0.6875,-1.828125 h 2.25 l 0.6875,1.828125 -0.0625,0.140625 -0.59375,0.046875 V 0 H 6.21875 V -0.390625 L 5.640625,-0.5 3.34375,-6.5 Z M 2.875,-5.484375 3.859375,-2.84375 h -1.9375 z m 0,0"
             id="path7537" />
        </g>
      </g>
      <g
         fill="#231f20"
         fill-opacity="1"
         id="g1623">
        <g
           id="use1615"
           transform="translate(233.78474,104.889)">
          <path
             d="M 0.40625,-0.015625 H 2.1875 v -0.375 l -0.453125,-0.0625 -0.125,-0.125 v -3.34375 l 2.796875,3.90625 H 4.984375 V -4.15625 l 0.171875,-0.125 0.5625,-0.0625 v -0.375 H 3.9375 v 0.375 l 0.4375,0.0625 0.125,0.125 v 3.140625 L 2,-4.484375 V -4.71875 H 0.375 v 0.375 l 0.578125,0.046875 0.171875,0.09375 v 3.625 l -0.171875,0.125 -0.546875,0.0625 z m 0,0"
             id="path7565" />
        </g>
        <g
           id="use1617"
           transform="translate(239.86757,104.889)">
          <path
             d="M 2.4375,-4.71875 H 0.421875 v 0.375 l 0.53125,0.015625 0.171875,0.125 v 3.671875 l -0.171875,0.125 -0.53125,0.03125 v 0.359375 H 2.4375 c 0.828125,0 1.4375,-0.078125 2,-0.421875 0.671875,-0.4375 1.015625,-1.09375 1.015625,-1.921875 0,-1.46875 -1.078125,-2.359375 -3.015625,-2.359375 z m -0.5,0.421875 h 0.59375 c 1.34375,0 2.015625,0.640625 2.015625,1.9375 0,1.28125 -0.671875,1.921875 -2.015625,1.921875 H 1.9375 Z m 0,0"
             id="path7517" />
        </g>
        <g
           id="use1619"
           transform="translate(245.81651,104.889)">
          <path
             d="M 0.265625,0 H 4.84375 v -1.734375 h -0.5 l -0.171875,1.140625 -0.125,0.15625 h -2.15625 v -5.40625 l 0.15625,-0.125 0.546875,-0.0625 V -6.421875 H 0.265625 v 0.390625 l 0.59375,0.0625 0.15625,0.125 v 5.265625 l -0.15625,0.140625 -0.59375,0.046875 z m 0,0"
             id="path7509" />
        </g>
        <g
           id="use1621"
           transform="translate(250.78989,104.889)">
          <path
             d="m 2.234375,-4.765625 -1.6875,4.3125 L 0.140625,-0.375 V 0 h 1.40625 V -0.375 L 1.109375,-0.40625 1.046875,-0.5 1.515625,-1.71875 H 3.1875 L 3.703125,-0.5 3.65625,-0.40625 3.21875,-0.375 V 0 H 4.9375 V -0.375 L 4.5,-0.453125 2.796875,-4.765625 Z m 0.109375,0.71875 0.734375,1.90625 h -1.4375 z m 0,0"
             id="path7621" />
        </g>
      </g>
      <g
         fill="#231f20"
         fill-opacity="1"
         id="g1627">
        <g
           id="use1625"
           transform="translate(255.61981,104.889)">
          <path
             d="m 0.421875,-4.71875 v 0.375 l 0.53125,0.046875 0.171875,0.09375 V -0.53125 L 0.953125,-0.4375 0.421875,-0.375 V 0 H 2.6875 c 1.46875,0 2.25,-0.484375 2.25,-1.390625 0,-0.6875 -0.59375,-1.125 -1.640625,-1.140625 C 4.125,-2.703125 4.5625,-3.0625 4.5625,-3.578125 4.5625,-4.34375 3.90625,-4.71875 2.59375,-4.71875 Z M 1.9375,-2.625 v -1.65625 c 0.1875,-0.015625 0.34375,-0.015625 0.4375,-0.015625 0.859375,0 1.28125,0.25 1.28125,0.78125 0,0.625 -0.4375,0.890625 -1.421875,0.890625 -0.09375,0 -0.1875,0 -0.296875,0 z m 0,2.171875 V -2.15625 c 0.3125,-0.046875 0.578125,-0.0625 0.78125,-0.0625 0.890625,0 1.328125,0.28125 1.328125,0.859375 0,0.65625 -0.5,0.921875 -1.5625,0.921875 -0.1875,0 -0.359375,-0.015625 -0.546875,-0.015625 z m 0,0"
             id="path7497" />
        </g>
      </g>
      <g
         fill="#231f20"
         fill-opacity="1"
         id="g1633">
        <g
           id="use1629"
           transform="translate(260.95663,104.889)">
          <path
             d="m 0.421875,-0.015625 h 4.625 V -1.1875 H 4.578125 L 4.421875,-0.53125 4.28125,-0.4375 H 1.9375 v -1.796875 h 1.296875 l 0.109375,0.09375 0.078125,0.46875 h 0.4375 V -3.21875 h -0.4375 L 3.34375,-2.75 3.234375,-2.671875 H 1.9375 v -1.625 h 1.875 L 4,-4.203125 4.203125,-3.65625 H 4.71875 v -1.0625 H 0.421875 v 0.375 l 0.53125,0.015625 0.171875,0.125 v 3.6875 L 0.953125,-0.40625 0.421875,-0.375 Z m 0,0"
             id="path7481" />
        </g>
        <g
           id="use1631"
           transform="translate(266.37955,104.889)">
          <path
             d="M 0.375,-0.015625 H 4.359375 V -1.34375 H 3.875 L 3.765625,-0.53125 3.65625,-0.4375 H 1.9375 V -4.203125 L 2.0625,-4.296875 2.5,-4.34375 v -0.375 H 0.375 v 0.375 l 0.578125,0.046875 0.15625,0.09375 v 3.671875 l -0.15625,0.125 L 0.375,-0.375 Z m 0,0"
             id="path7465" />
        </g>
      </g>
      <g
         fill="#231f20"
         fill-opacity="1"
         id="g1637">
        <g
           id="use1635"
           transform="translate(271.02701,104.889)">
          <path
             d="m 1.34375,-2.75 c 0,-2.625 0.765625,-3.921875 1.875,-4.109375 V -7.3125 c -1.59375,0.203125 -2.6875,1.671875 -2.6875,4.5625 0,2.890625 1.09375,4.359375 2.6875,4.546875 v -0.4375 c -1.109375,-0.1875 -1.875,-1.5 -1.875,-4.109375 z m 0,0"
             id="path7393" />
        </g>
      </g>
      <g
         fill="#231f20"
         fill-opacity="1"
         id="g1641">
        <g
           id="use1639"
           transform="translate(275.26401,104.889)">
          <path
             d="m 0.828125,-6.421875 v 0.375 L 1.4375,-6 1.53125,-5.859375 0.5,-0.546875 0.359375,-0.40625 -0.25,-0.359375 V 0 H 2.15625 V -0.375 L 1.484375,-0.4375 1.34375,-0.578125 1.8125,-3.015625 H 3.171875 L 3.28125,-2.875 3.234375,-2.1875 H 3.65625 L 4.0625,-4.28125 H 3.640625 L 3.421875,-3.59375 3.25,-3.453125 H 1.90625 L 2.375,-5.96875 h 1.9375 l 0.09375,0.140625 v 0.90625 H 4.875 l 0.28125,-1.5 z m 0,0"
             id="path7353" />
        </g>
      </g>
      <g
         fill="#231f20"
         fill-opacity="1"
         id="g1645">
        <g
           id="use1643"
           transform="translate(281.146,104.889)">
          <path
             d="m 2.40625,-2.75 c 0,2.609375 -0.765625,3.921875 -1.875,4.109375 v 0.4375 C 2.125,1.609375 3.21875,0.140625 3.21875,-2.75 c 0,-2.890625 -1.09375,-4.359375 -2.6875,-4.5625 v 0.453125 c 1.109375,0.1875 1.875,1.484375 1.875,4.109375 z m 0,0"
             id="path7585" />
        </g>
      </g>
      <g
         fill="#231f20"
         fill-opacity="1"
         id="g1655">
        <g
           id="use1647"
           transform="translate(162.27299,119.144)">
          <path
             d="M -0.015625,-4.59375 V -4.25 L 0.5625,-4.1875 1.84375,0 H 2.421875 L 3.71875,-3.625 4.875,0 H 5.46875 L 6.84375,-4.171875 7.375,-4.25 V -4.59375 H 5.6875 V -4.25 l 0.515625,0.046875 0.0625,0.15625 -0.96875,3.09375 -1.125,-3.640625 H 3.578125 L 2.296875,-0.953125 1.4375,-4.046875 1.546875,-4.203125 2.0625,-4.25 v -0.34375 z m 0,0"
             id="path7461" />
        </g>
        <g
           id="use1649"
           transform="translate(169.647,119.144)">
          <path
             d="M 1.34375,-7.03125 0.1875,-6.6875 v 0.296875 h 0.734375 v 5.84375 L 0.75,-0.390625 0.234375,-0.34375 V 0 h 2.09375 V -0.34375 L 1.890625,-0.390625 1.71875,-0.546875 V -3.75 c 0.40625,-0.203125 0.765625,-0.3125 1.0625,-0.3125 0.703125,0 0.96875,0.28125 0.96875,0.984375 v 2.53125 l -0.171875,0.15625 -0.4375,0.046875 V 0 H 5.21875 v -0.34375 l -0.5,-0.046875 -0.171875,-0.15625 v -2.6875 c 0,-0.96875 -0.453125,-1.453125 -1.28125,-1.453125 -0.421875,0 -0.90625,0.21875 -1.546875,0.5625 v -2.90625 z m 0,0"
             id="path7437" />
        </g>
        <g
           id="use1651"
           transform="translate(175.04121,119.144)">
          <path
             d="m 1.46875,-6.765625 c -0.296875,0 -0.546875,0.234375 -0.546875,0.546875 0,0.3125 0.25,0.546875 0.546875,0.546875 0.3125,0 0.5625,-0.234375 0.5625,-0.546875 0,-0.296875 -0.25,-0.546875 -0.5625,-0.546875 z m -0.03125,2.125 -1.109375,0.34375 V -4 H 1 v 3.453125 L 0.84375,-0.390625 0.328125,-0.34375 V 0 h 2.15625 V -0.34375 L 1.96875,-0.390625 1.796875,-0.546875 v -4.09375 z m 0,0"
             id="path7457" />
        </g>
        <g
           id="use1653"
           transform="translate(177.71918,119.144)">
          <path
             d="M 0.265625,0 H 2.5 V -0.34375 L 1.953125,-0.390625 1.78125,-0.546875 V -7.03125 H 1.421875 l -1.15625,0.34375 v 0.296875 H 1 v 5.84375 l -0.171875,0.15625 -0.5625,0.046875 z m 0,0"
             id="path7453" />
        </g>
      </g>
      <g
         fill="#231f20"
         fill-opacity="1"
         id="g1659">
        <g
           id="use1657"
           transform="translate(180.32065,119.144)">
          <path
             d="m 4.28125,-1.015625 c -0.546875,0.359375 -1.015625,0.5625 -1.5,0.5625 -0.96875,0 -1.609375,-0.734375 -1.609375,-1.953125 V -2.515625 H 4.28125 c 0,-0.109375 0,-0.203125 0,-0.296875 0,-1.171875 -0.671875,-1.875 -1.71875,-1.875 -1.28125,0 -2.203125,0.984375 -2.203125,2.421875 0,1.40625 0.859375,2.359375 2.125,2.359375 0.609375,0 1.21875,-0.203125 1.796875,-0.578125 z M 3.4375,-2.921875 H 1.21875 c 0.0625,-0.8125 0.609375,-1.34375 1.21875,-1.34375 0.640625,0 1,0.421875 1,1.203125 z m 0,0"
             id="path7445" />
        </g>
      </g>
      <g
         fill="#231f20"
         fill-opacity="1"
         id="g1665">
        <g
           id="use1661"
           transform="translate(187.67599,119.144)">
          <path
             d="m 2.9375,-3.4375 c 0.359375,-0.015625 0.59375,-0.234375 0.59375,-0.53125 0,-0.359375 -0.359375,-0.671875 -0.875,-0.671875 -0.59375,0 -1.234375,0.296875 -1.71875,0.828125 -0.5,0.5625 -0.796875,1.3125 -0.796875,2.171875 0,1.078125 0.578125,1.734375 1.421875,1.734375 0.5625,0 1.1875,-0.296875 1.78125,-0.921875 v -0.4375 c -0.515625,0.515625 -1.046875,0.78125 -1.484375,0.78125 -0.59375,0 -0.953125,-0.46875 -0.953125,-1.296875 0,-1.421875 0.65625,-2.390625 1.421875,-2.390625 H 2.375 Z m 0,0"
             id="path7741" />
        </g>
        <g
           id="use1663"
           transform="translate(191.44429,119.144)">
          <path
             d="M 2.671875,-4.625 C 2.015625,-4.625 1.4375,-4.34375 0.96875,-3.828125 0.5,-3.28125 0.203125,-2.5 0.203125,-1.734375 c 0,1.109375 0.640625,1.828125 1.640625,1.828125 0.65625,0 1.21875,-0.265625 1.671875,-0.78125 0.5,-0.578125 0.78125,-1.296875 0.78125,-2.0625 0,-1.15625 -0.640625,-1.875 -1.625,-1.875 z m -0.125,0.375 c 0.578125,0 0.9375,0.5 0.9375,1.453125 0,1.453125 -0.71875,2.484375 -1.53125,2.484375 -0.578125,0 -0.9375,-0.484375 -0.9375,-1.40625 0,-1.484375 0.703125,-2.53125 1.53125,-2.53125 z m 0,0"
             id="path7725" />
        </g>
      </g>
      <g
         fill="#231f20"
         fill-opacity="1"
         id="g1673">
        <g
           id="use1667"
           transform="translate(196.14989,119.144)">
          <path
             d="m 1.78125,-4.625 -1.5,0.328125 v 0.25 L 1.078125,-3.90625 0.53125,-1.390625 c -0.046875,0.21875 -0.078125,0.40625 -0.078125,0.5625 0,0.5625 0.34375,0.90625 0.921875,0.90625 0.515625,0 1.09375,-0.265625 1.734375,-0.796875 -0.015625,0.0625 -0.015625,0.125 -0.015625,0.1875 0,0.421875 0.1875,0.609375 0.578125,0.609375 0.296875,0 0.703125,-0.109375 1.21875,-0.296875 v -0.265625 c -0.21875,0.0625 -0.40625,0.109375 -0.53125,0.109375 -0.3125,0 -0.5,-0.171875 -0.5,-0.375 0,-0.203125 0.046875,-0.421875 0.09375,-0.65625 l 0.6875,-3.109375 h -0.78125 l -0.71875,3.4375 C 2.609375,-0.65625 2.125,-0.46875 1.78125,-0.46875 1.4375,-0.46875 1.234375,-0.65625 1.234375,-1 c 0,-0.140625 0.03125,-0.375 0.109375,-0.703125 l 0.59375,-2.78125 z m 0,0"
             id="path7709" />
        </g>
        <g
           id="use1669"
           transform="translate(201.43889,119.144)">
          <path
             d="m 1.734375,-4.609375 -1.421875,0.3125 v 0.25 L 1.09375,-3.90625 0.3125,0 H 1.125 l 0.59375,-3.234375 c 0.578125,-0.53125 1.078125,-0.78125 1.40625,-0.78125 0.359375,0 0.515625,0.1875 0.515625,0.609375 0,0.109375 -0.015625,0.328125 -0.078125,0.609375 L 3.140625,-1.03125 C 3.09375,-0.828125 3.0625,-0.640625 3.0625,-0.515625 c 0,0.375 0.234375,0.578125 0.703125,0.578125 0.265625,0 0.65625,-0.09375 1.15625,-0.296875 V -0.5 c -0.234375,0.0625 -0.40625,0.09375 -0.53125,0.09375 -0.3125,0 -0.5,-0.171875 -0.5,-0.46875 C 3.890625,-1.015625 3.9375,-1.234375 4,-1.515625 L 4.328125,-3 c 0.078125,-0.34375 0.125,-0.609375 0.125,-0.84375 0,-0.46875 -0.296875,-0.765625 -0.796875,-0.765625 -0.515625,0 -1.109375,0.3125 -1.859375,0.921875 L 1.96875,-4.609375 Z m 0,0"
             id="path7693" />
        </g>
        <g
           id="use1671"
           transform="translate(206.75658,119.144)">
          <path
             d="M 1.59375,-5.53125 1.125,-4.578125 0.421875,-4.28125 v 0.296875 L 1.015625,-4.03125 0.5,-1.4375 c -0.0625,0.265625 -0.078125,0.484375 -0.078125,0.640625 0,0.578125 0.25,0.859375 0.796875,0.859375 0.34375,0 0.84375,-0.140625 1.484375,-0.421875 V -0.65625 c -0.390625,0.125 -0.6875,0.1875 -0.921875,0.1875 -0.375,0 -0.578125,-0.203125 -0.578125,-0.59375 0,-0.109375 0.03125,-0.25 0.0625,-0.421875 l 0.5,-2.546875 H 3.21875 v -0.421875 h -1.375 l 0.1875,-1.078125 z m 0,0"
             id="path7757" />
        </g>
      </g>
      <g
         fill="#231f20"
         fill-opacity="1"
         id="g1677">
        <g
           id="use1675"
           transform="translate(212.16499,119.144)">
          <path
             d="m 0.53125,-4.875 5.125,2.125 -5.125,2.125 v 0.609375 L 6.6875,-2.5625 v -0.375 L 0.53125,-5.5 Z m 0,0"
             id="path7769" />
        </g>
      </g>
      <g
         fill="#231f20"
         fill-opacity="1"
         id="g1681">
        <g
           id="use1679"
           transform="translate(221.91499,119.144)">
          <path
             d="m 2.96875,-6.53125 -2.0625,0.625 v 0.390625 l 1.5,-0.265625 V -0.625 l -0.125,0.15625 -1.09375,0.0625 V 0 h 3.203125 v -0.40625 l -1.03125,-0.046875 -0.125,-0.140625 v -5.9375 z m 0,0"
             id="path7669" />
        </g>
      </g>
      <g
         fill="#231f20"
         fill-opacity="1"
         id="g1685">
        <g
           id="use1683"
           transform="translate(181.401,131.099)">
          <path
             d="m 2.71875,-6.5 -2.234375,6 -0.5625,0.109375 V 0 h 1.875 v -0.390625 l -0.625,-0.046875 -0.09375,-0.140625 0.6875,-1.828125 h 2.25 l 0.6875,1.828125 -0.0625,0.140625 -0.59375,0.046875 V 0 H 6.21875 V -0.390625 L 5.640625,-0.5 3.34375,-6.5 Z M 2.875,-5.484375 3.859375,-2.84375 h -1.9375 z m 0,0"
             id="path7541" />
        </g>
      </g>
      <g
         fill="#231f20"
         fill-opacity="1"
         id="g1689">
        <g
           id="use1687"
           transform="translate(187.56992,131.099)">
          <path
             d="M 2.4375,-4.71875 H 0.421875 v 0.375 l 0.53125,0.015625 0.171875,0.125 v 3.671875 l -0.171875,0.125 -0.53125,0.03125 v 0.359375 H 2.4375 c 0.828125,0 1.4375,-0.078125 2,-0.421875 0.671875,-0.4375 1.015625,-1.09375 1.015625,-1.921875 0,-1.46875 -1.078125,-2.359375 -3.015625,-2.359375 z m -0.5,0.421875 h 0.59375 c 1.34375,0 2.015625,0.640625 2.015625,1.9375 0,1.28125 -0.671875,1.921875 -2.015625,1.921875 H 1.9375 Z m 0,0"
             id="path7521" />
        </g>
      </g>
      <g
         fill="#231f20"
         fill-opacity="1"
         id="g1695">
        <g
           id="use1691"
           transform="translate(193.10757,131.099)">
          <path
             d="M 2.4375,-4.71875 H 0.421875 v 0.375 l 0.53125,0.015625 0.171875,0.125 v 3.671875 l -0.171875,0.125 -0.53125,0.03125 v 0.359375 H 2.4375 c 0.828125,0 1.4375,-0.078125 2,-0.421875 0.671875,-0.4375 1.015625,-1.09375 1.015625,-1.921875 0,-1.46875 -1.078125,-2.359375 -3.015625,-2.359375 z m -0.5,0.421875 h 0.59375 c 1.34375,0 2.015625,0.640625 2.015625,1.9375 0,1.28125 -0.671875,1.921875 -2.015625,1.921875 H 1.9375 Z m 0,0"
             id="path7525" />
        </g>
        <g
           id="use1693"
           transform="translate(199.05652,131.099)">
          <path
             d="m 2.71875,-6.5 -2.234375,6 -0.5625,0.109375 V 0 h 1.875 v -0.390625 l -0.625,-0.046875 -0.09375,-0.140625 0.6875,-1.828125 h 2.25 l 0.6875,1.828125 -0.0625,0.140625 -0.59375,0.046875 V 0 H 6.21875 V -0.390625 L 5.640625,-0.5 3.34375,-6.5 Z M 2.875,-5.484375 3.859375,-2.84375 h -1.9375 z m 0,0"
             id="path7545" />
        </g>
      </g>
      <g
         fill="#231f20"
         fill-opacity="1"
         id="g1703">
        <g
           id="use1697"
           transform="translate(205.22542,131.099)">
          <path
             d="M 0.375,-0.015625 H 4.359375 V -1.34375 H 3.875 L 3.765625,-0.53125 3.65625,-0.4375 H 1.9375 V -4.203125 L 2.0625,-4.296875 2.5,-4.34375 v -0.375 H 0.375 v 0.375 l 0.578125,0.046875 0.15625,0.09375 v 3.671875 l -0.15625,0.125 L 0.375,-0.375 Z m 0,0"
             id="path7469" />
        </g>
        <g
           id="use1699"
           transform="translate(209.87363,131.099)">
          <path
             d="M 0.375,-0.015625 H 4.359375 V -1.34375 H 3.875 L 3.765625,-0.53125 3.65625,-0.4375 H 1.9375 V -4.203125 L 2.0625,-4.296875 2.5,-4.34375 v -0.375 H 0.375 v 0.375 l 0.578125,0.046875 0.15625,0.09375 v 3.671875 l -0.15625,0.125 L 0.375,-0.375 Z m 0,0"
             id="path7473" />
        </g>
        <g
           id="use1701"
           transform="translate(214.52182,131.099)">
          <path
             d="m 0.578125,-0.1875 c 0.4375,0.1875 1.03125,0.296875 1.71875,0.296875 1.53125,0 2.46875,-0.78125 2.46875,-1.921875 0,-0.421875 -0.140625,-0.765625 -0.421875,-1.046875 -0.4375,-0.4375 -0.953125,-0.578125 -1.4375,-0.78125 -0.875,-0.375 -1.34375,-0.609375 -1.34375,-1.25 0,-0.703125 0.5,-1.15625 1.3125,-1.15625 0.328125,0 0.609375,0.0625 0.859375,0.1875 L 3.875,-5.6875 4.015625,-4.78125 h 0.5 V -6.265625 C 3.953125,-6.4375 3.40625,-6.53125 2.890625,-6.53125 c -1.359375,0 -2.21875,0.75 -2.21875,1.84375 0,0.921875 0.5625,1.28125 1.625,1.734375 1.046875,0.453125 1.59375,0.625 1.59375,1.40625 0,0.671875 -0.515625,1.15625 -1.4375,1.15625 -0.4375,0 -0.796875,-0.078125 -1.078125,-0.21875 L 1.25,-0.78125 1.140625,-1.875 h -0.5625 z m 0,0"
             id="path7421" />
        </g>
      </g>
      <g
         fill="#231f20"
         fill-opacity="1"
         id="g1707">
        <g
           id="use1705"
           transform="translate(219.45695,131.099)">
          <path
             d="m 2.234375,-4.765625 -1.6875,4.3125 L 0.140625,-0.375 V 0 h 1.40625 V -0.375 L 1.109375,-0.40625 1.046875,-0.5 1.515625,-1.71875 H 3.1875 L 3.703125,-0.5 3.65625,-0.40625 3.21875,-0.375 V 0 H 4.9375 V -0.375 L 4.5,-0.453125 2.796875,-4.765625 Z m 0.109375,0.71875 0.734375,1.90625 h -1.4375 z m 0,0"
             id="path7625" />
        </g>
      </g>
      <g
         fill="#231f20"
         fill-opacity="1"
         id="g1719">
        <g
           id="use1709"
           transform="translate(224.28688,131.099)">
          <path
             d="M 0.4375,-0.015625 H 2.625 v -0.375 L 2.078125,-0.421875 1.9375,-0.515625 v -1.65625 h 1.296875 l 0.109375,0.09375 0.078125,0.484375 h 0.4375 v -1.578125 h -0.4375 L 3.34375,-2.6875 3.234375,-2.59375 H 1.9375 v -1.703125 h 1.828125 l 0.140625,0.09375 0.265625,0.625 h 0.5 V -4.71875 h -4.3125 v 0.375 l 0.609375,0.015625 0.15625,0.125 v 3.6875 l -0.15625,0.09375 -0.53125,0.03125 z m 0,0"
             id="path7441" />
        </g>
        <g
           id="use1711"
           transform="translate(229.3559,131.099)">
          <path
             d="m 0.421875,-0.015625 h 4.625 V -1.1875 H 4.578125 L 4.421875,-0.53125 4.28125,-0.4375 H 1.9375 v -1.796875 h 1.296875 l 0.109375,0.09375 0.078125,0.46875 h 0.4375 V -3.21875 h -0.4375 L 3.34375,-2.75 3.234375,-2.671875 H 1.9375 v -1.625 h 1.875 L 4,-4.203125 4.203125,-3.65625 H 4.71875 v -1.0625 H 0.421875 v 0.375 l 0.53125,0.015625 0.171875,0.125 v 3.6875 L 0.953125,-0.40625 0.421875,-0.375 Z m 0,0"
             id="path7485" />
        </g>
        <g
           id="use1713"
           transform="translate(234.77879,131.099)">
          <path
             d="M 0.3125,0 H 5.234375 V -1.5625 H 4.75 l -0.171875,0.96875 -0.125,0.15625 h -2.5625 V -3.125 h 1.5625 l 0.125,0.15625 0.109375,0.6875 H 4.125 V -4.390625 H 3.6875 l -0.109375,0.703125 -0.125,0.125 h -1.5625 V -5.96875 H 4.09375 l 0.140625,0.140625 0.125,0.8125 h 0.53125 v -1.40625 H 0.3125 v 0.390625 l 0.546875,0.0625 0.15625,0.125 v 5.265625 L 0.859375,-0.4375 0.3125,-0.390625 Z m 0,0"
             id="path7433" />
        </g>
        <g
           id="use1715"
           transform="translate(240.28778,131.099)">
          <path
             d="M 2.4375,-4.71875 H 0.421875 v 0.375 l 0.53125,0.015625 0.171875,0.125 v 3.671875 l -0.171875,0.125 -0.53125,0.03125 v 0.359375 H 2.4375 c 0.828125,0 1.4375,-0.078125 2,-0.421875 0.671875,-0.4375 1.015625,-1.09375 1.015625,-1.921875 0,-1.46875 -1.078125,-2.359375 -3.015625,-2.359375 z m -0.5,0.421875 h 0.59375 c 1.34375,0 2.015625,0.640625 2.015625,1.9375 0,1.28125 -0.671875,1.921875 -2.015625,1.921875 H 1.9375 Z m 0,0"
             id="path7529" />
        </g>
        <g
           id="use1717"
           transform="translate(246.23671,131.099)">
          <path
             d="M 3.421875,-2.328125 V -1.9375 l 0.53125,0.03125 0.125,0.09375 V -0.5 C 3.78125,-0.4375 3.53125,-0.40625 3.3125,-0.40625 c -1.15625,0 -1.890625,-0.75 -1.890625,-2 0,-1.203125 0.703125,-1.90625 1.84375,-1.90625 0.296875,0 0.5625,0.0625 0.84375,0.171875 l 0.125,0.109375 L 4.375,-3.4375 H 4.890625 V -4.546875 C 4.359375,-4.71875 3.84375,-4.8125 3.359375,-4.8125 c -1.765625,0 -2.875,0.96875 -2.875,2.453125 0,0.921875 0.515625,1.734375 1.375,2.171875 0.375,0.171875 0.84375,0.28125 1.375,0.28125 0.46875,0 1.03125,-0.109375 1.65625,-0.328125 V -1.8125 L 5.0625,-1.90625 5.578125,-1.9375 v -0.390625 z m 0,0"
             id="path7429" />
        </g>
      </g>
      <g
         fill="#231f20"
         fill-opacity="1"
         id="g1725">
        <g
           id="use1721"
           transform="translate(252.07088,131.099)">
          <path
             d="m 0.421875,-0.015625 h 4.625 V -1.1875 H 4.578125 L 4.421875,-0.53125 4.28125,-0.4375 H 1.9375 v -1.796875 h 1.296875 l 0.109375,0.09375 0.078125,0.46875 h 0.4375 V -3.21875 h -0.4375 L 3.34375,-2.75 3.234375,-2.671875 H 1.9375 v -1.625 h 1.875 L 4,-4.203125 4.203125,-3.65625 H 4.71875 v -1.0625 H 0.421875 v 0.375 l 0.53125,0.015625 0.171875,0.125 v 3.6875 L 0.953125,-0.40625 0.421875,-0.375 Z m 0,0"
             id="path7489" />
        </g>
        <g
           id="use1723"
           transform="translate(257.49377,131.099)">
          <path
             d="m 0.609375,-0.203125 c 0.375,0.1875 0.890625,0.296875 1.484375,0.296875 1.328125,0 2.15625,-0.578125 2.15625,-1.390625 0,-0.296875 -0.125,-0.546875 -0.359375,-0.75 -0.375,-0.3125 -0.796875,-0.421875 -1.21875,-0.5625 -0.734375,-0.265625 -1.125,-0.4375 -1.125,-0.90625 C 1.546875,-4 1.9375,-4.34375 2.59375,-4.34375 c 0.265625,0 0.484375,0.046875 0.671875,0.140625 l 0.125,0.109375 0.125,0.625 H 4 v -1.078125 c -0.484375,-0.171875 -0.953125,-0.25 -1.40625,-0.25 -1.15625,0 -1.890625,0.53125 -1.890625,1.3125 0,0.65625 0.46875,0.90625 1.359375,1.234375 0.875,0.328125 1.34375,0.453125 1.34375,1.015625 C 3.40625,-0.75 3,-0.40625 2.234375,-0.40625 1.890625,-0.40625 1.59375,-0.46875 1.375,-0.5625 L 1.25,-0.671875 1.140625,-1.4375 h -0.53125 z m 0,0"
             id="path7425" />
        </g>
      </g>
      <g
         fill="#231f20"
         fill-opacity="1"
         id="g1729">
        <g
           id="use1727"
           transform="translate(262.314,131.099)">
          <path
             d="m 1.34375,-2.75 c 0,-2.625 0.765625,-3.921875 1.875,-4.109375 V -7.3125 c -1.59375,0.203125 -2.6875,1.671875 -2.6875,4.5625 0,2.890625 1.09375,4.359375 2.6875,4.546875 v -0.4375 c -1.109375,-0.1875 -1.875,-1.5 -1.875,-4.109375 z m 0,0"
             id="path7397" />
        </g>
      </g>
      <g
         fill="#231f20"
         fill-opacity="1"
         id="g1733">
        <g
           id="use1731"
           transform="translate(266.55099,131.099)">
          <path
             d="m 0.84375,-6.421875 v 0.375 L 1.453125,-6 1.5625,-5.859375 l -1.03125,5.3125 -0.15625,0.125 -0.609375,0.0625 V 0 H 4.40625 l 0.296875,-1.5625 h -0.4375 L 3.9375,-0.59375 3.765625,-0.4375 h -2.4375 L 1.84375,-3.109375 H 3.3125 l 0.109375,0.140625 -0.03125,0.6875 H 3.78125 L 4.171875,-4.390625 H 3.765625 L 3.5625,-3.6875 3.390625,-3.5625 H 1.9375 L 2.40625,-5.96875 H 4.453125 L 4.5625,-5.828125 v 0.8125 h 0.453125 l 0.265625,-1.40625 z m 0,0"
             id="path7373" />
        </g>
      </g>
      <g
         fill="#231f20"
         fill-opacity="1"
         id="g1737">
        <g
           id="use1735"
           transform="translate(272.319,131.099)">
          <path
             d="m 0.375,1.609375 c 0.96875,-0.09375 1.609375,-0.84375 1.609375,-1.671875 0,-0.609375 -0.28125,-0.953125 -0.765625,-0.953125 -0.3125,0 -0.5625,0.21875 -0.5625,0.53125 0,0.171875 0.046875,0.296875 0.15625,0.421875 h 0.609375 c 0,0.03125 0,0.078125 0,0.09375 0,0.703125 -0.34375,1.140625 -1.046875,1.265625 z m 0,0"
             id="path7681" />
        </g>
      </g>
      <g
         fill="#231f20"
         fill-opacity="1"
         id="g1741">
        <g
           id="use1739"
           transform="translate(276.79001,131.099)">
          <path
             d="m 0.828125,-6.421875 v 0.375 L 1.4375,-6 1.53125,-5.859375 0.5,-0.546875 0.359375,-0.40625 -0.25,-0.359375 V 0 H 2.15625 V -0.375 L 1.484375,-0.4375 1.34375,-0.578125 1.8125,-3.015625 H 3.171875 L 3.28125,-2.875 3.234375,-2.1875 H 3.65625 L 4.0625,-4.28125 H 3.640625 L 3.421875,-3.59375 3.25,-3.453125 H 1.90625 L 2.375,-5.96875 h 1.9375 l 0.09375,0.140625 v 0.90625 H 4.875 l 0.28125,-1.5 z m 0,0"
             id="path7357" />
        </g>
      </g>
      <g
         fill="#231f20"
         fill-opacity="1"
         id="g1745">
        <g
           id="use1743"
           transform="translate(281.07501,131.099)">
          <path
             d="m 0.375,1.609375 c 0.96875,-0.09375 1.609375,-0.84375 1.609375,-1.671875 0,-0.609375 -0.28125,-0.953125 -0.765625,-0.953125 -0.3125,0 -0.5625,0.21875 -0.5625,0.53125 0,0.171875 0.046875,0.296875 0.15625,0.421875 h 0.609375 c 0,0.03125 0,0.078125 0,0.09375 0,0.703125 -0.34375,1.140625 -1.046875,1.265625 z m 0,0"
             id="path7685" />
        </g>
      </g>
      <g
         fill="#231f20"
         fill-opacity="1"
         id="g1751">
        <g
           id="use1747"
           transform="translate(285.06799,131.099)">
          <path
             d="m 2.9375,-3.4375 c 0.359375,-0.015625 0.59375,-0.234375 0.59375,-0.53125 0,-0.359375 -0.359375,-0.671875 -0.875,-0.671875 -0.59375,0 -1.234375,0.296875 -1.71875,0.828125 -0.5,0.5625 -0.796875,1.3125 -0.796875,2.171875 0,1.078125 0.578125,1.734375 1.421875,1.734375 0.5625,0 1.1875,-0.296875 1.78125,-0.921875 v -0.4375 c -0.515625,0.515625 -1.046875,0.78125 -1.484375,0.78125 -0.59375,0 -0.953125,-0.46875 -0.953125,-1.296875 0,-1.421875 0.65625,-2.390625 1.421875,-2.390625 H 2.375 Z m 0,0"
             id="path7745" />
        </g>
        <g
           id="use1749"
           transform="translate(288.8363,131.099)">
          <path
             d="M 2.671875,-4.625 C 2.015625,-4.625 1.4375,-4.34375 0.96875,-3.828125 0.5,-3.28125 0.203125,-2.5 0.203125,-1.734375 c 0,1.109375 0.640625,1.828125 1.640625,1.828125 0.65625,0 1.21875,-0.265625 1.671875,-0.78125 0.5,-0.578125 0.78125,-1.296875 0.78125,-2.0625 0,-1.15625 -0.640625,-1.875 -1.625,-1.875 z m -0.125,0.375 c 0.578125,0 0.9375,0.5 0.9375,1.453125 0,1.453125 -0.71875,2.484375 -1.53125,2.484375 -0.578125,0 -0.9375,-0.484375 -0.9375,-1.40625 0,-1.484375 0.703125,-2.53125 1.53125,-2.53125 z m 0,0"
             id="path7729" />
        </g>
      </g>
      <g
         fill="#231f20"
         fill-opacity="1"
         id="g1759">
        <g
           id="use1753"
           transform="translate(293.54187,131.099)">
          <path
             d="m 1.78125,-4.625 -1.5,0.328125 v 0.25 L 1.078125,-3.90625 0.53125,-1.390625 c -0.046875,0.21875 -0.078125,0.40625 -0.078125,0.5625 0,0.5625 0.34375,0.90625 0.921875,0.90625 0.515625,0 1.09375,-0.265625 1.734375,-0.796875 -0.015625,0.0625 -0.015625,0.125 -0.015625,0.1875 0,0.421875 0.1875,0.609375 0.578125,0.609375 0.296875,0 0.703125,-0.109375 1.21875,-0.296875 v -0.265625 c -0.21875,0.0625 -0.40625,0.109375 -0.53125,0.109375 -0.3125,0 -0.5,-0.171875 -0.5,-0.375 0,-0.203125 0.046875,-0.421875 0.09375,-0.65625 l 0.6875,-3.109375 h -0.78125 l -0.71875,3.4375 C 2.609375,-0.65625 2.125,-0.46875 1.78125,-0.46875 1.4375,-0.46875 1.234375,-0.65625 1.234375,-1 c 0,-0.140625 0.03125,-0.375 0.109375,-0.703125 l 0.59375,-2.78125 z m 0,0"
             id="path7713" />
        </g>
        <g
           id="use1755"
           transform="translate(298.83087,131.099)">
          <path
             d="m 1.734375,-4.609375 -1.421875,0.3125 v 0.25 L 1.09375,-3.90625 0.3125,0 H 1.125 l 0.59375,-3.234375 c 0.578125,-0.53125 1.078125,-0.78125 1.40625,-0.78125 0.359375,0 0.515625,0.1875 0.515625,0.609375 0,0.109375 -0.015625,0.328125 -0.078125,0.609375 L 3.140625,-1.03125 C 3.09375,-0.828125 3.0625,-0.640625 3.0625,-0.515625 c 0,0.375 0.234375,0.578125 0.703125,0.578125 0.265625,0 0.65625,-0.09375 1.15625,-0.296875 V -0.5 c -0.234375,0.0625 -0.40625,0.09375 -0.53125,0.09375 -0.3125,0 -0.5,-0.171875 -0.5,-0.46875 C 3.890625,-1.015625 3.9375,-1.234375 4,-1.515625 L 4.328125,-3 c 0.078125,-0.34375 0.125,-0.609375 0.125,-0.84375 0,-0.46875 -0.296875,-0.765625 -0.796875,-0.765625 -0.515625,0 -1.109375,0.3125 -1.859375,0.921875 L 1.96875,-4.609375 Z m 0,0"
             id="path7697" />
        </g>
        <g
           id="use1757"
           transform="translate(304.14859,131.099)">
          <path
             d="M 1.59375,-5.53125 1.125,-4.578125 0.421875,-4.28125 v 0.296875 L 1.015625,-4.03125 0.5,-1.4375 c -0.0625,0.265625 -0.078125,0.484375 -0.078125,0.640625 0,0.578125 0.25,0.859375 0.796875,0.859375 0.34375,0 0.84375,-0.140625 1.484375,-0.421875 V -0.65625 c -0.390625,0.125 -0.6875,0.1875 -0.921875,0.1875 -0.375,0 -0.578125,-0.203125 -0.578125,-0.59375 0,-0.109375 0.03125,-0.25 0.0625,-0.421875 l 0.5,-2.546875 H 3.21875 v -0.421875 h -1.375 l 0.1875,-1.078125 z m 0,0"
             id="path7761" />
        </g>
      </g>
      <g
         fill="#231f20"
         fill-opacity="1"
         id="g1763">
        <g
           id="use1761"
           transform="translate(307.33301,131.099)">
          <path
             d="m 2.40625,-2.75 c 0,2.609375 -0.765625,3.921875 -1.875,4.109375 v 0.4375 C 2.125,1.609375 3.21875,0.140625 3.21875,-2.75 c 0,-2.890625 -1.09375,-4.359375 -2.6875,-4.5625 v 0.453125 c 1.109375,0.1875 1.875,1.484375 1.875,4.109375 z m 0,0"
             id="path7589" />
        </g>
      </g>
      <g
         fill="#231f20"
         fill-opacity="1"
         id="g1769">
        <g
           id="use1765"
           transform="translate(181.401,143.05499)">
          <path
             d="m 2.9375,-3.4375 c 0.359375,-0.015625 0.59375,-0.234375 0.59375,-0.53125 0,-0.359375 -0.359375,-0.671875 -0.875,-0.671875 -0.59375,0 -1.234375,0.296875 -1.71875,0.828125 -0.5,0.5625 -0.796875,1.3125 -0.796875,2.171875 0,1.078125 0.578125,1.734375 1.421875,1.734375 0.5625,0 1.1875,-0.296875 1.78125,-0.921875 v -0.4375 c -0.515625,0.515625 -1.046875,0.78125 -1.484375,0.78125 -0.59375,0 -0.953125,-0.46875 -0.953125,-1.296875 0,-1.421875 0.65625,-2.390625 1.421875,-2.390625 H 2.375 Z m 0,0"
             id="path7749" />
        </g>
        <g
           id="use1767"
           transform="translate(185.1693,143.05499)">
          <path
             d="M 2.671875,-4.625 C 2.015625,-4.625 1.4375,-4.34375 0.96875,-3.828125 0.5,-3.28125 0.203125,-2.5 0.203125,-1.734375 c 0,1.109375 0.640625,1.828125 1.640625,1.828125 0.65625,0 1.21875,-0.265625 1.671875,-0.78125 0.5,-0.578125 0.78125,-1.296875 0.78125,-2.0625 0,-1.15625 -0.640625,-1.875 -1.625,-1.875 z m -0.125,0.375 c 0.578125,0 0.9375,0.5 0.9375,1.453125 0,1.453125 -0.71875,2.484375 -1.53125,2.484375 -0.578125,0 -0.9375,-0.484375 -0.9375,-1.40625 0,-1.484375 0.703125,-2.53125 1.53125,-2.53125 z m 0,0"
             id="path7733" />
        </g>
      </g>
      <g
         fill="#231f20"
         fill-opacity="1"
         id="g1777">
        <g
           id="use1771"
           transform="translate(189.87488,143.05499)">
          <path
             d="m 1.78125,-4.625 -1.5,0.328125 v 0.25 L 1.078125,-3.90625 0.53125,-1.390625 c -0.046875,0.21875 -0.078125,0.40625 -0.078125,0.5625 0,0.5625 0.34375,0.90625 0.921875,0.90625 0.515625,0 1.09375,-0.265625 1.734375,-0.796875 -0.015625,0.0625 -0.015625,0.125 -0.015625,0.1875 0,0.421875 0.1875,0.609375 0.578125,0.609375 0.296875,0 0.703125,-0.109375 1.21875,-0.296875 v -0.265625 c -0.21875,0.0625 -0.40625,0.109375 -0.53125,0.109375 -0.3125,0 -0.5,-0.171875 -0.5,-0.375 0,-0.203125 0.046875,-0.421875 0.09375,-0.65625 l 0.6875,-3.109375 h -0.78125 l -0.71875,3.4375 C 2.609375,-0.65625 2.125,-0.46875 1.78125,-0.46875 1.4375,-0.46875 1.234375,-0.65625 1.234375,-1 c 0,-0.140625 0.03125,-0.375 0.109375,-0.703125 l 0.59375,-2.78125 z m 0,0"
             id="path7717" />
        </g>
        <g
           id="use1773"
           transform="translate(195.16388,143.05499)">
          <path
             d="m 1.734375,-4.609375 -1.421875,0.3125 v 0.25 L 1.09375,-3.90625 0.3125,0 H 1.125 l 0.59375,-3.234375 c 0.578125,-0.53125 1.078125,-0.78125 1.40625,-0.78125 0.359375,0 0.515625,0.1875 0.515625,0.609375 0,0.109375 -0.015625,0.328125 -0.078125,0.609375 L 3.140625,-1.03125 C 3.09375,-0.828125 3.0625,-0.640625 3.0625,-0.515625 c 0,0.375 0.234375,0.578125 0.703125,0.578125 0.265625,0 0.65625,-0.09375 1.15625,-0.296875 V -0.5 c -0.234375,0.0625 -0.40625,0.09375 -0.53125,0.09375 -0.3125,0 -0.5,-0.171875 -0.5,-0.46875 C 3.890625,-1.015625 3.9375,-1.234375 4,-1.515625 L 4.328125,-3 c 0.078125,-0.34375 0.125,-0.609375 0.125,-0.84375 0,-0.46875 -0.296875,-0.765625 -0.796875,-0.765625 -0.515625,0 -1.109375,0.3125 -1.859375,0.921875 L 1.96875,-4.609375 Z m 0,0"
             id="path7701" />
        </g>
        <g
           id="use1775"
           transform="translate(200.48158,143.05499)">
          <path
             d="M 1.59375,-5.53125 1.125,-4.578125 0.421875,-4.28125 v 0.296875 L 1.015625,-4.03125 0.5,-1.4375 c -0.0625,0.265625 -0.078125,0.484375 -0.078125,0.640625 0,0.578125 0.25,0.859375 0.796875,0.859375 0.34375,0 0.84375,-0.140625 1.484375,-0.421875 V -0.65625 c -0.390625,0.125 -0.6875,0.1875 -0.921875,0.1875 -0.375,0 -0.578125,-0.203125 -0.578125,-0.59375 0,-0.109375 0.03125,-0.25 0.0625,-0.421875 l 0.5,-2.546875 H 3.21875 v -0.421875 h -1.375 l 0.1875,-1.078125 z m 0,0"
             id="path7765" />
        </g>
      </g>
      <g
         fill="#231f20"
         fill-opacity="1"
         id="g1781">
        <g
           id="use1779"
           transform="translate(205.89101,143.05499)">
          <path
             d="M 9.109375,-3.046875 H 1.6875 L 2.84375,-4.25 2.4375,-4.65625 0.53125,-2.828125 V -2.6875 L 2.4375,-0.84375 2.84375,-1.265625 1.6875,-2.46875 h 7.421875 z m 0,0"
             id="path7777" />
        </g>
      </g>
      <g
         fill="#231f20"
         fill-opacity="1"
         id="g1785">
        <g
           id="use1783"
           transform="translate(217.793,143.05499)">
          <path
             d="M 5.625,-0.21875 V -1.734375 H 5.09375 l -0.21875,1.0625 -0.15625,0.15625 c -0.28125,0.078125 -0.5625,0.125 -0.828125,0.125 -1.546875,0 -2.5,-1.078125 -2.5,-2.890625 0,-1.703125 0.9375,-2.75 2.359375,-2.75 0.375,0 0.71875,0.09375 1.0625,0.25 l 0.125,0.171875 0.15625,0.875 H 5.625 v -1.46875 C 4.921875,-6.421875 4.296875,-6.53125 3.734375,-6.53125 c -2,0 -3.328125,1.328125 -3.328125,3.3125 0,1.265625 0.640625,2.375 1.65625,2.953125 0.4375,0.25 1,0.375 1.625,0.375 C 4.328125,0.109375 4.984375,0 5.625,-0.21875 Z m 0,0"
             id="path7609" />
        </g>
      </g>
      <g
         fill="#231f20"
         fill-opacity="1"
         id="g1789">
        <g
           id="use1787"
           transform="translate(223.57935,143.05499)">
          <path
             d="m 3.03125,-4.84375 c -0.671875,0 -1.265625,0.203125 -1.734375,0.609375 -0.53125,0.46875 -0.8125,1.109375 -0.8125,1.875 0,0.765625 0.28125,1.40625 0.8125,1.875 0.46875,0.390625 1.0625,0.59375 1.734375,0.59375 0.921875,0 1.703125,-0.40625 2.140625,-1.078125 0.265625,-0.421875 0.40625,-0.875 0.40625,-1.390625 0,-0.765625 -0.296875,-1.40625 -0.8125,-1.875 -0.46875,-0.40625 -1.0625,-0.609375 -1.734375,-0.609375 z m 0,0.5 c 0.9375,0 1.59375,0.75 1.59375,1.984375 0,1.234375 -0.65625,1.984375 -1.59375,1.984375 -0.953125,0 -1.59375,-0.75 -1.59375,-1.984375 0,-1.25 0.640625,-1.984375 1.59375,-1.984375 z m 0,0"
             id="path7661" />
        </g>
      </g>
      <g
         fill="#231f20"
         fill-opacity="1"
         id="g1799">
        <g
           id="use1791"
           transform="translate(229.33699,143.05499)">
          <path
             d="m 0.359375,-4.71875 v 0.375 l 0.546875,0.046875 0.15625,0.09375 v 2.5625 c 0,0.5 0.03125,0.890625 0.34375,1.203125 0.296875,0.328125 0.890625,0.53125 1.640625,0.53125 0.734375,0 1.328125,-0.203125 1.625,-0.53125 0.3125,-0.3125 0.34375,-0.703125 0.34375,-1.203125 V -4.15625 L 5.1875,-4.28125 5.75,-4.34375 v -0.375 H 3.953125 v 0.375 l 0.4375,0.0625 0.140625,0.125 v 2.359375 c 0,0.90625 -0.390625,1.3125 -1.3125,1.3125 -0.953125,0 -1.328125,-0.40625 -1.328125,-1.3125 v -2.40625 L 2.03125,-4.296875 2.484375,-4.34375 v -0.375 z m 0,0"
             id="path7601" />
        </g>
        <g
           id="use1793"
           transform="translate(235.37199,143.05499)">
          <path
             d="M 0.40625,-0.015625 H 2.1875 v -0.375 l -0.453125,-0.0625 -0.125,-0.125 v -3.34375 l 2.796875,3.90625 H 4.984375 V -4.15625 l 0.171875,-0.125 0.5625,-0.0625 v -0.375 H 3.9375 v 0.375 l 0.4375,0.0625 0.125,0.125 v 3.140625 L 2,-4.484375 V -4.71875 H 0.375 v 0.375 l 0.578125,0.046875 0.171875,0.09375 v 3.625 l -0.171875,0.125 -0.546875,0.0625 z m 0,0"
             id="path7569" />
        </g>
        <g
           id="use1795"
           transform="translate(241.45483,143.05499)">
          <path
             d="m 0.296875,-4.71875 v 1.40625 h 0.5 L 0.90625,-4.15625 1.015625,-4.296875 h 1.21875 V -0.5 L 2.09375,-0.421875 1.5625,-0.390625 v 0.375 h 2.171875 v -0.375 L 3.203125,-0.421875 3.0625,-0.5 V -4.296875 H 4.28125 L 4.390625,-4.15625 4.5,-3.3125 h 0.484375 v -1.40625 z m 0,0"
             id="path7557" />
        </g>
        <g
           id="use1797"
           transform="translate(246.74384,143.05499)">
          <path
             d="m 2.71875,-6.5 -2.234375,6 -0.5625,0.109375 V 0 h 1.875 v -0.390625 l -0.625,-0.046875 -0.09375,-0.140625 0.6875,-1.828125 h 2.25 l 0.6875,1.828125 -0.0625,0.140625 -0.59375,0.046875 V 0 H 6.21875 V -0.390625 L 5.640625,-0.5 3.34375,-6.5 Z M 2.875,-5.484375 3.859375,-2.84375 h -1.9375 z m 0,0"
             id="path7549" />
        </g>
      </g>
      <g
         fill="#231f20"
         fill-opacity="1"
         id="g1809">
        <g
           id="use1801"
           transform="translate(252.91273,143.05499)">
          <path
             d="M 0.40625,-0.015625 H 2.1875 v -0.375 l -0.453125,-0.0625 -0.125,-0.125 v -3.34375 l 2.796875,3.90625 H 4.984375 V -4.15625 l 0.171875,-0.125 0.5625,-0.0625 v -0.375 H 3.9375 v 0.375 l 0.4375,0.0625 0.125,0.125 v 3.140625 L 2,-4.484375 V -4.71875 H 0.375 v 0.375 l 0.578125,0.046875 0.171875,0.09375 v 3.625 l -0.171875,0.125 -0.546875,0.0625 z m 0,0"
             id="path7573" />
        </g>
        <g
           id="use1803"
           transform="translate(258.99557,143.05499)">
          <path
             d="M 2.4375,-4.71875 H 0.421875 v 0.375 l 0.53125,0.015625 0.171875,0.125 v 3.671875 l -0.171875,0.125 -0.53125,0.03125 v 0.359375 H 2.4375 c 0.828125,0 1.4375,-0.078125 2,-0.421875 0.671875,-0.4375 1.015625,-1.09375 1.015625,-1.921875 0,-1.46875 -1.078125,-2.359375 -3.015625,-2.359375 z m -0.5,0.421875 h 0.59375 c 1.34375,0 2.015625,0.640625 2.015625,1.9375 0,1.28125 -0.671875,1.921875 -2.015625,1.921875 H 1.9375 Z m 0,0"
             id="path7533" />
        </g>
        <g
           id="use1805"
           transform="translate(264.94452,143.05499)">
          <path
             d="M 0.265625,0 H 4.84375 v -1.734375 h -0.5 l -0.171875,1.140625 -0.125,0.15625 h -2.15625 v -5.40625 l 0.15625,-0.125 0.546875,-0.0625 V -6.421875 H 0.265625 v 0.390625 l 0.59375,0.0625 0.15625,0.125 v 5.265625 l -0.15625,0.140625 -0.59375,0.046875 z m 0,0"
             id="path7513" />
        </g>
        <g
           id="use1807"
           transform="translate(269.91788,143.05499)">
          <path
             d="m 2.234375,-4.765625 -1.6875,4.3125 L 0.140625,-0.375 V 0 h 1.40625 V -0.375 L 1.109375,-0.40625 1.046875,-0.5 1.515625,-1.71875 H 3.1875 L 3.703125,-0.5 3.65625,-0.40625 3.21875,-0.375 V 0 H 4.9375 V -0.375 L 4.5,-0.453125 2.796875,-4.765625 Z m 0.109375,0.71875 0.734375,1.90625 h -1.4375 z m 0,0"
             id="path7629" />
        </g>
      </g>
      <g
         fill="#231f20"
         fill-opacity="1"
         id="g1813">
        <g
           id="use1811"
           transform="translate(274.7478,143.05499)">
          <path
             d="m 0.421875,-4.71875 v 0.375 l 0.53125,0.046875 0.171875,0.09375 V -0.53125 L 0.953125,-0.4375 0.421875,-0.375 V 0 H 2.6875 c 1.46875,0 2.25,-0.484375 2.25,-1.390625 0,-0.6875 -0.59375,-1.125 -1.640625,-1.140625 C 4.125,-2.703125 4.5625,-3.0625 4.5625,-3.578125 4.5625,-4.34375 3.90625,-4.71875 2.59375,-4.71875 Z M 1.9375,-2.625 v -1.65625 c 0.1875,-0.015625 0.34375,-0.015625 0.4375,-0.015625 0.859375,0 1.28125,0.25 1.28125,0.78125 0,0.625 -0.4375,0.890625 -1.421875,0.890625 -0.09375,0 -0.1875,0 -0.296875,0 z m 0,2.171875 V -2.15625 c 0.3125,-0.046875 0.578125,-0.0625 0.78125,-0.0625 0.890625,0 1.328125,0.28125 1.328125,0.859375 0,0.65625 -0.5,0.921875 -1.5625,0.921875 -0.1875,0 -0.359375,-0.015625 -0.546875,-0.015625 z m 0,0"
             id="path7501" />
        </g>
      </g>
      <g
         fill="#231f20"
         fill-opacity="1"
         id="g1819">
        <g
           id="use1815"
           transform="translate(280.08463,143.05499)">
          <path
             d="m 0.421875,-0.015625 h 4.625 V -1.1875 H 4.578125 L 4.421875,-0.53125 4.28125,-0.4375 H 1.9375 v -1.796875 h 1.296875 l 0.109375,0.09375 0.078125,0.46875 h 0.4375 V -3.21875 h -0.4375 L 3.34375,-2.75 3.234375,-2.671875 H 1.9375 v -1.625 h 1.875 L 4,-4.203125 4.203125,-3.65625 H 4.71875 v -1.0625 H 0.421875 v 0.375 l 0.53125,0.015625 0.171875,0.125 v 3.6875 L 0.953125,-0.40625 0.421875,-0.375 Z m 0,0"
             id="path7493" />
        </g>
        <g
           id="use1817"
           transform="translate(285.50754,143.05499)">
          <path
             d="M 0.375,-0.015625 H 4.359375 V -1.34375 H 3.875 L 3.765625,-0.53125 3.65625,-0.4375 H 1.9375 V -4.203125 L 2.0625,-4.296875 2.5,-4.34375 v -0.375 H 0.375 v 0.375 l 0.578125,0.046875 0.15625,0.09375 v 3.671875 l -0.15625,0.125 L 0.375,-0.375 Z m 0,0"
             id="path7477" />
        </g>
      </g>
      <g
         fill="#231f20"
         fill-opacity="1"
         id="g1823">
        <g
           id="use1821"
           transform="translate(290.15601,143.05499)">
          <path
             d="m 1.34375,-2.75 c 0,-2.625 0.765625,-3.921875 1.875,-4.109375 V -7.3125 c -1.59375,0.203125 -2.6875,1.671875 -2.6875,4.5625 0,2.890625 1.09375,4.359375 2.6875,4.546875 v -0.4375 c -1.109375,-0.1875 -1.875,-1.5 -1.875,-4.109375 z m 0,0"
             id="path7401" />
        </g>
      </g>
      <g
         fill="#231f20"
         fill-opacity="1"
         id="g1827">
        <g
           id="use1825"
           transform="translate(294.39301,143.05499)">
          <path
             d="m 0.828125,-6.421875 v 0.375 L 1.4375,-6 1.53125,-5.859375 0.5,-0.546875 0.359375,-0.40625 -0.25,-0.359375 V 0 H 2.15625 V -0.375 L 1.484375,-0.4375 1.34375,-0.578125 1.8125,-3.015625 H 3.171875 L 3.28125,-2.875 3.234375,-2.1875 H 3.65625 L 4.0625,-4.28125 H 3.640625 L 3.421875,-3.59375 3.25,-3.453125 H 1.90625 L 2.375,-5.96875 h 1.9375 l 0.09375,0.140625 v 0.90625 H 4.875 l 0.28125,-1.5 z m 0,0"
             id="path7361" />
        </g>
      </g>
      <g
         fill="#231f20"
         fill-opacity="1"
         id="g1831">
        <g
           id="use1829"
           transform="translate(300.27499,143.05499)">
          <path
             d="m 2.40625,-2.75 c 0,2.609375 -0.765625,3.921875 -1.875,4.109375 v 0.4375 C 2.125,1.609375 3.21875,0.140625 3.21875,-2.75 c 0,-2.890625 -1.09375,-4.359375 -2.6875,-4.5625 v 0.453125 c 1.109375,0.1875 1.875,1.484375 1.875,4.109375 z m 0,0"
             id="path7593" />
        </g>
      </g>
      <g
         fill="#231f20"
         fill-opacity="1"
         id="g1845">
        <g
           id="use1833"
           transform="translate(162.27299,157.31)">
          <path
             d="m 0.28125,0 h 2.3125 V -0.34375 L 1.921875,-0.390625 1.765625,-0.546875 V -3.28125 c 0.390625,-0.453125 0.71875,-0.703125 1.03125,-0.703125 0.203125,0 0.375,0.078125 0.5,0.234375 H 3.59375 V -4.578125 C 3.390625,-4.65625 3.21875,-4.6875 3.015625,-4.6875 c -0.078125,0 -0.15625,0 -0.234375,0.015625 C 2.4375,-4.40625 2.09375,-4.09375 1.765625,-3.75 v -0.890625 h -0.375 L 0.28125,-4.296875 V -4 h 0.6875 v 3.453125 L 0.796875,-0.390625 0.28125,-0.34375 Z m 0,0"
             id="path7413" />
        </g>
        <g
           id="use1835"
           transform="translate(165.92653,157.31)">
          <path
             d="m 4.28125,-1.015625 c -0.546875,0.359375 -1.015625,0.5625 -1.5,0.5625 -0.96875,0 -1.609375,-0.734375 -1.609375,-1.953125 V -2.515625 H 4.28125 c 0,-0.109375 0,-0.203125 0,-0.296875 0,-1.171875 -0.671875,-1.875 -1.71875,-1.875 -1.28125,0 -2.203125,0.984375 -2.203125,2.421875 0,1.40625 0.859375,2.359375 2.125,2.359375 0.609375,0 1.21875,-0.203125 1.796875,-0.578125 z M 3.4375,-2.921875 H 1.21875 c 0.0625,-0.8125 0.609375,-1.34375 1.21875,-1.34375 0.640625,0 1,0.421875 1,1.203125 z m 0,0"
             id="path7449" />
        </g>
        <g
           id="use1837"
           transform="translate(170.62254,157.31)">
          <path
             d="m 0.84375,-4.03125 v 3.09375 c 0,0.671875 0.203125,0.96875 1,0.96875 0.359375,0 0.796875,-0.0625 1.25,-0.21875 v -0.34375 c -0.21875,0.046875 -0.4375,0.078125 -0.671875,0.078125 -0.65625,0 -0.78125,-0.328125 -0.78125,-1.046875 V -4.03125 H 3.09375 v -0.4375 H 1.640625 V -5.484375 H 1.28125 L 0.875,-4.59375 0.234375,-4.328125 v 0.296875 z m 0,0"
             id="path7409" />
        </g>
        <g
           id="use1839"
           transform="translate(173.81699,157.31)">
          <path
             d="M 1.359375,-4.6875 0.25,-4.34375 v 0.296875 H 0.921875 V -1.375 c 0,0.96875 0.46875,1.46875 1.28125,1.46875 0.46875,0 0.984375,-0.21875 1.5625,-0.625 V 0 h 1.40625 V -0.34375 L 4.71875,-0.390625 4.546875,-0.546875 V -4.6875 H 4.1875 l -1.109375,0.34375 v 0.296875 h 0.6875 v 3.25 C 3.359375,-0.609375 3,-0.515625 2.65625,-0.515625 c -0.640625,0 -0.9375,-0.328125 -0.9375,-1.015625 V -4.6875 Z m 0,0"
             id="path7405" />
        </g>
        <g
           id="use1841"
           transform="translate(179.25902,157.31)">
          <path
             d="m 0.28125,0 h 2.3125 V -0.34375 L 1.921875,-0.390625 1.765625,-0.546875 V -3.28125 c 0.390625,-0.453125 0.71875,-0.703125 1.03125,-0.703125 0.203125,0 0.375,0.078125 0.5,0.234375 H 3.59375 V -4.578125 C 3.390625,-4.65625 3.21875,-4.6875 3.015625,-4.6875 c -0.078125,0 -0.15625,0 -0.234375,0.015625 C 2.4375,-4.40625 2.09375,-4.09375 1.765625,-3.75 v -0.890625 h -0.375 L 0.28125,-4.296875 V -4 h 0.6875 v 3.453125 L 0.796875,-0.390625 0.28125,-0.34375 Z m 0,0"
             id="path7417" />
        </g>
        <g
           id="use1843"
           transform="translate(182.91254,157.31)">
          <path
             d="M 0.28125,0 H 2.375 V -0.34375 L 1.921875,-0.390625 1.765625,-0.546875 V -3.75 c 0.40625,-0.203125 0.765625,-0.3125 1.0625,-0.3125 0.703125,0 0.96875,0.28125 0.96875,0.984375 v 2.53125 l -0.15625,0.15625 -0.46875,0.046875 V 0 h 2.09375 V -0.34375 L 4.75,-0.390625 4.59375,-0.546875 v -2.6875 c 0,-0.96875 -0.46875,-1.453125 -1.296875,-1.453125 -0.40625,0 -0.890625,0.21875 -1.53125,0.5625 v -0.515625 h -0.375 L 0.28125,-4.296875 V -4 h 0.6875 v 3.453125 L 0.796875,-0.390625 0.28125,-0.34375 Z m 0,0"
             id="path7505" />
        </g>
      </g>
      <g
         fill="#231f20"
         fill-opacity="1"
         id="g1849">
        <g
           id="use1847"
           transform="translate(191.48199,157.31)">
          <path
             d="m 0.828125,-6.421875 v 0.375 L 1.4375,-6 1.53125,-5.859375 0.5,-0.546875 0.359375,-0.40625 -0.25,-0.359375 V 0 H 2.15625 V -0.375 L 1.484375,-0.4375 1.34375,-0.578125 1.8125,-3.015625 H 3.171875 L 3.28125,-2.875 3.234375,-2.1875 H 3.65625 L 4.0625,-4.28125 H 3.640625 L 3.421875,-3.59375 3.25,-3.453125 H 1.90625 L 2.375,-5.96875 h 1.9375 l 0.09375,0.140625 v 0.90625 H 4.875 l 0.28125,-1.5 z m 0,0"
             id="path7365" />
        </g>
      </g>
      <path
         fill="none"
         stroke-width="0.61"
         stroke-linecap="butt"
         stroke-linejoin="miter"
         stroke="#231f20"
         stroke-opacity="1"
         stroke-miterlimit="10"
         d="M 9.375e-5,0.00178125 H 171.55869"
         transform="matrix(1,0,0,-1,146.121,161.201)"
         id="path1851" />
      <path
         fill="none"
         stroke-width="0.61"
         stroke-linecap="butt"
         stroke-linejoin="miter"
         stroke="#231f20"
         stroke-opacity="1"
         stroke-miterlimit="10"
         d="M -2.1875e-4,-0.0018125 V 89.506"
         transform="matrix(1,0,0,-1,146.426,161.506)"
         id="path1853" />
      <path
         fill="none"
         stroke-width="0.61"
         stroke-linecap="butt"
         stroke-linejoin="miter"
         stroke="#231f20"
         stroke-opacity="1"
         stroke-miterlimit="10"
         d="M 0.001,-0.0018125 V 89.506"
         transform="matrix(1,0,0,-1,317.374,161.506)"
         id="path1855" />
    </g>
  </g>
</svg>
