<?xml version="1.0" encoding="UTF-8" standalone="no"?>
<!-- Created with Inkscape (http://www.inkscape.org/) -->

<svg
   width="58.431595mm"
   height="56.055859mm"
   viewBox="0 0 58.431595 56.055859"
   version="1.1"
   id="svg3124"
   inkscape:version="1.2.2 (b0a84865, 2022-12-01)"
   sodipodi:docname="build_heap_h6.svg"
   xmlns:inkscape="http://www.inkscape.org/namespaces/inkscape"
   xmlns:sodipodi="http://sodipodi.sourceforge.net/DTD/sodipodi-0.dtd"
   xmlns="http://www.w3.org/2000/svg"
   xmlns:svg="http://www.w3.org/2000/svg">
  <sodipodi:namedview
     id="namedview3126"
     pagecolor="#ffffff"
     bordercolor="#666666"
     borderopacity="1.0"
     inkscape:showpageshadow="2"
     inkscape:pageopacity="0.0"
     inkscape:pagecheckerboard="0"
     inkscape:deskcolor="#d1d1d1"
     inkscape:document-units="mm"
     showgrid="false"
     inkscape:zoom="1.7335999"
     inkscape:cx="298.22337"
     inkscape:cy="220.35073"
     inkscape:window-width="1920"
     inkscape:window-height="2107"
     inkscape:window-x="0"
     inkscape:window-y="25"
     inkscape:window-maximized="0"
     inkscape:current-layer="layer1" />
  <defs
     id="defs3121" />
  <g
     inkscape:label="Layer 1"
     inkscape:groupmode="layer"
     id="layer1"
     transform="translate(-26.157083,-90.268681)">
    <g
       id="g3068"
       transform="matrix(0.35277777,0,0,0.35277777,-85.472265,-63.933779)">
      <path
         fill="none"
         stroke-width="0.3985"
         stroke-linecap="butt"
         stroke-linejoin="miter"
         stroke="#000000"
         stroke-opacity="1"
         stroke-miterlimit="10"
         d="m 15.034875,4.62125 c 0,8.304688 -6.730469,15.035156 -15.03515625,15.035156 -8.30468775,0 -15.03515675,-6.730468 -15.03515675,-15.035156 0,-8.300781 6.730469,-15.035156 15.03515675,-15.035156 8.30468725,0 15.03515625,6.734375 15.03515625,15.035156 z m 0,0"
         transform="matrix(1,0,0,-1,412.387,456.965)"
         id="path457" />
      <g
         fill="#000000"
         fill-opacity="1"
         id="g463">
        <g
           id="use459"
           transform="translate(405.36401,456.965)">
          <path
             d="m 4.125,-9.1875 c 0,-0.34375 0,-0.34375 -0.28125,-0.34375 C 3.5,-9.15625 2.78125,-8.625 1.3125,-8.625 v 0.421875 c 0.328125,0 1.046875,0 1.828125,-0.375 v 7.46875 c 0,0.515625 -0.046875,0.6875 -1.296875,0.6875 H 1.390625 V 0 c 0.390625,-0.03125 1.78125,-0.03125 2.25,-0.03125 0.46875,0 1.859375,0 2.234375,0.03125 V -0.421875 H 5.4375 c -1.265625,0 -1.3125,-0.171875 -1.3125,-0.6875 z m 0,0"
             id="path3281" />
        </g>
        <g
           id="use461"
           transform="translate(412.38791,456.965)">
          <path
             d="m 4.125,-9.1875 c 0,-0.34375 0,-0.34375 -0.28125,-0.34375 C 3.5,-9.15625 2.78125,-8.625 1.3125,-8.625 v 0.421875 c 0.328125,0 1.046875,0 1.828125,-0.375 v 7.46875 c 0,0.515625 -0.046875,0.6875 -1.296875,0.6875 H 1.390625 V 0 c 0.390625,-0.03125 1.78125,-0.03125 2.25,-0.03125 0.46875,0 1.859375,0 2.234375,0.03125 V -0.421875 H 5.4375 c -1.265625,0 -1.3125,-0.171875 -1.3125,-0.6875 z m 0,0"
             id="path3285" />
        </g>
      </g>
      <path
         fill="none"
         stroke-width="0.3985"
         stroke-linecap="butt"
         stroke-linejoin="miter"
         stroke="#000000"
         stroke-opacity="1"
         stroke-miterlimit="10"
         d="m 12.539812,4.623563 c 0,6.925781 -5.613281,12.539062 -12.539062,12.539062 -6.925781,0 -12.539063,-5.613281 -12.539063,-12.539062 0,-6.925782 5.613282,-12.539063 12.539063,-12.539063 6.925781,0 12.539062,5.613281 12.539062,12.539063 z m 0,0"
         transform="matrix(1,0,0,-1,372.968,502.272)"
         id="path465" />
      <g
         fill="#000000"
         fill-opacity="1"
         id="g469">
        <g
           id="use467"
           transform="translate(369.45599,502.272)">
          <path
             d="m 4.28125,-5.171875 c 0.703125,-0.390625 1.75,-1.046875 1.75,-2.265625 0,-1.234375 -1.203125,-2.09375 -2.515625,-2.09375 -1.421875,0 -2.546875,1.046875 -2.546875,2.34375 0,0.484375 0.15625,0.984375 0.546875,1.46875 0.15625,0.1875 0.171875,0.203125 1.1875,0.90625 -1.390625,0.640625 -2.109375,1.59375 -2.109375,2.640625 0,1.53125 1.4375,2.46875 2.90625,2.46875 1.59375,0 2.921875,-1.171875 2.921875,-2.671875 0,-1.46875 -1.03125,-2.109375 -2.140625,-2.796875 z M 2.328125,-6.46875 c -0.1875,-0.125 -0.765625,-0.5 -0.765625,-1.203125 0,-0.9375 0.96875,-1.515625 1.9375,-1.515625 1.03125,0 1.953125,0.734375 1.953125,1.765625 0,0.875 -0.640625,1.578125 -1.46875,2.046875 z M 3,-4.625 4.734375,-3.484375 c 0.375,0.25 1.03125,0.6875 1.03125,1.5625 0,1.09375 -1.109375,1.828125 -2.25,1.828125 C 2.296875,-0.09375 1.25,-0.96875 1.25,-2.171875 1.25,-3.28125 2.0625,-4.1875 3,-4.625 Z m 0,0"
             id="path3317" />
        </g>
      </g>
      <path
         fill="none"
         stroke-width="0.3985"
         stroke-linecap="butt"
         stroke-linejoin="miter"
         stroke="#000000"
         stroke-opacity="1"
         stroke-miterlimit="10"
         d="m 12.538563,4.622063 c 0,6.925781 -5.613282,12.539062 -12.539063,12.539062 -6.925781,0 -12.539062,-5.613281 -12.539062,-12.539062 0,-6.925782 5.613281,-12.539063 12.539062,-12.539063 6.925781,0 12.539063,5.613281 12.539063,12.539063 z m 0,0"
         transform="matrix(1,0,0,-1,346.688,545.083)"
         id="path471" />
      <g
         fill="#000000"
         fill-opacity="1"
         id="g475">
        <g
           id="use473"
           transform="translate(343.17599,545.08301)">
          <path
             d="m 1.765625,-4.984375 c 0,-3.640625 1.765625,-4.203125 2.53125,-4.203125 0.515625,0 1.03125,0.15625 1.3125,0.578125 -0.171875,0 -0.71875,0 -0.71875,0.59375 0,0.3125 0.21875,0.578125 0.59375,0.578125 0.359375,0 0.59375,-0.203125 0.59375,-0.625 0,-0.75 -0.546875,-1.46875 -1.796875,-1.46875 -1.796875,0 -3.6875,1.84375 -3.6875,5 0,3.9375 1.71875,4.828125 2.9375,4.828125 1.5625,0 2.890625,-1.359375 2.890625,-3.21875 0,-1.90625 -1.328125,-3.1875 -2.765625,-3.1875 -1.28125,0 -1.75,1.109375 -1.890625,1.5 z M 3.53125,-0.09375 c -0.90625,0 -1.34375,-0.796875 -1.46875,-1.09375 -0.125,-0.375 -0.265625,-1.078125 -0.265625,-2.078125 0,-1.140625 0.515625,-2.5625 1.796875,-2.5625 0.796875,0 1.21875,0.53125 1.421875,1.015625 C 5.25,-4.28125 5.25,-3.5625 5.25,-2.9375 c 0,0.734375 0,1.375 -0.265625,1.921875 -0.359375,0.6875 -0.875,0.921875 -1.453125,0.921875 z m 0,0"
             id="path3321" />
        </g>
      </g>
      <path
         fill="none"
         stroke-width="0.3985"
         stroke-linecap="butt"
         stroke-linejoin="miter"
         stroke="#000000"
         stroke-opacity="1"
         stroke-miterlimit="10"
         d="m 12.539031,4.624469 c 0,6.921875 -5.613281,12.539062 -12.53906225,12.539062 -6.92578175,0 -12.53906275,-5.617187 -12.53906275,-12.539062 0,-6.925781 5.613281,-12.539063 12.53906275,-12.539063 6.92578125,0 12.53906225,5.613282 12.53906225,12.539063 z m 0,0"
         transform="matrix(1,0,0,-1,329.168,587.894)"
         id="path477" />
      <g
         fill="#000000"
         fill-opacity="1"
         id="g481">
        <g
           id="use479"
           transform="translate(325.65701,587.89398)">
          <path
             d="M 1.84375,-8.21875 C 2.453125,-8.015625 2.953125,-8 3.109375,-8 c 1.625,0 2.65625,-1.1875 2.65625,-1.390625 0,-0.0625 -0.03125,-0.140625 -0.109375,-0.140625 -0.03125,0 -0.0625,0 -0.1875,0.0625 -0.8125,0.34375 -1.5,0.390625 -1.875,0.390625 -0.9375,0 -1.609375,-0.28125 -1.890625,-0.40625 -0.09375,-0.046875 -0.125,-0.046875 -0.140625,-0.046875 -0.109375,0 -0.109375,0.09375 -0.109375,0.328125 v 4.25 c 0,0.265625 0,0.34375 0.171875,0.34375 0.0625,0 0.078125,-0.015625 0.21875,-0.1875 C 2.25,-5.375 2.921875,-5.71875 3.640625,-5.71875 c 0.765625,0 1.140625,0.703125 1.25,0.9375 0.25,0.5625 0.265625,1.265625 0.265625,1.8125 0,0.546875 0,1.359375 -0.40625,2 -0.3125,0.53125 -0.875,0.875 -1.515625,0.875 -0.9375,0 -1.875,-0.640625 -2.125,-1.6875 0.0625,0.03125 0.15625,0.046875 0.21875,0.046875 0.25,0 0.640625,-0.140625 0.640625,-0.625 C 1.96875,-2.765625 1.6875,-3 1.328125,-3 c -0.25,0 -0.625,0.125 -0.625,0.6875 0,1.21875 0.96875,2.609375 2.5625,2.609375 1.625,0 3.046875,-1.359375 3.046875,-3.1875 0,-1.703125 -1.15625,-3.125 -2.65625,-3.125 -0.8125,0 -1.453125,0.359375 -1.8125,0.765625 z m 0,0"
             id="path3313" />
        </g>
      </g>
      <path
         fill="none"
         stroke-width="0.3985"
         stroke-linecap="butt"
         stroke-linejoin="miter"
         stroke="#000000"
         stroke-opacity="1"
         stroke-miterlimit="10"
         d="m 12.538094,4.624469 c 0,6.921875 -5.613281,12.539062 -12.53906275,12.539062 -6.92578125,0 -12.53906225,-5.617187 -12.53906225,-12.539062 0,-6.925781 5.613281,-12.539063 12.53906225,-12.539063 6.92578175,0 12.53906275,5.613282 12.53906275,12.539063 z m 0,0"
         transform="matrix(1,0,0,-1,364.208,587.894)"
         id="path483" />
      <g
         fill="#000000"
         fill-opacity="1"
         id="g487">
        <g
           id="use485"
           transform="translate(360.69601,587.89398)">
          <path
             d="m 2.640625,-5.15625 c -0.25,0.015625 -0.296875,0.03125 -0.296875,0.171875 0,0.140625 0.0625,0.140625 0.328125,0.140625 h 0.65625 c 1.21875,0 1.765625,1 1.765625,2.375 0,1.875 -0.984375,2.375 -1.6875,2.375 -0.6875,0 -1.859375,-0.328125 -2.265625,-1.265625 0.453125,0.0625 0.875,-0.1875 0.875,-0.703125 0,-0.421875 -0.3125,-0.703125 -0.703125,-0.703125 -0.34375,0 -0.71875,0.203125 -0.71875,0.75 0,1.265625 1.265625,2.3125 2.859375,2.3125 1.703125,0 2.96875,-1.296875 2.96875,-2.75 0,-1.3125 -1.0625,-2.359375 -2.4375,-2.59375 1.25,-0.359375 2.046875,-1.40625 2.046875,-2.53125 0,-1.125 -1.171875,-1.953125 -2.5625,-1.953125 -1.4375,0 -2.5,0.875 -2.5,1.921875 0,0.5625 0.453125,0.6875 0.671875,0.6875 0.296875,0 0.640625,-0.21875 0.640625,-0.65625 0,-0.453125 -0.34375,-0.65625 -0.65625,-0.65625 -0.09375,0 -0.125,0 -0.15625,0.015625 0.546875,-0.96875 1.890625,-0.96875 1.953125,-0.96875 0.484375,0 1.40625,0.203125 1.40625,1.609375 0,0.28125 -0.03125,1.078125 -0.453125,1.703125 -0.4375,0.625 -0.921875,0.671875 -1.3125,0.6875 z m 0,0"
             id="path3293" />
        </g>
      </g>
      <path
         fill="none"
         stroke-width="0.3985"
         stroke-linecap="butt"
         stroke-linejoin="miter"
         stroke="#000000"
         stroke-opacity="1"
         stroke-miterlimit="10"
         d="m 12.538156,4.622063 c 0,6.925781 -5.613281,12.539062 -12.53906225,12.539062 -6.92578175,0 -12.53906275,-5.613281 -12.53906275,-12.539062 0,-6.925782 5.613281,-12.539063 12.53906275,-12.539063 6.92578125,0 12.53906225,5.613281 12.53906225,12.539063 z m 0,0"
         transform="matrix(1,0,0,-1,399.247,545.083)"
         id="path489" />
      <g
         fill="#000000"
         fill-opacity="1"
         id="g493">
        <g
           id="use491"
           transform="translate(395.73599,545.08301)">
          <path
             d="M 6.8125,-8.90625 V -9.234375 H 3.359375 c -1.734375,0 -1.765625,-0.1875 -1.828125,-0.46875 h -0.3125 l -0.4375,2.875 h 0.3125 c 0.046875,-0.25 0.171875,-1.140625 0.359375,-1.3125 C 1.5625,-8.21875 2.640625,-8.21875 2.84375,-8.21875 H 5.875 l -1.515625,2.1875 C 3.96875,-5.484375 2.53125,-3.125 2.53125,-0.4375 c 0,0.171875 0,0.734375 0.578125,0.734375 0.609375,0 0.609375,-0.5625 0.609375,-0.734375 v -0.71875 c 0,-2.140625 0.34375,-3.8125 1.015625,-4.765625 z m 0,0"
             id="path3305" />
        </g>
      </g>
      <path
         fill="none"
         stroke-width="0.3985"
         stroke-linecap="butt"
         stroke-linejoin="miter"
         stroke="#000000"
         stroke-opacity="1"
         stroke-miterlimit="10"
         d="m 12.538156,4.624469 c 0,6.921875 -5.613281,12.539062 -12.53906225,12.539062 -6.92578175,0 -12.53906275,-5.617187 -12.53906275,-12.539062 0,-6.925781 5.613281,-12.539063 12.53906275,-12.539063 6.92578125,0 12.53906225,5.613282 12.53906225,12.539063 z m 0,0"
         transform="matrix(1,0,0,-1,399.247,587.894)"
         id="path495" />
      <g
         fill="#000000"
         fill-opacity="1"
         id="g499">
        <g
           id="use497"
           transform="translate(395.73599,587.89398)">
          <path
             d="M 6.3125,-2.40625 H 6 c -0.046875,0.234375 -0.15625,1.03125 -0.3125,1.265625 -0.09375,0.125 -0.90625,0.125 -1.34375,0.125 H 1.6875 c 0.390625,-0.328125 1.265625,-1.25 1.640625,-1.59375 2.1875,-2.015625 2.984375,-2.75 2.984375,-4.171875 0,-1.65625 -1.3125,-2.75 -2.96875,-2.75 -1.671875,0 -2.640625,1.40625 -2.640625,2.640625 0,0.734375 0.625,0.734375 0.671875,0.734375 0.296875,0 0.671875,-0.21875 0.671875,-0.671875 C 2.046875,-7.234375 1.78125,-7.5 1.375,-7.5 1.25,-7.5 1.21875,-7.5 1.171875,-7.484375 1.453125,-8.46875 2.21875,-9.125 3.15625,-9.125 4.375,-9.125 5.125,-8.109375 5.125,-6.78125 5.125,-5.5625 4.421875,-4.5 3.59375,-3.578125 L 0.703125,-0.34375 V 0 H 5.9375 Z m 0,0"
             id="path3309" />
        </g>
      </g>
      <path
         fill="none"
         stroke-width="0.3985"
         stroke-linecap="butt"
         stroke-linejoin="miter"
         stroke="#000000"
         stroke-opacity="1"
         stroke-miterlimit="10"
         d="m 12.540656,4.623563 c 0,6.925781 -5.617187,12.539062 -12.53906225,12.539062 -6.92578175,0 -12.53906275,-5.613281 -12.53906275,-12.539062 0,-6.925782 5.613281,-12.539063 12.53906275,-12.539063 6.92187525,0 12.53906225,5.613281 12.53906225,12.539063 z m 0,0"
         transform="matrix(1,0,0,-1,451.807,502.272)"
         id="path501" />
      <g
         fill="#000000"
         fill-opacity="1"
         id="g505">
        <g
           id="use503"
           transform="translate(448.29501,502.272)">
          <path
             d="m 5.25,-4.171875 c 0,3.390625 -1.5,4.078125 -2.359375,4.078125 -0.359375,0 -1.109375,-0.03125 -1.46875,-0.53125 H 1.5 c 0.109375,0.015625 0.625,-0.0625 0.625,-0.59375 0,-0.3125 -0.21875,-0.59375 -0.59375,-0.59375 -0.375,0 -0.59375,0.25 -0.59375,0.625 0,0.890625 0.71875,1.484375 1.953125,1.484375 1.796875,0 3.53125,-1.90625 3.53125,-5.015625 0,-3.859375 -1.609375,-4.8125 -2.859375,-4.8125 -1.578125,0 -2.96875,1.3125 -2.96875,3.203125 0,1.890625 1.328125,3.1875 2.765625,3.1875 1.0625,0 1.609375,-0.78125 1.890625,-1.5 z m -1.84375,0.75 C 2.515625,-3.421875 2.125,-4.15625 2,-4.4375 1.765625,-4.984375 1.765625,-5.671875 1.765625,-6.3125 c 0,-0.796875 0,-1.484375 0.375,-2.078125 0.25,-0.390625 0.640625,-0.796875 1.421875,-0.796875 0.8125,0 1.234375,0.703125 1.375,1.046875 0.28125,0.703125 0.28125,1.921875 0.28125,2.125 0,1.203125 -0.546875,2.59375 -1.8125,2.59375 z m 0,0"
             id="path3297" />
        </g>
      </g>
      <path
         fill="none"
         stroke-width="0.3985"
         stroke-linecap="butt"
         stroke-linejoin="miter"
         stroke="#000000"
         stroke-opacity="1"
         stroke-miterlimit="10"
         d="m 12.537219,4.622063 c 0,6.925781 -5.613281,12.539062 -12.53906275,12.539062 -6.92187525,0 -12.53906225,-5.613281 -12.53906225,-12.539062 0,-6.925782 5.617187,-12.539063 12.53906225,-12.539063 6.92578175,0 12.53906275,5.613281 12.53906275,12.539063 z m 0,0"
         transform="matrix(1,0,0,-1,434.287,545.083)"
         id="path507" />
      <g
         fill="#000000"
         fill-opacity="1"
         id="g511">
        <g
           id="use509"
           transform="translate(430.77499,545.08301)">
          <path
             d="m 5.171875,-9.34375 c 0,-0.265625 0,-0.34375 -0.1875,-0.34375 -0.125,0 -0.171875,0 -0.28125,0.171875 l -4.3125,6.703125 v 0.421875 H 4.15625 v 1.296875 c 0,0.53125 -0.03125,0.671875 -1.078125,0.671875 H 2.796875 V 0 C 3.125,-0.03125 4.265625,-0.03125 4.65625,-0.03125 c 0.40625,0 1.546875,0 1.890625,0.03125 V -0.421875 H 6.25 c -1.03125,0 -1.078125,-0.140625 -1.078125,-0.671875 V -2.390625 H 6.625 V -2.8125 H 5.171875 Z m -0.9375,1.125 V -2.8125 H 0.75 Z m 0,0"
             id="path3301" />
        </g>
      </g>
      <path
         fill="none"
         stroke-width="0.3985"
         stroke-linecap="butt"
         stroke-linejoin="miter"
         stroke="#000000"
         stroke-opacity="1"
         stroke-miterlimit="10"
         d="m 12.537281,4.622063 c 0,6.925781 -5.613281,12.539062 -12.53906225,12.539062 -6.92187475,0 -12.53906275,-5.613281 -12.53906275,-12.539062 0,-6.925782 5.617188,-12.539063 12.53906275,-12.539063 C 6.924,-7.917 12.537281,-2.303719 12.537281,4.622063 Z m 0,0"
         transform="matrix(1,0,0,-1,469.326,545.083)"
         id="path513" />
      <g
         fill="#000000"
         fill-opacity="1"
         id="g517">
        <g
           id="use515"
           transform="translate(465.814,545.08301)">
          <path
             d="m 4.125,-9.1875 c 0,-0.34375 0,-0.34375 -0.28125,-0.34375 C 3.5,-9.15625 2.78125,-8.625 1.3125,-8.625 v 0.421875 c 0.328125,0 1.046875,0 1.828125,-0.375 v 7.46875 c 0,0.515625 -0.046875,0.6875 -1.296875,0.6875 H 1.390625 V 0 c 0.390625,-0.03125 1.78125,-0.03125 2.25,-0.03125 0.46875,0 1.859375,0 2.234375,0.03125 V -0.421875 H 5.4375 c -1.265625,0 -1.3125,-0.171875 -1.3125,-0.6875 z m 0,0"
             id="path3289" />
        </g>
      </g>
      <path
         fill="none"
         stroke-width="0.3985"
         stroke-linecap="butt"
         stroke-linejoin="miter"
         stroke="#000000"
         stroke-opacity="1"
         stroke-miterlimit="10"
         d="M -10.000281,-6.870937 -31.058875,-31.074062"
         transform="matrix(1,0,0,-1,412.387,456.965)"
         id="path519" />
      <path
         fill="none"
         stroke-width="0.3985"
         stroke-linecap="butt"
         stroke-linejoin="miter"
         stroke="#000000"
         stroke-opacity="1"
         stroke-miterlimit="10"
         d="M -46.082313,-51.538906 -59.035438,-72.640469"
         transform="matrix(1,0,0,-1,412.387,456.965)"
         id="path521" />
      <path
         fill="none"
         stroke-width="0.3985"
         stroke-linecap="butt"
         stroke-linejoin="miter"
         stroke="#000000"
         stroke-opacity="1"
         stroke-miterlimit="10"
         d="m -70.523719,-95.285 -7.871094,-19.23437"
         transform="matrix(1,0,0,-1,412.387,456.965)"
         id="path523" />
      <path
         fill="none"
         stroke-width="0.3985"
         stroke-linecap="butt"
         stroke-linejoin="miter"
         stroke="#000000"
         stroke-opacity="1"
         stroke-miterlimit="10"
         d="m -60.875281,-95.285 7.871093,-19.23437"
         transform="matrix(1,0,0,-1,412.387,456.965)"
         id="path525" />
      <path
         fill="none"
         stroke-width="0.3985"
         stroke-linecap="butt"
         stroke-linejoin="miter"
         stroke="#000000"
         stroke-opacity="1"
         stroke-miterlimit="10"
         d="m -32.754188,-51.538906 12.949219,-21.101563"
         transform="matrix(1,0,0,-1,412.387,456.965)"
         id="path527" />
      <path
         fill="none"
         stroke-width="0.3985"
         stroke-linecap="butt"
         stroke-linejoin="miter"
         stroke="#000000"
         stroke-opacity="1"
         stroke-miterlimit="10"
         d="M -13.140906,-96.234219 V -113.57016"
         transform="matrix(1,0,0,-1,412.387,456.965)"
         id="path529" />
      <path
         fill="none"
         stroke-width="0.3985"
         stroke-linecap="butt"
         stroke-linejoin="miter"
         stroke="#000000"
         stroke-opacity="1"
         stroke-miterlimit="10"
         d="M 9.999719,-6.870937 31.058312,-31.074062"
         transform="matrix(1,0,0,-1,412.387,456.965)"
         id="path531" />
      <path
         fill="none"
         stroke-width="0.3985"
         stroke-linecap="butt"
         stroke-linejoin="miter"
         stroke="#000000"
         stroke-opacity="1"
         stroke-miterlimit="10"
         d="m 34.597375,-52.4725 -7.875,-19.234375"
         transform="matrix(1,0,0,-1,412.387,456.965)"
         id="path533" />
      <path
         fill="none"
         stroke-width="0.3985"
         stroke-linecap="butt"
         stroke-linejoin="miter"
         stroke="#000000"
         stroke-opacity="1"
         stroke-miterlimit="10"
         d="m 44.245812,-52.4725 7.871094,-19.234375"
         transform="matrix(1,0,0,-1,412.387,456.965)"
         id="path535" />
    </g>
  </g>
</svg>
