<?xml version="1.0" encoding="UTF-8" standalone="no"?>
<!-- Created with Inkscape (http://www.inkscape.org/) -->

<svg
   width="59.828926mm"
   height="54.296104mm"
   viewBox="0 0 59.828926 54.296104"
   version="1.1"
   id="svg795"
   inkscape:version="1.2.2 (b0a84865, 2022-12-01)"
   sodipodi:docname="build_heap_h1.svg"
   xmlns:inkscape="http://www.inkscape.org/namespaces/inkscape"
   xmlns:sodipodi="http://sodipodi.sourceforge.net/DTD/sodipodi-0.dtd"
   xmlns="http://www.w3.org/2000/svg"
   xmlns:svg="http://www.w3.org/2000/svg">
  <sodipodi:namedview
     id="namedview797"
     pagecolor="#ffffff"
     bordercolor="#666666"
     borderopacity="1.0"
     inkscape:showpageshadow="2"
     inkscape:pageopacity="0.0"
     inkscape:pagecheckerboard="0"
     inkscape:deskcolor="#d1d1d1"
     inkscape:document-units="mm"
     showgrid="false"
     inkscape:zoom="1.7335999"
     inkscape:cx="174.20398"
     inkscape:cy="257.26813"
     inkscape:window-width="1920"
     inkscape:window-height="2107"
     inkscape:window-x="0"
     inkscape:window-y="25"
     inkscape:window-maximized="0"
     inkscape:current-layer="layer1" />
  <defs
     id="defs792" />
  <g
     inkscape:label="Layer 1"
     inkscape:groupmode="layer"
     id="layer1"
     transform="translate(-61.95418,-81.080761)">
    <g
       id="g739"
       transform="matrix(0.35277777,0,0,0.35277777,9.4922787,37.053831)">
      <path
         fill="none"
         stroke-width="0.3985"
         stroke-linecap="butt"
         stroke-linejoin="miter"
         stroke="#000000"
         stroke-opacity="1"
         stroke-miterlimit="10"
         d="M 12.540406,4.623938 C 12.540406,11.549719 6.927125,17.163 0.00134375,17.163 -6.924437,17.163 -12.537719,11.549719 -12.537719,4.623938 c 0,-6.925782 5.613282,-12.539063 12.53906275,-12.539063 6.92578125,0 12.53906225,5.613281 12.53906225,12.539063 z m 0,0"
         transform="matrix(1,0,0,-1,244.776,142.163)"
         id="path57" />
      <g
         fill="#000000"
         fill-opacity="1"
         id="g61">
        <g
           id="use59"
           transform="translate(241.26401,142.16299)">
          <path
             d="m 5.171875,-9.34375 c 0,-0.265625 0,-0.34375 -0.1875,-0.34375 -0.125,0 -0.171875,0 -0.28125,0.171875 l -4.3125,6.703125 v 0.421875 H 4.15625 v 1.296875 c 0,0.53125 -0.03125,0.671875 -1.078125,0.671875 H 2.796875 V 0 C 3.125,-0.03125 4.265625,-0.03125 4.65625,-0.03125 c 0.40625,0 1.546875,0 1.890625,0.03125 V -0.421875 H 6.25 c -1.03125,0 -1.078125,-0.140625 -1.078125,-0.671875 V -2.390625 H 6.625 V -2.8125 H 5.171875 Z m -0.9375,1.125 V -2.8125 H 0.75 Z m 0,0"
             id="path972" />
        </g>
      </g>
      <path
         fill="none"
         stroke-width="0.3985"
         stroke-linecap="butt"
         stroke-linejoin="miter"
         stroke="#000000"
         stroke-opacity="1"
         stroke-miterlimit="10"
         d="M 12.539063,4.622438 C 12.539063,11.548219 6.925781,17.1615 0,17.1615 c -6.925781,0 -12.539062,-5.613281 -12.539062,-12.539062 0,-6.925782 5.613281,-12.539063 12.539062,-12.539063 6.925781,0 12.539063,5.613281 12.539063,12.539063 z m 0,0"
         transform="matrix(1,0,0,-1,205.25,184.974)"
         id="path63" />
      <g
         fill="#000000"
         fill-opacity="1"
         id="g67">
        <g
           id="use65"
           transform="translate(201.73801,184.974)">
          <path
             d="M 6.3125,-2.40625 H 6 c -0.046875,0.234375 -0.15625,1.03125 -0.3125,1.265625 -0.09375,0.125 -0.90625,0.125 -1.34375,0.125 H 1.6875 c 0.390625,-0.328125 1.265625,-1.25 1.640625,-1.59375 2.1875,-2.015625 2.984375,-2.75 2.984375,-4.171875 0,-1.65625 -1.3125,-2.75 -2.96875,-2.75 -1.671875,0 -2.640625,1.40625 -2.640625,2.640625 0,0.734375 0.625,0.734375 0.671875,0.734375 0.296875,0 0.671875,-0.21875 0.671875,-0.671875 C 2.046875,-7.234375 1.78125,-7.5 1.375,-7.5 1.25,-7.5 1.21875,-7.5 1.171875,-7.484375 1.453125,-8.46875 2.21875,-9.125 3.15625,-9.125 4.375,-9.125 5.125,-8.109375 5.125,-6.78125 5.125,-5.5625 4.421875,-4.5 3.59375,-3.578125 L 0.703125,-0.34375 V 0 H 5.9375 Z m 0,0"
             id="path980" />
        </g>
      </g>
      <path
         fill="none"
         stroke-width="0.3985"
         stroke-linecap="butt"
         stroke-linejoin="miter"
         stroke="#000000"
         stroke-opacity="1"
         stroke-miterlimit="10"
         d="m 12.537813,4.623844 c 0,6.925781 -5.613282,12.539062 -12.539063,12.539062 -6.925781,0 -12.539062,-5.613281 -12.539062,-12.539062 0,-6.925781 5.613281,-12.539063 12.539062,-12.539063 6.925781,0 12.539063,5.613282 12.539063,12.539063 z m 0,0"
         transform="matrix(1,0,0,-1,178.97,227.784)"
         id="path69" />
      <g
         fill="#000000"
         fill-opacity="1"
         id="g73">
        <g
           id="use71"
           transform="translate(175.45799,227.784)">
          <path
             d="m 1.765625,-4.984375 c 0,-3.640625 1.765625,-4.203125 2.53125,-4.203125 0.515625,0 1.03125,0.15625 1.3125,0.578125 -0.171875,0 -0.71875,0 -0.71875,0.59375 0,0.3125 0.21875,0.578125 0.59375,0.578125 0.359375,0 0.59375,-0.203125 0.59375,-0.625 0,-0.75 -0.546875,-1.46875 -1.796875,-1.46875 -1.796875,0 -3.6875,1.84375 -3.6875,5 0,3.9375 1.71875,4.828125 2.9375,4.828125 1.5625,0 2.890625,-1.359375 2.890625,-3.21875 0,-1.90625 -1.328125,-3.1875 -2.765625,-3.1875 -1.28125,0 -1.75,1.109375 -1.890625,1.5 z M 3.53125,-0.09375 c -0.90625,0 -1.34375,-0.796875 -1.46875,-1.09375 -0.125,-0.375 -0.265625,-1.078125 -0.265625,-2.078125 0,-1.140625 0.515625,-2.5625 1.796875,-2.5625 0.796875,0 1.21875,0.53125 1.421875,1.015625 C 5.25,-4.28125 5.25,-3.5625 5.25,-2.9375 c 0,0.734375 0,1.375 -0.265625,1.921875 -0.359375,0.6875 -0.875,0.921875 -1.453125,0.921875 z m 0,0"
             id="path992" />
        </g>
      </g>
      <path
         fill="none"
         stroke-width="0.3985"
         stroke-linecap="butt"
         stroke-linejoin="miter"
         stroke="#000000"
         stroke-opacity="1"
         stroke-miterlimit="10"
         d="m 12.538281,4.622344 c 0,6.925781 -5.613281,12.539062 -12.53906225,12.539062 -6.92578075,0 -12.53906275,-5.613281 -12.53906275,-12.539062 0,-6.925781 5.613282,-12.539063 12.53906275,-12.539063 6.92578125,0 12.53906225,5.613282 12.53906225,12.539063 z m 0,0"
         transform="matrix(1,0,0,-1,161.45,270.595)"
         id="path75" />
      <g
         fill="#000000"
         fill-opacity="1"
         id="g79">
        <g
           id="use77"
           transform="translate(157.939,270.595)">
          <path
             d="M 1.84375,-8.21875 C 2.453125,-8.015625 2.953125,-8 3.109375,-8 c 1.625,0 2.65625,-1.1875 2.65625,-1.390625 0,-0.0625 -0.03125,-0.140625 -0.109375,-0.140625 -0.03125,0 -0.0625,0 -0.1875,0.0625 -0.8125,0.34375 -1.5,0.390625 -1.875,0.390625 -0.9375,0 -1.609375,-0.28125 -1.890625,-0.40625 -0.09375,-0.046875 -0.125,-0.046875 -0.140625,-0.046875 -0.109375,0 -0.109375,0.09375 -0.109375,0.328125 v 4.25 c 0,0.265625 0,0.34375 0.171875,0.34375 0.0625,0 0.078125,-0.015625 0.21875,-0.1875 C 2.25,-5.375 2.921875,-5.71875 3.640625,-5.71875 c 0.765625,0 1.140625,0.703125 1.25,0.9375 0.25,0.5625 0.265625,1.265625 0.265625,1.8125 0,0.546875 0,1.359375 -0.40625,2 -0.3125,0.53125 -0.875,0.875 -1.515625,0.875 -0.9375,0 -1.875,-0.640625 -2.125,-1.6875 0.0625,0.03125 0.15625,0.046875 0.21875,0.046875 0.25,0 0.640625,-0.140625 0.640625,-0.625 C 1.96875,-2.765625 1.6875,-3 1.328125,-3 c -0.25,0 -0.625,0.125 -0.625,0.6875 0,1.21875 0.96875,2.609375 2.5625,2.609375 1.625,0 3.046875,-1.359375 3.046875,-3.1875 0,-1.703125 -1.15625,-3.125 -2.65625,-3.125 -0.8125,0 -1.453125,0.359375 -1.8125,0.765625 z m 0,0"
             id="path984" />
        </g>
      </g>
      <path
         fill="none"
         stroke-width="0.3985"
         stroke-linecap="butt"
         stroke-linejoin="miter"
         stroke="#000000"
         stroke-opacity="1"
         stroke-miterlimit="10"
         d="m 12.537344,4.622344 c 0,6.925781 -5.613281,12.539062 -12.53906275,12.539062 -6.92187525,0 -12.53906225,-5.613281 -12.53906225,-12.539062 0,-6.925781 5.617187,-12.539063 12.53906225,-12.539063 6.92578175,0 12.53906275,5.613282 12.53906275,12.539063 z m 0,0"
         transform="matrix(1,0,0,-1,196.49,270.595)"
         id="path81" />
      <g
         fill="#000000"
         fill-opacity="1"
         id="g85">
        <g
           id="use83"
           transform="translate(192.978,270.595)">
          <path
             d="m 2.640625,-5.15625 c -0.25,0.015625 -0.296875,0.03125 -0.296875,0.171875 0,0.140625 0.0625,0.140625 0.328125,0.140625 h 0.65625 c 1.21875,0 1.765625,1 1.765625,2.375 0,1.875 -0.984375,2.375 -1.6875,2.375 -0.6875,0 -1.859375,-0.328125 -2.265625,-1.265625 0.453125,0.0625 0.875,-0.1875 0.875,-0.703125 0,-0.421875 -0.3125,-0.703125 -0.703125,-0.703125 -0.34375,0 -0.71875,0.203125 -0.71875,0.75 0,1.265625 1.265625,2.3125 2.859375,2.3125 1.703125,0 2.96875,-1.296875 2.96875,-2.75 0,-1.3125 -1.0625,-2.359375 -2.4375,-2.59375 1.25,-0.359375 2.046875,-1.40625 2.046875,-2.53125 0,-1.125 -1.171875,-1.953125 -2.5625,-1.953125 -1.4375,0 -2.5,0.875 -2.5,1.921875 0,0.5625 0.453125,0.6875 0.671875,0.6875 0.296875,0 0.640625,-0.21875 0.640625,-0.65625 0,-0.453125 -0.34375,-0.65625 -0.65625,-0.65625 -0.09375,0 -0.125,0 -0.15625,0.015625 0.546875,-0.96875 1.890625,-0.96875 1.953125,-0.96875 0.484375,0 1.40625,0.203125 1.40625,1.609375 0,0.28125 -0.03125,1.078125 -0.453125,1.703125 -0.4375,0.625 -0.921875,0.671875 -1.3125,0.6875 z m 0,0"
             id="path964" />
        </g>
      </g>
      <path
         fill="none"
         stroke-width="0.3985"
         stroke-linecap="butt"
         stroke-linejoin="miter"
         stroke="#ff0000"
         stroke-opacity="1"
         stroke-miterlimit="10"
         d="m 12.537406,4.623844 c 0,6.925781 -5.613281,12.539062 -12.53906225,12.539062 -6.92187475,0 -12.53906275,-5.613281 -12.53906275,-12.539062 0,-6.925781 5.617188,-12.539063 12.53906275,-12.539063 6.92578125,0 12.53906225,5.613282 12.53906225,12.539063 z m 0,0"
         transform="matrix(1,0,0,-1,231.529,227.784)"
         id="path87" />
      <g
         fill="#ff0000"
         fill-opacity="1"
         id="g91">
        <g
           id="use89"
           transform="translate(228.01801,227.784)">
          <path
             d="M 6.8125,-8.90625 V -9.234375 H 3.359375 c -1.734375,0 -1.765625,-0.1875 -1.828125,-0.46875 h -0.3125 l -0.4375,2.875 h 0.3125 c 0.046875,-0.25 0.171875,-1.140625 0.359375,-1.3125 C 1.5625,-8.21875 2.640625,-8.21875 2.84375,-8.21875 H 5.875 l -1.515625,2.1875 C 3.96875,-5.484375 2.53125,-3.125 2.53125,-0.4375 c 0,0.171875 0,0.734375 0.578125,0.734375 0.609375,0 0.609375,-0.5625 0.609375,-0.734375 v -0.71875 c 0,-2.140625 0.34375,-3.8125 1.015625,-4.765625 z m 0,0"
             id="path976" />
        </g>
      </g>
      <path
         fill="none"
         stroke-width="0.3985"
         stroke-linecap="butt"
         stroke-linejoin="miter"
         stroke="#0000ff"
         stroke-opacity="1"
         stroke-miterlimit="10"
         d="m 12.537406,4.622344 c 0,6.925781 -5.613281,12.539062 -12.53906225,12.539062 -6.92187475,0 -12.53906275,-5.613281 -12.53906275,-12.539062 0,-6.925781 5.617188,-12.539063 12.53906275,-12.539063 6.92578125,0 12.53906225,5.613282 12.53906225,12.539063 z m 0,0"
         transform="matrix(1,0,0,-1,231.529,270.595)"
         id="path93" />
      <g
         fill="#0000ff"
         fill-opacity="1"
         id="g97">
        <g
           id="use95"
           transform="translate(228.01801,270.595)">
          <path
             d="m 4.28125,-5.171875 c 0.703125,-0.390625 1.75,-1.046875 1.75,-2.265625 0,-1.234375 -1.203125,-2.09375 -2.515625,-2.09375 -1.421875,0 -2.546875,1.046875 -2.546875,2.34375 0,0.484375 0.15625,0.984375 0.546875,1.46875 0.15625,0.1875 0.171875,0.203125 1.1875,0.90625 -1.390625,0.640625 -2.109375,1.59375 -2.109375,2.640625 0,1.53125 1.4375,2.46875 2.90625,2.46875 1.59375,0 2.921875,-1.171875 2.921875,-2.671875 0,-1.46875 -1.03125,-2.109375 -2.140625,-2.796875 z M 2.328125,-6.46875 c -0.1875,-0.125 -0.765625,-0.5 -0.765625,-1.203125 0,-0.9375 0.96875,-1.515625 1.9375,-1.515625 1.03125,0 1.953125,0.734375 1.953125,1.765625 0,0.875 -0.640625,1.578125 -1.46875,2.046875 z M 3,-4.625 4.734375,-3.484375 c 0.375,0.25 1.03125,0.6875 1.03125,1.5625 0,1.09375 -1.109375,1.828125 -2.25,1.828125 C 2.296875,-0.09375 1.25,-0.96875 1.25,-2.171875 1.25,-3.28125 2.0625,-4.1875 3,-4.625 Z m 0,0"
             id="path988" />
        </g>
      </g>
      <path
         fill="none"
         stroke-width="0.3985"
         stroke-linecap="butt"
         stroke-linejoin="miter"
         stroke="#000000"
         stroke-opacity="1"
         stroke-miterlimit="10"
         d="m 12.54075,4.622438 c 0,6.925781 -5.617187,12.539062 -12.5390625,12.539062 -6.9257815,0 -12.5390625,-5.613281 -12.5390625,-12.539062 0,-6.925782 5.613281,-12.539063 12.5390625,-12.539063 6.9218755,0 12.5390625,5.613281 12.5390625,12.539063 z m 0,0"
         transform="matrix(1,0,0,-1,284.303,184.974)"
         id="path99" />
      <g
         fill="#000000"
         fill-opacity="1"
         id="g103">
        <g
           id="use101"
           transform="translate(280.79099,184.974)">
          <path
             d="m 4.125,-9.1875 c 0,-0.34375 0,-0.34375 -0.28125,-0.34375 C 3.5,-9.15625 2.78125,-8.625 1.3125,-8.625 v 0.421875 c 0.328125,0 1.046875,0 1.828125,-0.375 v 7.46875 c 0,0.515625 -0.046875,0.6875 -1.296875,0.6875 H 1.390625 V 0 c 0.390625,-0.03125 1.78125,-0.03125 2.25,-0.03125 0.46875,0 1.859375,0 2.234375,0.03125 V -0.421875 H 5.4375 c -1.265625,0 -1.3125,-0.171875 -1.3125,-0.6875 z m 0,0"
             id="path952" />
        </g>
      </g>
      <path
         fill="none"
         stroke-width="0.3985"
         stroke-linecap="butt"
         stroke-linejoin="miter"
         stroke="#000000"
         stroke-opacity="1"
         stroke-miterlimit="10"
         d="m 12.539219,4.620844 c 0,6.925781 -5.613281,12.539062 -12.53906275,12.539062 -6.92578125,0 -12.53906225,-5.613281 -12.53906225,-12.539062 0,-6.921875 5.613281,-12.539063 12.53906225,-12.539063 6.92578175,0 12.53906275,5.617188 12.53906275,12.539063 z m 0,0"
         transform="matrix(1,0,0,-1,265.535,230.281)"
         id="path105" />
      <g
         fill="#000000"
         fill-opacity="1"
         id="g109">
        <g
           id="use107"
           transform="translate(262.02301,230.28101)">
          <path
             d="m 5.25,-4.171875 c 0,3.390625 -1.5,4.078125 -2.359375,4.078125 -0.359375,0 -1.109375,-0.03125 -1.46875,-0.53125 H 1.5 c 0.109375,0.015625 0.625,-0.0625 0.625,-0.59375 0,-0.3125 -0.21875,-0.59375 -0.59375,-0.59375 -0.375,0 -0.59375,0.25 -0.59375,0.625 0,0.890625 0.71875,1.484375 1.953125,1.484375 1.796875,0 3.53125,-1.90625 3.53125,-5.015625 0,-3.859375 -1.609375,-4.8125 -2.859375,-4.8125 -1.578125,0 -2.96875,1.3125 -2.96875,3.203125 0,1.890625 1.328125,3.1875 2.765625,3.1875 1.0625,0 1.609375,-0.78125 1.890625,-1.5 z m -1.84375,0.75 C 2.515625,-3.421875 2.125,-4.15625 2,-4.4375 1.765625,-4.984375 1.765625,-5.671875 1.765625,-6.3125 c 0,-0.796875 0,-1.484375 0.375,-2.078125 0.25,-0.390625 0.640625,-0.796875 1.421875,-0.796875 0.8125,0 1.234375,0.703125 1.375,1.046875 0.28125,0.703125 0.28125,1.921875 0.28125,2.125 0,1.203125 -0.546875,2.59375 -1.8125,2.59375 z m 0,0"
             id="path968" />
        </g>
      </g>
      <path
         fill="none"
         stroke-width="0.3985"
         stroke-linecap="butt"
         stroke-linejoin="miter"
         stroke="#000000"
         stroke-opacity="1"
         stroke-miterlimit="10"
         d="m 15.035469,4.620844 c 0,8.304687 -6.730469,15.039062 -15.0351565,15.039062 -8.3046875,0 -15.0351565,-6.734375 -15.0351565,-15.039062 0,-8.300781 6.730469,-15.035156 15.0351565,-15.035156 8.3046875,0 15.0351565,6.734375 15.0351565,15.035156 z m 0,0"
         transform="matrix(1,0,0,-1,303.07,230.281)"
         id="path111" />
      <g
         fill="#000000"
         fill-opacity="1"
         id="g117">
        <g
           id="use113"
           transform="translate(296.047,230.28101)">
          <path
             d="m 4.125,-9.1875 c 0,-0.34375 0,-0.34375 -0.28125,-0.34375 C 3.5,-9.15625 2.78125,-8.625 1.3125,-8.625 v 0.421875 c 0.328125,0 1.046875,0 1.828125,-0.375 v 7.46875 c 0,0.515625 -0.046875,0.6875 -1.296875,0.6875 H 1.390625 V 0 c 0.390625,-0.03125 1.78125,-0.03125 2.25,-0.03125 0.46875,0 1.859375,0 2.234375,0.03125 V -0.421875 H 5.4375 c -1.265625,0 -1.3125,-0.171875 -1.3125,-0.6875 z m 0,0"
             id="path956" />
        </g>
        <g
           id="use115"
           transform="translate(303.07089,230.28101)">
          <path
             d="m 4.125,-9.1875 c 0,-0.34375 0,-0.34375 -0.28125,-0.34375 C 3.5,-9.15625 2.78125,-8.625 1.3125,-8.625 v 0.421875 c 0.328125,0 1.046875,0 1.828125,-0.375 v 7.46875 c 0,0.515625 -0.046875,0.6875 -1.296875,0.6875 H 1.390625 V 0 c 0.390625,-0.03125 1.78125,-0.03125 2.25,-0.03125 0.46875,0 1.859375,0 2.234375,0.03125 V -0.421875 H 5.4375 c -1.265625,0 -1.3125,-0.171875 -1.3125,-0.6875 z m 0,0"
             id="path960" />
        </g>
      </g>
      <path
         fill="none"
         stroke-width="0.3985"
         stroke-linecap="butt"
         stroke-linejoin="miter"
         stroke="#000000"
         stroke-opacity="1"
         stroke-miterlimit="10"
         d="m -8.639281,-4.735437 -22.246094,-24.09375"
         transform="matrix(1,0,0,-1,244.776,142.163)"
         id="path119" />
      <path
         fill="none"
         stroke-width="0.3985"
         stroke-linecap="butt"
         stroke-linejoin="miter"
         stroke="#000000"
         stroke-opacity="1"
         stroke-miterlimit="10"
         d="M -46.190062,-49.044031 -59.143187,-70.145594"
         transform="matrix(1,0,0,-1,244.776,142.163)"
         id="path121" />
      <path
         fill="none"
         stroke-width="0.3985"
         stroke-linecap="butt"
         stroke-linejoin="miter"
         stroke="#000000"
         stroke-opacity="1"
         stroke-miterlimit="10"
         d="m -70.631469,-92.790125 -7.871093,-19.230465"
         transform="matrix(1,0,0,-1,244.776,142.163)"
         id="path123" />
      <path
         fill="none"
         stroke-width="0.3985"
         stroke-linecap="butt"
         stroke-linejoin="miter"
         stroke="#000000"
         stroke-opacity="1"
         stroke-miterlimit="10"
         d="m -60.983031,-92.790125 7.871094,-19.230465"
         transform="matrix(1,0,0,-1,244.776,142.163)"
         id="path125" />
      <path
         fill="none"
         stroke-width="0.3985"
         stroke-linecap="butt"
         stroke-linejoin="miter"
         stroke="#000000"
         stroke-opacity="1"
         stroke-miterlimit="10"
         d="m -32.861937,-49.044031 12.953125,-21.101563"
         transform="matrix(1,0,0,-1,244.776,142.163)"
         id="path127" />
      <path
         fill="none"
         stroke-width="0.3985"
         stroke-linecap="butt"
         stroke-linejoin="miter"
         stroke="#000000"
         stroke-opacity="1"
         stroke-miterlimit="10"
         d="M -13.248656,-93.739344 V -111.07138"
         transform="matrix(1,0,0,-1,244.776,142.163)"
         id="path129" />
      <path
         fill="none"
         stroke-width="0.3985"
         stroke-linecap="butt"
         stroke-linejoin="miter"
         stroke="#000000"
         stroke-opacity="1"
         stroke-miterlimit="10"
         d="m 8.641969,-4.735437 22.246094,-24.09375"
         transform="matrix(1,0,0,-1,244.776,142.163)"
         id="path131" />
      <path
         fill="none"
         stroke-width="0.3985"
         stroke-linecap="butt"
         stroke-linejoin="miter"
         stroke="#000000"
         stroke-opacity="1"
         stroke-miterlimit="10"
         d="M 34.653688,-49.958094 25.634156,-71.727625"
         transform="matrix(1,0,0,-1,244.776,142.163)"
         id="path133" />
      <path
         fill="none"
         stroke-width="0.3985"
         stroke-linecap="butt"
         stroke-linejoin="miter"
         stroke="#000000"
         stroke-opacity="1"
         stroke-miterlimit="10"
         d="m 44.399781,-49.958094 8.066407,-19.464843"
         transform="matrix(1,0,0,-1,244.776,142.163)"
         id="path135" />
    </g>
  </g>
</svg>
