<?xml version="1.0" encoding="UTF-8" standalone="no"?>
<!-- Created with Inkscape (http://www.inkscape.org/) -->

<svg
   width="100.16017mm"
   height="7.0337338mm"
   viewBox="0 0 100.16017 7.0337338"
   version="1.1"
   id="svg15013"
   inkscape:version="1.2.2 (732a01da63, 2022-12-09)"
   sodipodi:docname="huffman_code_recipe.svg"
   xmlns:inkscape="http://www.inkscape.org/namespaces/inkscape"
   xmlns:sodipodi="http://sodipodi.sourceforge.net/DTD/sodipodi-0.dtd"
   xmlns="http://www.w3.org/2000/svg"
   xmlns:svg="http://www.w3.org/2000/svg">
  <sodipodi:namedview
     id="namedview15015"
     pagecolor="#ffffff"
     bordercolor="#666666"
     borderopacity="1.0"
     inkscape:showpageshadow="2"
     inkscape:pageopacity="0.0"
     inkscape:pagecheckerboard="0"
     inkscape:deskcolor="#d1d1d1"
     inkscape:document-units="mm"
     showgrid="false"
     inkscape:zoom="2.9004793"
     inkscape:cx="189.27906"
     inkscape:cy="13.273668"
     inkscape:window-width="1174"
     inkscape:window-height="480"
     inkscape:window-x="0"
     inkscape:window-y="25"
     inkscape:window-maximized="0"
     inkscape:current-layer="layer1" />
  <defs
     id="defs15010" />
  <g
     inkscape:label="Layer 1"
     inkscape:groupmode="layer"
     id="layer1"
     transform="translate(-38.013136,-122.33059)">
    <g
       fill="#231f20"
       fill-opacity="1"
       id="g7929"
       transform="matrix(0.35277777,0,0,0.35277777,6.2839177,83.791111)">
      <g
         id="use7919"
         transform="translate(94.821999,122.005)">
        <path
           d="m 0.34375,-7.03125 v 0.421875 l 0.59375,0.0625 0.1875,0.15625 V -0.625 l -0.1875,0.140625 -0.59375,0.0625 V 0 H 2.890625 V -0.421875 L 2.234375,-0.484375 2.0625,-0.625 v -2.8125 h 3.59375 v 2.8125 l -0.171875,0.140625 -0.640625,0.0625 V 0 H 7.375 V -0.421875 L 6.78125,-0.484375 6.609375,-0.625 V -6.390625 L 6.78125,-6.546875 7.375,-6.609375 V -7.03125 H 4.84375 v 0.421875 l 0.640625,0.0625 0.171875,0.15625 v 2.46875 H 2.0625 v -2.46875 l 0.171875,-0.15625 0.65625,-0.0625 V -7.03125 Z m 0,0"
           id="path15432" />
      </g>
      <g
         id="use7921"
         transform="translate(102.55093,122.005)">
        <path
           d="M 0.390625,-5.15625 V -4.75 l 0.59375,0.046875 0.171875,0.09375 v 2.8125 c 0,0.546875 0.046875,0.96875 0.375,1.328125 0.328125,0.34375 0.984375,0.578125 1.796875,0.578125 0.8125,0 1.46875,-0.234375 1.796875,-0.578125 C 5.453125,-0.828125 5.5,-1.25 5.5,-1.796875 v -2.75 L 5.671875,-4.6875 6.296875,-4.75 V -5.15625 H 4.328125 V -4.75 l 0.484375,0.0625 0.15625,0.140625 v 2.578125 c 0,1 -0.4375,1.453125 -1.453125,1.453125 -1.03125,0 -1.4375,-0.453125 -1.4375,-1.453125 v -2.640625 l 0.140625,-0.09375 0.5,-0.046875 v -0.40625 z m 0,0"
           id="path15428" />
      </g>
      <g
         id="use7923"
         transform="translate(109.15926,122.005)">
        <path
           d="M 0.484375,-0.015625 H 2.875 v -0.40625 L 2.265625,-0.453125 2.125,-0.5625 V -2.375 h 1.40625 l 0.125,0.109375 L 3.75,-1.75 H 4.21875 V -3.46875 H 3.75 l -0.09375,0.53125 -0.125,0.09375 H 2.125 V -4.703125 H 4.109375 L 4.265625,-4.59375 4.5625,-3.921875 H 5.109375 V -5.15625 h -4.71875 v 0.390625 l 0.671875,0.03125 0.15625,0.125 V -0.5625 l -0.15625,0.109375 -0.578125,0.03125 z m 0,0"
           id="path15420" />
      </g>
      <g
         id="use7925"
         transform="translate(114.70985,122.005)">
        <path
           d="M 0.484375,-0.015625 H 2.875 v -0.40625 L 2.265625,-0.453125 2.125,-0.5625 V -2.375 h 1.40625 l 0.125,0.109375 L 3.75,-1.75 H 4.21875 V -3.46875 H 3.75 l -0.09375,0.53125 -0.125,0.09375 H 2.125 V -4.703125 H 4.109375 L 4.265625,-4.59375 4.5625,-3.921875 H 5.109375 V -5.15625 h -4.71875 v 0.390625 l 0.671875,0.03125 0.15625,0.125 V -0.5625 l -0.15625,0.109375 -0.578125,0.03125 z m 0,0"
           id="path15424" />
      </g>
      <g
         id="use7927"
         transform="translate(120.26043,122.005)">
        <path
           d="m 0.4375,-0.015625 h 1.953125 v -0.40625 L 1.921875,-0.484375 1.78125,-0.625 v -4 l 1.796875,4.609375 h 0.34375 l 1.875,-4.6875 V -0.5625 L 5.71875,-0.46875 5.1875,-0.421875 v 0.40625 h 2.265625 v -0.40625 l -0.65625,-0.046875 -0.125,-0.09375 v -4.046875 l 0.125,-0.09375 L 7.453125,-4.75 v -0.40625 h -2.0625 v 0.3125 l -1.5,3.671875 -1.5,-3.71875 V -5.15625 H 0.4375 V -4.75 L 1.109375,-4.703125 1.25,-4.609375 V -0.625 l -0.1875,0.140625 -0.625,0.0625 z m 0,0"
           id="path15416" />
      </g>
    </g>
    <g
       fill="#231f20"
       fill-opacity="1"
       id="g7933"
       transform="matrix(0.35277777,0,0,0.35277777,6.2839177,83.791111)">
      <g
         id="use7931"
         transform="translate(127.73801,122.005)">
        <path
           d="M 2.4375,-5.21875 0.609375,-0.5 0.140625,-0.421875 V 0 H 1.6875 V -0.421875 L 1.21875,-0.453125 1.140625,-0.5625 1.65625,-1.875 H 3.5 l 0.5625,1.3125 -0.046875,0.109375 -0.484375,0.03125 V 0 h 1.875 V -0.421875 L 4.9375,-0.5 3.0625,-5.21875 Z m 0.125,0.796875 0.8125,2.078125 H 1.796875 Z m 0,0"
           id="path15412" />
      </g>
    </g>
    <g
       fill="#231f20"
       fill-opacity="1"
       id="g7939"
       transform="matrix(0.35277777,0,0,0.35277777,6.2839177,83.791111)">
      <g
         id="use7935"
         transform="translate(133.02678,122.005)">
        <path
           d="m 0.4375,-0.015625 h 1.953125 v -0.40625 L 1.90625,-0.484375 1.765625,-0.625 v -3.671875 l 3.0625,4.28125 H 5.46875 v -4.53125 L 5.640625,-4.6875 6.265625,-4.75 V -5.15625 H 4.296875 V -4.75 l 0.484375,0.0625 0.15625,0.140625 v 3.4375 l -2.75,-3.796875 v -0.25 H 0.40625 V -4.75 l 0.640625,0.046875 0.1875,0.09375 V -0.625 l -0.1875,0.140625 -0.609375,0.0625 z m 0,0"
           id="path15408" />
      </g>
      <g
         id="use7937"
         transform="translate(139.68747,122.005)">
        <path
           d="M 1.671875,-5.03125 C 1.296875,-5.03125 1,-4.75 1,-4.375 c 0,0.359375 0.296875,0.671875 0.671875,0.671875 0.359375,0 0.65625,-0.3125 0.65625,-0.671875 0,-0.375 -0.296875,-0.65625 -0.65625,-0.65625 z m 0,3.796875 C 1.296875,-1.234375 1,-0.9375 1,-0.5625 c 0,0.375 0.296875,0.65625 0.671875,0.65625 0.359375,0 0.65625,-0.296875 0.65625,-0.65625 0,-0.375 -0.296875,-0.671875 -0.65625,-0.671875 z m 0,0"
           id="path15436" />
      </g>
    </g>
    <g
       fill="#231f20"
       fill-opacity="1"
       id="g7951"
       transform="matrix(0.35277777,0,0,0.35277777,6.2839177,83.791111)">
      <g
         id="use7941"
         transform="translate(147.10201,122.005)">
        <path
           d="M 0.328125,0 H 2.53125 V -0.421875 L 1.890625,-0.515625 1.703125,-0.71875 V -6.421875 L 4.09375,0 H 4.546875 L 7.03125,-6.53125 V -0.625 l -0.109375,0.140625 -0.6875,0.0625 V 0 h 2.5 v -0.421875 l -0.65625,-0.0625 -0.125,-0.140625 v -5.765625 l 0.125,-0.15625 0.65625,-0.0625 V -7.03125 h -2.25 v 0.328125 L 4.5,-1.484375 l -1.96875,-5.25 V -7.03125 H 0.3125 v 0.421875 l 0.6875,0.0625 0.140625,0.15625 v 5.671875 l -0.1875,0.203125 -0.625,0.09375 z m 0,0"
           id="path15476" />
      </g>
      <g
         id="use7943"
         transform="translate(156.17145,122.005)">
        <path
           d="M 4.6875,-1.109375 C 4.09375,-0.71875 3.5625,-0.5 3.046875,-0.5 1.984375,-0.5 1.28125,-1.296875 1.28125,-2.640625 V -2.75 H 4.671875 C 4.6875,-2.875 4.6875,-2.96875 4.6875,-3.078125 c 0,-1.28125 -0.734375,-2.0625 -1.875,-2.0625 -1.40625,0 -2.421875,1.078125 -2.421875,2.65625 0,1.546875 0.953125,2.578125 2.328125,2.578125 0.65625,0 1.34375,-0.203125 1.96875,-0.625 z M 3.765625,-3.1875 H 1.34375 C 1.40625,-4.078125 2,-4.671875 2.671875,-4.671875 c 0.703125,0 1.09375,0.46875 1.09375,1.3125 z m 0,0"
           id="path15292" />
      </g>
      <g
         id="use7945"
         transform="translate(161.31358,122.005)">
        <path
           d="M 0.3125,0 H 2.84375 V -0.375 L 2.109375,-0.421875 1.921875,-0.59375 v -3 c 0.4375,-0.5 0.796875,-0.765625 1.140625,-0.765625 0.21875,0 0.40625,0.09375 0.53125,0.25 H 3.9375 V -5 c -0.21875,-0.09375 -0.421875,-0.140625 -0.625,-0.140625 -0.09375,0 -0.1875,0 -0.265625,0.015625 -0.375,0.3125 -0.75,0.640625 -1.125,1.015625 V -5.09375 H 1.53125 L 0.3125,-4.703125 v 0.3125 h 0.75 V -0.59375 L 0.875,-0.421875 0.3125,-0.375 Z m 0,0"
           id="path15332" />
      </g>
      <g
         id="use7947"
         transform="translate(165.31419,122.005)">
        <path
           d="M 3.859375,-4.84375 C 3.46875,-5.046875 3.078125,-5.140625 2.6875,-5.140625 c -1.25,0 -2.03125,0.71875 -2.03125,1.734375 0,0.78125 0.484375,1.390625 1.296875,1.578125 C 1.609375,-1.4375 1.4375,-1.109375 1.4375,-0.84375 c 0,0.171875 0.046875,0.328125 0.109375,0.484375 -0.703125,0.125 -1.125,0.625 -1.125,1.296875 0,0.828125 0.6875,1.34375 1.890625,1.34375 0.796875,0 1.515625,-0.234375 2.078125,-0.6875 0.40625,-0.34375 0.625,-0.78125 0.625,-1.171875 0,-0.78125 -0.546875,-1.109375 -1.78125,-1.296875 l -1,-0.15625 c -0.015625,-0.109375 -0.03125,-0.1875 -0.03125,-0.25 0,-0.15625 0.046875,-0.328125 0.125,-0.46875 H 2.5 c 1.21875,0 2,-0.703125 2,-1.625 0,-0.375 -0.09375,-0.671875 -0.296875,-0.984375 h 1.15625 V -4.84375 Z m -1.28125,0.109375 c 0.609375,0 1.015625,0.5 1.015625,1.296875 0,0.78125 -0.40625,1.28125 -1.015625,1.28125 -0.609375,0 -1.03125,-0.5 -1.03125,-1.28125 0,-0.8125 0.421875,-1.296875 1.03125,-1.296875 z M 2.15625,-0.3125 3.171875,-0.125 c 0.734375,0.140625 1.0625,0.25 1.0625,0.8125 0,0.59375 -0.625,1.109375 -1.546875,1.109375 C 1.828125,1.796875 1.25,1.3125 1.25,0.71875 1.25,0.25 1.578125,-0.140625 2.15625,-0.3125 Z m 0,0"
           id="path15352" />
      </g>
      <g
         id="use7949"
         transform="translate(170.79147,122.005)">
        <path
           d="M 4.6875,-1.109375 C 4.09375,-0.71875 3.5625,-0.5 3.046875,-0.5 1.984375,-0.5 1.28125,-1.296875 1.28125,-2.640625 V -2.75 H 4.671875 C 4.6875,-2.875 4.6875,-2.96875 4.6875,-3.078125 c 0,-1.28125 -0.734375,-2.0625 -1.875,-2.0625 -1.40625,0 -2.421875,1.078125 -2.421875,2.65625 0,1.546875 0.953125,2.578125 2.328125,2.578125 0.65625,0 1.34375,-0.203125 1.96875,-0.625 z M 3.765625,-3.1875 H 1.34375 C 1.40625,-4.078125 2,-4.671875 2.671875,-4.671875 c 0.703125,0 1.09375,0.46875 1.09375,1.3125 z m 0,0"
           id="path15296" />
      </g>
    </g>
    <g
       fill="#231f20"
       fill-opacity="1"
       id="g7959"
       transform="matrix(0.35277777,0,0,0.35277777,6.2839177,83.791111)">
      <g
         id="use7953"
         transform="translate(178.84506,122.005)">
        <path
           d="m 0.921875,-4.40625 v 3.375 c 0,0.75 0.21875,1.0625 1.09375,1.0625 0.40625,0 0.875,-0.078125 1.359375,-0.234375 V -0.59375 C 3.140625,-0.53125 2.90625,-0.5 2.65625,-0.5 1.921875,-0.5 1.796875,-0.84375 1.796875,-1.640625 V -4.40625 H 3.375 v -0.5 H 1.796875 V -6.015625 H 1.40625 l -0.453125,0.984375 -0.6875,0.296875 v 0.328125 z m 0,0"
           id="path15380" />
      </g>
      <g
         id="use7955"
         transform="translate(182.34297,122.005)">
        <path
           d="m 1.46875,-7.703125 -1.265625,0.375 V -7 H 1 v 6.40625 L 0.828125,-0.421875 0.265625,-0.375 V 0 h 2.28125 V -0.375 L 2.0625,-0.421875 1.875,-0.59375 v -3.515625 c 0.453125,-0.21875 0.84375,-0.34375 1.171875,-0.34375 0.78125,0 1.0625,0.3125 1.0625,1.078125 v 2.78125 L 3.921875,-0.421875 3.4375,-0.375 V 0 H 5.71875 V -0.375 L 5.15625,-0.421875 4.96875,-0.59375 v -2.953125 c 0,-1.046875 -0.484375,-1.59375 -1.40625,-1.59375 -0.4375,0 -0.984375,0.234375 -1.6875,0.625 v -3.1875 z m 0,0"
           id="path15376" />
      </g>
      <g
         id="use7957"
         transform="translate(188.24963,122.005)">
        <path
           d="M 4.6875,-1.109375 C 4.09375,-0.71875 3.5625,-0.5 3.046875,-0.5 1.984375,-0.5 1.28125,-1.296875 1.28125,-2.640625 V -2.75 H 4.671875 C 4.6875,-2.875 4.6875,-2.96875 4.6875,-3.078125 c 0,-1.28125 -0.734375,-2.0625 -1.875,-2.0625 -1.40625,0 -2.421875,1.078125 -2.421875,2.65625 0,1.546875 0.953125,2.578125 2.328125,2.578125 0.65625,0 1.34375,-0.203125 1.96875,-0.625 z M 3.765625,-3.1875 H 1.34375 C 1.40625,-4.078125 2,-4.671875 2.671875,-4.671875 c 0.703125,0 1.09375,0.46875 1.09375,1.3125 z m 0,0"
           id="path15300" />
      </g>
    </g>
    <g
       fill="#231f20"
       fill-opacity="1"
       id="g7963"
       transform="matrix(0.35277777,0,0,0.35277777,6.2839177,83.791111)">
      <g
         id="use7961"
         transform="translate(196.30321,122.005)">
        <path
           d="m 0.921875,-4.40625 v 3.375 c 0,0.75 0.21875,1.0625 1.09375,1.0625 0.40625,0 0.875,-0.078125 1.359375,-0.234375 V -0.59375 C 3.140625,-0.53125 2.90625,-0.5 2.65625,-0.5 1.921875,-0.5 1.796875,-0.84375 1.796875,-1.640625 V -4.40625 H 3.375 v -0.5 H 1.796875 V -6.015625 H 1.40625 l -0.453125,0.984375 -0.6875,0.296875 v 0.328125 z m 0,0"
           id="path15384" />
      </g>
    </g>
    <g
       fill="#231f20"
       fill-opacity="1"
       id="g7967"
       transform="matrix(0.35277777,0,0,0.35277777,6.2839177,83.791111)">
      <g
         id="use7965"
         transform="translate(200.23051,122.005)">
        <path
           d="m -0.015625,-5.03125 v 0.390625 L 0.625,-4.578125 2.015625,0 H 2.65625 L 4.078125,-3.96875 5.34375,0 h 0.640625 l 1.5,-4.5625 0.59375,-0.078125 V -5.03125 H 6.21875 v 0.390625 l 0.5625,0.03125 0.09375,0.171875 -1.078125,3.40625 -1.234375,-4 H 3.921875 l -1.40625,4 L 1.5625,-4.4375 1.703125,-4.609375 2.25,-4.640625 V -5.03125 Z m 0,0"
           id="path15472" />
      </g>
    </g>
    <g
       fill="#231f20"
       fill-opacity="1"
       id="g7971"
       transform="matrix(0.35277777,0,0,0.35277777,6.2839177,83.791111)">
      <g
         id="use7969"
         transform="translate(208.01181,122.005)">
        <path
           d="m 2.8125,-5.140625 c -1.40625,0 -2.421875,1.0625 -2.421875,2.625 0,1.546875 1.015625,2.609375 2.421875,2.609375 1.40625,0 2.4375,-1.0625 2.4375,-2.609375 0,-1.5625 -1.015625,-2.625 -2.4375,-2.625 z m 0,0.453125 c 0.84375,0 1.453125,0.8125 1.453125,2.171875 0,1.359375 -0.609375,2.15625 -1.453125,2.15625 -0.828125,0 -1.4375,-0.8125 -1.4375,-2.15625 0,-1.375 0.59375,-2.171875 1.4375,-2.171875 z m 0,0"
           id="path15404" />
      </g>
    </g>
    <g
       fill="#231f20"
       fill-opacity="1"
       id="g7975"
       transform="matrix(0.35277777,0,0,0.35277777,6.2839177,83.791111)">
      <g
         id="use7973"
         transform="translate(216.56808,122.005)">
        <path
           d="M 0.296875,0 H 2.75 V -0.375 L 2.140625,-0.421875 1.953125,-0.59375 V -7.703125 H 1.5625 l -1.28125,0.375 V -7 h 0.8125 v 6.40625 L 0.90625,-0.421875 0.296875,-0.375 Z m 0,0"
           id="path15360" />
      </g>
    </g>
    <g
       fill="#231f20"
       fill-opacity="1"
       id="g7981"
       transform="matrix(0.35277777,0,0,0.35277777,6.2839177,83.791111)">
      <g
         id="use7977"
         transform="translate(219.41669,122.005)">
        <path
           d="M 4.6875,-1.109375 C 4.09375,-0.71875 3.5625,-0.5 3.046875,-0.5 1.984375,-0.5 1.28125,-1.296875 1.28125,-2.640625 V -2.75 H 4.671875 C 4.6875,-2.875 4.6875,-2.96875 4.6875,-3.078125 c 0,-1.28125 -0.734375,-2.0625 -1.875,-2.0625 -1.40625,0 -2.421875,1.078125 -2.421875,2.65625 0,1.546875 0.953125,2.578125 2.328125,2.578125 0.65625,0 1.34375,-0.203125 1.96875,-0.625 z M 3.765625,-3.1875 H 1.34375 C 1.40625,-4.078125 2,-4.671875 2.671875,-4.671875 c 0.703125,0 1.09375,0.46875 1.09375,1.3125 z m 0,0"
           id="path15304" />
      </g>
      <g
         id="use7979"
         transform="translate(224.55882,122.005)">
        <path
           d="M 3.5,-0.609375 3.625,0 h 1.484375 v -0.375 l -0.5625,-0.046875 -0.1875,-0.171875 V -3.625 c 0,-1.0625 -0.453125,-1.515625 -1.546875,-1.515625 -1.328125,0 -2.125,0.546875 -2.125,1.1875 0,0.25 0.09375,0.328125 0.328125,0.328125 h 0.71875 v -0.890625 c 0.28125,-0.109375 0.53125,-0.15625 0.796875,-0.15625 0.75,0 0.96875,0.34375 0.96875,1.171875 v 0.328125 c -2.09375,0.5 -3.0625,0.8125 -3.0625,1.90625 0,0.78125 0.515625,1.34375 1.34375,1.34375 0.5,0 1.0625,-0.234375 1.71875,-0.6875 z m 0,-0.359375 c -0.53125,0.3125 -0.953125,0.484375 -1.296875,0.484375 -0.53125,0 -0.84375,-0.359375 -0.84375,-0.859375 0,-0.765625 0.65625,-1.046875 2.140625,-1.46875 z m 0,0"
           id="path15368" />
      </g>
    </g>
    <g
       fill="#231f20"
       fill-opacity="1"
       id="g7987"
       transform="matrix(0.35277777,0,0,0.35277777,6.2839177,83.791111)">
      <g
         id="use7983"
         transform="translate(229.65909,122.005)">
        <path
           d="M 3.59375,-4.90625 C 3.25,-5.0625 2.84375,-5.140625 2.375,-5.140625 c -1.1875,0 -1.859375,0.546875 -1.859375,1.46875 0,0.703125 0.46875,1.03125 1.359375,1.4375 0.6875,0.3125 1.0625,0.5 1.0625,1.046875 0,0.484375 -0.375,0.84375 -0.984375,0.84375 -0.296875,0 -0.59375,-0.078125 -0.890625,-0.25 l -0.125,-0.890625 h -0.5 V -0.125 c 0.375,0.140625 0.828125,0.21875 1.359375,0.21875 1.234375,0 1.96875,-0.59375 1.96875,-1.5625 0,-0.390625 -0.15625,-0.703125 -0.40625,-0.90625 -0.34375,-0.28125 -0.75,-0.4375 -1.109375,-0.609375 -0.578125,-0.28125 -0.890625,-0.5 -0.890625,-0.953125 0,-0.46875 0.3125,-0.75 0.875,-0.75 0.25,0 0.5,0.078125 0.765625,0.21875 l 0.09375,0.734375 h 0.5 z m 0,0"
           id="path15448" />
      </g>
      <g
         id="use7985"
         transform="translate(233.84821,122.005)">
        <path
           d="m 0.921875,-4.40625 v 3.375 c 0,0.75 0.21875,1.0625 1.09375,1.0625 0.40625,0 0.875,-0.078125 1.359375,-0.234375 V -0.59375 C 3.140625,-0.53125 2.90625,-0.5 2.65625,-0.5 1.921875,-0.5 1.796875,-0.84375 1.796875,-1.640625 V -4.40625 H 3.375 v -0.5 H 1.796875 V -6.015625 H 1.40625 l -0.453125,0.984375 -0.6875,0.296875 v 0.328125 z m 0,0"
           id="path15388" />
      </g>
    </g>
    <g
       fill="#231f20"
       fill-opacity="1"
       id="g7999"
       transform="matrix(0.35277777,0,0,0.35277777,6.2839177,83.791111)">
      <g
         id="use7989"
         transform="translate(240.25755,122.005)">
        <path
           d="M 0.296875,0 H 2.75 V -0.375 L 2.09375,-0.421875 1.921875,-0.59375 v -3.8125 H 3.375 v -0.5 H 1.921875 v -0.75 c 0,-0.890625 0.234375,-1.4375 0.6875,-1.640625 l 0.953125,0.625 c 0.265625,-0.0625 0.421875,-0.265625 0.421875,-0.515625 0,-0.34375 -0.328125,-0.59375 -0.8125,-0.59375 -1.234375,0 -2.125,1.03125 -2.125,2.765625 V -4.90625 L 0.375,-4.75 v 0.34375 h 0.671875 v 3.8125 l -0.1875,0.171875 -0.5625,0.046875 z m 0,0"
           id="path15480" />
      </g>
      <g
         id="use7991"
         transform="translate(243.61932,122.005)">
        <path
           d="M 0.3125,0 H 2.84375 V -0.375 L 2.109375,-0.421875 1.921875,-0.59375 v -3 c 0.4375,-0.5 0.796875,-0.765625 1.140625,-0.765625 0.21875,0 0.40625,0.09375 0.53125,0.25 H 3.9375 V -5 c -0.21875,-0.09375 -0.421875,-0.140625 -0.625,-0.140625 -0.09375,0 -0.1875,0 -0.265625,0.015625 -0.375,0.3125 -0.75,0.640625 -1.125,1.015625 V -5.09375 H 1.53125 L 0.3125,-4.703125 v 0.3125 h 0.75 V -0.59375 L 0.875,-0.421875 0.3125,-0.375 Z m 0,0"
           id="path15336" />
      </g>
      <g
         id="use7993"
         transform="translate(247.61993,122.005)">
        <path
           d="M 4.6875,-1.109375 C 4.09375,-0.71875 3.5625,-0.5 3.046875,-0.5 1.984375,-0.5 1.28125,-1.296875 1.28125,-2.640625 V -2.75 H 4.671875 C 4.6875,-2.875 4.6875,-2.96875 4.6875,-3.078125 c 0,-1.28125 -0.734375,-2.0625 -1.875,-2.0625 -1.40625,0 -2.421875,1.078125 -2.421875,2.65625 0,1.546875 0.953125,2.578125 2.328125,2.578125 0.65625,0 1.34375,-0.203125 1.96875,-0.625 z M 3.765625,-3.1875 H 1.34375 C 1.40625,-4.078125 2,-4.671875 2.671875,-4.671875 c 0.703125,0 1.09375,0.46875 1.09375,1.3125 z m 0,0"
           id="path15308" />
      </g>
      <g
         id="use7995"
         transform="translate(252.76208,122.005)">
        <path
           d="m 4.8125,-4.96875 c -0.5625,-0.125 -1.0625,-0.1875 -1.5,-0.1875 -1.8125,0 -2.921875,1.078125 -2.921875,2.75 0,1.484375 0.828125,2.4375 2.0625,2.4375 0.4375,0 0.90625,-0.125 1.4375,-0.375 V 1.6875 L 3.71875,1.859375 3.0625,1.90625 v 0.375 H 5.5 v -0.375 L 4.953125,1.859375 4.765625,1.6875 V -4.203125 C 4.765625,-4.3125 4.78125,-4.5625 4.8125,-4.96875 Z M 3.890625,-4.578125 V -0.6875 c -0.421875,0.109375 -0.734375,0.171875 -0.96875,0.171875 -0.984375,0 -1.59375,-0.734375 -1.59375,-2.03125 0,-1.359375 0.6875,-2.15625 1.765625,-2.15625 0.21875,0 0.484375,0.046875 0.796875,0.125 z m 0,0"
           id="path15488" />
      </g>
      <g
         id="use7997"
         transform="translate(258.32315,122.005)">
        <path
           d="M 1.484375,-5.140625 0.265625,-4.75 v 0.328125 h 0.75 V -1.5 c 0,1.046875 0.5,1.609375 1.40625,1.609375 0.515625,0 1.0625,-0.25 1.6875,-0.703125 V 0 H 5.65625 V -0.375 L 5.171875,-0.421875 4.984375,-0.59375 V -5.140625 H 4.578125 L 3.375,-4.75 v 0.328125 H 4.109375 V -0.875 C 3.6875,-0.671875 3.28125,-0.5625 2.90625,-0.5625 c -0.703125,0 -1.015625,-0.359375 -1.015625,-1.109375 v -3.46875 z m 0,0"
           id="path15464" />
      </g>
    </g>
    <g
       fill="#231f20"
       fill-opacity="1"
       id="g8007"
       transform="matrix(0.35277777,0,0,0.35277777,6.2839177,83.791111)">
      <g
         id="use8001"
         transform="translate(264.14603,122.005)">
        <path
           d="M 4.6875,-1.109375 C 4.09375,-0.71875 3.5625,-0.5 3.046875,-0.5 1.984375,-0.5 1.28125,-1.296875 1.28125,-2.640625 V -2.75 H 4.671875 C 4.6875,-2.875 4.6875,-2.96875 4.6875,-3.078125 c 0,-1.28125 -0.734375,-2.0625 -1.875,-2.0625 -1.40625,0 -2.421875,1.078125 -2.421875,2.65625 0,1.546875 0.953125,2.578125 2.328125,2.578125 0.65625,0 1.34375,-0.203125 1.96875,-0.625 z M 3.765625,-3.1875 H 1.34375 C 1.40625,-4.078125 2,-4.671875 2.671875,-4.671875 c 0.703125,0 1.09375,0.46875 1.09375,1.3125 z m 0,0"
           id="path15312" />
      </g>
      <g
         id="use8003"
         transform="translate(269.28815,122.005)">
        <path
           d="m 0.3125,0 h 2.296875 v -0.375 l -0.5,-0.046875 -0.1875,-0.171875 v -3.515625 c 0.453125,-0.21875 0.84375,-0.34375 1.171875,-0.34375 0.78125,0 1.0625,0.3125 1.0625,1.078125 v 2.78125 L 3.984375,-0.421875 3.46875,-0.375 V 0 H 5.765625 V -0.375 L 5.203125,-0.421875 5.03125,-0.59375 v -2.953125 c 0,-1.046875 -0.515625,-1.59375 -1.421875,-1.59375 -0.453125,0 -0.984375,0.234375 -1.6875,0.625 V -5.09375 H 1.53125 L 0.3125,-4.703125 v 0.3125 h 0.75 V -0.59375 L 0.875,-0.421875 0.3125,-0.375 Z m 0,0"
           id="path15440" />
      </g>
      <g
         id="use8005"
         transform="translate(275.23669,122.005)">
        <path
           d="m 0.921875,-4.40625 v 3.375 c 0,0.75 0.21875,1.0625 1.09375,1.0625 0.40625,0 0.875,-0.078125 1.359375,-0.234375 V -0.59375 C 3.140625,-0.53125 2.90625,-0.5 2.65625,-0.5 1.921875,-0.5 1.796875,-0.84375 1.796875,-1.640625 V -4.40625 H 3.375 v -0.5 H 1.796875 V -6.015625 H 1.40625 l -0.453125,0.984375 -0.6875,0.296875 v 0.328125 z m 0,0"
           id="path15392" />
      </g>
    </g>
    <g
       fill="#231f20"
       fill-opacity="1"
       id="g8011"
       transform="matrix(0.35277777,0,0,0.35277777,6.2839177,83.791111)">
      <g
         id="use8009"
         transform="translate(281.64606,122.005)">
        <path
           d="M 0.296875,0 H 2.75 V -0.375 L 2.140625,-0.421875 1.953125,-0.59375 V -7.703125 H 1.5625 l -1.28125,0.375 V -7 h 0.8125 v 6.40625 L 0.90625,-0.421875 0.296875,-0.375 Z m 0,0"
           id="path15364" />
      </g>
    </g>
    <g
       fill="#231f20"
       fill-opacity="1"
       id="g8025"
       transform="matrix(0.35277777,0,0,0.35277777,6.2839177,83.791111)">
      <g
         id="use8013"
         transform="translate(284.49466,122.005)">
        <path
           d="M 4.6875,-1.109375 C 4.09375,-0.71875 3.5625,-0.5 3.046875,-0.5 1.984375,-0.5 1.28125,-1.296875 1.28125,-2.640625 V -2.75 H 4.671875 C 4.6875,-2.875 4.6875,-2.96875 4.6875,-3.078125 c 0,-1.28125 -0.734375,-2.0625 -1.875,-2.0625 -1.40625,0 -2.421875,1.078125 -2.421875,2.65625 0,1.546875 0.953125,2.578125 2.328125,2.578125 0.65625,0 1.34375,-0.203125 1.96875,-0.625 z M 3.765625,-3.1875 H 1.34375 C 1.40625,-4.078125 2,-4.671875 2.671875,-4.671875 c 0.703125,0 1.09375,0.46875 1.09375,1.3125 z m 0,0"
           id="path15316" />
      </g>
      <g
         id="use8015"
         transform="translate(289.63681,122.005)">
        <path
           d="m 0.921875,-4.40625 v 3.375 c 0,0.75 0.21875,1.0625 1.09375,1.0625 0.40625,0 0.875,-0.078125 1.359375,-0.234375 V -0.59375 C 3.140625,-0.53125 2.90625,-0.5 2.65625,-0.5 1.921875,-0.5 1.796875,-0.84375 1.796875,-1.640625 V -4.40625 H 3.375 v -0.5 H 1.796875 V -6.015625 H 1.40625 l -0.453125,0.984375 -0.6875,0.296875 v 0.328125 z m 0,0"
           id="path15396" />
      </g>
      <g
         id="use8017"
         transform="translate(293.13474,122.005)">
        <path
           d="m 0.921875,-4.40625 v 3.375 c 0,0.75 0.21875,1.0625 1.09375,1.0625 0.40625,0 0.875,-0.078125 1.359375,-0.234375 V -0.59375 C 3.140625,-0.53125 2.90625,-0.5 2.65625,-0.5 1.921875,-0.5 1.796875,-0.84375 1.796875,-1.640625 V -4.40625 H 3.375 v -0.5 H 1.796875 V -6.015625 H 1.40625 l -0.453125,0.984375 -0.6875,0.296875 v 0.328125 z m 0,0"
           id="path15400" />
      </g>
      <g
         id="use8019"
         transform="translate(296.63263,122.005)">
        <path
           d="M 4.6875,-1.109375 C 4.09375,-0.71875 3.5625,-0.5 3.046875,-0.5 1.984375,-0.5 1.28125,-1.296875 1.28125,-2.640625 V -2.75 H 4.671875 C 4.6875,-2.875 4.6875,-2.96875 4.6875,-3.078125 c 0,-1.28125 -0.734375,-2.0625 -1.875,-2.0625 -1.40625,0 -2.421875,1.078125 -2.421875,2.65625 0,1.546875 0.953125,2.578125 2.328125,2.578125 0.65625,0 1.34375,-0.203125 1.96875,-0.625 z M 3.765625,-3.1875 H 1.34375 C 1.40625,-4.078125 2,-4.671875 2.671875,-4.671875 c 0.703125,0 1.09375,0.46875 1.09375,1.3125 z m 0,0"
           id="path15320" />
      </g>
      <g
         id="use8021"
         transform="translate(301.77478,122.005)">
        <path
           d="M 0.3125,0 H 2.84375 V -0.375 L 2.109375,-0.421875 1.921875,-0.59375 v -3 c 0.4375,-0.5 0.796875,-0.765625 1.140625,-0.765625 0.21875,0 0.40625,0.09375 0.53125,0.25 H 3.9375 V -5 c -0.21875,-0.09375 -0.421875,-0.140625 -0.625,-0.140625 -0.09375,0 -0.1875,0 -0.265625,0.015625 -0.375,0.3125 -0.75,0.640625 -1.125,1.015625 V -5.09375 H 1.53125 L 0.3125,-4.703125 v 0.3125 h 0.75 V -0.59375 L 0.875,-0.421875 0.3125,-0.375 Z m 0,0"
           id="path15340" />
      </g>
      <g
         id="use8023"
         transform="translate(305.77539,122.005)">
        <path
           d="M 3.59375,-4.90625 C 3.25,-5.0625 2.84375,-5.140625 2.375,-5.140625 c -1.1875,0 -1.859375,0.546875 -1.859375,1.46875 0,0.703125 0.46875,1.03125 1.359375,1.4375 0.6875,0.3125 1.0625,0.5 1.0625,1.046875 0,0.484375 -0.375,0.84375 -0.984375,0.84375 -0.296875,0 -0.59375,-0.078125 -0.890625,-0.25 l -0.125,-0.890625 h -0.5 V -0.125 c 0.375,0.140625 0.828125,0.21875 1.359375,0.21875 1.234375,0 1.96875,-0.59375 1.96875,-1.5625 0,-0.390625 -0.15625,-0.703125 -0.40625,-0.90625 -0.34375,-0.28125 -0.75,-0.4375 -1.109375,-0.609375 -0.578125,-0.28125 -0.890625,-0.5 -0.890625,-0.953125 0,-0.46875 0.3125,-0.75 0.875,-0.75 0.25,0 0.5,0.078125 0.765625,0.21875 l 0.09375,0.734375 h 0.5 z m 0,0"
           id="path15452" />
      </g>
    </g>
    <g
       fill="#231f20"
       fill-opacity="1"
       id="g8033"
       transform="matrix(0.35277777,0,0,0.35277777,6.2839177,83.791111)">
      <g
         id="use8027"
         transform="translate(312.87595,122.005)">
        <path
           d="M 3.5,-0.609375 3.625,0 h 1.484375 v -0.375 l -0.5625,-0.046875 -0.1875,-0.171875 V -3.625 c 0,-1.0625 -0.453125,-1.515625 -1.546875,-1.515625 -1.328125,0 -2.125,0.546875 -2.125,1.1875 0,0.25 0.09375,0.328125 0.328125,0.328125 h 0.71875 v -0.890625 c 0.28125,-0.109375 0.53125,-0.15625 0.796875,-0.15625 0.75,0 0.96875,0.34375 0.96875,1.171875 v 0.328125 c -2.09375,0.5 -3.0625,0.8125 -3.0625,1.90625 0,0.78125 0.515625,1.34375 1.34375,1.34375 0.5,0 1.0625,-0.234375 1.71875,-0.6875 z m 0,-0.359375 c -0.53125,0.3125 -0.953125,0.484375 -1.296875,0.484375 -0.53125,0 -0.84375,-0.359375 -0.84375,-0.859375 0,-0.765625 0.65625,-1.046875 2.140625,-1.46875 z m 0,0"
           id="path15372" />
      </g>
      <g
         id="use8029"
         transform="translate(318.18567,122.005)">
        <path
           d="m 0.3125,0 h 2.296875 v -0.375 l -0.5,-0.046875 -0.1875,-0.171875 v -3.515625 c 0.453125,-0.21875 0.84375,-0.34375 1.171875,-0.34375 0.78125,0 1.0625,0.3125 1.0625,1.078125 v 2.78125 L 3.984375,-0.421875 3.46875,-0.375 V 0 H 5.765625 V -0.375 L 5.203125,-0.421875 5.03125,-0.59375 v -2.953125 c 0,-1.046875 -0.515625,-1.59375 -1.421875,-1.59375 -0.453125,0 -0.984375,0.234375 -1.6875,0.625 V -5.09375 H 1.53125 L 0.3125,-4.703125 v 0.3125 h 0.75 V -0.59375 L 0.875,-0.421875 0.3125,-0.375 Z m 0,0"
           id="path15444" />
      </g>
      <g
         id="use8031"
         transform="translate(324.13422,122.005)">
        <path
           d="m 4.015625,-7 v 1.96875 c -0.328125,-0.078125 -0.640625,-0.125 -0.9375,-0.125 -1.59375,0 -2.703125,1.125 -2.703125,2.796875 0,1.46875 0.875,2.453125 2.015625,2.453125 0.578125,0 1.078125,-0.203125 1.625,-0.640625 V 0 H 5.5625 V -0.375 L 5.0625,-0.421875 4.875,-0.59375 V -7.703125 H 4.484375 l -1.28125,0.375 V -7 Z m 0,6.0625 C 3.625,-0.6875 3.25,-0.5625 2.875,-0.5625 c -0.953125,0 -1.578125,-0.75 -1.578125,-1.96875 0,-1.3125 0.734375,-2.15625 1.796875,-2.15625 0.25,0 0.5625,0.0625 0.921875,0.171875 z m 0,0"
           id="path15356" />
      </g>
    </g>
    <g
       fill="#231f20"
       fill-opacity="1"
       id="g8051"
       transform="matrix(0.35277777,0,0,0.35277777,6.2839177,83.791111)">
      <g
         id="use8035"
         transform="translate(332.96277,122.005)">
        <path
           d="M 0.3125,0 H 2.84375 V -0.375 L 2.109375,-0.421875 1.921875,-0.59375 v -3 c 0.4375,-0.5 0.796875,-0.765625 1.140625,-0.765625 0.21875,0 0.40625,0.09375 0.53125,0.25 H 3.9375 V -5 c -0.21875,-0.09375 -0.421875,-0.140625 -0.625,-0.140625 -0.09375,0 -0.1875,0 -0.265625,0.015625 -0.375,0.3125 -0.75,0.640625 -1.125,1.015625 V -5.09375 H 1.53125 L 0.3125,-4.703125 v 0.3125 h 0.75 V -0.59375 L 0.875,-0.421875 0.3125,-0.375 Z m 0,0"
           id="path15344" />
      </g>
      <g
         id="use8037"
         transform="translate(336.96338,122.005)">
        <path
           d="M 4.6875,-1.109375 C 4.09375,-0.71875 3.5625,-0.5 3.046875,-0.5 1.984375,-0.5 1.28125,-1.296875 1.28125,-2.640625 V -2.75 H 4.671875 C 4.6875,-2.875 4.6875,-2.96875 4.6875,-3.078125 c 0,-1.28125 -0.734375,-2.0625 -1.875,-2.0625 -1.40625,0 -2.421875,1.078125 -2.421875,2.65625 0,1.546875 0.953125,2.578125 2.328125,2.578125 0.65625,0 1.34375,-0.203125 1.96875,-0.625 z M 3.765625,-3.1875 H 1.34375 C 1.40625,-4.078125 2,-4.671875 2.671875,-4.671875 c 0.703125,0 1.09375,0.46875 1.09375,1.3125 z m 0,0"
           id="path15324" />
      </g>
      <g
         id="use8039"
         transform="translate(342.10553,122.005)">
        <path
           d="m 4.453125,-0.4375 v -0.546875 c -0.4375,0.296875 -0.875,0.4375 -1.328125,0.4375 -1.09375,0 -1.78125,-0.765625 -1.78125,-2.046875 0,-1.328125 0.640625,-2.125 1.53125,-2.125 0.1875,0 0.34375,0.046875 0.5,0.140625 v 0.859375 c 0.15625,0.109375 0.328125,0.15625 0.484375,0.15625 0.34375,0 0.578125,-0.21875 0.578125,-0.546875 0,-0.609375 -0.5625,-1.03125 -1.5625,-1.03125 -1.46875,0 -2.484375,1.0625 -2.484375,2.625 0,1.546875 0.921875,2.59375 2.359375,2.59375 0.5625,0 1.125,-0.1875 1.703125,-0.515625 z m 0,0"
           id="path15460" />
      </g>
      <g
         id="use8041"
         transform="translate(346.7764,122.005)">
        <path
           d="M 1.484375,-5.140625 0.265625,-4.75 v 0.328125 h 0.75 V -1.5 c 0,1.046875 0.5,1.609375 1.40625,1.609375 0.515625,0 1.0625,-0.25 1.6875,-0.703125 V 0 H 5.65625 V -0.375 L 5.171875,-0.421875 4.984375,-0.59375 V -5.140625 H 4.578125 L 3.375,-4.75 v 0.328125 H 4.109375 V -0.875 C 3.6875,-0.671875 3.28125,-0.5625 2.90625,-0.5625 c -0.703125,0 -1.015625,-0.359375 -1.015625,-1.109375 v -3.46875 z m 0,0"
           id="path15468" />
      </g>
      <g
         id="use8043"
         transform="translate(352.73544,122.005)">
        <path
           d="M 0.3125,0 H 2.84375 V -0.375 L 2.109375,-0.421875 1.921875,-0.59375 v -3 c 0.4375,-0.5 0.796875,-0.765625 1.140625,-0.765625 0.21875,0 0.40625,0.09375 0.53125,0.25 H 3.9375 V -5 c -0.21875,-0.09375 -0.421875,-0.140625 -0.625,-0.140625 -0.09375,0 -0.1875,0 -0.265625,0.015625 -0.375,0.3125 -0.75,0.640625 -1.125,1.015625 V -5.09375 H 1.53125 L 0.3125,-4.703125 v 0.3125 h 0.75 V -0.59375 L 0.875,-0.421875 0.3125,-0.375 Z m 0,0"
           id="path15348" />
      </g>
      <g
         id="use8045"
         transform="translate(356.73602,122.005)">
        <path
           d="M 3.59375,-4.90625 C 3.25,-5.0625 2.84375,-5.140625 2.375,-5.140625 c -1.1875,0 -1.859375,0.546875 -1.859375,1.46875 0,0.703125 0.46875,1.03125 1.359375,1.4375 0.6875,0.3125 1.0625,0.5 1.0625,1.046875 0,0.484375 -0.375,0.84375 -0.984375,0.84375 -0.296875,0 -0.59375,-0.078125 -0.890625,-0.25 l -0.125,-0.890625 h -0.5 V -0.125 c 0.375,0.140625 0.828125,0.21875 1.359375,0.21875 1.234375,0 1.96875,-0.59375 1.96875,-1.5625 0,-0.390625 -0.15625,-0.703125 -0.40625,-0.90625 -0.34375,-0.28125 -0.75,-0.4375 -1.109375,-0.609375 -0.578125,-0.28125 -0.890625,-0.5 -0.890625,-0.953125 0,-0.46875 0.3125,-0.75 0.875,-0.75 0.25,0 0.5,0.078125 0.765625,0.21875 l 0.09375,0.734375 h 0.5 z m 0,0"
           id="path15456" />
      </g>
      <g
         id="use8047"
         transform="translate(360.92517,122.005)">
        <path
           d="M 4.6875,-1.109375 C 4.09375,-0.71875 3.5625,-0.5 3.046875,-0.5 1.984375,-0.5 1.28125,-1.296875 1.28125,-2.640625 V -2.75 H 4.671875 C 4.6875,-2.875 4.6875,-2.96875 4.6875,-3.078125 c 0,-1.28125 -0.734375,-2.0625 -1.875,-2.0625 -1.40625,0 -2.421875,1.078125 -2.421875,2.65625 0,1.546875 0.953125,2.578125 2.328125,2.578125 0.65625,0 1.34375,-0.203125 1.96875,-0.625 z M 3.765625,-3.1875 H 1.34375 C 1.40625,-4.078125 2,-4.671875 2.671875,-4.671875 c 0.703125,0 1.09375,0.46875 1.09375,1.3125 z m 0,0"
           id="path15328" />
      </g>
      <g
         id="use8049"
         transform="translate(366.06729,122.005)">
        <path
           d="m 1.453125,-1.234375 c -0.359375,0 -0.671875,0.296875 -0.671875,0.671875 0,0.375 0.3125,0.65625 0.671875,0.65625 0.375,0 0.65625,-0.296875 0.65625,-0.65625 0,-0.375 -0.28125,-0.671875 -0.65625,-0.671875 z m 0,0"
           id="path15484" />
      </g>
    </g>
    <path
       fill="none"
       stroke-width="0.215194"
       stroke-linecap="butt"
       stroke-linejoin="miter"
       stroke="#231f20"
       stroke-opacity="1"
       stroke-miterlimit="10"
       d="M 38.013247,122.43819 H 138.17319"
       id="path8053" />
    <path
       fill="none"
       stroke-width="0.215194"
       stroke-linecap="butt"
       stroke-linejoin="miter"
       stroke="#231f20"
       stroke-opacity="1"
       stroke-miterlimit="10"
       d="m 38.120733,129.25673 v -6.81854"
       id="path8055" />
    <path
       fill="none"
       stroke-width="0.215194"
       stroke-linecap="butt"
       stroke-linejoin="miter"
       stroke="#231f20"
       stroke-opacity="1"
       stroke-miterlimit="10"
       d="m 138.06571,129.25673 v -6.81854"
       id="path8057" />
    <path
       fill="none"
       stroke-width="0.215194"
       stroke-linecap="butt"
       stroke-linejoin="miter"
       stroke="#231f20"
       stroke-opacity="1"
       stroke-miterlimit="10"
       d="M 38.013247,129.25673 H 138.17319"
       id="path8059" />
  </g>
</svg>
