<?xml version="1.0" encoding="UTF-8" standalone="no"?>
<!-- Created with Inkscape (http://www.inkscape.org/) -->

<svg
   width="117.23284mm"
   height="7.1101513mm"
   viewBox="0 0 117.23284 7.1101513"
   version="1.1"
   id="svg31724"
   inkscape:version="1.2.2 (732a01da63, 2022-12-09)"
   sodipodi:docname="huffman_coding_self_referential.svg"
   xmlns:inkscape="http://www.inkscape.org/namespaces/inkscape"
   xmlns:sodipodi="http://sodipodi.sourceforge.net/DTD/sodipodi-0.dtd"
   xmlns="http://www.w3.org/2000/svg"
   xmlns:svg="http://www.w3.org/2000/svg">
  <sodipodi:namedview
     id="namedview31726"
     pagecolor="#ffffff"
     bordercolor="#666666"
     borderopacity="1.0"
     inkscape:showpageshadow="2"
     inkscape:pageopacity="0.0"
     inkscape:pagecheckerboard="0"
     inkscape:deskcolor="#d1d1d1"
     inkscape:document-units="mm"
     showgrid="false"
     inkscape:zoom="2.4735674"
     inkscape:cx="221.54238"
     inkscape:cy="13.543193"
     inkscape:window-width="1172"
     inkscape:window-height="480"
     inkscape:window-x="0"
     inkscape:window-y="25"
     inkscape:window-maximized="0"
     inkscape:current-layer="layer1" />
  <defs
     id="defs31721" />
  <g
     inkscape:label="Layer 1"
     inkscape:groupmode="layer"
     id="layer1"
     transform="translate(-26.959851,-149.97882)">
    <g
       fill="#2e3192"
       fill-opacity="1"
       id="g25430"
       transform="matrix(0.35277777,0,0,0.35277777,-2.637653,-12.128204)">
      <g
         id="use25424"
         transform="translate(83.900002,465.76599)">
        <path
           d="M 2.984375,-6.21875 H 2.5 l -1.625,0.84375 0.15625,0.390625 1.265625,-0.375 V 0 h 0.6875 z m 0,0"
           id="path32327" />
      </g>
      <g
         id="use25426"
         transform="translate(88.881302,465.76599)">
        <path
           d="m 2.5,-5.640625 c 0.40625,0 0.734375,0.328125 0.953125,0.8125 L 1.3125,-2.03125 C 1.203125,-2.375 1.15625,-2.765625 1.15625,-3.09375 1.15625,-4.140625 1.5,-5.640625 2.5,-5.640625 Z M 2.46875,-6.25 C 1.171875,-6.25 0.5,-4.4375 0.5,-2.96875 c 0,1.515625 0.734375,3.078125 2,3.078125 1.390625,0 1.984375,-1.75 1.984375,-3.203125 C 4.484375,-4.640625 3.78125,-6.25 2.46875,-6.25 Z m 1.203125,2.046875 c 0.109375,0.390625 0.15625,0.828125 0.15625,1.25 0,1.15625 -0.375,2.421875 -1.359375,2.421875 -0.390625,0 -0.703125,-0.359375 -0.9375,-0.859375 z m 0,0"
           id="path32219" />
      </g>
      <g
         id="use25428"
         transform="translate(93.862602,465.76599)">
        <path
           d="m 2.5,-5.640625 c 0.40625,0 0.734375,0.328125 0.953125,0.8125 L 1.3125,-2.03125 C 1.203125,-2.375 1.15625,-2.765625 1.15625,-3.09375 1.15625,-4.140625 1.5,-5.640625 2.5,-5.640625 Z M 2.46875,-6.25 C 1.171875,-6.25 0.5,-4.4375 0.5,-2.96875 c 0,1.515625 0.734375,3.078125 2,3.078125 1.390625,0 1.984375,-1.75 1.984375,-3.203125 C 4.484375,-4.640625 3.78125,-6.25 2.46875,-6.25 Z m 1.203125,2.046875 c 0.109375,0.390625 0.15625,0.828125 0.15625,1.25 0,1.15625 -0.375,2.421875 -1.359375,2.421875 -0.390625,0 -0.703125,-0.359375 -0.9375,-0.859375 z m 0,0"
           id="path32223" />
      </g>
    </g>
    <path
       fill="none"
       stroke-width="0.202494"
       stroke-linecap="butt"
       stroke-linejoin="miter"
       stroke="#231f20"
       stroke-opacity="1"
       stroke-miterlimit="10"
       d="m 26.959851,153.58364 h 5.272374"
       id="path25432" />
    <g
       fill="#b6251c"
       fill-opacity="1"
       id="g25436"
       transform="matrix(0.35277777,0,0,0.35277777,-2.637653,-12.128204)">
      <g
         id="use25434"
         transform="translate(88.882004,479.577)">
        <path
           d="m 0.3125,-6.21875 v 0.625 H 2.078125 V 0 H 2.78125 v -5.59375 h 1.828125 v -0.625 z m 0,0"
           id="path32207" />
      </g>
    </g>
    <g
       fill="#2e3192"
       fill-opacity="1"
       id="g25446"
       transform="matrix(0.35277777,0,0,0.35277777,-2.637653,-12.128204)">
      <g
         id="use25438"
         transform="translate(101.235,465.76599)">
        <path
           d="m 2.5,-5.640625 c 0.40625,0 0.734375,0.328125 0.953125,0.8125 L 1.3125,-2.03125 C 1.203125,-2.375 1.15625,-2.765625 1.15625,-3.09375 1.15625,-4.140625 1.5,-5.640625 2.5,-5.640625 Z M 2.46875,-6.25 C 1.171875,-6.25 0.5,-4.4375 0.5,-2.96875 c 0,1.515625 0.734375,3.078125 2,3.078125 1.390625,0 1.984375,-1.75 1.984375,-3.203125 C 4.484375,-4.640625 3.78125,-6.25 2.46875,-6.25 Z m 1.203125,2.046875 c 0.109375,0.390625 0.15625,0.828125 0.15625,1.25 0,1.15625 -0.375,2.421875 -1.359375,2.421875 -0.390625,0 -0.703125,-0.359375 -0.9375,-0.859375 z m 0,0"
           id="path32227" />
      </g>
      <g
         id="use25440"
         transform="translate(106.2163,465.76599)">
        <path
           d="M 2.984375,-6.21875 H 2.5 l -1.625,0.84375 0.15625,0.390625 1.265625,-0.375 V 0 h 0.6875 z m 0,0"
           id="path32331" />
      </g>
      <g
         id="use25442"
         transform="translate(111.1976,465.76599)">
        <path
           d="M 2.984375,-6.21875 H 2.5 l -1.625,0.84375 0.15625,0.390625 1.265625,-0.375 V 0 h 0.6875 z m 0,0"
           id="path32335" />
      </g>
      <g
         id="use25444"
         transform="translate(116.1789,465.76599)">
        <path
           d="m 2.5,-5.640625 c 0.40625,0 0.734375,0.328125 0.953125,0.8125 L 1.3125,-2.03125 C 1.203125,-2.375 1.15625,-2.765625 1.15625,-3.09375 1.15625,-4.140625 1.5,-5.640625 2.5,-5.640625 Z M 2.46875,-6.25 C 1.171875,-6.25 0.5,-4.4375 0.5,-2.96875 c 0,1.515625 0.734375,3.078125 2,3.078125 1.390625,0 1.984375,-1.75 1.984375,-3.203125 C 4.484375,-4.640625 3.78125,-6.25 2.46875,-6.25 Z m 1.203125,2.046875 c 0.109375,0.390625 0.15625,0.828125 0.15625,1.25 0,1.15625 -0.375,2.421875 -1.359375,2.421875 -0.390625,0 -0.703125,-0.359375 -0.9375,-0.859375 z m 0,0"
           id="path32231" />
      </g>
    </g>
    <path
       fill="none"
       stroke-width="0.202494"
       stroke-linecap="butt"
       stroke-linejoin="miter"
       stroke="#231f20"
       stroke-opacity="1"
       stroke-miterlimit="10"
       d="m 33.075585,153.58364 h 7.029372"
       id="path25448" />
    <g
       fill="#b6251c"
       fill-opacity="1"
       id="g25452"
       transform="matrix(0.35277777,0,0,0.35277777,-2.637653,-12.128204)">
      <g
         id="use25450"
         transform="translate(108.707,479.577)">
        <path
           d="M 0.53125,-6.203125 V 0 H 1.265625 V -2.953125 H 3.6875 v 2.96875 h 0.703125 v -6 C 4.40625,-6.03125 4.421875,-6.0625 4.4375,-6.09375 4.453125,-6.125 4.46875,-6.15625 4.46875,-6.1875 c 0,0 0,-0.015625 -0.015625,-0.015625 h -0.75 v 2.65625 h -2.4375 V -5.96875 c 0.015625,-0.046875 0.015625,-0.109375 0.03125,-0.125 0.015625,-0.03125 0.03125,-0.0625 0.03125,-0.09375 0,0 0,-0.015625 -0.015625,-0.015625 z m 0,0"
           id="path32203" />
      </g>
    </g>
    <g
       fill="#2e3192"
       fill-opacity="1"
       id="g25462"
       transform="matrix(0.35277777,0,0,0.35277777,-2.637653,-12.128204)">
      <g
         id="use25454"
         transform="translate(123.551,465.76599)">
        <path
           d="M 2.984375,-6.21875 H 2.5 l -1.625,0.84375 0.15625,0.390625 1.265625,-0.375 V 0 h 0.6875 z m 0,0"
           id="path32339" />
      </g>
      <g
         id="use25456"
         transform="translate(128.5323,465.76599)">
        <path
           d="m 2.5,-5.640625 c 0.40625,0 0.734375,0.328125 0.953125,0.8125 L 1.3125,-2.03125 C 1.203125,-2.375 1.15625,-2.765625 1.15625,-3.09375 1.15625,-4.140625 1.5,-5.640625 2.5,-5.640625 Z M 2.46875,-6.25 C 1.171875,-6.25 0.5,-4.4375 0.5,-2.96875 c 0,1.515625 0.734375,3.078125 2,3.078125 1.390625,0 1.984375,-1.75 1.984375,-3.203125 C 4.484375,-4.640625 3.78125,-6.25 2.46875,-6.25 Z m 1.203125,2.046875 c 0.109375,0.390625 0.15625,0.828125 0.15625,1.25 0,1.15625 -0.375,2.421875 -1.359375,2.421875 -0.390625,0 -0.703125,-0.359375 -0.9375,-0.859375 z m 0,0"
           id="path32235" />
      </g>
      <g
         id="use25458"
         transform="translate(133.5136,465.76599)">
        <path
           d="M 2.984375,-6.21875 H 2.5 l -1.625,0.84375 0.15625,0.390625 1.265625,-0.375 V 0 h 0.6875 z m 0,0"
           id="path32343" />
      </g>
      <g
         id="use25460"
         transform="translate(138.4949,465.76599)">
        <path
           d="M 2.984375,-6.21875 H 2.5 l -1.625,0.84375 0.15625,0.390625 1.265625,-0.375 V 0 h 0.6875 z m 0,0"
           id="path32347" />
      </g>
    </g>
    <path
       fill="none"
       stroke-width="0.202494"
       stroke-linecap="butt"
       stroke-linejoin="miter"
       stroke="#231f20"
       stroke-opacity="1"
       stroke-miterlimit="10"
       d="m 40.948316,153.58364 h 7.029372"
       id="path25464" />
    <g
       fill="#b6251c"
       fill-opacity="1"
       id="g25468"
       transform="matrix(0.35277777,0,0,0.35277777,-2.637653,-12.128204)">
      <g
         id="use25466"
         transform="translate(131.02299,479.577)">
        <path
           d="M 0.875,-6.203125 V -5.625 h 1.15625 v 5.046875 H 0.8125 v 0.59375 H 4.015625 V -0.5625 H 2.734375 V -5.625 h 1.21875 v -0.578125 z m 0,0"
           id="path32199" />
      </g>
    </g>
    <g
       fill="#2e3192"
       fill-opacity="1"
       id="g25476"
       transform="matrix(0.35277777,0,0,0.35277777,-2.637653,-12.128204)">
      <g
         id="use25470"
         transform="translate(145.868,465.76599)">
        <path
           d="M 2.984375,-6.21875 H 2.5 l -1.625,0.84375 0.15625,0.390625 1.265625,-0.375 V 0 h 0.6875 z m 0,0"
           id="path32351" />
      </g>
      <g
         id="use25472"
         transform="translate(150.8493,465.76599)">
        <path
           d="M 2.984375,-6.21875 H 2.5 l -1.625,0.84375 0.15625,0.390625 1.265625,-0.375 V 0 h 0.6875 z m 0,0"
           id="path32355" />
      </g>
      <g
         id="use25474"
         transform="translate(155.8306,465.76599)">
        <path
           d="M 2.984375,-6.21875 H 2.5 l -1.625,0.84375 0.15625,0.390625 1.265625,-0.375 V 0 h 0.6875 z m 0,0"
           id="path32359" />
      </g>
    </g>
    <path
       fill="none"
       stroke-width="0.202494"
       stroke-linecap="butt"
       stroke-linejoin="miter"
       stroke="#231f20"
       stroke-opacity="1"
       stroke-miterlimit="10"
       d="m 48.821048,153.58364 h 5.272374"
       id="path25478" />
    <g
       fill="#b6251c"
       fill-opacity="1"
       id="g25482"
       transform="matrix(0.35277777,0,0,0.35277777,-2.637653,-12.128204)">
      <g
         id="use25480"
         transform="translate(150.849,479.577)">
        <path
           d="M 4.34375,-5.46875 C 4.125,-5.71875 3.875,-5.90625 3.5625,-6.046875 3.265625,-6.1875 2.953125,-6.25 2.609375,-6.25 c -0.265625,0 -0.515625,0.046875 -0.75,0.125 C 1.640625,-6.046875 1.4375,-5.921875 1.25,-5.78125 1.09375,-5.625 0.953125,-5.453125 0.859375,-5.25 0.765625,-5.046875 0.71875,-4.84375 0.71875,-4.609375 c 0,0.171875 0.03125,0.34375 0.078125,0.5 0.0625,0.140625 0.15625,0.296875 0.296875,0.421875 0.125,0.125 0.296875,0.265625 0.515625,0.390625 0.21875,0.125 0.484375,0.25 0.8125,0.390625 0.296875,0.109375 0.53125,0.21875 0.734375,0.3125 0.171875,0.078125 0.3125,0.1875 0.40625,0.265625 0.109375,0.09375 0.171875,0.1875 0.21875,0.296875 0.046875,0.09375 0.0625,0.203125 0.0625,0.34375 0,0.15625 -0.03125,0.296875 -0.09375,0.453125 -0.078125,0.140625 -0.15625,0.25 -0.265625,0.359375 -0.109375,0.109375 -0.25,0.1875 -0.40625,0.25 C 2.921875,-0.5625 2.75,-0.53125 2.5625,-0.53125 c -0.375,0 -0.671875,-0.0625 -0.9375,-0.1875 C 1.359375,-0.859375 1.15625,-1.015625 1,-1.203125 0.984375,-1.234375 0.984375,-1.265625 0.984375,-1.3125 c 0,-0.046875 -0.03125,-0.078125 -0.0625,-0.109375 l -0.40625,0.71875 C 1,-0.171875 1.65625,0.09375 2.46875,0.09375 c 0.359375,0 0.671875,-0.046875 0.9375,-0.15625 0.25,-0.109375 0.46875,-0.234375 0.640625,-0.421875 0.15625,-0.15625 0.296875,-0.359375 0.375,-0.578125 C 4.5,-1.265625 4.53125,-1.484375 4.53125,-1.6875 4.53125,-1.890625 4.5,-2.0625 4.46875,-2.21875 4.40625,-2.375 4.328125,-2.515625 4.203125,-2.65625 4.09375,-2.796875 3.921875,-2.9375 3.734375,-3.046875 3.53125,-3.1875 3.28125,-3.296875 2.96875,-3.421875 2.65625,-3.5625 2.390625,-3.671875 2.1875,-3.765625 2,-3.875 1.84375,-3.984375 1.734375,-4.078125 1.640625,-4.171875 1.5625,-4.28125 1.515625,-4.390625 1.453125,-4.5 1.4375,-4.609375 1.4375,-4.765625 c 0,-0.25 0.09375,-0.453125 0.296875,-0.640625 C 1.9375,-5.578125 2.1875,-5.671875 2.5,-5.671875 c 0.328125,0 0.59375,0.0625 0.8125,0.171875 0.203125,0.109375 0.375,0.25 0.5,0.453125 C 3.828125,-5.03125 3.84375,-5 3.84375,-4.96875 c 0,0.046875 0.03125,0.078125 0.046875,0.09375 z m 0,0"
           id="path32191" />
      </g>
    </g>
    <g
       fill="#2e3192"
       fill-opacity="1"
       id="g25490"
       transform="matrix(0.35277777,0,0,0.35277777,-2.637653,-12.128204)">
      <g
         id="use25484"
         transform="translate(163.203,465.76599)">
        <path
           d="M 2.984375,-6.21875 H 2.5 l -1.625,0.84375 0.15625,0.390625 1.265625,-0.375 V 0 h 0.6875 z m 0,0"
           id="path32363" />
      </g>
      <g
         id="use25486"
         transform="translate(168.1843,465.76599)">
        <path
           d="M 2.984375,-6.21875 H 2.5 l -1.625,0.84375 0.15625,0.390625 1.265625,-0.375 V 0 h 0.6875 z m 0,0"
           id="path32367" />
      </g>
      <g
         id="use25488"
         transform="translate(173.1656,465.76599)">
        <path
           d="M 2.984375,-6.21875 H 2.5 l -1.625,0.84375 0.15625,0.390625 1.265625,-0.375 V 0 h 0.6875 z m 0,0"
           id="path32371" />
      </g>
    </g>
    <path
       fill="none"
       stroke-width="0.202494"
       stroke-linecap="butt"
       stroke-linejoin="miter"
       stroke="#231f20"
       stroke-opacity="1"
       stroke-miterlimit="10"
       d="m 54.936781,153.58364 h 5.272374"
       id="path25492" />
    <g
       fill="#b6251c"
       fill-opacity="1"
       id="g25496"
       transform="matrix(0.35277777,0,0,0.35277777,-2.637653,-12.128204)">
      <g
         id="use25494"
         transform="translate(168.18401,479.577)">
        <path
           d="M 4.34375,-5.46875 C 4.125,-5.71875 3.875,-5.90625 3.5625,-6.046875 3.265625,-6.1875 2.953125,-6.25 2.609375,-6.25 c -0.265625,0 -0.515625,0.046875 -0.75,0.125 C 1.640625,-6.046875 1.4375,-5.921875 1.25,-5.78125 1.09375,-5.625 0.953125,-5.453125 0.859375,-5.25 0.765625,-5.046875 0.71875,-4.84375 0.71875,-4.609375 c 0,0.171875 0.03125,0.34375 0.078125,0.5 0.0625,0.140625 0.15625,0.296875 0.296875,0.421875 0.125,0.125 0.296875,0.265625 0.515625,0.390625 0.21875,0.125 0.484375,0.25 0.8125,0.390625 0.296875,0.109375 0.53125,0.21875 0.734375,0.3125 0.171875,0.078125 0.3125,0.1875 0.40625,0.265625 0.109375,0.09375 0.171875,0.1875 0.21875,0.296875 0.046875,0.09375 0.0625,0.203125 0.0625,0.34375 0,0.15625 -0.03125,0.296875 -0.09375,0.453125 -0.078125,0.140625 -0.15625,0.25 -0.265625,0.359375 -0.109375,0.109375 -0.25,0.1875 -0.40625,0.25 C 2.921875,-0.5625 2.75,-0.53125 2.5625,-0.53125 c -0.375,0 -0.671875,-0.0625 -0.9375,-0.1875 C 1.359375,-0.859375 1.15625,-1.015625 1,-1.203125 0.984375,-1.234375 0.984375,-1.265625 0.984375,-1.3125 c 0,-0.046875 -0.03125,-0.078125 -0.0625,-0.109375 l -0.40625,0.71875 C 1,-0.171875 1.65625,0.09375 2.46875,0.09375 c 0.359375,0 0.671875,-0.046875 0.9375,-0.15625 0.25,-0.109375 0.46875,-0.234375 0.640625,-0.421875 0.15625,-0.15625 0.296875,-0.359375 0.375,-0.578125 C 4.5,-1.265625 4.53125,-1.484375 4.53125,-1.6875 4.53125,-1.890625 4.5,-2.0625 4.46875,-2.21875 4.40625,-2.375 4.328125,-2.515625 4.203125,-2.65625 4.09375,-2.796875 3.921875,-2.9375 3.734375,-3.046875 3.53125,-3.1875 3.28125,-3.296875 2.96875,-3.421875 2.65625,-3.5625 2.390625,-3.671875 2.1875,-3.765625 2,-3.875 1.84375,-3.984375 1.734375,-4.078125 1.640625,-4.171875 1.5625,-4.28125 1.515625,-4.390625 1.453125,-4.5 1.4375,-4.609375 1.4375,-4.765625 c 0,-0.25 0.09375,-0.453125 0.296875,-0.640625 C 1.9375,-5.578125 2.1875,-5.671875 2.5,-5.671875 c 0.328125,0 0.59375,0.0625 0.8125,0.171875 0.203125,0.109375 0.375,0.25 0.5,0.453125 C 3.828125,-5.03125 3.84375,-5 3.84375,-4.96875 c 0,0.046875 0.03125,0.078125 0.046875,0.09375 z m 0,0"
           id="path32195" />
      </g>
    </g>
    <g
       fill="#2e3192"
       fill-opacity="1"
       id="g25504"
       transform="matrix(0.35277777,0,0,0.35277777,-2.637653,-12.128204)">
      <g
         id="use25498"
         transform="translate(180.53799,465.76599)">
        <path
           d="M 2.984375,-6.21875 H 2.5 l -1.625,0.84375 0.15625,0.390625 1.265625,-0.375 V 0 h 0.6875 z m 0,0"
           id="path32375" />
      </g>
      <g
         id="use25500"
         transform="translate(185.5193,465.76599)">
        <path
           d="M 2.984375,-6.21875 H 2.5 l -1.625,0.84375 0.15625,0.390625 1.265625,-0.375 V 0 h 0.6875 z m 0,0"
           id="path32379" />
      </g>
      <g
         id="use25502"
         transform="translate(190.5006,465.76599)">
        <path
           d="m 2.5,-5.640625 c 0.40625,0 0.734375,0.328125 0.953125,0.8125 L 1.3125,-2.03125 C 1.203125,-2.375 1.15625,-2.765625 1.15625,-3.09375 1.15625,-4.140625 1.5,-5.640625 2.5,-5.640625 Z M 2.46875,-6.25 C 1.171875,-6.25 0.5,-4.4375 0.5,-2.96875 c 0,1.515625 0.734375,3.078125 2,3.078125 1.390625,0 1.984375,-1.75 1.984375,-3.203125 C 4.484375,-4.640625 3.78125,-6.25 2.46875,-6.25 Z m 1.203125,2.046875 c 0.109375,0.390625 0.15625,0.828125 0.15625,1.25 0,1.15625 -0.375,2.421875 -1.359375,2.421875 -0.390625,0 -0.703125,-0.359375 -0.9375,-0.859375 z m 0,0"
           id="path32239" />
      </g>
    </g>
    <path
       fill="none"
       stroke-width="0.202494"
       stroke-linecap="butt"
       stroke-linejoin="miter"
       stroke="#231f20"
       stroke-opacity="1"
       stroke-miterlimit="10"
       d="m 61.052515,153.58364 h 5.270996"
       id="path25506" />
    <g
       fill="#b6251c"
       fill-opacity="1"
       id="g25510"
       transform="matrix(0.35277777,0,0,0.35277777,-2.637653,-12.128204)">
      <g
         id="use25508"
         transform="translate(185.519,479.577)">
        <path
           d="M 0.59375,-6.21875 V 0 H 4.359375 V -0.625 H 1.25 V -2.921875 H 3.84375 V -3.5625 H 1.25 V -5.609375 H 4.390625 V -6.21875 Z m 0,0"
           id="path32179" />
      </g>
    </g>
    <g
       fill="#2e3192"
       fill-opacity="1"
       id="g25518"
       transform="matrix(0.35277777,0,0,0.35277777,-2.637653,-12.128204)">
      <g
         id="use25512"
         transform="translate(197.873,465.76599)">
        <path
           d="m 2.5,-5.640625 c 0.40625,0 0.734375,0.328125 0.953125,0.8125 L 1.3125,-2.03125 C 1.203125,-2.375 1.15625,-2.765625 1.15625,-3.09375 1.15625,-4.140625 1.5,-5.640625 2.5,-5.640625 Z M 2.46875,-6.25 C 1.171875,-6.25 0.5,-4.4375 0.5,-2.96875 c 0,1.515625 0.734375,3.078125 2,3.078125 1.390625,0 1.984375,-1.75 1.984375,-3.203125 C 4.484375,-4.640625 3.78125,-6.25 2.46875,-6.25 Z m 1.203125,2.046875 c 0.109375,0.390625 0.15625,0.828125 0.15625,1.25 0,1.15625 -0.375,2.421875 -1.359375,2.421875 -0.390625,0 -0.703125,-0.359375 -0.9375,-0.859375 z m 0,0"
           id="path32243" />
      </g>
      <g
         id="use25514"
         transform="translate(202.85429,465.76599)">
        <path
           d="M 2.984375,-6.21875 H 2.5 l -1.625,0.84375 0.15625,0.390625 1.265625,-0.375 V 0 h 0.6875 z m 0,0"
           id="path32383" />
      </g>
      <g
         id="use25516"
         transform="translate(207.8356,465.76599)">
        <path
           d="m 2.5,-5.640625 c 0.40625,0 0.734375,0.328125 0.953125,0.8125 L 1.3125,-2.03125 C 1.203125,-2.375 1.15625,-2.765625 1.15625,-3.09375 1.15625,-4.140625 1.5,-5.640625 2.5,-5.640625 Z M 2.46875,-6.25 C 1.171875,-6.25 0.5,-4.4375 0.5,-2.96875 c 0,1.515625 0.734375,3.078125 2,3.078125 1.390625,0 1.984375,-1.75 1.984375,-3.203125 C 4.484375,-4.640625 3.78125,-6.25 2.46875,-6.25 Z m 1.203125,2.046875 c 0.109375,0.390625 0.15625,0.828125 0.15625,1.25 0,1.15625 -0.375,2.421875 -1.359375,2.421875 -0.390625,0 -0.703125,-0.359375 -0.9375,-0.859375 z m 0,0"
           id="path32247" />
      </g>
    </g>
    <path
       fill="none"
       stroke-width="0.202494"
       stroke-linecap="butt"
       stroke-linejoin="miter"
       stroke="#231f20"
       stroke-opacity="1"
       stroke-miterlimit="10"
       d="m 67.166871,153.58364 h 5.272373"
       id="path25520" />
    <g
       fill="#b6251c"
       fill-opacity="1"
       id="g25524"
       transform="matrix(0.35277777,0,0,0.35277777,-2.637653,-12.128204)">
      <g
         id="use25522"
         transform="translate(202.854,479.577)">
        <path
           d="M 0.5,0 H 1.171875 V -4.890625 L 3.90625,0 h 0.546875 v -5.953125 c 0,-0.046875 0.015625,-0.09375 0.03125,-0.140625 0.03125,-0.046875 0.046875,-0.09375 0.046875,-0.125 h -0.75 v 4.609375 L 1.171875,-6.203125 H 0.5 Z m 0,0"
           id="path32167" />
      </g>
    </g>
    <g
       fill="#2e3192"
       fill-opacity="1"
       id="g25532"
       transform="matrix(0.35277777,0,0,0.35277777,-2.637653,-12.128204)">
      <g
         id="use25526"
         transform="translate(215.20799,465.76599)">
        <path
           d="M 2.984375,-6.21875 H 2.5 l -1.625,0.84375 0.15625,0.390625 1.265625,-0.375 V 0 h 0.6875 z m 0,0"
           id="path32387" />
      </g>
      <g
         id="use25528"
         transform="translate(220.1893,465.76599)">
        <path
           d="m 2.5,-5.640625 c 0.40625,0 0.734375,0.328125 0.953125,0.8125 L 1.3125,-2.03125 C 1.203125,-2.375 1.15625,-2.765625 1.15625,-3.09375 1.15625,-4.140625 1.5,-5.640625 2.5,-5.640625 Z M 2.46875,-6.25 C 1.171875,-6.25 0.5,-4.4375 0.5,-2.96875 c 0,1.515625 0.734375,3.078125 2,3.078125 1.390625,0 1.984375,-1.75 1.984375,-3.203125 C 4.484375,-4.640625 3.78125,-6.25 2.46875,-6.25 Z m 1.203125,2.046875 c 0.109375,0.390625 0.15625,0.828125 0.15625,1.25 0,1.15625 -0.375,2.421875 -1.359375,2.421875 -0.390625,0 -0.703125,-0.359375 -0.9375,-0.859375 z m 0,0"
           id="path32251" />
      </g>
      <g
         id="use25530"
         transform="translate(225.17059,465.76599)">
        <path
           d="m 2.5,-5.640625 c 0.40625,0 0.734375,0.328125 0.953125,0.8125 L 1.3125,-2.03125 C 1.203125,-2.375 1.15625,-2.765625 1.15625,-3.09375 1.15625,-4.140625 1.5,-5.640625 2.5,-5.640625 Z M 2.46875,-6.25 C 1.171875,-6.25 0.5,-4.4375 0.5,-2.96875 c 0,1.515625 0.734375,3.078125 2,3.078125 1.390625,0 1.984375,-1.75 1.984375,-3.203125 C 4.484375,-4.640625 3.78125,-6.25 2.46875,-6.25 Z m 1.203125,2.046875 c 0.109375,0.390625 0.15625,0.828125 0.15625,1.25 0,1.15625 -0.375,2.421875 -1.359375,2.421875 -0.390625,0 -0.703125,-0.359375 -0.9375,-0.859375 z m 0,0"
           id="path32255" />
      </g>
    </g>
    <path
       fill="none"
       stroke-width="0.202494"
       stroke-linecap="butt"
       stroke-linejoin="miter"
       stroke="#231f20"
       stroke-opacity="1"
       stroke-miterlimit="10"
       d="m 73.282603,153.58364 h 5.272374"
       id="path25534" />
    <g
       fill="#b6251c"
       fill-opacity="1"
       id="g25538"
       transform="matrix(0.35277777,0,0,0.35277777,-2.637653,-12.128204)">
      <g
         id="use25536"
         transform="translate(220.189,479.577)">
        <path
           d="m 0.3125,-6.21875 v 0.625 H 2.078125 V 0 H 2.78125 v -5.59375 h 1.828125 v -0.625 z m 0,0"
           id="path32211" />
      </g>
    </g>
    <g
       fill="#2e3192"
       fill-opacity="1"
       id="g25546"
       transform="matrix(0.35277777,0,0,0.35277777,-2.637653,-12.128204)">
      <g
         id="use25540"
         transform="translate(232.543,465.76599)">
        <path
           d="M 2.984375,-6.21875 H 2.5 l -1.625,0.84375 0.15625,0.390625 1.265625,-0.375 V 0 h 0.6875 z m 0,0"
           id="path32391" />
      </g>
      <g
         id="use25542"
         transform="translate(237.52431,465.76599)">
        <path
           d="M 2.984375,-6.21875 H 2.5 l -1.625,0.84375 0.15625,0.390625 1.265625,-0.375 V 0 h 0.6875 z m 0,0"
           id="path32395" />
      </g>
      <g
         id="use25544"
         transform="translate(242.5056,465.76599)">
        <path
           d="m 2.5,-5.640625 c 0.40625,0 0.734375,0.328125 0.953125,0.8125 L 1.3125,-2.03125 C 1.203125,-2.375 1.15625,-2.765625 1.15625,-3.09375 1.15625,-4.140625 1.5,-5.640625 2.5,-5.640625 Z M 2.46875,-6.25 C 1.171875,-6.25 0.5,-4.4375 0.5,-2.96875 c 0,1.515625 0.734375,3.078125 2,3.078125 1.390625,0 1.984375,-1.75 1.984375,-3.203125 C 4.484375,-4.640625 3.78125,-6.25 2.46875,-6.25 Z m 1.203125,2.046875 c 0.109375,0.390625 0.15625,0.828125 0.15625,1.25 0,1.15625 -0.375,2.421875 -1.359375,2.421875 -0.390625,0 -0.703125,-0.359375 -0.9375,-0.859375 z m 0,0"
           id="path32259" />
      </g>
    </g>
    <path
       fill="none"
       stroke-width="0.202494"
       stroke-linecap="butt"
       stroke-linejoin="miter"
       stroke="#231f20"
       stroke-opacity="1"
       stroke-miterlimit="10"
       d="m 79.398337,153.58364 h 5.272374"
       id="path25548" />
    <g
       fill="#b6251c"
       fill-opacity="1"
       id="g25552"
       transform="matrix(0.35277777,0,0,0.35277777,-2.637653,-12.128204)">
      <g
         id="use25550"
         transform="translate(237.524,479.577)">
        <path
           d="M 0.59375,-6.21875 V 0 H 4.359375 V -0.625 H 1.25 V -2.921875 H 3.84375 V -3.5625 H 1.25 V -5.609375 H 4.390625 V -6.21875 Z m 0,0"
           id="path32183" />
      </g>
    </g>
    <g
       fill="#2e3192"
       fill-opacity="1"
       id="g25560"
       transform="matrix(0.35277777,0,0,0.35277777,-2.637653,-12.128204)">
      <g
         id="use25554"
         transform="translate(249.87801,465.76599)">
        <path
           d="m 2.5,-5.640625 c 0.40625,0 0.734375,0.328125 0.953125,0.8125 L 1.3125,-2.03125 C 1.203125,-2.375 1.15625,-2.765625 1.15625,-3.09375 1.15625,-4.140625 1.5,-5.640625 2.5,-5.640625 Z M 2.46875,-6.25 C 1.171875,-6.25 0.5,-4.4375 0.5,-2.96875 c 0,1.515625 0.734375,3.078125 2,3.078125 1.390625,0 1.984375,-1.75 1.984375,-3.203125 C 4.484375,-4.640625 3.78125,-6.25 2.46875,-6.25 Z m 1.203125,2.046875 c 0.109375,0.390625 0.15625,0.828125 0.15625,1.25 0,1.15625 -0.375,2.421875 -1.359375,2.421875 -0.390625,0 -0.703125,-0.359375 -0.9375,-0.859375 z m 0,0"
           id="path32263" />
      </g>
      <g
         id="use25556"
         transform="translate(254.8593,465.76599)">
        <path
           d="M 2.984375,-6.21875 H 2.5 l -1.625,0.84375 0.15625,0.390625 1.265625,-0.375 V 0 h 0.6875 z m 0,0"
           id="path32399" />
      </g>
      <g
         id="use25558"
         transform="translate(259.84061,465.76599)">
        <path
           d="m 2.5,-5.640625 c 0.40625,0 0.734375,0.328125 0.953125,0.8125 L 1.3125,-2.03125 C 1.203125,-2.375 1.15625,-2.765625 1.15625,-3.09375 1.15625,-4.140625 1.5,-5.640625 2.5,-5.640625 Z M 2.46875,-6.25 C 1.171875,-6.25 0.5,-4.4375 0.5,-2.96875 c 0,1.515625 0.734375,3.078125 2,3.078125 1.390625,0 1.984375,-1.75 1.984375,-3.203125 C 4.484375,-4.640625 3.78125,-6.25 2.46875,-6.25 Z m 1.203125,2.046875 c 0.109375,0.390625 0.15625,0.828125 0.15625,1.25 0,1.15625 -0.375,2.421875 -1.359375,2.421875 -0.390625,0 -0.703125,-0.359375 -0.9375,-0.859375 z m 0,0"
           id="path32267" />
      </g>
    </g>
    <path
       fill="none"
       stroke-width="0.202494"
       stroke-linecap="butt"
       stroke-linejoin="miter"
       stroke="#231f20"
       stroke-opacity="1"
       stroke-miterlimit="10"
       d="m 85.514071,153.58364 h 5.270996"
       id="path25562" />
    <g
       fill="#b6251c"
       fill-opacity="1"
       id="g25566"
       transform="matrix(0.35277777,0,0,0.35277777,-2.637653,-12.128204)">
      <g
         id="use25564"
         transform="translate(254.85899,479.577)">
        <path
           d="M 0.5,0 H 1.171875 V -4.890625 L 3.90625,0 h 0.546875 v -5.953125 c 0,-0.046875 0.015625,-0.09375 0.03125,-0.140625 0.03125,-0.046875 0.046875,-0.09375 0.046875,-0.125 h -0.75 v 4.609375 L 1.171875,-6.203125 H 0.5 Z m 0,0"
           id="path32171" />
      </g>
    </g>
    <g
       fill="#2e3192"
       fill-opacity="1"
       id="g25580"
       transform="matrix(0.35277777,0,0,0.35277777,-2.637653,-12.128204)">
      <g
         id="use25568"
         transform="translate(267.21301,465.76599)">
        <path
           d="M 2.984375,-6.21875 H 2.5 l -1.625,0.84375 0.15625,0.390625 1.265625,-0.375 V 0 h 0.6875 z m 0,0"
           id="path32403" />
      </g>
      <g
         id="use25570"
         transform="translate(272.19431,465.76599)">
        <path
           d="m 2.5,-5.640625 c 0.40625,0 0.734375,0.328125 0.953125,0.8125 L 1.3125,-2.03125 C 1.203125,-2.375 1.15625,-2.765625 1.15625,-3.09375 1.15625,-4.140625 1.5,-5.640625 2.5,-5.640625 Z M 2.46875,-6.25 C 1.171875,-6.25 0.5,-4.4375 0.5,-2.96875 c 0,1.515625 0.734375,3.078125 2,3.078125 1.390625,0 1.984375,-1.75 1.984375,-3.203125 C 4.484375,-4.640625 3.78125,-6.25 2.46875,-6.25 Z m 1.203125,2.046875 c 0.109375,0.390625 0.15625,0.828125 0.15625,1.25 0,1.15625 -0.375,2.421875 -1.359375,2.421875 -0.390625,0 -0.703125,-0.359375 -0.9375,-0.859375 z m 0,0"
           id="path32271" />
      </g>
      <g
         id="use25572"
         transform="translate(277.1756,465.76599)">
        <path
           d="M 2.984375,-6.21875 H 2.5 l -1.625,0.84375 0.15625,0.390625 1.265625,-0.375 V 0 h 0.6875 z m 0,0"
           id="path32407" />
      </g>
      <g
         id="use25574"
         transform="translate(282.15689,465.76599)">
        <path
           d="m 2.5,-5.640625 c 0.40625,0 0.734375,0.328125 0.953125,0.8125 L 1.3125,-2.03125 C 1.203125,-2.375 1.15625,-2.765625 1.15625,-3.09375 1.15625,-4.140625 1.5,-5.640625 2.5,-5.640625 Z M 2.46875,-6.25 C 1.171875,-6.25 0.5,-4.4375 0.5,-2.96875 c 0,1.515625 0.734375,3.078125 2,3.078125 1.390625,0 1.984375,-1.75 1.984375,-3.203125 C 4.484375,-4.640625 3.78125,-6.25 2.46875,-6.25 Z m 1.203125,2.046875 c 0.109375,0.390625 0.15625,0.828125 0.15625,1.25 0,1.15625 -0.375,2.421875 -1.359375,2.421875 -0.390625,0 -0.703125,-0.359375 -0.9375,-0.859375 z m 0,0"
           id="path32275" />
      </g>
      <g
         id="use25576"
         transform="translate(287.13821,465.76599)">
        <path
           d="m 2.5,-5.640625 c 0.40625,0 0.734375,0.328125 0.953125,0.8125 L 1.3125,-2.03125 C 1.203125,-2.375 1.15625,-2.765625 1.15625,-3.09375 1.15625,-4.140625 1.5,-5.640625 2.5,-5.640625 Z M 2.46875,-6.25 C 1.171875,-6.25 0.5,-4.4375 0.5,-2.96875 c 0,1.515625 0.734375,3.078125 2,3.078125 1.390625,0 1.984375,-1.75 1.984375,-3.203125 C 4.484375,-4.640625 3.78125,-6.25 2.46875,-6.25 Z m 1.203125,2.046875 c 0.109375,0.390625 0.15625,0.828125 0.15625,1.25 0,1.15625 -0.375,2.421875 -1.359375,2.421875 -0.390625,0 -0.703125,-0.359375 -0.9375,-0.859375 z m 0,0"
           id="path32279" />
      </g>
      <g
         id="use25578"
         transform="translate(292.11951,465.76599)">
        <path
           d="M 2.984375,-6.21875 H 2.5 l -1.625,0.84375 0.15625,0.390625 1.265625,-0.375 V 0 h 0.6875 z m 0,0"
           id="path32411" />
      </g>
    </g>
    <path
       fill="none"
       stroke-width="0.202494"
       stroke-linecap="butt"
       stroke-linejoin="miter"
       stroke="#231f20"
       stroke-opacity="1"
       stroke-miterlimit="10"
       d="M 91.629803,153.58364 H 102.17317"
       id="path25582" />
    <g
       fill="#b6251c"
       fill-opacity="1"
       id="g25586"
       transform="matrix(0.35277777,0,0,0.35277777,-2.637653,-12.128204)">
      <g
         id="use25584"
         transform="translate(279.66599,479.577)">
        <path
           d="m 3.96875,-4.8125 c 0,0.0625 0.015625,0.09375 0.03125,0.109375 L 4.671875,-5.03125 C 4.59375,-5.21875 4.484375,-5.390625 4.359375,-5.546875 4.234375,-5.6875 4.0625,-5.8125 3.90625,-5.921875 c -0.171875,-0.109375 -0.359375,-0.1875 -0.5625,-0.25 -0.1875,-0.0625 -0.390625,-0.09375 -0.59375,-0.09375 -0.25,0 -0.515625,0.0625 -0.78125,0.171875 C 1.6875,-6 1.453125,-5.828125 1.203125,-5.578125 0.96875,-5.328125 0.78125,-5 0.625,-4.609375 c -0.140625,0.421875 -0.21875,0.9375 -0.21875,1.53125 0,0.5625 0.0625,1.03125 0.1875,1.4375 0.140625,0.390625 0.296875,0.71875 0.546875,0.984375 0.21875,0.25 0.46875,0.453125 0.75,0.578125 C 2.15625,0.046875 2.484375,0.09375 2.84375,0.09375 3,0.09375 3.15625,0.078125 3.3125,0.046875 3.46875,-0.015625 3.625,-0.0625 3.78125,-0.15625 3.9375,-0.25 4.09375,-0.34375 4.234375,-0.484375 c 0.125,-0.125 0.25,-0.265625 0.34375,-0.4375 L 4.0625,-1.25 C 3.921875,-1.03125 3.75,-0.84375 3.515625,-0.703125 3.296875,-0.5625 3.046875,-0.5 2.796875,-0.5 2.5625,-0.5 2.328125,-0.5625 2.140625,-0.6875 1.90625,-0.8125 1.734375,-1 1.578125,-1.21875 1.421875,-1.453125 1.3125,-1.71875 1.21875,-2.046875 1.125,-2.375 1.09375,-2.734375 1.09375,-3.125 c 0,-0.40625 0.03125,-0.765625 0.125,-1.078125 0.09375,-0.328125 0.203125,-0.59375 0.359375,-0.828125 0.140625,-0.21875 0.328125,-0.375 0.53125,-0.484375 0.1875,-0.125 0.40625,-0.1875 0.625,-0.1875 0.25,0 0.46875,0.0625 0.6875,0.203125 C 3.625,-5.390625 3.8125,-5.203125 3.9375,-4.984375 3.953125,-4.9375 3.96875,-4.890625 3.96875,-4.8125 Z m 0,0"
           id="path32159" />
      </g>
    </g>
    <g
       fill="#2e3192"
       fill-opacity="1"
       id="g25594"
       transform="matrix(0.35277777,0,0,0.35277777,-2.637653,-12.128204)">
      <g
         id="use25588"
         transform="translate(299.492,465.76599)">
        <path
           d="M 2.984375,-6.21875 H 2.5 l -1.625,0.84375 0.15625,0.390625 1.265625,-0.375 V 0 h 0.6875 z m 0,0"
           id="path32415" />
      </g>
      <g
         id="use25590"
         transform="translate(304.4733,465.76599)">
        <path
           d="M 2.984375,-6.21875 H 2.5 l -1.625,0.84375 0.15625,0.390625 1.265625,-0.375 V 0 h 0.6875 z m 0,0"
           id="path32419" />
      </g>
      <g
         id="use25592"
         transform="translate(309.45459,465.76599)">
        <path
           d="m 2.5,-5.640625 c 0.40625,0 0.734375,0.328125 0.953125,0.8125 L 1.3125,-2.03125 C 1.203125,-2.375 1.15625,-2.765625 1.15625,-3.09375 1.15625,-4.140625 1.5,-5.640625 2.5,-5.640625 Z M 2.46875,-6.25 C 1.171875,-6.25 0.5,-4.4375 0.5,-2.96875 c 0,1.515625 0.734375,3.078125 2,3.078125 1.390625,0 1.984375,-1.75 1.984375,-3.203125 C 4.484375,-4.640625 3.78125,-6.25 2.46875,-6.25 Z m 1.203125,2.046875 c 0.109375,0.390625 0.15625,0.828125 0.15625,1.25 0,1.15625 -0.375,2.421875 -1.359375,2.421875 -0.390625,0 -0.703125,-0.359375 -0.9375,-0.859375 z m 0,0"
           id="path32283" />
      </g>
    </g>
    <path
       fill="none"
       stroke-width="0.202494"
       stroke-linecap="butt"
       stroke-linejoin="miter"
       stroke="#231f20"
       stroke-opacity="1"
       stroke-miterlimit="10"
       d="m 103.01654,153.58364 h 5.27237"
       id="path25596" />
    <g
       fill="#b6251c"
       fill-opacity="1"
       id="g25600"
       transform="matrix(0.35277777,0,0,0.35277777,-2.637653,-12.128204)">
      <g
         id="use25598"
         transform="translate(304.47299,479.577)">
        <path
           d="M 0.59375,-6.21875 V 0 H 4.359375 V -0.625 H 1.25 V -2.921875 H 3.84375 V -3.5625 H 1.25 V -5.609375 H 4.390625 V -6.21875 Z m 0,0"
           id="path32187" />
      </g>
    </g>
    <g
       fill="#2e3192"
       fill-opacity="1"
       id="g25614"
       transform="matrix(0.35277777,0,0,0.35277777,-2.637653,-12.128204)">
      <g
         id="use25602"
         transform="translate(316.827,465.76599)">
        <path
           d="M 2.984375,-6.21875 H 2.5 l -1.625,0.84375 0.15625,0.390625 1.265625,-0.375 V 0 h 0.6875 z m 0,0"
           id="path32423" />
      </g>
      <g
         id="use25604"
         transform="translate(321.80829,465.76599)">
        <path
           d="m 2.5,-5.640625 c 0.40625,0 0.734375,0.328125 0.953125,0.8125 L 1.3125,-2.03125 C 1.203125,-2.375 1.15625,-2.765625 1.15625,-3.09375 1.15625,-4.140625 1.5,-5.640625 2.5,-5.640625 Z M 2.46875,-6.25 C 1.171875,-6.25 0.5,-4.4375 0.5,-2.96875 c 0,1.515625 0.734375,3.078125 2,3.078125 1.390625,0 1.984375,-1.75 1.984375,-3.203125 C 4.484375,-4.640625 3.78125,-6.25 2.46875,-6.25 Z m 1.203125,2.046875 c 0.109375,0.390625 0.15625,0.828125 0.15625,1.25 0,1.15625 -0.375,2.421875 -1.359375,2.421875 -0.390625,0 -0.703125,-0.359375 -0.9375,-0.859375 z m 0,0"
           id="path32287" />
      </g>
      <g
         id="use25606"
         transform="translate(326.78961,465.76599)">
        <path
           d="M 2.984375,-6.21875 H 2.5 l -1.625,0.84375 0.15625,0.390625 1.265625,-0.375 V 0 h 0.6875 z m 0,0"
           id="path32427" />
      </g>
      <g
         id="use25608"
         transform="translate(331.7709,465.76599)">
        <path
           d="m 2.5,-5.640625 c 0.40625,0 0.734375,0.328125 0.953125,0.8125 L 1.3125,-2.03125 C 1.203125,-2.375 1.15625,-2.765625 1.15625,-3.09375 1.15625,-4.140625 1.5,-5.640625 2.5,-5.640625 Z M 2.46875,-6.25 C 1.171875,-6.25 0.5,-4.4375 0.5,-2.96875 c 0,1.515625 0.734375,3.078125 2,3.078125 1.390625,0 1.984375,-1.75 1.984375,-3.203125 C 4.484375,-4.640625 3.78125,-6.25 2.46875,-6.25 Z m 1.203125,2.046875 c 0.109375,0.390625 0.15625,0.828125 0.15625,1.25 0,1.15625 -0.375,2.421875 -1.359375,2.421875 -0.390625,0 -0.703125,-0.359375 -0.9375,-0.859375 z m 0,0"
           id="path32291" />
      </g>
      <g
         id="use25610"
         transform="translate(336.7522,465.76599)">
        <path
           d="m 2.5,-5.640625 c 0.40625,0 0.734375,0.328125 0.953125,0.8125 L 1.3125,-2.03125 C 1.203125,-2.375 1.15625,-2.765625 1.15625,-3.09375 1.15625,-4.140625 1.5,-5.640625 2.5,-5.640625 Z M 2.46875,-6.25 C 1.171875,-6.25 0.5,-4.4375 0.5,-2.96875 c 0,1.515625 0.734375,3.078125 2,3.078125 1.390625,0 1.984375,-1.75 1.984375,-3.203125 C 4.484375,-4.640625 3.78125,-6.25 2.46875,-6.25 Z m 1.203125,2.046875 c 0.109375,0.390625 0.15625,0.828125 0.15625,1.25 0,1.15625 -0.375,2.421875 -1.359375,2.421875 -0.390625,0 -0.703125,-0.359375 -0.9375,-0.859375 z m 0,0"
           id="path32295" />
      </g>
      <g
         id="use25612"
         transform="translate(341.73349,465.76599)">
        <path
           d="M 2.984375,-6.21875 H 2.5 l -1.625,0.84375 0.15625,0.390625 1.265625,-0.375 V 0 h 0.6875 z m 0,0"
           id="path32431" />
      </g>
    </g>
    <path
       fill="none"
       stroke-width="0.202494"
       stroke-linecap="butt"
       stroke-linejoin="miter"
       stroke="#231f20"
       stroke-opacity="1"
       stroke-miterlimit="10"
       d="m 109.13227,153.58364 h 10.54337"
       id="path25616" />
    <g
       fill="#b6251c"
       fill-opacity="1"
       id="g25620"
       transform="matrix(0.35277777,0,0,0.35277777,-2.637653,-12.128204)">
      <g
         id="use25618"
         transform="translate(329.28,479.577)">
        <path
           d="m 3.96875,-4.8125 c 0,0.0625 0.015625,0.09375 0.03125,0.109375 L 4.671875,-5.03125 C 4.59375,-5.21875 4.484375,-5.390625 4.359375,-5.546875 4.234375,-5.6875 4.0625,-5.8125 3.90625,-5.921875 c -0.171875,-0.109375 -0.359375,-0.1875 -0.5625,-0.25 -0.1875,-0.0625 -0.390625,-0.09375 -0.59375,-0.09375 -0.25,0 -0.515625,0.0625 -0.78125,0.171875 C 1.6875,-6 1.453125,-5.828125 1.203125,-5.578125 0.96875,-5.328125 0.78125,-5 0.625,-4.609375 c -0.140625,0.421875 -0.21875,0.9375 -0.21875,1.53125 0,0.5625 0.0625,1.03125 0.1875,1.4375 0.140625,0.390625 0.296875,0.71875 0.546875,0.984375 0.21875,0.25 0.46875,0.453125 0.75,0.578125 C 2.15625,0.046875 2.484375,0.09375 2.84375,0.09375 3,0.09375 3.15625,0.078125 3.3125,0.046875 3.46875,-0.015625 3.625,-0.0625 3.78125,-0.15625 3.9375,-0.25 4.09375,-0.34375 4.234375,-0.484375 c 0.125,-0.125 0.25,-0.265625 0.34375,-0.4375 L 4.0625,-1.25 C 3.921875,-1.03125 3.75,-0.84375 3.515625,-0.703125 3.296875,-0.5625 3.046875,-0.5 2.796875,-0.5 2.5625,-0.5 2.328125,-0.5625 2.140625,-0.6875 1.90625,-0.8125 1.734375,-1 1.578125,-1.21875 1.421875,-1.453125 1.3125,-1.71875 1.21875,-2.046875 1.125,-2.375 1.09375,-2.734375 1.09375,-3.125 c 0,-0.40625 0.03125,-0.765625 0.125,-1.078125 0.09375,-0.328125 0.203125,-0.59375 0.359375,-0.828125 0.140625,-0.21875 0.328125,-0.375 0.53125,-0.484375 0.1875,-0.125 0.40625,-0.1875 0.625,-0.1875 0.25,0 0.46875,0.0625 0.6875,0.203125 C 3.625,-5.390625 3.8125,-5.203125 3.9375,-4.984375 3.953125,-4.9375 3.96875,-4.890625 3.96875,-4.8125 Z m 0,0"
           id="path32163" />
      </g>
    </g>
    <g
       fill="#2e3192"
       fill-opacity="1"
       id="g25630"
       transform="matrix(0.35277777,0,0,0.35277777,-2.637653,-12.128204)">
      <g
         id="use25622"
         transform="translate(349.10599,465.76599)">
        <path
           d="m 2.5,-5.640625 c 0.40625,0 0.734375,0.328125 0.953125,0.8125 L 1.3125,-2.03125 C 1.203125,-2.375 1.15625,-2.765625 1.15625,-3.09375 1.15625,-4.140625 1.5,-5.640625 2.5,-5.640625 Z M 2.46875,-6.25 C 1.171875,-6.25 0.5,-4.4375 0.5,-2.96875 c 0,1.515625 0.734375,3.078125 2,3.078125 1.390625,0 1.984375,-1.75 1.984375,-3.203125 C 4.484375,-4.640625 3.78125,-6.25 2.46875,-6.25 Z m 1.203125,2.046875 c 0.109375,0.390625 0.15625,0.828125 0.15625,1.25 0,1.15625 -0.375,2.421875 -1.359375,2.421875 -0.390625,0 -0.703125,-0.359375 -0.9375,-0.859375 z m 0,0"
           id="path32299" />
      </g>
      <g
         id="use25624"
         transform="translate(354.08731,465.76599)">
        <path
           d="m 2.5,-5.640625 c 0.40625,0 0.734375,0.328125 0.953125,0.8125 L 1.3125,-2.03125 C 1.203125,-2.375 1.15625,-2.765625 1.15625,-3.09375 1.15625,-4.140625 1.5,-5.640625 2.5,-5.640625 Z M 2.46875,-6.25 C 1.171875,-6.25 0.5,-4.4375 0.5,-2.96875 c 0,1.515625 0.734375,3.078125 2,3.078125 1.390625,0 1.984375,-1.75 1.984375,-3.203125 C 4.484375,-4.640625 3.78125,-6.25 2.46875,-6.25 Z m 1.203125,2.046875 c 0.109375,0.390625 0.15625,0.828125 0.15625,1.25 0,1.15625 -0.375,2.421875 -1.359375,2.421875 -0.390625,0 -0.703125,-0.359375 -0.9375,-0.859375 z m 0,0"
           id="path32303" />
      </g>
      <g
         id="use25626"
         transform="translate(359.0686,465.76599)">
        <path
           d="m 2.5,-5.640625 c 0.40625,0 0.734375,0.328125 0.953125,0.8125 L 1.3125,-2.03125 C 1.203125,-2.375 1.15625,-2.765625 1.15625,-3.09375 1.15625,-4.140625 1.5,-5.640625 2.5,-5.640625 Z M 2.46875,-6.25 C 1.171875,-6.25 0.5,-4.4375 0.5,-2.96875 c 0,1.515625 0.734375,3.078125 2,3.078125 1.390625,0 1.984375,-1.75 1.984375,-3.203125 C 4.484375,-4.640625 3.78125,-6.25 2.46875,-6.25 Z m 1.203125,2.046875 c 0.109375,0.390625 0.15625,0.828125 0.15625,1.25 0,1.15625 -0.375,2.421875 -1.359375,2.421875 -0.390625,0 -0.703125,-0.359375 -0.9375,-0.859375 z m 0,0"
           id="path32307" />
      </g>
      <g
         id="use25628"
         transform="translate(364.0499,465.76599)">
        <path
           d="M 2.984375,-6.21875 H 2.5 l -1.625,0.84375 0.15625,0.390625 1.265625,-0.375 V 0 h 0.6875 z m 0,0"
           id="path32435" />
      </g>
    </g>
    <path
       fill="none"
       stroke-width="0.202494"
       stroke-linecap="butt"
       stroke-linejoin="miter"
       stroke="#231f20"
       stroke-opacity="1"
       stroke-miterlimit="10"
       d="m 120.51899,153.58364 h 7.02938"
       id="path25632" />
    <g
       fill="#b6251c"
       fill-opacity="1"
       id="g25636"
       transform="matrix(0.35277777,0,0,0.35277777,-2.637653,-12.128204)">
      <g
         id="use25634"
         transform="translate(356.578,479.577)">
        <path
           d="m 2.53125,0.09375 c 0.265625,0 0.53125,-0.046875 0.78125,-0.15625 0.25,-0.109375 0.484375,-0.296875 0.6875,-0.546875 0.21875,-0.25 0.375,-0.59375 0.5,-0.984375 0.140625,-0.421875 0.1875,-0.921875 0.1875,-1.515625 0,-0.546875 -0.046875,-1.03125 -0.15625,-1.421875 C 4.421875,-4.9375 4.265625,-5.265625 4.0625,-5.515625 3.84375,-5.765625 3.625,-5.96875 3.375,-6.09375 c -0.25,-0.125 -0.53125,-0.1875 -0.828125,-0.1875 -0.328125,0 -0.640625,0.078125 -0.90625,0.21875 -0.28125,0.15625 -0.53125,0.375 -0.71875,0.640625 -0.203125,0.265625 -0.359375,0.609375 -0.46875,1 -0.109375,0.390625 -0.15625,0.828125 -0.15625,1.296875 0,0.484375 0.046875,0.921875 0.15625,1.3125 0.109375,0.390625 0.25,0.734375 0.4375,1.015625 0.203125,0.28125 0.4375,0.5 0.71875,0.65625 C 1.890625,0.015625 2.1875,0.09375 2.53125,0.09375 Z M 1.5,-1.140625 c -0.15625,-0.1875 -0.28125,-0.46875 -0.390625,-0.828125 -0.078125,-0.34375 -0.125,-0.75 -0.125,-1.21875 0,-0.484375 0.046875,-0.890625 0.125,-1.203125 C 1.21875,-4.6875 1.34375,-4.9375 1.5,-5.125 1.640625,-5.296875 1.8125,-5.4375 1.984375,-5.515625 2.15625,-5.59375 2.34375,-5.625 2.546875,-5.625 c 0.1875,0 0.359375,0.046875 0.5,0.125 0.15625,0.09375 0.3125,0.21875 0.46875,0.40625 0.140625,0.1875 0.25,0.4375 0.34375,0.75 C 3.953125,-4.03125 4,-3.625 4,-3.125 4,-2.625 3.953125,-2.21875 3.875,-1.890625 3.78125,-1.5625 3.671875,-1.296875 3.53125,-1.109375 3.390625,-0.921875 3.234375,-0.78125 3.0625,-0.703125 2.890625,-0.625 2.71875,-0.59375 2.53125,-0.59375 c -0.375,0 -0.734375,-0.1875 -1.03125,-0.546875 z m 0,0"
           id="path32155" />
      </g>
    </g>
    <g
       fill="#2e3192"
       fill-opacity="1"
       id="g25644"
       transform="matrix(0.35277777,0,0,0.35277777,-2.637653,-12.128204)">
      <g
         id="use25638"
         transform="translate(371.422,465.76599)">
        <path
           d="m 2.5,-5.640625 c 0.40625,0 0.734375,0.328125 0.953125,0.8125 L 1.3125,-2.03125 C 1.203125,-2.375 1.15625,-2.765625 1.15625,-3.09375 1.15625,-4.140625 1.5,-5.640625 2.5,-5.640625 Z M 2.46875,-6.25 C 1.171875,-6.25 0.5,-4.4375 0.5,-2.96875 c 0,1.515625 0.734375,3.078125 2,3.078125 1.390625,0 1.984375,-1.75 1.984375,-3.203125 C 4.484375,-4.640625 3.78125,-6.25 2.46875,-6.25 Z m 1.203125,2.046875 c 0.109375,0.390625 0.15625,0.828125 0.15625,1.25 0,1.15625 -0.375,2.421875 -1.359375,2.421875 -0.390625,0 -0.703125,-0.359375 -0.9375,-0.859375 z m 0,0"
           id="path32311" />
      </g>
      <g
         id="use25640"
         transform="translate(376.40329,465.76599)">
        <path
           d="M 2.984375,-6.21875 H 2.5 l -1.625,0.84375 0.15625,0.390625 1.265625,-0.375 V 0 h 0.6875 z m 0,0"
           id="path32439" />
      </g>
      <g
         id="use25642"
         transform="translate(381.38461,465.76599)">
        <path
           d="m 2.5,-5.640625 c 0.40625,0 0.734375,0.328125 0.953125,0.8125 L 1.3125,-2.03125 C 1.203125,-2.375 1.15625,-2.765625 1.15625,-3.09375 1.15625,-4.140625 1.5,-5.640625 2.5,-5.640625 Z M 2.46875,-6.25 C 1.171875,-6.25 0.5,-4.4375 0.5,-2.96875 c 0,1.515625 0.734375,3.078125 2,3.078125 1.390625,0 1.984375,-1.75 1.984375,-3.203125 C 4.484375,-4.640625 3.78125,-6.25 2.46875,-6.25 Z m 1.203125,2.046875 c 0.109375,0.390625 0.15625,0.828125 0.15625,1.25 0,1.15625 -0.375,2.421875 -1.359375,2.421875 -0.390625,0 -0.703125,-0.359375 -0.9375,-0.859375 z m 0,0"
           id="path32315" />
      </g>
    </g>
    <path
       fill="none"
       stroke-width="0.202494"
       stroke-linecap="butt"
       stroke-linejoin="miter"
       stroke="#231f20"
       stroke-opacity="1"
       stroke-miterlimit="10"
       d="m 128.39173,153.58364 h 5.27237"
       id="path25646" />
    <g
       fill="#b6251c"
       fill-opacity="1"
       id="g25650"
       transform="matrix(0.35277777,0,0,0.35277777,-2.637653,-12.128204)">
      <g
         id="use25648"
         transform="translate(376.40302,479.577)">
        <path
           d="M 0.5,0 H 1.171875 V -4.890625 L 3.90625,0 h 0.546875 v -5.953125 c 0,-0.046875 0.015625,-0.09375 0.03125,-0.140625 0.03125,-0.046875 0.046875,-0.09375 0.046875,-0.125 h -0.75 v 4.609375 L 1.171875,-6.203125 H 0.5 Z m 0,0"
           id="path32175" />
      </g>
    </g>
    <g
       fill="#2e3192"
       fill-opacity="1"
       id="g25658"
       transform="matrix(0.35277777,0,0,0.35277777,-2.637653,-12.128204)">
      <g
         id="use25652"
         transform="translate(388.75699,465.76599)">
        <path
           d="M 2.984375,-6.21875 H 2.5 l -1.625,0.84375 0.15625,0.390625 1.265625,-0.375 V 0 h 0.6875 z m 0,0"
           id="path32443" />
      </g>
      <g
         id="use25654"
         transform="translate(393.73831,465.76599)">
        <path
           d="m 2.5,-5.640625 c 0.40625,0 0.734375,0.328125 0.953125,0.8125 L 1.3125,-2.03125 C 1.203125,-2.375 1.15625,-2.765625 1.15625,-3.09375 1.15625,-4.140625 1.5,-5.640625 2.5,-5.640625 Z M 2.46875,-6.25 C 1.171875,-6.25 0.5,-4.4375 0.5,-2.96875 c 0,1.515625 0.734375,3.078125 2,3.078125 1.390625,0 1.984375,-1.75 1.984375,-3.203125 C 4.484375,-4.640625 3.78125,-6.25 2.46875,-6.25 Z m 1.203125,2.046875 c 0.109375,0.390625 0.15625,0.828125 0.15625,1.25 0,1.15625 -0.375,2.421875 -1.359375,2.421875 -0.390625,0 -0.703125,-0.359375 -0.9375,-0.859375 z m 0,0"
           id="path32319" />
      </g>
      <g
         id="use25656"
         transform="translate(398.7196,465.76599)">
        <path
           d="m 2.5,-5.640625 c 0.40625,0 0.734375,0.328125 0.953125,0.8125 L 1.3125,-2.03125 C 1.203125,-2.375 1.15625,-2.765625 1.15625,-3.09375 1.15625,-4.140625 1.5,-5.640625 2.5,-5.640625 Z M 2.46875,-6.25 C 1.171875,-6.25 0.5,-4.4375 0.5,-2.96875 c 0,1.515625 0.734375,3.078125 2,3.078125 1.390625,0 1.984375,-1.75 1.984375,-3.203125 C 4.484375,-4.640625 3.78125,-6.25 2.46875,-6.25 Z m 1.203125,2.046875 c 0.109375,0.390625 0.15625,0.828125 0.15625,1.25 0,1.15625 -0.375,2.421875 -1.359375,2.421875 -0.390625,0 -0.703125,-0.359375 -0.9375,-0.859375 z m 0,0"
           id="path32323" />
      </g>
    </g>
    <path
       fill="none"
       stroke-width="0.202494"
       stroke-linecap="butt"
       stroke-linejoin="miter"
       stroke="#231f20"
       stroke-opacity="1"
       stroke-miterlimit="10"
       d="m 134.50746,153.58364 h 5.27099"
       id="path25660" />
    <g
       fill="#b6251c"
       fill-opacity="1"
       id="g25664"
       transform="matrix(0.35277777,0,0,0.35277777,-2.637653,-12.128204)">
      <g
         id="use25662"
         transform="translate(393.73801,479.577)">
        <path
           d="m 0.3125,-6.21875 v 0.625 H 2.078125 V 0 H 2.78125 v -5.59375 h 1.828125 v -0.625 z m 0,0"
           id="path32215" />
      </g>
    </g>
    <g
       fill="#231f20"
       fill-opacity="1"
       id="g25668"
       transform="matrix(0.35277777,0,0,0.35277777,-2.637653,-12.128204)">
      <g
         id="use25666"
         transform="translate(406.23099,472.49899)">
        <path
           d="m 1.9375,-2.75 c 0,-0.34375 -0.265625,-0.609375 -0.59375,-0.609375 -0.34375,0 -0.609375,0.265625 -0.609375,0.609375 0,0.328125 0.265625,0.59375 0.609375,0.59375 0.328125,0 0.59375,-0.265625 0.59375,-0.59375 z m 0,0"
           id="path32143" />
      </g>
    </g>
    <g
       fill="#231f20"
       fill-opacity="1"
       id="g25672"
       transform="matrix(0.35277777,0,0,0.35277777,-2.637653,-12.128204)">
      <g
         id="use25670"
         transform="translate(410.24796,472.49899)">
        <path
           d="m 1.9375,-2.75 c 0,-0.34375 -0.265625,-0.609375 -0.59375,-0.609375 -0.34375,0 -0.609375,0.265625 -0.609375,0.609375 0,0.328125 0.265625,0.59375 0.609375,0.59375 0.328125,0 0.59375,-0.265625 0.59375,-0.59375 z m 0,0"
           id="path32147" />
      </g>
    </g>
    <g
       fill="#231f20"
       fill-opacity="1"
       id="g25676"
       transform="matrix(0.35277777,0,0,0.35277777,-2.637653,-12.128204)">
      <g
         id="use25674"
         transform="translate(414.27451,472.49899)">
        <path
           d="m 1.9375,-2.75 c 0,-0.34375 -0.265625,-0.609375 -0.59375,-0.609375 -0.34375,0 -0.609375,0.265625 -0.609375,0.609375 0,0.328125 0.265625,0.59375 0.609375,0.59375 0.328125,0 0.59375,-0.265625 0.59375,-0.59375 z m 0,0"
           id="path32151" />
      </g>
    </g>
  </g>
</svg>
