<?xml version="1.0" encoding="UTF-8" standalone="no"?>
<svg
   version="1.0"
   width="200.000000pt"
   height="200.000000pt"
   viewBox="0 0 200.000000 200.000000"
   preserveAspectRatio="xMidYMid meet"
   id="svg19"
   sodipodi:docname="QR_Code_GlacierICASSP2023.svg"
   inkscape:version="1.3-alpha (95f74fb, 2023-03-31)"
   xmlns:inkscape="http://www.inkscape.org/namespaces/inkscape"
   xmlns:sodipodi="http://sodipodi.sourceforge.net/DTD/sodipodi-0.dtd"
   xmlns="http://www.w3.org/2000/svg"
   xmlns:svg="http://www.w3.org/2000/svg">
  <defs
     id="defs19" />
  <sodipodi:namedview
     id="namedview19"
     pagecolor="#ffffff"
     bordercolor="#666666"
     borderopacity="1.0"
     inkscape:showpageshadow="2"
     inkscape:pageopacity="0.0"
     inkscape:pagecheckerboard="0"
     inkscape:deskcolor="#d1d1d1"
     inkscape:document-units="pt"
     inkscape:zoom="0.885"
     inkscape:cx="133.33333"
     inkscape:cy="133.33333"
     inkscape:window-width="684"
     inkscape:window-height="480"
     inkscape:window-x="0"
     inkscape:window-y="25"
     inkscape:window-maximized="0"
     inkscape:current-layer="svg19" />
  <metadata
     id="metadata1">
Created by potrace 1.11, written by Peter Selinger 2001-2013
</metadata>
  <path
     d="M 17.1432,37.1396 V 57.14 H 37.1436 57.144 V 37.1396 17.1392 H 37.1436 17.1432 Z m 34.2864,0 v 14.286 h -14.286 -14.286 v -14.286 -14.286 h 14.286 14.286 z"
     id="path1"
     style="fill:#000000;stroke:none;stroke-width:0.02381" />
  <path
     d="m 28.572,37.1396 v 8.5716 h 8.5716 8.5716 V 37.1396 28.568 H 37.1436 28.572 Z"
     id="path2"
     style="fill:#000000;stroke:none;stroke-width:0.02381" />
  <path
     d="m 74.2872,19.9964 v 2.8572 h -5.7144 -5.7144 v 5.7144 5.7144 h 2.8572 2.8572 v 2.8572 2.8572 H 65.7156 62.8584 V 51.4256 62.8544 H 57.144 51.4296 v 2.8572 2.8572 h 5.7144 5.7144 v 2.8572 2.8572 h 5.7144 5.7144 V 71.426 68.5688 h -5.7144 -5.7144 v -2.8572 -2.8572 h 2.8572 2.8572 v -8.5716 -8.5716 h 2.8572 2.8572 v 8.5716 8.5716 h 2.8572 2.8572 v 8.5716 8.5716 H 68.5728 57.144 v -2.8572 -2.8572 h -5.7144 -5.7144 v 2.8572 2.8572 H 42.858 40.0008 v 5.7144 5.7144 H 37.1436 34.2864 V 88.5692 85.712 H 31.4292 28.572 v 2.8572 2.8572 H 25.7148 22.8576 V 88.5692 85.712 h -2.8572 -2.8572 v 11.4288 11.4288 h 2.8572 2.8572 v -2.8572 -2.8572 h 2.8572 2.8572 v 2.8572 2.8572 h 5.7144 5.7144 v -2.8572 -2.8572 h 2.8572 2.8572 V 99.998 97.1408 h 2.8572 2.8572 v 2.8572 2.8572 h 5.7144 5.7144 v 2.8572 2.8572 H 57.144 51.4296 v 2.8572 2.8572 h -2.8572 -2.8572 v 2.8572 2.8572 h 2.8572 2.8572 v 2.8572 2.8572 h -2.8572 -2.8572 v 5.7144 5.7144 h 5.7144 5.7144 v -2.8572 -2.8572 h 2.8572 2.8572 v -2.8572 -2.8572 h 2.8572 2.8572 v 5.7144 5.7144 h -2.8572 -2.8572 v 5.7144 5.7144 h 2.8572 2.8572 v 2.8572 2.8572 h 2.8572 2.8572 v 5.7144 5.7144 H 71.43 68.5728 v -2.8572 -2.8572 h -2.8572 -2.8572 v 2.8572 2.8572 h 2.8572 2.8572 v 2.8572 2.8572 h -2.8572 -2.8572 v 5.7144 5.7144 h 8.5716 8.5716 v -2.8572 -2.8572 h -5.7144 -5.7144 v -2.8572 -2.8572 h 2.8572 2.8572 v -2.8572 -2.8572 h 2.8572 2.8572 v 2.8572 2.8572 h 5.7144 5.7144 v 2.8572 2.8572 h 2.8572 2.8572 v 2.8572 2.8572 h 5.7144 5.7144 v -2.8572 -2.8572 h 2.8572 2.8572 v 2.8572 2.8572 h 2.8572 2.8572 v -14.286 -14.286 h 2.8572 2.8572 v -2.8572 -2.8572 h -2.8572 -2.8572 v -2.8572 -2.8572 h -2.8572 -2.8572 v -2.8572 -2.8572 h -2.8572 -2.8572 v 5.7144 5.7144 h 5.7144 5.7144 v 2.8572 2.8572 h -5.7144 -5.7144 v 2.8572 2.8572 h 2.8572 2.8572 v 5.7144 5.7144 h -2.8572 -2.8572 v 2.8572 2.8572 h -2.8572 -2.8572 v -2.8572 -2.8572 h -5.7144 -5.7144 v -2.8572 -2.8572 H 85.716 80.0016 v -5.7144 -5.7144 h 5.7144 5.7144 v 2.8572 2.8572 h 2.8572 2.8572 v 2.8572 2.8572 h 2.8572 2.8572 v -5.7144 -5.7144 h -2.8572 -2.8572 v -2.8572 -2.8572 h -2.8572 -2.8572 v -2.8572 -2.8572 h 5.7144 5.7144 v -2.8572 -2.8572 h -2.8572 -2.8572 v -2.8572 -2.8572 h 5.7144 5.7144 v -2.8572 -2.8572 h -2.8572 -2.8572 v -2.8572 -2.8572 h -2.8572 -2.8572 v 5.7144 5.7144 h -2.8572 -2.8572 v -11.4288 -11.4288 h 2.8572 2.8572 v 2.8572 2.8572 h 5.7144 5.7144 v 2.8572 2.8572 h 2.8572 2.8572 v 5.7144 5.7144 h 2.8572 2.8572 v 2.8572 2.8572 h 2.8572 2.8572 v 2.8572 2.8572 h 2.8572 2.8572 v 11.4288 11.4288 h 2.8572 2.8572 v -2.8572 -2.8572 h 2.8572 2.8572 v 2.8572 2.8572 h 5.7144 5.7144 v 2.8572 2.8572 h 8.5716 8.5716 v 5.7144 5.7144 h 2.8572 2.8572 v -5.7144 -5.7144 h 2.8572 2.8572 v -2.8572 -2.8572 h -2.8572 -2.8572 v -5.7144 -5.7144 h -2.8572 -2.8572 v -2.8572 -2.8572 h 2.8572 2.8572 v -2.8572 -2.8572 h 2.8572 2.8572 v -2.8572 -2.8572 h -5.7144 -5.7144 v -2.8572 -2.8572 h 5.7144 5.7144 v -8.5716 -8.5716 h -2.8572 -2.8572 v -5.7144 -5.7144 h 2.8572 2.8572 V 99.998 97.1408 h -14.286 -14.286 v 2.8572 2.8572 h 2.8572 2.8572 v 2.8572 2.8572 h 2.8572 2.8572 v -2.8572 -2.8572 h 2.8572 2.8572 v 5.7144 5.7144 h 2.8572 2.8572 v 2.8572 2.8572 h -2.8572 -2.8572 v 5.7144 5.7144 h -2.8572 -2.8572 v 5.7144 5.7144 h 2.8572 2.8572 v 2.8572 2.8572 h -5.7144 -5.7144 v -8.5716 -8.5716 h -5.7144 -5.7144 v -2.8572 -2.8572 h 5.7144 5.7144 v -2.8572 -2.8572 h 2.8572 2.8572 v -2.8572 -2.8572 h -2.8572 -2.8572 v 2.8572 2.8572 h -2.8572 -2.8572 v -2.8572 -2.8572 h -5.7144 -5.7144 v -5.7144 -5.7144 h 2.8572 2.8572 V 99.998 97.1408 h -2.8572 -2.8572 v 2.8572 2.8572 h -5.7144 -5.7144 v 8.5716 8.5716 h 2.8572 2.8572 v 2.8572 2.8572 h -2.8572 -2.8572 v 5.7144 5.7144 h -2.8572 -2.8572 v -5.7144 -5.7144 h -2.8572 -2.8572 v -2.8572 -2.8572 h -2.8572 -2.8572 v -2.8572 -2.8572 h 2.8572 2.8572 v -5.7144 -5.7144 h 2.8572 2.8572 V 99.998 97.1408 h 5.7144 5.7144 v -2.8572 -2.8572 h 5.7144 5.7144 V 88.5692 85.712 h 2.8572 2.8572 v -2.8572 -2.8572 h 5.7144 5.7144 v 2.8572 2.8572 h -2.8572 -2.8572 v 2.8572 2.8572 h 2.8572 2.8572 V 88.5692 85.712 h 2.8572 2.8572 v 2.8572 2.8572 h 5.7144 5.7144 V 88.5692 85.712 h -2.8572 -2.8572 v -5.7144 -5.7144 h 2.8572 2.8572 V 71.426 68.5688 h -2.8572 -2.8572 v -2.8572 -2.8572 h -5.7144 -5.7144 v 2.8572 2.8572 h -2.8572 -2.8572 v -2.8572 -2.8572 h -8.5716 -8.5716 v 8.5716 8.5716 h -5.7144 -5.7144 v -2.8572 -2.8572 h 2.8572 2.8572 V 71.426 68.5688 h -2.8572 -2.8572 v 2.8572 2.8572 h -2.8572 -2.8572 v 2.8572 2.8572 h -2.8572 -2.8572 v -2.8572 -2.8572 h -2.8572 -2.8572 v -5.7144 -5.7144 h 2.8572 2.8572 V 59.9972 57.14 h 2.8572 2.8572 v -2.8572 -2.8572 h 2.8572 2.8572 v 5.7144 5.7144 h 2.8572 2.8572 V 57.14 51.4256 h -2.8572 -2.8572 v -2.8572 -2.8572 h -2.8572 -2.8572 V 42.854 39.9968 h 2.8572 2.8572 v -2.8572 -2.8572 h 2.8572 2.8572 V 28.568 22.8536 h -2.8572 -2.8572 v -2.8572 -2.8572 h -5.7144 -5.7144 v 2.8572 2.8572 h -2.8572 -2.8572 V 19.9964 17.1392 H 102.8592 91.4304 v 5.7144 5.7144 h 2.8572 2.8572 v 2.8572 2.8572 h 2.8572 2.8572 v 5.7144 5.7144 H 100.002 97.1448 V 42.854 39.9968 H 94.2876 91.4304 V 37.1396 34.2824 H 88.5732 85.716 V 45.7112 57.14 H 82.8588 80.0016 V 48.5684 39.9968 H 77.1444 74.2872 V 37.1396 34.2824 H 71.43 68.5728 V 31.4252 28.568 h 5.7144 5.7144 v -5.7144 -5.7144 h -2.8572 -2.8572 z m 57.144,8.5716 v 5.7144 h -2.8572 -2.8572 v 2.8572 2.8572 h -5.7144 -5.7144 v -2.8572 -2.8572 h -5.7144 -5.7144 V 31.4252 28.568 h 5.7144 5.7144 v 2.8572 2.8572 h 2.8572 2.8572 V 31.4252 28.568 h 2.8572 2.8572 v -2.8572 -2.8572 h 2.8572 2.8572 z M 114.288,48.5684 v 2.8572 h 2.8572 2.8572 v 2.8572 2.8572 h -2.8572 -2.8572 v 2.8572 2.8572 h -5.7144 -5.7144 v 2.8572 2.8572 h 2.8572 2.8572 v 5.7144 5.7144 h -2.8572 -2.8572 V 74.2832 68.5688 H 100.002 97.1448 V 65.7116 62.8544 H 91.4304 85.716 V 59.9972 57.14 h 2.8572 2.8572 v -2.8572 -2.8572 h 2.8572 2.8572 v 5.7144 5.7144 h 2.8572 2.8572 V 57.14 51.4256 h 2.8572 2.8572 v -2.8572 -2.8572 h 2.8572 2.8572 z m 45.7152,22.8576 v 2.8572 h -5.7144 -5.7144 V 71.426 68.5688 h 5.7144 5.7144 z m 17.1432,0 v 2.8572 h -5.7144 -5.7144 V 71.426 68.5688 h 5.7144 5.7144 z M 57.144,82.8548 v 2.8572 h -2.8572 -2.8572 v 2.8572 2.8572 h 5.7144 5.7144 V 88.5692 85.712 h 5.7144 5.7144 v 2.8572 2.8572 h 2.8572 2.8572 v 8.5716 8.5716 h 2.8572 2.8572 V 97.1408 85.712 h 2.8572 2.8572 v 2.8572 2.8572 h 2.8572 2.8572 v 2.8572 2.8572 h 2.8572 2.8572 V 91.4264 85.712 h 2.8572 2.8572 v 2.8572 2.8572 h 2.8572 2.8572 v 2.8572 2.8572 h 2.8572 2.8572 v 2.8572 2.8572 h -8.5716 -8.5716 v 2.8572 2.8572 h -2.8572 -2.8572 v -2.8572 -2.8572 h -2.8572 -2.8572 v 2.8572 2.8572 H 88.5732 85.716 v 5.7144 5.7144 h -2.8572 -2.8572 v 2.8572 2.8572 h 2.8572 2.8572 v 5.7144 5.7144 h 2.8572 2.8572 v 2.8572 2.8572 H 88.5732 85.716 v 2.8572 2.8572 h -2.8572 -2.8572 v 2.8572 2.8572 h -2.8572 -2.8572 v -5.7144 -5.7144 h 5.7144 5.7144 v -2.8572 -2.8572 h -5.7144 -5.7144 v -2.8572 -2.8572 h 2.8572 2.8572 v -2.8572 -2.8572 h -2.8572 -2.8572 v -2.8572 -2.8572 H 71.43 68.5728 v -2.8572 -2.8572 h -2.8572 -2.8572 v -2.8572 -2.8572 h 2.8572 2.8572 v 2.8572 2.8572 h 2.8572 2.8572 v -5.7144 -5.7144 H 68.5728 62.8584 V 99.998 97.1408 H 57.144 51.4296 v -2.8572 -2.8572 h -2.8572 -2.8572 v 2.8572 2.8572 H 42.858 40.0008 v 2.8572 2.8572 H 34.2864 28.572 V 99.998 97.1408 h 5.7144 5.7144 v -2.8572 -2.8572 h 2.8572 2.8572 V 88.5692 85.712 h 2.8572 2.8572 v -2.8572 -2.8572 h 2.8572 2.8572 z m 62.8584,0 v 2.8572 h 2.8572 2.8572 v 2.8572 2.8572 h -2.8572 -2.8572 V 88.5692 85.712 h -2.8572 -2.8572 v -2.8572 -2.8572 h 2.8572 2.8572 z m 28.572,0 v 2.8572 h -2.8572 -2.8572 v -2.8572 -2.8572 h 2.8572 2.8572 z m -34.2864,28.572 v 2.8572 h -2.8572 -2.8572 v -2.8572 -2.8572 h 2.8572 2.8572 z m -57.144,5.7144 v 2.8572 h -2.8572 -2.8572 v -2.8572 -2.8572 h 2.8572 2.8572 z m 91.4304,5.7144 v 2.8572 h -2.8572 -2.8572 v -2.8572 -2.8572 h 2.8572 2.8572 z M 57.144,128.57 v 2.8572 h -2.8572 -2.8572 v -2.8572 -2.8572 h 2.8572 2.8572 z m 97.1448,17.1432 v 8.5716 h -8.5716 -8.5716 v -8.5716 -8.5716 h 8.5716 8.5716 z m 17.1432,11.4288 v 2.8572 h -5.7144 -5.7144 v -2.8572 -2.8572 h 5.7144 5.7144 z m 5.7144,11.4288 v 2.8572 h -2.8572 -2.8572 v -2.8572 -2.8572 h 2.8572 2.8572 z"
     id="path3"
     style="fill:#000000;stroke:none;stroke-width:0.02381" />
  <path
     d="M 108.5736,54.2828 V 57.14 h 2.8572 2.8572 v -2.8572 -2.8572 h -2.8572 -2.8572 z"
     id="path4"
     style="fill:#000000;stroke:none;stroke-width:0.02381" />
  <path
     d="m 68.5728,94.2836 v 2.8572 H 71.43 74.2872 V 94.2836 91.4264 H 71.43 68.5728 Z"
     id="path5"
     style="fill:#000000;stroke:none;stroke-width:0.02381" />
  <path
     d="m 74.2872,117.1412 v 2.8572 h 2.8572 2.8572 v -2.8572 -2.8572 h -2.8572 -2.8572 z"
     id="path6"
     style="fill:#000000;stroke:none;stroke-width:0.02381" />
  <path
     d="m 142.86,145.7132 v 2.8572 h 2.8572 2.8572 v -2.8572 -2.8572 h -2.8572 -2.8572 z"
     id="path7"
     style="fill:#000000;stroke:none;stroke-width:0.02381" />
  <path
     d="M 142.86,37.1396 V 57.14 h 20.0004 20.0004 V 37.1396 17.1392 H 162.8604 142.86 Z m 34.2864,0 v 14.286 h -14.286 -14.286 v -14.286 -14.286 h 14.286 14.286 z"
     id="path8"
     style="fill:#000000;stroke:none;stroke-width:0.02381" />
  <path
     d="m 154.2888,37.1396 v 8.5716 h 8.5716 8.5716 V 37.1396 28.568 h -8.5716 -8.5716 z"
     id="path9"
     style="fill:#000000;stroke:none;stroke-width:0.02381" />
  <path
     d="m 17.1432,65.7116 v 2.8572 h 2.8572 2.8572 v 2.8572 2.8572 h 2.8572 2.8572 v 2.8572 2.8572 h 2.8572 2.8572 v -5.7144 -5.7144 h 2.8572 2.8572 v -2.8572 -2.8572 h -2.8572 -2.8572 v 2.8572 2.8572 H 31.4292 28.572 v -2.8572 -2.8572 h -5.7144 -5.7144 z"
     id="path10"
     style="fill:#000000;stroke:none;stroke-width:0.02381" />
  <path
     d="m 28.572,117.1412 v 2.8572 h 2.8572 2.8572 v -2.8572 -2.8572 H 31.4292 28.572 Z"
     id="path11"
     style="fill:#000000;stroke:none;stroke-width:0.02381" />
  <path
     d="m 17.1432,122.8556 v 2.8572 h 2.8572 2.8572 v -2.8572 -2.8572 h -2.8572 -2.8572 z"
     id="path12"
     style="fill:#000000;stroke:none;stroke-width:0.02381" />
  <path
     d="m 17.1432,134.2844 v 2.8572 h 2.8572 2.8572 v -2.8572 -2.8572 h -2.8572 -2.8572 z"
     id="path13"
     style="fill:#000000;stroke:none;stroke-width:0.02381" />
  <path
     d="m 28.572,134.2844 v 2.8572 h 5.7144 5.7144 v -2.8572 -2.8572 H 34.2864 28.572 Z"
     id="path14"
     style="fill:#000000;stroke:none;stroke-width:0.02381" />
  <path
     d="m 17.1432,162.8564 v 20.0004 H 37.1436 57.144 V 162.8564 142.856 H 37.1436 17.1432 Z m 34.2864,0 v 14.286 h -14.286 -14.286 v -14.286 -14.286 h 14.286 14.286 z"
     id="path15"
     style="fill:#000000;stroke:none;stroke-width:0.02381" />
  <path
     d="m 28.572,162.8564 v 8.5716 h 8.5716 8.5716 v -8.5716 -8.5716 H 37.1436 28.572 Z"
     id="path16"
     style="fill:#000000;stroke:none;stroke-width:0.02381" />
  <path
     d="m 131.4312,177.1424 v 5.7144 h 8.5716 8.5716 v -5.7144 -5.7144 h -2.8572 -2.8572 v 2.8572 2.8572 h -2.8572 -2.8572 v -2.8572 -2.8572 h -2.8572 -2.8572 z"
     id="path17"
     style="fill:#000000;stroke:none;stroke-width:0.02381" />
  <path
     d="m 160.0032,179.9996 v 2.8572 h 2.8572 2.8572 v -2.8572 -2.8572 h -2.8572 -2.8572 z"
     id="path18"
     style="fill:#000000;stroke:none;stroke-width:0.02381" />
</svg>
