<?xml version="1.0" encoding="UTF-8" standalone="no"?>
<!-- Created with Inkscape (http://www.inkscape.org/) -->

<svg
   width="47.586636mm"
   height="13.083315mm"
   viewBox="0 0 47.586636 13.083315"
   version="1.1"
   id="svg49225"
   xmlns="http://www.w3.org/2000/svg"
   xmlns:svg="http://www.w3.org/2000/svg">
  <defs
     id="defs49222" />
  <g
     id="layer1"
     transform="translate(-109.60499,-120.56428)">
    <g
       id="g49220"
       transform="matrix(0.35277777,0,0,0.35277777,45.263118,95.164386)">
      <path
         fill="none"
         stroke-width="0.61"
         stroke-linecap="butt"
         stroke-linejoin="miter"
         stroke="#231f20"
         stroke-opacity="1"
         stroke-miterlimit="10"
         d="M -0.00128125,3.125e-4 H 134.88934"
         transform="matrix(1,0,0,-1,182.388,72.305)"
         id="path44053" />
      <g
         fill="#231f20"
         fill-opacity="1"
         id="g44057">
        <g
           id="use44055"
           transform="translate(188.97501,80.978996)">
          <path
             d="m 0.3125,-6.421875 v 0.390625 l 0.546875,0.0625 0.15625,0.125 v 5.265625 L 0.859375,-0.4375 0.3125,-0.390625 V 0 H 2.59375 V -0.390625 L 2.046875,-0.4375 1.890625,-0.578125 V -2.84375 C 2.0625,-2.859375 2.21875,-2.875 2.359375,-2.875 c 0.875,0 1.25,0.25 1.5,1.03125 0.203125,0.625 0.25,1.234375 0.703125,1.640625 0.21875,0.1875 0.53125,0.28125 0.96875,0.28125 0.21875,0 0.453125,-0.03125 0.734375,-0.09375 V -0.375 H 6.1875 c -0.734375,0 -1.03125,-0.109375 -1.25,-0.671875 C 4.765625,-1.5 4.765625,-2.03125 4.5,-2.46875 4.296875,-2.78125 3.984375,-2.984375 3.515625,-3.109375 4.546875,-3.34375 5.0625,-3.875 5.0625,-4.6875 5.0625,-5.875 4.296875,-6.421875 2.75,-6.421875 Z M 1.890625,-5.96875 H 2.34375 c 1.1875,0 1.765625,0.359375 1.765625,1.34375 0,0.953125 -0.546875,1.328125 -1.703125,1.328125 -0.046875,0 -0.21875,0 -0.515625,-0.015625 z m 0,0"
             id="path49857" />
        </g>
      </g>
      <g
         fill="#231f20"
         fill-opacity="1"
         id="g44067">
        <g
           id="use44059"
           transform="translate(195.04826,80.978996)">
          <path
             d="m 0.421875,-0.015625 h 4.625 V -1.1875 H 4.578125 L 4.421875,-0.53125 4.28125,-0.4375 H 1.9375 v -1.796875 h 1.296875 l 0.109375,0.09375 0.078125,0.46875 h 0.4375 V -3.21875 h -0.4375 L 3.34375,-2.75 3.234375,-2.671875 H 1.9375 v -1.625 h 1.875 L 4,-4.203125 4.203125,-3.65625 H 4.71875 v -1.0625 H 0.421875 v 0.375 l 0.53125,0.015625 0.171875,0.125 v 3.6875 L 0.953125,-0.40625 0.421875,-0.375 Z m 0,0"
             id="path49853" />
        </g>
        <g
           id="use44061"
           transform="translate(200.47116,80.978996)">
          <path
             d="M 0.375,-0.015625 H 4.359375 V -1.34375 H 3.875 L 3.765625,-0.53125 3.65625,-0.4375 H 1.9375 V -4.203125 L 2.0625,-4.296875 2.5,-4.34375 v -0.375 H 0.375 v 0.375 l 0.578125,0.046875 0.15625,0.09375 v 3.671875 l -0.15625,0.125 L 0.375,-0.375 Z m 0,0"
             id="path49849" />
        </g>
        <g
           id="use44063"
           transform="translate(205.11937,80.978996)">
          <path
             d="m 2.234375,-4.765625 -1.6875,4.3125 L 0.140625,-0.375 V 0 h 1.40625 V -0.375 L 1.109375,-0.40625 1.046875,-0.5 1.515625,-1.71875 H 3.1875 L 3.703125,-0.5 3.65625,-0.40625 3.21875,-0.375 V 0 H 4.9375 V -0.375 L 4.5,-0.453125 2.796875,-4.765625 Z m 0.109375,0.71875 0.734375,1.90625 h -1.4375 z m 0,0"
             id="path49845" />
        </g>
        <g
           id="use44065"
           transform="translate(210.07362,80.978996)">
          <path
             d="m 0.28125,-4.71875 v 0.375 L 0.703125,-4.25 2,-2.328125 l -1.390625,1.84375 -0.46875,0.09375 v 0.375 H 1.65625 v -0.375 L 1.171875,-0.4375 1.125,-0.546875 l 1.09375,-1.46875 1,1.484375 L 3.171875,-0.4375 2.75,-0.390625 v 0.375 h 1.8125 v -0.375 L 4.125,-0.46875 2.703125,-2.578125 l 1.28125,-1.703125 0.46875,-0.0625 v -0.375 h -1.46875 v 0.375 l 0.421875,0.0625 0.0625,0.078125 -0.984375,1.3125 L 1.5625,-4.21875 1.609375,-4.296875 2,-4.34375 v -0.375 z m 0,0"
             id="path49841" />
        </g>
      </g>
      <g
         fill="#231f20"
         fill-opacity="1"
         id="g44071">
        <g
           id="use44069"
           transform="translate(214.75999,80.978996)">
          <path
             d="m 1.34375,-2.75 c 0,-2.625 0.765625,-3.921875 1.875,-4.109375 V -7.3125 c -1.59375,0.203125 -2.6875,1.671875 -2.6875,4.5625 0,2.890625 1.09375,4.359375 2.6875,4.546875 v -0.4375 c -1.109375,-0.1875 -1.875,-1.5 -1.875,-4.109375 z m 0,0"
             id="path49817" />
        </g>
      </g>
      <g
         fill="#231f20"
         fill-opacity="1"
         id="g44075">
        <g
           id="use44073"
           transform="translate(218.519,80.978996)">
          <path
             d="m 1.78125,-4.625 -1.5,0.328125 v 0.25 L 1.078125,-3.90625 0.53125,-1.390625 c -0.046875,0.21875 -0.078125,0.40625 -0.078125,0.5625 0,0.5625 0.34375,0.90625 0.921875,0.90625 0.515625,0 1.09375,-0.265625 1.734375,-0.796875 -0.015625,0.0625 -0.015625,0.125 -0.015625,0.1875 0,0.421875 0.1875,0.609375 0.578125,0.609375 0.296875,0 0.703125,-0.109375 1.21875,-0.296875 v -0.265625 c -0.21875,0.0625 -0.40625,0.109375 -0.53125,0.109375 -0.3125,0 -0.5,-0.171875 -0.5,-0.375 0,-0.203125 0.046875,-0.421875 0.09375,-0.65625 l 0.6875,-3.109375 h -0.78125 l -0.71875,3.4375 C 2.609375,-0.65625 2.125,-0.46875 1.78125,-0.46875 1.4375,-0.46875 1.234375,-0.65625 1.234375,-1 c 0,-0.140625 0.03125,-0.375 0.109375,-0.703125 l 0.59375,-2.78125 z m 0,0"
             id="path49777" />
        </g>
      </g>
      <g
         fill="#231f20"
         fill-opacity="1"
         id="g44079">
        <g
           id="use44077"
           transform="translate(223.808,80.978996)">
          <path
             d="M 7.109375,-2.59375 C 6.40625,-2.890625 5.828125,-3.46875 5.5625,-4.203125 5.546875,-4.234375 5.5,-4.265625 5.453125,-4.265625 H 5.375 c -0.078125,0 -0.109375,0.0625 -0.109375,0.109375 v 0.046875 c 0.21875,0.578125 0.59375,1.0625 1.078125,1.421875 H 0.75 c -0.125,0 -0.203125,0.09375 -0.203125,0.1875 0,0.109375 0.078125,0.203125 0.203125,0.203125 H 6.34375 C 5.859375,-1.9375 5.484375,-1.453125 5.265625,-0.875 v 0.046875 c 0,0.046875 0.015625,0.078125 0.0625,0.09375 C 5.34375,-0.71875 5.359375,-0.71875 5.375,-0.71875 h 0.078125 c 0.046875,0 0.09375,-0.03125 0.109375,-0.0625 0.265625,-0.734375 0.84375,-1.3125 1.546875,-1.609375 0.03125,-0.015625 0.046875,-0.03125 0.0625,-0.0625 L 7.1875,-2.5 c 0,0 -0.015625,-0.015625 -0.015625,-0.03125 -0.015625,-0.03125 -0.03125,-0.046875 -0.0625,-0.0625 z m 0,0"
             id="path49749" />
        </g>
      </g>
      <g
         fill="#231f20"
         fill-opacity="1"
         id="g44083">
        <g
           id="use44081"
           transform="translate(232.035,80.978996)">
          <path
             d="m 0.890625,-4.625 -0.96875,0.3125 v 0.234375 l 0.734375,0.0625 c 0.171875,0.109375 0.25,0.375 0.296875,0.8125 L 1.1875,-0.96875 c 0,0.125 0.015625,0.234375 0.015625,0.34375 0,0.234375 -0.03125,0.4375 -0.125,0.625 H 1.53125 c 1.78125,-2.015625 2.625,-3.421875 2.625,-4.078125 0,-0.34375 -0.1875,-0.546875 -0.515625,-0.546875 -0.15625,0 -0.328125,0.0625 -0.46875,0.1875 l 0.171875,1.171875 c -0.25,0.65625 -0.734375,1.421875 -1.453125,2.359375 l -0.25,-2.625 C 1.5625,-4.296875 1.453125,-4.625 0.90625,-4.625 c 0,0 0,0 -0.015625,0 z m 0,0"
             id="path49761" />
        </g>
      </g>
      <g
         fill="#231f20"
         fill-opacity="1"
         id="g44087">
        <g
           id="use44085"
           transform="translate(236.855,80.978996)">
          <path
             d="m 2.40625,-2.75 c 0,2.609375 -0.765625,3.921875 -1.875,4.109375 v 0.4375 C 2.125,1.609375 3.21875,0.140625 3.21875,-2.75 c 0,-2.890625 -1.09375,-4.359375 -2.6875,-4.5625 v 0.453125 c 1.109375,0.1875 1.875,1.484375 1.875,4.109375 z m 0,0"
             id="path49797" />
        </g>
      </g>
      <g
         fill="#231f20"
         fill-opacity="1"
         id="g44091">
        <g
           id="use44089"
           transform="translate(240.614,80.978996)">
          <path
             d="m 1.515625,-4.59375 c -0.328125,0 -0.59375,0.25 -0.59375,0.59375 0,0.34375 0.265625,0.609375 0.59375,0.609375 C 1.859375,-3.390625 2.125,-3.65625 2.125,-4 c 0,-0.34375 -0.265625,-0.59375 -0.609375,-0.59375 z m 0,3.46875 c -0.328125,0 -0.59375,0.265625 -0.59375,0.609375 0,0.34375 0.265625,0.609375 0.59375,0.609375 C 1.859375,0.09375 2.125,-0.1875 2.125,-0.515625 2.125,-0.859375 1.859375,-1.125 1.515625,-1.125 Z m 0,0"
             id="path49837" />
        </g>
      </g>
      <path
         fill="none"
         stroke-width="0.574"
         stroke-linecap="butt"
         stroke-linejoin="miter"
         stroke="#231f20"
         stroke-opacity="1"
         stroke-miterlimit="10"
         d="M 0.0015625,4.0625e-4 H 54.689063"
         transform="matrix(1,0,0,-1,188.975,83.059)"
         id="path44093" />
      <g
         fill="#231f20"
         fill-opacity="1"
         id="g44103">
        <g
           id="use44095"
           transform="translate(198.53999,92.933998)">
          <path
             d="m 4.546875,-7.03125 -1.46875,0.265625 V -6.5 l 0.84375,0.109375 -0.34375,1.90625 c -0.25,-0.109375 -0.5,-0.15625 -0.75,-0.15625 -0.796875,0 -1.640625,0.46875 -2.15625,1.28125 -0.3125,0.484375 -0.46875,1.078125 -0.46875,1.734375 0,1.09375 0.484375,1.71875 1.25,1.71875 0.5,0 1.03125,-0.296875 1.484375,-0.890625 0,0.0625 0,0.125 0,0.1875 0,0.46875 0.203125,0.671875 0.640625,0.671875 0.25,0 0.65625,-0.078125 1.171875,-0.265625 V -0.5 c -0.28125,0.0625 -0.5,0.109375 -0.625,0.109375 -0.28125,0 -0.421875,-0.140625 -0.421875,-0.40625 0,-0.125 0.03125,-0.296875 0.0625,-0.515625 l 1.03125,-5.71875 z M 3,-4.25 l 0.453125,0.546875 -0.4375,2.4375 c -0.421875,0.53125 -0.859375,0.8125 -1.21875,0.8125 -0.5,0 -0.828125,-0.421875 -0.828125,-1.1875 0,-1.59375 0.9375,-2.640625 1.796875,-2.640625 C 2.828125,-4.28125 2.90625,-4.25 3,-4.25 Z m 0,0"
             id="path49737" />
        </g>
        <g
           id="use44097"
           transform="translate(203.54208,92.933998)">
          <path
             d="m 1.921875,-6.734375 c -0.28125,0 -0.515625,0.234375 -0.515625,0.515625 0,0.296875 0.234375,0.515625 0.515625,0.515625 0.28125,0 0.515625,-0.21875 0.515625,-0.515625 0,-0.28125 -0.234375,-0.515625 -0.515625,-0.515625 z m -0.1875,2.125 -1.421875,0.3125 v 0.25 l 0.78125,0.140625 -0.5625,2.84375 c -0.046875,0.21875 -0.0625,0.390625 -0.0625,0.5 0,0.421875 0.203125,0.625 0.609375,0.625 0.359375,0 0.828125,-0.109375 1.34375,-0.328125 V -0.5625 C 2.125,-0.46875 1.90625,-0.421875 1.71875,-0.421875 c -0.296875,0 -0.453125,-0.125 -0.453125,-0.375 0,-0.046875 0,-0.125 0.03125,-0.234375 l 0.6875,-3.578125 z m 0,0"
             id="path49729" />
        </g>
        <g
           id="use44099"
           transform="translate(206.287,92.933998)">
          <path
             d="M 2.546875,-3.53125 C 2.890625,-3.546875 3.09375,-3.75 3.09375,-4.015625 c 0,-0.328125 -0.34375,-0.59375 -0.890625,-0.59375 -0.90625,0 -1.640625,0.65625 -1.640625,1.4375 0,0.546875 0.359375,0.796875 0.90625,1.21875 0.40625,0.296875 0.65625,0.515625 0.65625,0.875 0,0.515625 -0.3125,0.8125 -0.859375,0.8125 -0.296875,0 -0.53125,-0.109375 -0.6875,-0.328125 L 0.75,-1.078125 C 0.59375,-1.1875 0.46875,-1.25 0.328125,-1.25 c -0.296875,0 -0.484375,0.203125 -0.484375,0.5 0,0.484375 0.46875,0.84375 1.265625,0.84375 1.046875,0 1.75,-0.640625 1.75,-1.484375 0,-0.5625 -0.390625,-0.8125 -0.96875,-1.265625 C 1.4375,-3 1.171875,-3.1875 1.171875,-3.53125 c 0,-0.375 0.296875,-0.640625 0.671875,-0.640625 0.109375,0 0.203125,0.015625 0.296875,0.09375 z m 0,0"
             id="path49721" />
        </g>
        <g
           id="use44101"
           transform="translate(209.82576,92.933998)">
          <path
             d="M 1.59375,-5.53125 1.125,-4.578125 0.421875,-4.28125 v 0.296875 L 1.015625,-4.03125 0.5,-1.4375 c -0.0625,0.265625 -0.078125,0.484375 -0.078125,0.640625 0,0.578125 0.25,0.859375 0.796875,0.859375 0.34375,0 0.84375,-0.140625 1.484375,-0.421875 V -0.65625 c -0.390625,0.125 -0.6875,0.1875 -0.921875,0.1875 -0.375,0 -0.578125,-0.203125 -0.578125,-0.59375 0,-0.109375 0.03125,-0.25 0.0625,-0.421875 l 0.5,-2.546875 H 3.21875 v -0.421875 h -1.375 l 0.1875,-1.078125 z m 0,0"
             id="path49713" />
        </g>
      </g>
      <g
         fill="#231f20"
         fill-opacity="1"
         id="g44107">
        <g
           id="use44105"
           transform="translate(213.00999,92.933998)">
          <path
             d="m 1.34375,-2.75 c 0,-2.625 0.765625,-3.921875 1.875,-4.109375 V -7.3125 c -1.59375,0.203125 -2.6875,1.671875 -2.6875,4.5625 0,2.890625 1.09375,4.359375 2.6875,4.546875 v -0.4375 c -1.109375,-0.1875 -1.875,-1.5 -1.875,-4.109375 z m 0,0"
             id="path49821" />
        </g>
      </g>
      <g
         fill="#231f20"
         fill-opacity="1"
         id="g44111">
        <g
           id="use44109"
           transform="translate(217.24699,92.933998)">
          <path
             d="m 0.890625,-4.625 -0.96875,0.3125 v 0.234375 l 0.734375,0.0625 c 0.171875,0.109375 0.25,0.375 0.296875,0.8125 L 1.1875,-0.96875 c 0,0.125 0.015625,0.234375 0.015625,0.34375 0,0.234375 -0.03125,0.4375 -0.125,0.625 H 1.53125 c 1.78125,-2.015625 2.625,-3.421875 2.625,-4.078125 0,-0.34375 -0.1875,-0.546875 -0.515625,-0.546875 -0.15625,0 -0.328125,0.0625 -0.46875,0.1875 l 0.171875,1.171875 c -0.25,0.65625 -0.734375,1.421875 -1.453125,2.359375 l -0.25,-2.625 C 1.5625,-4.296875 1.453125,-4.625 0.90625,-4.625 c 0,0 0,0 -0.015625,0 z m 0,0"
             id="path49765" />
        </g>
      </g>
      <g
         fill="#231f20"
         fill-opacity="1"
         id="g44115">
        <g
           id="use44113"
           transform="translate(222.067,92.933998)">
          <path
             d="m 2.40625,-2.75 c 0,2.609375 -0.765625,3.921875 -1.875,4.109375 v 0.4375 C 2.125,1.609375 3.21875,0.140625 3.21875,-2.75 c 0,-2.890625 -1.09375,-4.359375 -2.6875,-4.5625 v 0.453125 c 1.109375,0.1875 1.875,1.484375 1.875,4.109375 z m 0,0"
             id="path49801" />
        </g>
      </g>
      <g
         fill="#231f20"
         fill-opacity="1"
         id="g44119">
        <g
           id="use44117"
           transform="translate(228.05,92.933998)">
          <path
             d="M 9.109375,-3.046875 H 1.6875 L 2.84375,-4.25 2.4375,-4.65625 0.53125,-2.828125 V -2.6875 L 2.4375,-0.84375 2.84375,-1.265625 1.6875,-2.46875 h 7.421875 z m 0,0"
             id="path49693" />
        </g>
      </g>
      <g
         fill="#231f20"
         fill-opacity="1"
         id="g44129">
        <g
           id="use44121"
           transform="translate(239.952,92.933998)">
          <path
             d="m 4.546875,-7.03125 -1.46875,0.265625 V -6.5 l 0.84375,0.109375 -0.34375,1.90625 c -0.25,-0.109375 -0.5,-0.15625 -0.75,-0.15625 -0.796875,0 -1.640625,0.46875 -2.15625,1.28125 -0.3125,0.484375 -0.46875,1.078125 -0.46875,1.734375 0,1.09375 0.484375,1.71875 1.25,1.71875 0.5,0 1.03125,-0.296875 1.484375,-0.890625 0,0.0625 0,0.125 0,0.1875 0,0.46875 0.203125,0.671875 0.640625,0.671875 0.25,0 0.65625,-0.078125 1.171875,-0.265625 V -0.5 c -0.28125,0.0625 -0.5,0.109375 -0.625,0.109375 -0.28125,0 -0.421875,-0.140625 -0.421875,-0.40625 0,-0.125 0.03125,-0.296875 0.0625,-0.515625 l 1.03125,-5.71875 z M 3,-4.25 l 0.453125,0.546875 -0.4375,2.4375 c -0.421875,0.53125 -0.859375,0.8125 -1.21875,0.8125 -0.5,0 -0.828125,-0.421875 -0.828125,-1.1875 0,-1.59375 0.9375,-2.640625 1.796875,-2.640625 C 2.828125,-4.28125 2.90625,-4.25 3,-4.25 Z m 0,0"
             id="path49741" />
        </g>
        <g
           id="use44123"
           transform="translate(244.95407,92.933998)">
          <path
             d="m 1.921875,-6.734375 c -0.28125,0 -0.515625,0.234375 -0.515625,0.515625 0,0.296875 0.234375,0.515625 0.515625,0.515625 0.28125,0 0.515625,-0.21875 0.515625,-0.515625 0,-0.28125 -0.234375,-0.515625 -0.515625,-0.515625 z m -0.1875,2.125 -1.421875,0.3125 v 0.25 l 0.78125,0.140625 -0.5625,2.84375 c -0.046875,0.21875 -0.0625,0.390625 -0.0625,0.5 0,0.421875 0.203125,0.625 0.609375,0.625 0.359375,0 0.828125,-0.109375 1.34375,-0.328125 V -0.5625 C 2.125,-0.46875 1.90625,-0.421875 1.71875,-0.421875 c -0.296875,0 -0.453125,-0.125 -0.453125,-0.375 0,-0.046875 0,-0.125 0.03125,-0.234375 l 0.6875,-3.578125 z m 0,0"
             id="path49733" />
        </g>
        <g
           id="use44125"
           transform="translate(247.69901,92.933998)">
          <path
             d="M 2.546875,-3.53125 C 2.890625,-3.546875 3.09375,-3.75 3.09375,-4.015625 c 0,-0.328125 -0.34375,-0.59375 -0.890625,-0.59375 -0.90625,0 -1.640625,0.65625 -1.640625,1.4375 0,0.546875 0.359375,0.796875 0.90625,1.21875 0.40625,0.296875 0.65625,0.515625 0.65625,0.875 0,0.515625 -0.3125,0.8125 -0.859375,0.8125 -0.296875,0 -0.53125,-0.109375 -0.6875,-0.328125 L 0.75,-1.078125 C 0.59375,-1.1875 0.46875,-1.25 0.328125,-1.25 c -0.296875,0 -0.484375,0.203125 -0.484375,0.5 0,0.484375 0.46875,0.84375 1.265625,0.84375 1.046875,0 1.75,-0.640625 1.75,-1.484375 0,-0.5625 -0.390625,-0.8125 -0.96875,-1.265625 C 1.4375,-3 1.171875,-3.1875 1.171875,-3.53125 c 0,-0.375 0.296875,-0.640625 0.671875,-0.640625 0.109375,0 0.203125,0.015625 0.296875,0.09375 z m 0,0"
             id="path49725" />
        </g>
        <g
           id="use44127"
           transform="translate(251.23776,92.933998)">
          <path
             d="M 1.59375,-5.53125 1.125,-4.578125 0.421875,-4.28125 v 0.296875 L 1.015625,-4.03125 0.5,-1.4375 c -0.0625,0.265625 -0.078125,0.484375 -0.078125,0.640625 0,0.578125 0.25,0.859375 0.796875,0.859375 0.34375,0 0.84375,-0.140625 1.484375,-0.421875 V -0.65625 c -0.390625,0.125 -0.6875,0.1875 -0.921875,0.1875 -0.375,0 -0.578125,-0.203125 -0.578125,-0.59375 0,-0.109375 0.03125,-0.25 0.0625,-0.421875 l 0.5,-2.546875 H 3.21875 v -0.421875 h -1.375 l 0.1875,-1.078125 z m 0,0"
             id="path49717" />
        </g>
      </g>
      <g
         fill="#231f20"
         fill-opacity="1"
         id="g44133">
        <g
           id="use44131"
           transform="translate(254.423,92.933998)">
          <path
             d="m 1.34375,-2.75 c 0,-2.625 0.765625,-3.921875 1.875,-4.109375 V -7.3125 c -1.59375,0.203125 -2.6875,1.671875 -2.6875,4.5625 0,2.890625 1.09375,4.359375 2.6875,4.546875 v -0.4375 c -1.109375,-0.1875 -1.875,-1.5 -1.875,-4.109375 z m 0,0"
             id="path49825" />
        </g>
      </g>
      <g
         fill="#231f20"
         fill-opacity="1"
         id="g44137">
        <g
           id="use44135"
           transform="translate(258.18201,92.933998)">
          <path
             d="m 1.78125,-4.625 -1.5,0.328125 v 0.25 L 1.078125,-3.90625 0.53125,-1.390625 c -0.046875,0.21875 -0.078125,0.40625 -0.078125,0.5625 0,0.5625 0.34375,0.90625 0.921875,0.90625 0.515625,0 1.09375,-0.265625 1.734375,-0.796875 -0.015625,0.0625 -0.015625,0.125 -0.015625,0.1875 0,0.421875 0.1875,0.609375 0.578125,0.609375 0.296875,0 0.703125,-0.109375 1.21875,-0.296875 v -0.265625 c -0.21875,0.0625 -0.40625,0.109375 -0.53125,0.109375 -0.3125,0 -0.5,-0.171875 -0.5,-0.375 0,-0.203125 0.046875,-0.421875 0.09375,-0.65625 l 0.6875,-3.109375 h -0.78125 l -0.71875,3.4375 C 2.609375,-0.65625 2.125,-0.46875 1.78125,-0.46875 1.4375,-0.46875 1.234375,-0.65625 1.234375,-1 c 0,-0.140625 0.03125,-0.375 0.109375,-0.703125 l 0.59375,-2.78125 z m 0,0"
             id="path49781" />
        </g>
      </g>
      <g
         fill="#231f20"
         fill-opacity="1"
         id="g44141">
        <g
           id="use44139"
           transform="translate(263.47101,92.933998)">
          <path
             d="m 2.40625,-2.75 c 0,2.609375 -0.765625,3.921875 -1.875,4.109375 v 0.4375 C 2.125,1.609375 3.21875,0.140625 3.21875,-2.75 c 0,-2.890625 -1.09375,-4.359375 -2.6875,-4.5625 v 0.453125 c 1.109375,0.1875 1.875,1.484375 1.875,4.109375 z m 0,0"
             id="path49805" />
        </g>
      </g>
      <g
         fill="#231f20"
         fill-opacity="1"
         id="g44145">
        <g
           id="use44143"
           transform="translate(269.00388,92.933998)">
          <path
             d="M 3.1875,-2.46875 V 0.1875 h 0.578125 v -2.65625 h 2.65625 v -0.578125 h -2.65625 v -2.65625 H 3.1875 v 2.65625 H 0.53125 v 0.578125 z m 0,0"
             id="path49793" />
        </g>
      </g>
      <g
         fill="#231f20"
         fill-opacity="1"
         id="g44149">
        <g
           id="use44147"
           transform="translate(278.01801,92.933998)">
          <path
             d="M 1.09375,-4.640625 0,-4.3125 v 0.234375 L 0.703125,-4 0.96875,-0.203125 0.890625,0 h 0.625 C 2.484375,-1.671875 3.09375,-2.796875 3.34375,-3.34375 L 3.5625,0 H 4.125 c 1.578125,-2.078125 2.453125,-3.359375 2.453125,-4.078125 0,-0.34375 -0.1875,-0.546875 -0.5,-0.546875 -0.203125,0 -0.359375,0.0625 -0.484375,0.21875 l 0.1875,1.109375 C 5.5625,-2.625 5.03125,-1.78125 4.234375,-0.71875 c -0.125,-1.609375 -0.21875,-2.859375 -0.25,-3.75 l -0.578125,0.0625 c -0.515625,1.1875 -1.125,2.359375 -1.765625,3.5625 L 1.4375,-4.625 Z m 0,0"
             id="path49757" />
        </g>
      </g>
      <g
         fill="#231f20"
         fill-opacity="1"
         id="g44153">
        <g
           id="use44151"
           transform="translate(284.83701,92.933998)">
          <path
             d="m 1.34375,-2.75 c 0,-2.625 0.765625,-3.921875 1.875,-4.109375 V -7.3125 c -1.59375,0.203125 -2.6875,1.671875 -2.6875,4.5625 0,2.890625 1.09375,4.359375 2.6875,4.546875 v -0.4375 c -1.109375,-0.1875 -1.875,-1.5 -1.875,-4.109375 z m 0,0"
             id="path49829" />
        </g>
      </g>
      <g
         fill="#231f20"
         fill-opacity="1"
         id="g44157">
        <g
           id="use44155"
           transform="translate(288.59601,92.933998)">
          <path
             d="m 1.78125,-4.625 -1.5,0.328125 v 0.25 L 1.078125,-3.90625 0.53125,-1.390625 c -0.046875,0.21875 -0.078125,0.40625 -0.078125,0.5625 0,0.5625 0.34375,0.90625 0.921875,0.90625 0.515625,0 1.09375,-0.265625 1.734375,-0.796875 -0.015625,0.0625 -0.015625,0.125 -0.015625,0.1875 0,0.421875 0.1875,0.609375 0.578125,0.609375 0.296875,0 0.703125,-0.109375 1.21875,-0.296875 v -0.265625 c -0.21875,0.0625 -0.40625,0.109375 -0.53125,0.109375 -0.3125,0 -0.5,-0.171875 -0.5,-0.375 0,-0.203125 0.046875,-0.421875 0.09375,-0.65625 l 0.6875,-3.109375 h -0.78125 l -0.71875,3.4375 C 2.609375,-0.65625 2.125,-0.46875 1.78125,-0.46875 1.4375,-0.46875 1.234375,-0.65625 1.234375,-1 c 0,-0.140625 0.03125,-0.375 0.109375,-0.703125 l 0.59375,-2.78125 z m 0,0"
             id="path49785" />
        </g>
      </g>
      <g
         fill="#231f20"
         fill-opacity="1"
         id="g44161">
        <g
           id="use44159"
           transform="translate(293.88501,92.933998)">
          <path
             d="M 7.109375,-2.59375 C 6.40625,-2.890625 5.828125,-3.46875 5.5625,-4.203125 5.546875,-4.234375 5.5,-4.265625 5.453125,-4.265625 H 5.375 c -0.078125,0 -0.109375,0.0625 -0.109375,0.109375 v 0.046875 c 0.21875,0.578125 0.59375,1.0625 1.078125,1.421875 H 0.75 c -0.125,0 -0.203125,0.09375 -0.203125,0.1875 0,0.109375 0.078125,0.203125 0.203125,0.203125 H 6.34375 C 5.859375,-1.9375 5.484375,-1.453125 5.265625,-0.875 v 0.046875 c 0,0.046875 0.015625,0.078125 0.0625,0.09375 C 5.34375,-0.71875 5.359375,-0.71875 5.375,-0.71875 h 0.078125 c 0.046875,0 0.09375,-0.03125 0.109375,-0.0625 0.265625,-0.734375 0.84375,-1.3125 1.546875,-1.609375 0.03125,-0.015625 0.046875,-0.03125 0.0625,-0.0625 L 7.1875,-2.5 c 0,0 -0.015625,-0.015625 -0.015625,-0.03125 -0.015625,-0.03125 -0.03125,-0.046875 -0.0625,-0.0625 z m 0,0"
             id="path49753" />
        </g>
      </g>
      <g
         fill="#231f20"
         fill-opacity="1"
         id="g44165">
        <g
           id="use44163"
           transform="translate(302.112,92.933998)">
          <path
             d="m 0.890625,-4.625 -0.96875,0.3125 v 0.234375 l 0.734375,0.0625 c 0.171875,0.109375 0.25,0.375 0.296875,0.8125 L 1.1875,-0.96875 c 0,0.125 0.015625,0.234375 0.015625,0.34375 0,0.234375 -0.03125,0.4375 -0.125,0.625 H 1.53125 c 1.78125,-2.015625 2.625,-3.421875 2.625,-4.078125 0,-0.34375 -0.1875,-0.546875 -0.515625,-0.546875 -0.15625,0 -0.328125,0.0625 -0.46875,0.1875 l 0.171875,1.171875 c -0.25,0.65625 -0.734375,1.421875 -1.453125,2.359375 l -0.25,-2.625 C 1.5625,-4.296875 1.453125,-4.625 0.90625,-4.625 c 0,0 0,0 -0.015625,0 z m 0,0"
             id="path49769" />
        </g>
      </g>
      <g
         fill="#231f20"
         fill-opacity="1"
         id="g44169">
        <g
           id="use44167"
           transform="translate(306.93201,92.933998)">
          <path
             d="m 2.40625,-2.75 c 0,2.609375 -0.765625,3.921875 -1.875,4.109375 v 0.4375 C 2.125,1.609375 3.21875,0.140625 3.21875,-2.75 c 0,-2.890625 -1.09375,-4.359375 -2.6875,-4.5625 v 0.453125 c 1.109375,0.1875 1.875,1.484375 1.875,4.109375 z m 0,0"
             id="path49809" />
        </g>
      </g>
      <g
         fill="#231f20"
         fill-opacity="1"
         id="g44179">
        <g
           id="use44171"
           transform="translate(198.53999,104.889)">
          <path
             d="m 1.609375,-4.609375 -1.34375,0.28125 v 0.25 L 1,-3.984375 0,1.578125 -0.09375,1.6875 -0.65625,1.796875 v 0.28125 h 2.296875 v -0.28125 l -0.90625,-0.15625 0.3125,-1.78125 C 1.28125,-0.03125 1.53125,0.03125 1.78125,0.03125 c 0.640625,0 1.328125,-0.3125 1.8125,-0.84375 0.546875,-0.609375 0.8125,-1.296875 0.8125,-2.125 0,-1.09375 -0.453125,-1.671875 -1.21875,-1.671875 -0.40625,0 -0.890625,0.1875 -1.4375,0.578125 l 0.109375,-0.578125 z m -0.46875,3.96875 0.546875,-2.96875 c 0.421875,-0.328125 0.78125,-0.5 1.0625,-0.5 0.515625,0 0.859375,0.421875 0.859375,1.1875 0,0.765625 -0.265625,1.53125 -0.578125,1.953125 C 2.734375,-0.578125 2.375,-0.375 1.953125,-0.375 c -0.265625,0 -0.53125,-0.09375 -0.8125,-0.265625 z m 0,0"
             id="path49709" />
        </g>
        <g
           id="use44173"
           transform="translate(203.47513,104.889)">
          <path
             d="m 1.6875,-4.609375 -1.40625,0.3125 v 0.25 L 1.0625,-3.90625 0.265625,0 h 0.8125 L 1.46875,-2.25 C 1.609375,-3.125 1.921875,-3.640625 2.859375,-4 l 0.25,0.515625 h 0.0625 c 0.390625,0 0.640625,-0.265625 0.640625,-0.625 0,-0.296875 -0.203125,-0.5 -0.53125,-0.5 -0.484375,0 -1.09375,0.4375 -1.703125,1.3125 l 0.3125,-1.3125 z m 0,0"
             id="path49705" />
        </g>
        <g
           id="use44175"
           transform="translate(207.28168,104.889)">
          <path
             d="m 1.046875,-2.453125 c 0.28125,-1.15625 0.828125,-1.75 1.375,-1.75 0.28125,0 0.5,0.21875 0.5,0.515625 0,0.59375 -0.671875,1.171875 -1.875,1.234375 z M 1,-2.125 c 1.703125,-0.109375 2.609375,-0.71875 2.609375,-1.53125 0,-0.578125 -0.375,-0.953125 -0.984375,-0.953125 -0.46875,0 -1.078125,0.28125 -1.578125,0.78125 -0.53125,0.5625 -0.84375,1.375 -0.84375,2.171875 0,1.109375 0.546875,1.75 1.4375,1.75 0.640625,0 1.265625,-0.296875 1.859375,-0.875 v -0.4375 c -0.5625,0.515625 -1.09375,0.78125 -1.53125,0.78125 -0.609375,0 -1,-0.46875 -1,-1.25 0,-0.15625 0.015625,-0.296875 0.03125,-0.4375 z m 0,0"
             id="path49701" />
        </g>
        <g
           id="use44177"
           transform="translate(211.3369,104.889)">
          <path
             d="m 4.546875,-7.03125 -1.46875,0.265625 V -6.5 l 0.84375,0.109375 -0.34375,1.90625 c -0.25,-0.109375 -0.5,-0.15625 -0.75,-0.15625 -0.796875,0 -1.640625,0.46875 -2.15625,1.28125 -0.3125,0.484375 -0.46875,1.078125 -0.46875,1.734375 0,1.09375 0.484375,1.71875 1.25,1.71875 0.5,0 1.03125,-0.296875 1.484375,-0.890625 0,0.0625 0,0.125 0,0.1875 0,0.46875 0.203125,0.671875 0.640625,0.671875 0.25,0 0.65625,-0.078125 1.171875,-0.265625 V -0.5 c -0.28125,0.0625 -0.5,0.109375 -0.625,0.109375 -0.28125,0 -0.421875,-0.140625 -0.421875,-0.40625 0,-0.125 0.03125,-0.296875 0.0625,-0.515625 l 1.03125,-5.71875 z M 3,-4.25 l 0.453125,0.546875 -0.4375,2.4375 c -0.421875,0.53125 -0.859375,0.8125 -1.21875,0.8125 -0.5,0 -0.828125,-0.421875 -0.828125,-1.1875 0,-1.59375 0.9375,-2.640625 1.796875,-2.640625 C 2.828125,-4.28125 2.90625,-4.25 3,-4.25 Z m 0,0"
             id="path49745" />
        </g>
      </g>
      <g
         fill="#231f20"
         fill-opacity="1"
         id="g44183">
        <g
           id="use44181"
           transform="translate(216.339,104.889)">
          <path
             d="m 1.34375,-2.75 c 0,-2.625 0.765625,-3.921875 1.875,-4.109375 V -7.3125 c -1.59375,0.203125 -2.6875,1.671875 -2.6875,4.5625 0,2.890625 1.09375,4.359375 2.6875,4.546875 v -0.4375 c -1.109375,-0.1875 -1.875,-1.5 -1.875,-4.109375 z m 0,0"
             id="path49833" />
        </g>
      </g>
      <g
         fill="#231f20"
         fill-opacity="1"
         id="g44187">
        <g
           id="use44185"
           transform="translate(220.575,104.889)">
          <path
             d="m 0.890625,-4.625 -0.96875,0.3125 v 0.234375 l 0.734375,0.0625 c 0.171875,0.109375 0.25,0.375 0.296875,0.8125 L 1.1875,-0.96875 c 0,0.125 0.015625,0.234375 0.015625,0.34375 0,0.234375 -0.03125,0.4375 -0.125,0.625 H 1.53125 c 1.78125,-2.015625 2.625,-3.421875 2.625,-4.078125 0,-0.34375 -0.1875,-0.546875 -0.515625,-0.546875 -0.15625,0 -0.328125,0.0625 -0.46875,0.1875 l 0.171875,1.171875 c -0.25,0.65625 -0.734375,1.421875 -1.453125,2.359375 l -0.25,-2.625 C 1.5625,-4.296875 1.453125,-4.625 0.90625,-4.625 c 0,0 0,0 -0.015625,0 z m 0,0"
             id="path49773" />
        </g>
      </g>
      <g
         fill="#231f20"
         fill-opacity="1"
         id="g44191">
        <g
           id="use44189"
           transform="translate(225.396,104.889)">
          <path
             d="m 2.40625,-2.75 c 0,2.609375 -0.765625,3.921875 -1.875,4.109375 v 0.4375 C 2.125,1.609375 3.21875,0.140625 3.21875,-2.75 c 0,-2.890625 -1.09375,-4.359375 -2.6875,-4.5625 v 0.453125 c 1.109375,0.1875 1.875,1.484375 1.875,4.109375 z m 0,0"
             id="path49813" />
        </g>
      </g>
      <g
         fill="#231f20"
         fill-opacity="1"
         id="g44195">
        <g
           id="use44193"
           transform="translate(231.37801,104.889)">
          <path
             d="M 9.109375,-3.046875 H 1.6875 L 2.84375,-4.25 2.4375,-4.65625 0.53125,-2.828125 V -2.6875 L 2.4375,-0.84375 2.84375,-1.265625 1.6875,-2.46875 h 7.421875 z m 0,0"
             id="path49697" />
        </g>
      </g>
      <g
         fill="#231f20"
         fill-opacity="1"
         id="g44199">
        <g
           id="use44197"
           transform="translate(243.28101,104.889)">
          <path
             d="m 1.78125,-4.625 -1.5,0.328125 v 0.25 L 1.078125,-3.90625 0.53125,-1.390625 c -0.046875,0.21875 -0.078125,0.40625 -0.078125,0.5625 0,0.5625 0.34375,0.90625 0.921875,0.90625 0.515625,0 1.09375,-0.265625 1.734375,-0.796875 -0.015625,0.0625 -0.015625,0.125 -0.015625,0.1875 0,0.421875 0.1875,0.609375 0.578125,0.609375 0.296875,0 0.703125,-0.109375 1.21875,-0.296875 v -0.265625 c -0.21875,0.0625 -0.40625,0.109375 -0.53125,0.109375 -0.3125,0 -0.5,-0.171875 -0.5,-0.375 0,-0.203125 0.046875,-0.421875 0.09375,-0.65625 l 0.6875,-3.109375 h -0.78125 l -0.71875,3.4375 C 2.609375,-0.65625 2.125,-0.46875 1.78125,-0.46875 1.4375,-0.46875 1.234375,-0.65625 1.234375,-1 c 0,-0.140625 0.03125,-0.375 0.109375,-0.703125 l 0.59375,-2.78125 z m 0,0"
             id="path49789" />
        </g>
      </g>
      <path
         fill="none"
         stroke-width="0.61"
         stroke-linecap="butt"
         stroke-linejoin="miter"
         stroke="#231f20"
         stroke-opacity="1"
         stroke-miterlimit="10"
         d="M -0.00128125,-0.00125 H 134.88934"
         transform="matrix(1,0,0,-1,182.388,108.78)"
         id="path44201" />
      <path
         fill="none"
         stroke-width="0.61"
         stroke-linecap="butt"
         stroke-linejoin="miter"
         stroke="#231f20"
         stroke-opacity="1"
         stroke-miterlimit="10"
         d="M -0.00159375,-9.375e-4 V 37.085"
         transform="matrix(1,0,0,-1,182.693,109.085)"
         id="path44203" />
      <path
         fill="none"
         stroke-width="0.61"
         stroke-linecap="butt"
         stroke-linejoin="miter"
         stroke="#231f20"
         stroke-opacity="1"
         stroke-miterlimit="10"
         d="M -3.4375e-4,-9.375e-4 V 37.085"
         transform="matrix(1,0,0,-1,316.973,109.085)"
         id="path44205" />
    </g>
  </g>
</svg>
