<?xml version="1.0" encoding="UTF-8" standalone="no"?>
<!-- Created with Inkscape (http://www.inkscape.org/) -->

<svg
   width="114.21605mm"
   height="10.205984mm"
   viewBox="0 0 114.21605 10.205984"
   version="1.1"
   id="svg28735"
   inkscape:version="1.2.2 (732a01da63, 2022-12-09)"
   sodipodi:docname="self_descriptive_merged_table.svg"
   xmlns:inkscape="http://www.inkscape.org/namespaces/inkscape"
   xmlns:sodipodi="http://sodipodi.sourceforge.net/DTD/sodipodi-0.dtd"
   xmlns="http://www.w3.org/2000/svg"
   xmlns:svg="http://www.w3.org/2000/svg">
  <sodipodi:namedview
     id="namedview28737"
     pagecolor="#ffffff"
     bordercolor="#666666"
     borderopacity="1.0"
     inkscape:showpageshadow="2"
     inkscape:pageopacity="0.0"
     inkscape:pagecheckerboard="0"
     inkscape:deskcolor="#d1d1d1"
     inkscape:document-units="mm"
     showgrid="false"
     inkscape:zoom="2.3790622"
     inkscape:cx="215.84135"
     inkscape:cy="19.125183"
     inkscape:window-width="1103"
     inkscape:window-height="480"
     inkscape:window-x="0"
     inkscape:window-y="25"
     inkscape:window-maximized="0"
     inkscape:current-layer="layer1" />
  <defs
     id="defs28732" />
  <g
     inkscape:label="Layer 1"
     inkscape:groupmode="layer"
     id="layer1"
     transform="translate(18.095311,-130.81226)">
    <path
       fill="none"
       stroke-width="0.215194"
       stroke-linecap="butt"
       stroke-linejoin="miter"
       stroke="#231f20"
       stroke-opacity="1"
       stroke-miterlimit="10"
       d="M -18.095201,130.91986 H 96.120735"
       id="path23670" />
    <g
       fill="#b6251c"
       fill-opacity="1"
       id="g23674"
       transform="matrix(0.35277777,0,0,0.35277777,-49.123108,82.492849)">
      <g
         id="use23672"
         transform="translate(93.231003,147.063)">
        <path
           d="m 0.15625,0 h 0.765625 l 0.65625,-1.984375 h 2.15625 L 4.484375,0 h 0.78125 L 2.65625,-6.921875 H 2.5625 Z M 3.5625,-2.578125 H 1.71875 l 0.875,-2.59375 z m 0,0"
           id="path29167" />
      </g>
    </g>
    <g
       fill="#b6251c"
       fill-opacity="1"
       id="g23678"
       transform="matrix(0.35277777,0,0,0.35277777,-49.123108,82.492849)">
      <g
         id="use23676"
         transform="translate(108.63465,147.063)">
        <path
           d="m 4.34375,-5.25 c 0,0.046875 0.015625,0.078125 0.046875,0.109375 L 5.109375,-5.5 C 5.03125,-5.71875 4.90625,-5.890625 4.765625,-6.0625 4.625,-6.21875 4.453125,-6.359375 4.28125,-6.484375 4.078125,-6.59375 3.875,-6.6875 3.671875,-6.75 c -0.21875,-0.0625 -0.4375,-0.09375 -0.65625,-0.09375 -0.28125,0 -0.578125,0.046875 -0.859375,0.171875 -0.296875,0.109375 -0.578125,0.296875 -0.84375,0.5625 -0.25,0.28125 -0.46875,0.640625 -0.625,1.078125 -0.15625,0.453125 -0.234375,1 -0.234375,1.671875 0,0.59375 0.0625,1.125 0.203125,1.5625 C 0.796875,-1.359375 0.984375,-1 1.25,-0.71875 c 0.234375,0.28125 0.515625,0.484375 0.828125,0.625 0.28125,0.140625 0.640625,0.203125 1.03125,0.203125 0.171875,0 0.34375,-0.015625 0.515625,-0.0625 0.171875,-0.0625 0.34375,-0.125 0.515625,-0.21875 C 4.3125,-0.265625 4.46875,-0.375 4.625,-0.53125 4.78125,-0.671875 4.90625,-0.8125 5.015625,-1 l -0.5625,-0.375 c -0.15625,0.25 -0.359375,0.453125 -0.609375,0.609375 -0.25,0.140625 -0.5,0.21875 -0.78125,0.21875 -0.265625,0 -0.515625,-0.0625 -0.734375,-0.203125 C 2.09375,-0.890625 1.890625,-1.09375 1.71875,-1.328125 1.5625,-1.59375 1.421875,-1.890625 1.328125,-2.25 1.234375,-2.59375 1.1875,-2.984375 1.1875,-3.40625 1.1875,-3.859375 1.234375,-4.25 1.328125,-4.609375 1.421875,-4.953125 1.5625,-5.25 1.71875,-5.5 1.890625,-5.734375 2.078125,-5.921875 2.296875,-6.046875 2.515625,-6.171875 2.75,-6.234375 3,-6.234375 c 0.265625,0 0.515625,0.0625 0.734375,0.21875 0.234375,0.125 0.4375,0.328125 0.578125,0.5625 C 4.328125,-5.40625 4.34375,-5.34375 4.34375,-5.25 Z m 0,0"
           id="path29163" />
      </g>
    </g>
    <g
       fill="#b6251c"
       fill-opacity="1"
       id="g23682"
       transform="matrix(0.35277777,0,0,0.35277777,-49.123108,82.492849)">
      <g
         id="use23680"
         transform="translate(126.94012,147.063)">
        <path
           d="M 0.640625,-6.8125 V 0 H 4.78125 V -0.671875 H 1.359375 v -2.53125 h 2.84375 v -0.6875 H 1.359375 V -6.125 H 4.8125 v -0.6875 z m 0,0"
           id="path29159" />
      </g>
    </g>
    <g
       fill="#b6251c"
       fill-opacity="1"
       id="g23686"
       transform="matrix(0.35277777,0,0,0.35277777,-49.123108,82.492849)">
      <g
         id="use23684"
         transform="translate(145.2565,147.063)">
        <path
           d="M 0.84375,-6.8125 V 0 H 1.609375 V -3.34375 H 4.15625 V -4 H 1.609375 v -2.140625 h 3.15625 V -6.8125 Z m 0,0"
           id="path29155" />
      </g>
    </g>
    <g
       fill="#b6251c"
       fill-opacity="1"
       id="g23690"
       transform="matrix(0.35277777,0,0,0.35277777,-49.123108,82.492849)">
      <g
         id="use23688"
         transform="translate(160.64923,147.063)">
        <path
           d="M 5,-5.71875 C 4.8125,-6.0625 4.53125,-6.34375 4.171875,-6.546875 3.8125,-6.765625 3.4375,-6.859375 3.015625,-6.859375 c -0.234375,0 -0.5,0.046875 -0.796875,0.140625 C 1.921875,-6.625 1.640625,-6.453125 1.359375,-6.1875 1.0625,-5.953125 0.84375,-5.578125 0.65625,-5.109375 0.484375,-4.625 0.390625,-4.03125 0.390625,-3.3125 c 0,0.515625 0.0625,0.984375 0.171875,1.40625 C 0.703125,-1.484375 0.875,-1.125 1.09375,-0.828125 1.328125,-0.53125 1.609375,-0.3125 1.921875,-0.125 2.25,0.015625 2.625,0.109375 3.015625,0.109375 c 0.6875,0 1.359375,-0.234375 2,-0.703125 v -2.671875 h -1.9375 V -2.59375 H 4.3125 v 1.609375 C 3.921875,-0.703125 3.484375,-0.5625 3.015625,-0.5625 c -0.265625,0 -0.5,-0.0625 -0.75,-0.203125 C 2.046875,-0.890625 1.84375,-1.0625 1.671875,-1.3125 1.515625,-1.5625 1.390625,-1.859375 1.28125,-2.21875 1.1875,-2.578125 1.140625,-3.015625 1.140625,-3.484375 1.140625,-4 1.203125,-4.4375 1.3125,-4.78125 1.421875,-5.125 1.578125,-5.40625 1.75,-5.609375 c 0.1875,-0.21875 0.390625,-0.375 0.609375,-0.453125 0.21875,-0.09375 0.4375,-0.125 0.65625,-0.125 0.296875,0 0.5625,0.0625 0.796875,0.203125 0.21875,0.15625 0.390625,0.359375 0.5,0.59375 0.0625,0.109375 0.109375,0.171875 0.140625,0.203125 z m 0,0"
           id="path29151" />
      </g>
    </g>
    <g
       fill="#b6251c"
       fill-opacity="1"
       id="g23694"
       transform="matrix(0.35277777,0,0,0.35277777,-49.123108,82.492849)">
      <g
         id="use23692"
         transform="translate(176.05289,147.063)">
        <path
           d="M 0.59375,-6.796875 V 0 H 1.390625 V -3.234375 H 4.03125 v 3.25 H 4.8125 v -6.5625 c 0.015625,-0.046875 0.015625,-0.078125 0.046875,-0.125 0.015625,-0.03125 0.03125,-0.0625 0.03125,-0.09375 0,0 0,-0.015625 -0.015625,-0.03125 H 4.046875 V -3.875 h -2.65625 v -2.65625 c 0,-0.0625 0.015625,-0.109375 0.03125,-0.140625 0.015625,-0.03125 0.03125,-0.0625 0.03125,-0.09375 0,0 0,-0.015625 -0.015625,-0.03125 z m 0,0"
           id="path29147" />
      </g>
    </g>
    <g
       fill="#b6251c"
       fill-opacity="1"
       id="g23698"
       transform="matrix(0.35277777,0,0,0.35277777,-49.123108,82.492849)">
      <g
         id="use23696"
         transform="translate(194.35835,147.063)">
        <path
           d="M 0.953125,-6.796875 V -6.15625 H 2.21875 V -0.625 H 0.890625 v 0.640625 h 3.5 V -0.625 h -1.40625 v -5.53125 h 1.34375 v -0.640625 z m 0,0"
           id="path29143" />
      </g>
    </g>
    <g
       fill="#b6251c"
       fill-opacity="1"
       id="g23702"
       transform="matrix(0.35277777,0,0,0.35277777,-49.123108,82.492849)">
      <g
         id="use23700"
         transform="translate(212.67473,147.063)">
        <path
           d="M 0.71875,-6.796875 V 0 h 4.0625 V -0.671875 H 1.515625 v -5.75 c 0,-0.0625 0.015625,-0.125 0.0625,-0.203125 0.015625,-0.0625 0.03125,-0.109375 0.03125,-0.171875 z m 0,0"
           id="path29139" />
      </g>
    </g>
    <g
       fill="#b6251c"
       fill-opacity="1"
       id="g23706"
       transform="matrix(0.35277777,0,0,0.35277777,-49.123108,82.492849)">
      <g
         id="use23704"
         transform="translate(230.98021,147.063)">
        <path
           d="M 0.546875,0 H 1.28125 V -5.34375 L 4.28125,0 H 4.875 v -6.515625 c 0,-0.046875 0.015625,-0.09375 0.03125,-0.140625 0.03125,-0.0625 0.046875,-0.109375 0.046875,-0.15625 h -0.8125 V -1.75 L 1.28125,-6.796875 H 0.546875 Z m 0,0"
           id="path29135" />
      </g>
    </g>
    <g
       fill="#b6251c"
       fill-opacity="1"
       id="g23710"
       transform="matrix(0.35277777,0,0,0.35277777,-49.123108,82.492849)">
      <g
         id="use23708"
         transform="translate(249.29659,147.063)">
        <path
           d="M 2.765625,0.109375 C 3.0625,0.109375 3.34375,0.046875 3.625,-0.0625 3.90625,-0.203125 4.15625,-0.390625 4.390625,-0.671875 4.609375,-0.9375 4.78125,-1.3125 4.921875,-1.75 c 0.15625,-0.453125 0.21875,-1 0.21875,-1.65625 0,-0.59375 -0.0625,-1.125 -0.171875,-1.5625 -0.125,-0.4375 -0.296875,-0.796875 -0.515625,-1.078125 -0.25,-0.265625 -0.5,-0.46875 -0.765625,-0.609375 C 3.40625,-6.8125 3.109375,-6.875 2.796875,-6.875 2.4375,-6.875 2.09375,-6.78125 1.78125,-6.625 1.484375,-6.453125 1.21875,-6.234375 1,-5.9375 c -0.21875,0.296875 -0.390625,0.671875 -0.5,1.09375 -0.125,0.421875 -0.1875,0.90625 -0.1875,1.4375 0,0.515625 0.0625,1 0.171875,1.421875 0.125,0.4375 0.296875,0.8125 0.5,1.109375 0.21875,0.3125 0.484375,0.5625 0.78125,0.71875 0.296875,0.171875 0.640625,0.265625 1,0.265625 z M 1.640625,-1.25 C 1.46875,-1.46875 1.328125,-1.765625 1.21875,-2.15625 1.125,-2.53125 1.0625,-2.984375 1.0625,-3.484375 c 0,-0.53125 0.0625,-0.96875 0.15625,-1.3125 0.109375,-0.34375 0.25,-0.609375 0.421875,-0.8125 0.15625,-0.1875 0.34375,-0.328125 0.53125,-0.421875 0.1875,-0.09375 0.390625,-0.125 0.625,-0.125 0.1875,0 0.375,0.046875 0.546875,0.140625 0.171875,0.09375 0.328125,0.234375 0.5,0.4375 0.140625,0.21875 0.28125,0.484375 0.375,0.828125 0.09375,0.34375 0.15625,0.796875 0.15625,1.328125 0,0.546875 -0.046875,1 -0.140625,1.359375 -0.09375,0.359375 -0.203125,0.640625 -0.375,0.859375 C 3.703125,-1 3.53125,-0.84375 3.34375,-0.765625 c -0.1875,0.078125 -0.375,0.125 -0.578125,0.125 -0.40625,0 -0.796875,-0.203125 -1.125,-0.609375 z m 0,0"
           id="path29131" />
      </g>
    </g>
    <g
       fill="#b6251c"
       fill-opacity="1"
       id="g23714"
       transform="matrix(0.35277777,0,0,0.35277777,-49.123108,82.492849)">
      <g
         id="use23712"
         transform="translate(264.68933,147.063)">
        <path
           d="M 0.609375,-6.796875 V 0 h 0.78125 v -3 h 1.3125 l 1.5,3 H 5.0625 L 3.484375,-3.03125 C 3.703125,-3.09375 3.890625,-3.171875 4.0625,-3.296875 4.234375,-3.40625 4.390625,-3.5625 4.5,-3.734375 4.625,-3.890625 4.71875,-4.078125 4.78125,-4.28125 4.84375,-4.453125 4.875,-4.65625 4.875,-4.859375 4.875,-5.4375 4.703125,-5.90625 4.34375,-6.265625 3.984375,-6.625 3.40625,-6.796875 2.625,-6.796875 Z m 0.78125,0.71875 h 1.3125 c 0.25,0 0.453125,0.03125 0.640625,0.09375 0.171875,0.078125 0.3125,0.15625 0.40625,0.265625 0.109375,0.109375 0.203125,0.25 0.25,0.390625 0.0625,0.140625 0.09375,0.296875 0.09375,0.46875 0,0.359375 -0.109375,0.65625 -0.328125,0.875 -0.21875,0.203125 -0.5625,0.3125 -1.0625,0.3125 h -1.3125 z m 0,0"
           id="path29127" />
      </g>
    </g>
    <g
       fill="#b6251c"
       fill-opacity="1"
       id="g23718"
       transform="matrix(0.35277777,0,0,0.35277777,-49.123108,82.492849)">
      <g
         id="use23716"
         transform="translate(283.00571,147.063)">
        <path
           d="M 4.75,-5.984375 C 4.515625,-6.265625 4.234375,-6.46875 3.90625,-6.609375 3.578125,-6.765625 3.234375,-6.84375 2.859375,-6.84375 c -0.296875,0 -0.5625,0.046875 -0.8125,0.140625 -0.265625,0.09375 -0.46875,0.21875 -0.671875,0.375 C 1.203125,-6.15625 1.046875,-5.96875 0.9375,-5.75 c -0.09375,0.21875 -0.15625,0.453125 -0.15625,0.703125 0,0.1875 0.03125,0.375 0.09375,0.546875 0.0625,0.15625 0.171875,0.328125 0.3125,0.46875 0.140625,0.140625 0.34375,0.28125 0.578125,0.4375 0.234375,0.125 0.53125,0.265625 0.890625,0.40625 0.328125,0.140625 0.578125,0.25 0.796875,0.359375 0.1875,0.078125 0.34375,0.1875 0.453125,0.28125 0.109375,0.109375 0.1875,0.203125 0.234375,0.328125 0.046875,0.109375 0.0625,0.21875 0.0625,0.359375 0,0.1875 -0.03125,0.34375 -0.109375,0.5 -0.0625,0.15625 -0.171875,0.296875 -0.28125,0.40625 -0.125,0.109375 -0.28125,0.203125 -0.453125,0.28125 -0.15625,0.0625 -0.34375,0.09375 -0.5625,0.09375 C 2.40625,-0.578125 2.0625,-0.65625 1.78125,-0.78125 1.5,-0.9375 1.265625,-1.109375 1.09375,-1.3125 1.078125,-1.359375 1.0625,-1.390625 1.0625,-1.4375 1.0625,-1.5 1.046875,-1.53125 1.015625,-1.546875 L 0.5625,-0.765625 c 0.53125,0.578125 1.25,0.875 2.125,0.875 0.40625,0 0.75,-0.0625 1.03125,-0.171875 C 4,-0.1875 4.234375,-0.328125 4.421875,-0.53125 4.609375,-0.703125 4.75,-0.921875 4.828125,-1.15625 4.921875,-1.390625 4.96875,-1.625 4.96875,-1.859375 4.96875,-2.0625 4.921875,-2.25 4.890625,-2.421875 4.828125,-2.59375 4.734375,-2.765625 4.609375,-2.90625 4.46875,-3.0625 4.296875,-3.203125 4.078125,-3.34375 3.859375,-3.484375 3.59375,-3.609375 3.25,-3.75 2.90625,-3.890625 2.625,-4.015625 2.40625,-4.125 2.1875,-4.25 2.015625,-4.359375 1.890625,-4.453125 1.78125,-4.5625 1.703125,-4.671875 1.65625,-4.796875 c -0.0625,-0.125 -0.078125,-0.25 -0.078125,-0.421875 0,-0.265625 0.09375,-0.5 0.3125,-0.6875 0.234375,-0.203125 0.515625,-0.296875 0.84375,-0.296875 0.359375,0 0.640625,0.0625 0.890625,0.1875 0.21875,0.109375 0.40625,0.28125 0.546875,0.484375 0.015625,0.03125 0.03125,0.0625 0.03125,0.09375 0,0.0625 0.03125,0.09375 0.0625,0.109375 z m 0,0"
           id="path29183" />
      </g>
    </g>
    <g
       fill="#b6251c"
       fill-opacity="1"
       id="g23722"
       transform="matrix(0.35277777,0,0,0.35277777,-49.123108,82.492849)">
      <g
         id="use23720"
         transform="translate(304.22391,147.063)">
        <path
           d="M 0.34375,-6.8125 V -6.125 H 2.265625 V 0 h 0.78125 v -6.125 h 2 v -0.6875 z m 0,0"
           id="path29179" />
      </g>
    </g>
    <g
       fill="#b6251c"
       fill-opacity="1"
       id="g23726"
       transform="matrix(0.35277777,0,0,0.35277777,-49.123108,82.492849)">
      <g
         id="use23724"
         transform="translate(322.54028,147.063)">
        <path
           d="m 0.546875,-6.796875 v 4.453125 c 0,0.484375 0.046875,0.859375 0.15625,1.140625 0.109375,0.28125 0.25,0.53125 0.453125,0.71875 0.1875,0.203125 0.421875,0.359375 0.6875,0.453125 0.265625,0.09375 0.5625,0.15625 0.890625,0.15625 0.34375,0 0.640625,-0.0625 0.90625,-0.15625 0.28125,-0.09375 0.5,-0.25 0.71875,-0.453125 C 4.5625,-0.703125 4.71875,-0.953125 4.796875,-1.25 4.90625,-1.5625 4.953125,-1.9375 4.953125,-2.375 V -6.796875 H 4.21875 v 4.4375 c 0,0.390625 -0.03125,0.6875 -0.125,0.890625 C 4.03125,-1.25 3.921875,-1.0625 3.796875,-0.9375 3.65625,-0.78125 3.5,-0.6875 3.3125,-0.625 3.140625,-0.578125 2.953125,-0.53125 2.75,-0.53125 2.546875,-0.53125 2.359375,-0.578125 2.1875,-0.640625 2,-0.703125 1.84375,-0.8125 1.71875,-0.9375 1.578125,-1.078125 1.484375,-1.25 1.40625,-1.46875 1.328125,-1.65625 1.296875,-1.953125 1.296875,-2.328125 v -4.125 C 1.3125,-6.515625 1.328125,-6.59375 1.375,-6.65625 c 0.015625,-0.046875 0.046875,-0.078125 0.046875,-0.109375 0,-0.015625 0,-0.03125 -0.015625,-0.03125 z m 0,0"
           id="path29203" />
      </g>
    </g>
    <g
       fill="#b6251c"
       fill-opacity="1"
       id="g23730"
       transform="matrix(0.35277777,0,0,0.35277777,-49.123108,82.492849)">
      <g
         id="use23728"
         transform="translate(337.93301,147.063)">
        <path
           d="m 0.265625,-6.8125 2.3125,6.859375 H 2.9375 l 2.28125,-6.84375 H 4.453125 L 2.8125,-1.578125 1.0625,-6.8125 Z m 0,0"
           id="path29199" />
      </g>
    </g>
    <g
       fill="#b6251c"
       fill-opacity="1"
       id="g23734"
       transform="matrix(0.35277777,0,0,0.35277777,-49.123108,82.492849)">
      <g
         id="use23732"
         transform="translate(353.33667,147.063)">
        <path
           d="m 0.1875,-6.796875 1.09375,6.84375 h 0.3125 L 2.78125,-4.4375 3.953125,0.046875 H 4.25 l 1.078125,-6.84375 H 4.671875 L 4.0625,-2.1875 2.953125,-6.296875 H 2.71875 L 1.625,-2.203125 0.890625,-6.796875 Z m 0,0"
           id="path29195" />
      </g>
    </g>
    <g
       fill="#b6251c"
       fill-opacity="1"
       id="g23738"
       transform="matrix(0.35277777,0,0,0.35277777,-49.123108,82.492849)">
      <g
         id="use23736"
         transform="translate(368.7294,147.063)">
        <path
           d="M 4.140625,-6.8125 2.71875,-4.21875 1.296875,-6.8125 h -0.8125 l 1.8125,3.34375 L 0.453125,0 H 1.28125 L 2.734375,-2.6875 4.25,0 h 0.859375 l -1.9375,-3.484375 1.71875,-3.328125 z m 0,0"
           id="path29191" />
      </g>
    </g>
    <g
       fill="#b6251c"
       fill-opacity="1"
       id="g23742"
       transform="matrix(0.35277777,0,0,0.35277777,-49.123108,82.492849)">
      <g
         id="use23740"
         transform="translate(384.13306,147.063)">
        <path
           d="M 0.3125,-6.796875 2.40625,-2.6875 V 0 H 3.234375 V -2.6875 L 5.15625,-6.796875 H 4.359375 L 2.84375,-3.5 1.171875,-6.796875 Z m 0,0"
           id="path29187" />
      </g>
    </g>
    <g
       fill="#b6251c"
       fill-opacity="1"
       id="g23746"
       transform="matrix(0.35277777,0,0,0.35277777,-49.123108,82.492849)">
      <g
         id="use23744"
         transform="translate(399.35126,147.063)">
        <path
           d="m 0.59375,-6.796875 v 6.8125 h 1.453125 c 0.53125,0 0.984375,-0.078125 1.34375,-0.234375 C 3.75,-0.375 4.0625,-0.59375 4.28125,-0.890625 c 0.234375,-0.28125 0.40625,-0.640625 0.546875,-1.0625 0.125,-0.40625 0.1875,-0.875 0.1875,-1.40625 0,-0.53125 -0.046875,-1 -0.15625,-1.421875 C 4.75,-5.21875 4.578125,-5.578125 4.359375,-5.875 4.125,-6.15625 3.84375,-6.390625 3.53125,-6.546875 3.203125,-6.71875 2.75,-6.796875 2.171875,-6.796875 Z M 1.3125,-6.15625 H 2.125 c 0.765625,0 1.3125,0.25 1.625,0.75 0.328125,0.515625 0.5,1.203125 0.5,2.09375 0,0.875 -0.171875,1.546875 -0.546875,2.03125 C 3.359375,-0.828125 2.78125,-0.59375 2,-0.59375 H 1.3125 Z m 0,0"
           id="path29175" />
      </g>
    </g>
    <g
       fill="#b6251c"
       fill-opacity="1"
       id="g23750"
       transform="matrix(0.35277777,0,0,0.35277777,-49.123108,82.492849)">
      <g
         id="use23748"
         transform="translate(401.16217,147.063)">
        <path
           d="m 0.671875,-6.796875 v 0.6875 H 3.96875 L 0.546875,-0.53125 V 0 h 4.5 v -0.734375 c -0.046875,0 -0.109375,0 -0.15625,0.03125 -0.0625,0.015625 -0.125,0.03125 -0.171875,0.03125 H 1.5 l 3.375,-5.59375 v -0.53125 z m 0,0"
           id="path29171" />
      </g>
    </g>
    <path
       fill="none"
       stroke-width="0.215194"
       stroke-linecap="butt"
       stroke-linejoin="miter"
       stroke="#231f20"
       stroke-opacity="1"
       stroke-miterlimit="10"
       d="M -18.095201,135.91525 H 96.120735"
       id="path23752" />
    <g
       fill="#231f20"
       fill-opacity="1"
       id="g23756"
       transform="matrix(0.35277777,0,0,0.35277777,-49.123108,82.492849)">
      <g
         id="use23754"
         transform="translate(93.046997,161.222)">
        <path
           d="m 3.3125,-3.703125 c 1.03125,-0.28125 1.5625,-0.875 1.5625,-1.6875 0,-1.0625 -0.796875,-1.765625 -2.0625,-1.765625 -1.3125,0 -2.203125,0.703125 -2.203125,1.40625 0,0.328125 0.234375,0.5625 0.5625,0.5625 0.171875,0 0.296875,-0.046875 0.4375,-0.140625 V -6.3125 c 0.296875,-0.203125 0.625,-0.296875 0.984375,-0.296875 0.8125,0 1.328125,0.53125 1.328125,1.359375 0,0.84375 -0.5625,1.34375 -1.625,1.34375 -0.0625,0 -0.140625,-0.015625 -0.21875,-0.015625 v 0.625 c 0.203125,-0.03125 0.390625,-0.046875 0.5625,-0.046875 1,0 1.546875,0.484375 1.546875,1.3125 0,0.9375 -0.6875,1.65625 -1.640625,1.65625 -0.3125,0 -0.609375,-0.078125 -0.890625,-0.25 L 1.328125,-1.515625 C 1.21875,-1.5625 1.109375,-1.5625 1.015625,-1.5625 c -0.328125,0 -0.59375,0.21875 -0.59375,0.53125 C 0.421875,-0.5 1.25,0.109375 2.5,0.109375 c 1.609375,0 2.65625,-0.953125 2.65625,-2.125 0,-0.953125 -0.671875,-1.59375 -1.84375,-1.6875 z m 0,0"
           id="path29283" />
      </g>
    </g>
    <g
       fill="#231f20"
       fill-opacity="1"
       id="g23760"
       transform="matrix(0.35277777,0,0,0.35277777,-49.123108,82.492849)">
      <g
         id="use23758"
         transform="translate(108.44202,161.222)">
        <path
           d="m 3.3125,-3.703125 c 1.03125,-0.28125 1.5625,-0.875 1.5625,-1.6875 0,-1.0625 -0.796875,-1.765625 -2.0625,-1.765625 -1.3125,0 -2.203125,0.703125 -2.203125,1.40625 0,0.328125 0.234375,0.5625 0.5625,0.5625 0.171875,0 0.296875,-0.046875 0.4375,-0.140625 V -6.3125 c 0.296875,-0.203125 0.625,-0.296875 0.984375,-0.296875 0.8125,0 1.328125,0.53125 1.328125,1.359375 0,0.84375 -0.5625,1.34375 -1.625,1.34375 -0.0625,0 -0.140625,-0.015625 -0.21875,-0.015625 v 0.625 c 0.203125,-0.03125 0.390625,-0.046875 0.5625,-0.046875 1,0 1.546875,0.484375 1.546875,1.3125 0,0.9375 -0.6875,1.65625 -1.640625,1.65625 -0.3125,0 -0.609375,-0.078125 -0.890625,-0.25 L 1.328125,-1.515625 C 1.21875,-1.5625 1.109375,-1.5625 1.015625,-1.5625 c -0.328125,0 -0.59375,0.21875 -0.59375,0.53125 C 0.421875,-0.5 1.25,0.109375 2.5,0.109375 c 1.609375,0 2.65625,-0.953125 2.65625,-2.125 0,-0.953125 -0.671875,-1.59375 -1.84375,-1.6875 z m 0,0"
           id="path29287" />
      </g>
    </g>
    <g
       fill="#231f20"
       fill-opacity="1"
       id="g23766"
       transform="matrix(0.35277777,0,0,0.35277777,-49.123108,82.492849)">
      <g
         id="use23762"
         transform="translate(123.8475,161.222)">
        <path
           d="m 1.46875,-0.828125 c 2.328125,-1.84375 3.59375,-3.03125 3.59375,-4.34375 0,-1.1875 -0.828125,-1.984375 -2.1875,-1.984375 -1.296875,0 -2.21875,0.75 -2.21875,1.484375 0,0.359375 0.21875,0.578125 0.59375,0.578125 0.15625,0 0.3125,-0.046875 0.46875,-0.15625 v -1.109375 c 0.3125,-0.1875 0.609375,-0.25 0.9375,-0.25 0.859375,0 1.390625,0.578125 1.390625,1.578125 0,1.375 -1.3125,2.515625 -3.609375,4.375 V 0 H 5.28125 V -1.71875 H 4.8125 L 4.625,-0.828125 Z m 0,0"
           id="path29259" />
      </g>
      <g
         id="use23764"
         transform="translate(129.67038,161.222)">
        <path
           d="m 4.640625,-7.46875 c -2.5625,0.15625 -4.125,1.890625 -4.125,4.5625 0,1.890625 1.03125,3.03125 2.453125,3.03125 1.421875,0 2.53125,-1.09375 2.53125,-2.5 0,-1.328125 -0.9375,-2.28125 -2.1875,-2.28125 -0.609375,0 -1.234375,0.21875 -1.78125,0.640625 0.328125,-1.875 1.40625,-2.859375 3.078125,-2.859375 0,0 0.015625,0 0.03125,0 z m -3.125,3.90625 c 0.4375,-0.3125 0.9375,-0.46875 1.515625,-0.46875 0.890625,0 1.515625,0.671875 1.515625,1.75 0,1.109375 -0.625,1.90625 -1.5,1.90625 C 2.0625,-0.375 1.5,-1.25 1.5,-2.921875 1.5,-3.125 1.5,-3.34375 1.515625,-3.5625 Z m 0,0"
           id="path29247" />
      </g>
    </g>
    <g
       fill="#231f20"
       fill-opacity="1"
       id="g23770"
       transform="matrix(0.35277777,0,0,0.35277777,-49.123108,82.492849)">
      <g
         id="use23768"
         transform="translate(145.0654,161.222)">
        <path
           d="m 1.0625,-7.03125 v 3.46875 c 0.21875,-0.046875 0.53125,-0.0625 0.921875,-0.0625 1.453125,0 2.171875,0.484375 2.171875,1.5625 0,0.96875 -0.671875,1.671875 -1.65625,1.671875 -0.234375,0 -0.46875,-0.03125 -0.703125,-0.125 L 1.375,-1.40625 C 1.28125,-1.4375 1.1875,-1.4375 1.125,-1.4375 c -0.34375,0 -0.609375,0.21875 -0.609375,0.546875 0,0.5 0.734375,0.984375 1.8125,0.984375 1.71875,0 2.796875,-1.015625 2.796875,-2.359375 0,-1.203125 -0.890625,-2.015625 -2.296875,-2.015625 -0.34375,0 -0.71875,0.046875 -1.125,0.171875 v -2.09375 H 4.8125 V -7.03125 Z m 0,0"
           id="path29235" />
      </g>
    </g>
    <g
       fill="#231f20"
       fill-opacity="1"
       id="g23774"
       transform="matrix(0.35277777,0,0,0.35277777,-49.123108,82.492849)">
      <g
         id="use23772"
         transform="translate(160.47089,161.222)">
        <path
           d="m 3.3125,-3.703125 c 1.03125,-0.28125 1.5625,-0.875 1.5625,-1.6875 0,-1.0625 -0.796875,-1.765625 -2.0625,-1.765625 -1.3125,0 -2.203125,0.703125 -2.203125,1.40625 0,0.328125 0.234375,0.5625 0.5625,0.5625 0.171875,0 0.296875,-0.046875 0.4375,-0.140625 V -6.3125 c 0.296875,-0.203125 0.625,-0.296875 0.984375,-0.296875 0.8125,0 1.328125,0.53125 1.328125,1.359375 0,0.84375 -0.5625,1.34375 -1.625,1.34375 -0.0625,0 -0.140625,-0.015625 -0.21875,-0.015625 v 0.625 c 0.203125,-0.03125 0.390625,-0.046875 0.5625,-0.046875 1,0 1.546875,0.484375 1.546875,1.3125 0,0.9375 -0.6875,1.65625 -1.640625,1.65625 -0.3125,0 -0.609375,-0.078125 -0.890625,-0.25 L 1.328125,-1.515625 C 1.21875,-1.5625 1.109375,-1.5625 1.015625,-1.5625 c -0.328125,0 -0.59375,0.21875 -0.59375,0.53125 C 0.421875,-0.5 1.25,0.109375 2.5,0.109375 c 1.609375,0 2.65625,-0.953125 2.65625,-2.125 0,-0.953125 -0.671875,-1.59375 -1.84375,-1.6875 z m 0,0"
           id="path29291" />
      </g>
    </g>
    <g
       fill="#231f20"
       fill-opacity="1"
       id="g23778"
       transform="matrix(0.35277777,0,0,0.35277777,-49.123108,82.492849)">
      <g
         id="use23776"
         transform="translate(175.86591,161.222)">
        <path
           d="M 3.359375,-3.859375 C 2.21875,-4.265625 1.671875,-4.75 1.671875,-5.4375 c 0,-0.6875 0.53125,-1.234375 1.265625,-1.234375 0.765625,0 1.265625,0.53125 1.265625,1.359375 0,0.5625 -0.296875,1.09375 -0.84375,1.453125 z m 0.4375,0.1875 C 4.578125,-4.078125 5,-4.71875 5,-5.40625 5,-6.421875 4.21875,-7.171875 2.96875,-7.171875 c -1.296875,0 -2.171875,0.78125 -2.171875,1.890625 0,0.765625 0.375,1.3125 1.09375,1.625 -0.953125,0.359375 -1.4375,0.96875 -1.4375,1.796875 0,1.1875 0.921875,2.03125 2.421875,2.03125 1.453125,0 2.421875,-0.9375 2.421875,-2.046875 0,-0.8125 -0.515625,-1.453125 -1.5,-1.796875 z m -1.5,0.234375 c 1.40625,0.515625 2.09375,0.84375 2.09375,1.671875 0,0.828125 -0.578125,1.390625 -1.484375,1.390625 -1,0 -1.640625,-0.625 -1.640625,-1.546875 0,-0.6875 0.3125,-1.140625 1.03125,-1.515625 z m 0,0"
           id="path29227" />
      </g>
    </g>
    <g
       fill="#231f20"
       fill-opacity="1"
       id="g23784"
       transform="matrix(0.35277777,0,0,0.35277777,-49.123108,82.492849)">
      <g
         id="use23780"
         transform="translate(191.26093,161.222)">
        <path
           d="m 3.25,-7.15625 -2.265625,0.6875 v 0.4375 L 2.625,-6.328125 V -0.6875 L 2.5,-0.515625 1.296875,-0.453125 V 0 H 4.8125 v -0.4375 l -1.140625,-0.046875 -0.125,-0.171875 v -6.5 z m 0,0"
           id="path29219" />
      </g>
      <g
         id="use23782"
         transform="translate(197.0838,161.222)">
        <path
           d="m 3.3125,-3.703125 c 1.03125,-0.28125 1.5625,-0.875 1.5625,-1.6875 0,-1.0625 -0.796875,-1.765625 -2.0625,-1.765625 -1.3125,0 -2.203125,0.703125 -2.203125,1.40625 0,0.328125 0.234375,0.5625 0.5625,0.5625 0.171875,0 0.296875,-0.046875 0.4375,-0.140625 V -6.3125 c 0.296875,-0.203125 0.625,-0.296875 0.984375,-0.296875 0.8125,0 1.328125,0.53125 1.328125,1.359375 0,0.84375 -0.5625,1.34375 -1.625,1.34375 -0.0625,0 -0.140625,-0.015625 -0.21875,-0.015625 v 0.625 c 0.203125,-0.03125 0.390625,-0.046875 0.5625,-0.046875 1,0 1.546875,0.484375 1.546875,1.3125 0,0.9375 -0.6875,1.65625 -1.640625,1.65625 -0.3125,0 -0.609375,-0.078125 -0.890625,-0.25 L 1.328125,-1.515625 C 1.21875,-1.5625 1.109375,-1.5625 1.015625,-1.5625 c -0.328125,0 -0.59375,0.21875 -0.59375,0.53125 C 0.421875,-0.5 1.25,0.109375 2.5,0.109375 c 1.609375,0 2.65625,-0.953125 2.65625,-2.125 0,-0.953125 -0.671875,-1.59375 -1.84375,-1.6875 z m 0,0"
           id="path29295" />
      </g>
    </g>
    <g
       fill="#231f20"
       fill-opacity="1"
       id="g23788"
       transform="matrix(0.35277777,0,0,0.35277777,-49.123108,82.492849)">
      <g
         id="use23786"
         transform="translate(212.48929,161.222)">
        <path
           d="m 1.46875,-0.828125 c 2.328125,-1.84375 3.59375,-3.03125 3.59375,-4.34375 0,-1.1875 -0.828125,-1.984375 -2.1875,-1.984375 -1.296875,0 -2.21875,0.75 -2.21875,1.484375 0,0.359375 0.21875,0.578125 0.59375,0.578125 0.15625,0 0.3125,-0.046875 0.46875,-0.15625 v -1.109375 c 0.3125,-0.1875 0.609375,-0.25 0.9375,-0.25 0.859375,0 1.390625,0.578125 1.390625,1.578125 0,1.375 -1.3125,2.515625 -3.609375,4.375 V 0 H 5.28125 V -1.71875 H 4.8125 L 4.625,-0.828125 Z m 0,0"
           id="path29263" />
      </g>
    </g>
    <g
       fill="#231f20"
       fill-opacity="1"
       id="g23794"
       transform="matrix(0.35277777,0,0,0.35277777,-49.123108,82.492849)">
      <g
         id="use23790"
         transform="translate(227.88429,161.222)">
        <path
           d="m 3.25,-7.15625 -2.265625,0.6875 v 0.4375 L 2.625,-6.328125 V -0.6875 L 2.5,-0.515625 1.296875,-0.453125 V 0 H 4.8125 v -0.4375 l -1.140625,-0.046875 -0.125,-0.171875 v -6.5 z m 0,0"
           id="path29223" />
      </g>
      <g
         id="use23792"
         transform="translate(233.70718,161.222)">
        <path
           d="m 4.640625,-7.46875 c -2.5625,0.15625 -4.125,1.890625 -4.125,4.5625 0,1.890625 1.03125,3.03125 2.453125,3.03125 1.421875,0 2.53125,-1.09375 2.53125,-2.5 0,-1.328125 -0.9375,-2.28125 -2.1875,-2.28125 -0.609375,0 -1.234375,0.21875 -1.78125,0.640625 0.328125,-1.875 1.40625,-2.859375 3.078125,-2.859375 0,0 0.015625,0 0.03125,0 z m -3.125,3.90625 c 0.4375,-0.3125 0.9375,-0.46875 1.515625,-0.46875 0.890625,0 1.515625,0.671875 1.515625,1.75 0,1.109375 -0.625,1.90625 -1.5,1.90625 C 2.0625,-0.375 1.5,-1.25 1.5,-2.921875 1.5,-3.125 1.5,-3.34375 1.515625,-3.5625 Z m 0,0"
           id="path29251" />
      </g>
    </g>
    <g
       fill="#231f20"
       fill-opacity="1"
       id="g23798"
       transform="matrix(0.35277777,0,0,0.35277777,-49.123108,82.492849)">
      <g
         id="use23796"
         transform="translate(249.11267,161.222)">
        <path
           d="m 4.296875,-3.34375 c -0.46875,0.25 -0.90625,0.375 -1.3125,0.375 -1,0 -1.546875,-0.640625 -1.546875,-1.8125 0,-1.140625 0.609375,-1.859375 1.46875,-1.859375 0.953125,0 1.515625,0.78125 1.515625,2.25 0,0.328125 -0.03125,0.6875 -0.125,1.046875 z M 1.3125,0.546875 c 2.59375,-0.984375 4.046875,-2.9375 4.046875,-5 C 5.359375,-6.140625 4.46875,-7.125 3,-7.125 c -1.5,0 -2.546875,1.015625 -2.546875,2.46875 0,1.359375 0.875,2.25 2.140625,2.25 0.46875,0 0.984375,-0.140625 1.578125,-0.40625 -0.46875,1.203125 -1.484375,2.125 -3.09375,2.875 z m 0,0"
           id="path29215" />
      </g>
    </g>
    <g
       fill="#231f20"
       fill-opacity="1"
       id="g23802"
       transform="matrix(0.35277777,0,0,0.35277777,-49.123108,82.492849)">
      <g
         id="use23800"
         transform="translate(264.50769,161.222)">
        <path
           d="m 4.640625,-7.46875 c -2.5625,0.15625 -4.125,1.890625 -4.125,4.5625 0,1.890625 1.03125,3.03125 2.453125,3.03125 1.421875,0 2.53125,-1.09375 2.53125,-2.5 0,-1.328125 -0.9375,-2.28125 -2.1875,-2.28125 -0.609375,0 -1.234375,0.21875 -1.78125,0.640625 0.328125,-1.875 1.40625,-2.859375 3.078125,-2.859375 0,0 0.015625,0 0.03125,0 z m -3.125,3.90625 c 0.4375,-0.3125 0.9375,-0.46875 1.515625,-0.46875 0.890625,0 1.515625,0.671875 1.515625,1.75 0,1.109375 -0.625,1.90625 -1.5,1.90625 C 2.0625,-0.375 1.5,-1.25 1.5,-2.921875 1.5,-3.125 1.5,-3.34375 1.515625,-3.5625 Z m 0,0"
           id="path29255" />
      </g>
    </g>
    <g
       fill="#231f20"
       fill-opacity="1"
       id="g23808"
       transform="matrix(0.35277777,0,0,0.35277777,-49.123108,82.492849)">
      <g
         id="use23804"
         transform="translate(279.90271,161.222)">
        <path
           d="m 1.46875,-0.828125 c 2.328125,-1.84375 3.59375,-3.03125 3.59375,-4.34375 0,-1.1875 -0.828125,-1.984375 -2.1875,-1.984375 -1.296875,0 -2.21875,0.75 -2.21875,1.484375 0,0.359375 0.21875,0.578125 0.59375,0.578125 0.15625,0 0.3125,-0.046875 0.46875,-0.15625 v -1.109375 c 0.3125,-0.1875 0.609375,-0.25 0.9375,-0.25 0.859375,0 1.390625,0.578125 1.390625,1.578125 0,1.375 -1.3125,2.515625 -3.609375,4.375 V 0 H 5.28125 V -1.71875 H 4.8125 L 4.625,-0.828125 Z m 0,0"
           id="path29267" />
      </g>
      <g
         id="use23806"
         transform="translate(285.72559,161.222)">
        <path
           d="m 0.75,-7.03125 v 1.75 H 1.234375 L 1.40625,-6.234375 H 4.625 l -3.40625,6.625 H 2.078125 V 0.15625 L 5.5625,-6.609375 V -7.03125 Z m 0,0"
           id="path29211" />
      </g>
    </g>
    <g
       fill="#231f20"
       fill-opacity="1"
       id="g23814"
       transform="matrix(0.35277777,0,0,0.35277777,-49.123108,82.492849)">
      <g
         id="use23810"
         transform="translate(301.13107,161.222)">
        <path
           d="m 1.46875,-0.828125 c 2.328125,-1.84375 3.59375,-3.03125 3.59375,-4.34375 0,-1.1875 -0.828125,-1.984375 -2.1875,-1.984375 -1.296875,0 -2.21875,0.75 -2.21875,1.484375 0,0.359375 0.21875,0.578125 0.59375,0.578125 0.15625,0 0.3125,-0.046875 0.46875,-0.15625 v -1.109375 c 0.3125,-0.1875 0.609375,-0.25 0.9375,-0.25 0.859375,0 1.390625,0.578125 1.390625,1.578125 0,1.375 -1.3125,2.515625 -3.609375,4.375 V 0 H 5.28125 V -1.71875 H 4.8125 L 4.625,-0.828125 Z m 0,0"
           id="path29271" />
      </g>
      <g
         id="use23812"
         transform="translate(306.95395,161.222)">
        <path
           d="m 1.46875,-0.828125 c 2.328125,-1.84375 3.59375,-3.03125 3.59375,-4.34375 0,-1.1875 -0.828125,-1.984375 -2.1875,-1.984375 -1.296875,0 -2.21875,0.75 -2.21875,1.484375 0,0.359375 0.21875,0.578125 0.59375,0.578125 0.15625,0 0.3125,-0.046875 0.46875,-0.15625 v -1.109375 c 0.3125,-0.1875 0.609375,-0.25 0.9375,-0.25 0.859375,0 1.390625,0.578125 1.390625,1.578125 0,1.375 -1.3125,2.515625 -3.609375,4.375 V 0 H 5.28125 V -1.71875 H 4.8125 L 4.625,-0.828125 Z m 0,0"
           id="path29275" />
      </g>
    </g>
    <g
       fill="#231f20"
       fill-opacity="1"
       id="g23818"
       transform="matrix(0.35277777,0,0,0.35277777,-49.123108,82.492849)">
      <g
         id="use23816"
         transform="translate(322.34897,161.222)">
        <path
           d="m 1.46875,-0.828125 c 2.328125,-1.84375 3.59375,-3.03125 3.59375,-4.34375 0,-1.1875 -0.828125,-1.984375 -2.1875,-1.984375 -1.296875,0 -2.21875,0.75 -2.21875,1.484375 0,0.359375 0.21875,0.578125 0.59375,0.578125 0.15625,0 0.3125,-0.046875 0.46875,-0.15625 v -1.109375 c 0.3125,-0.1875 0.609375,-0.25 0.9375,-0.25 0.859375,0 1.390625,0.578125 1.390625,1.578125 0,1.375 -1.3125,2.515625 -3.609375,4.375 V 0 H 5.28125 V -1.71875 H 4.8125 L 4.625,-0.828125 Z m 0,0"
           id="path29279" />
      </g>
    </g>
    <g
       fill="#231f20"
       fill-opacity="1"
       id="g23822"
       transform="matrix(0.35277777,0,0,0.35277777,-49.123108,82.492849)">
      <g
         id="use23820"
         transform="translate(337.75446,161.222)">
        <path
           d="m 1.0625,-7.03125 v 3.46875 c 0.21875,-0.046875 0.53125,-0.0625 0.921875,-0.0625 1.453125,0 2.171875,0.484375 2.171875,1.5625 0,0.96875 -0.671875,1.671875 -1.65625,1.671875 -0.234375,0 -0.46875,-0.03125 -0.703125,-0.125 L 1.375,-1.40625 C 1.28125,-1.4375 1.1875,-1.4375 1.125,-1.4375 c -0.34375,0 -0.609375,0.21875 -0.609375,0.546875 0,0.5 0.734375,0.984375 1.8125,0.984375 1.71875,0 2.796875,-1.015625 2.796875,-2.359375 0,-1.203125 -0.890625,-2.015625 -2.296875,-2.015625 -0.34375,0 -0.71875,0.046875 -1.125,0.171875 v -2.09375 H 4.8125 V -7.03125 Z m 0,0"
           id="path29239" />
      </g>
    </g>
    <g
       fill="#231f20"
       fill-opacity="1"
       id="g23826"
       transform="matrix(0.35277777,0,0,0.35277777,-49.123108,82.492849)">
      <g
         id="use23824"
         transform="translate(353.14948,161.222)">
        <path
           d="M 3.359375,-3.859375 C 2.21875,-4.265625 1.671875,-4.75 1.671875,-5.4375 c 0,-0.6875 0.53125,-1.234375 1.265625,-1.234375 0.765625,0 1.265625,0.53125 1.265625,1.359375 0,0.5625 -0.296875,1.09375 -0.84375,1.453125 z m 0.4375,0.1875 C 4.578125,-4.078125 5,-4.71875 5,-5.40625 5,-6.421875 4.21875,-7.171875 2.96875,-7.171875 c -1.296875,0 -2.171875,0.78125 -2.171875,1.890625 0,0.765625 0.375,1.3125 1.09375,1.625 -0.953125,0.359375 -1.4375,0.96875 -1.4375,1.796875 0,1.1875 0.921875,2.03125 2.421875,2.03125 1.453125,0 2.421875,-0.9375 2.421875,-2.046875 0,-0.8125 -0.515625,-1.453125 -1.5,-1.796875 z m -1.5,0.234375 c 1.40625,0.515625 2.09375,0.84375 2.09375,1.671875 0,0.828125 -0.578125,1.390625 -1.484375,1.390625 -1,0 -1.640625,-0.625 -1.640625,-1.546875 0,-0.6875 0.3125,-1.140625 1.03125,-1.515625 z m 0,0"
           id="path29231" />
      </g>
    </g>
    <g
       fill="#231f20"
       fill-opacity="1"
       id="g23830"
       transform="matrix(0.35277777,0,0,0.35277777,-49.123108,82.492849)">
      <g
         id="use23828"
         transform="translate(368.54446,161.222)">
        <path
           d="m 3.859375,-7.09375 -3.578125,4.375 v 0.6875 h 3.375 V 0.390625 H 4.453125 V -2.03125 h 1.1875 v -0.6875 h -1.1875 v -4.375 z M 3.65625,-5.953125 V -2.71875 H 1.0625 Z m 0,0"
           id="path29207" />
      </g>
    </g>
    <g
       fill="#231f20"
       fill-opacity="1"
       id="g23834"
       transform="matrix(0.35277777,0,0,0.35277777,-49.123108,82.492849)">
      <g
         id="use23832"
         transform="translate(383.94995,161.222)">
        <path
           d="m 1.0625,-7.03125 v 3.46875 c 0.21875,-0.046875 0.53125,-0.0625 0.921875,-0.0625 1.453125,0 2.171875,0.484375 2.171875,1.5625 0,0.96875 -0.671875,1.671875 -1.65625,1.671875 -0.234375,0 -0.46875,-0.03125 -0.703125,-0.125 L 1.375,-1.40625 C 1.28125,-1.4375 1.1875,-1.4375 1.125,-1.4375 c -0.34375,0 -0.609375,0.21875 -0.609375,0.546875 0,0.5 0.734375,0.984375 1.8125,0.984375 1.71875,0 2.796875,-1.015625 2.796875,-2.359375 0,-1.203125 -0.890625,-2.015625 -2.296875,-2.015625 -0.34375,0 -0.71875,0.046875 -1.125,0.171875 v -2.09375 H 4.8125 V -7.03125 Z m 0,0"
           id="path29243" />
      </g>
    </g>
    <g
       fill="#231f20"
       fill-opacity="1"
       id="g23838"
       transform="matrix(0.35277777,0,0,0.35277777,-49.123108,82.492849)">
      <g
         id="use23836"
         transform="translate(400.0676,161.222)">
        <path
           d="m 3.3125,-3.703125 c 1.03125,-0.28125 1.5625,-0.875 1.5625,-1.6875 0,-1.0625 -0.796875,-1.765625 -2.0625,-1.765625 -1.3125,0 -2.203125,0.703125 -2.203125,1.40625 0,0.328125 0.234375,0.5625 0.5625,0.5625 0.171875,0 0.296875,-0.046875 0.4375,-0.140625 V -6.3125 c 0.296875,-0.203125 0.625,-0.296875 0.984375,-0.296875 0.8125,0 1.328125,0.53125 1.328125,1.359375 0,0.84375 -0.5625,1.34375 -1.625,1.34375 -0.0625,0 -0.140625,-0.015625 -0.21875,-0.015625 v 0.625 c 0.203125,-0.03125 0.390625,-0.046875 0.5625,-0.046875 1,0 1.546875,0.484375 1.546875,1.3125 0,0.9375 -0.6875,1.65625 -1.640625,1.65625 -0.3125,0 -0.609375,-0.078125 -0.890625,-0.25 L 1.328125,-1.515625 C 1.21875,-1.5625 1.109375,-1.5625 1.015625,-1.5625 c -0.328125,0 -0.59375,0.21875 -0.59375,0.53125 C 0.421875,-0.5 1.25,0.109375 2.5,0.109375 c 1.609375,0 2.65625,-0.953125 2.65625,-2.125 0,-0.953125 -0.671875,-1.59375 -1.84375,-1.6875 z m 0,0"
           id="path29299" />
      </g>
    </g>
    <path
       fill="none"
       stroke-width="0.215194"
       stroke-linecap="butt"
       stroke-linejoin="miter"
       stroke="#231f20"
       stroke-opacity="1"
       stroke-miterlimit="10"
       d="M -18.095201,140.91065 H 96.120735"
       id="path23840" />
    <path
       fill="none"
       stroke-width="0.215194"
       stroke-linecap="butt"
       stroke-linejoin="miter"
       stroke="#231f20"
       stroke-opacity="1"
       stroke-miterlimit="10"
       d="M -17.987714,141.01813 V 130.81238"
       id="path23842" />
    <path
       fill="none"
       stroke-width="0.215194"
       stroke-linecap="butt"
       stroke-linejoin="miter"
       stroke="#231f20"
       stroke-opacity="1"
       stroke-miterlimit="10"
       d="M -12.555487,141.01813 V 130.81238"
       id="path23844" />
    <path
       fill="none"
       stroke-width="0.215194"
       stroke-linecap="butt"
       stroke-linejoin="miter"
       stroke="#231f20"
       stroke-opacity="1"
       stroke-miterlimit="10"
       d="M -7.1218828,141.01813 V 130.81238"
       id="path23846" />
    <path
       fill="none"
       stroke-width="0.215194"
       stroke-linecap="butt"
       stroke-linejoin="miter"
       stroke="#231f20"
       stroke-opacity="1"
       stroke-miterlimit="10"
       d="M 0.36362051,141.01813 V 130.81238"
       id="path23848" />
    <path
       fill="none"
       stroke-width="0.215194"
       stroke-linecap="butt"
       stroke-linejoin="miter"
       stroke="#231f20"
       stroke-opacity="1"
       stroke-miterlimit="10"
       d="M 5.797225,141.01813 V 130.81238"
       id="path23850" />
    <path
       fill="none"
       stroke-width="0.215194"
       stroke-linecap="butt"
       stroke-linejoin="miter"
       stroke="#231f20"
       stroke-opacity="1"
       stroke-miterlimit="10"
       d="M 11.229451,141.01813 V 130.81238"
       id="path23852" />
    <path
       fill="none"
       stroke-width="0.215194"
       stroke-linecap="butt"
       stroke-linejoin="miter"
       stroke="#231f20"
       stroke-opacity="1"
       stroke-miterlimit="10"
       d="M 16.661678,141.01813 V 130.81238"
       id="path23854" />
    <path
       fill="none"
       stroke-width="0.215194"
       stroke-linecap="butt"
       stroke-linejoin="miter"
       stroke="#231f20"
       stroke-opacity="1"
       stroke-miterlimit="10"
       d="M 24.148559,141.01813 V 130.81238"
       id="path23856" />
    <path
       fill="none"
       stroke-width="0.215194"
       stroke-linecap="butt"
       stroke-linejoin="miter"
       stroke="#231f20"
       stroke-opacity="1"
       stroke-miterlimit="10"
       d="M 29.580786,141.01813 V 130.81238"
       id="path23858" />
    <path
       fill="none"
       stroke-width="0.215194"
       stroke-linecap="butt"
       stroke-linejoin="miter"
       stroke="#231f20"
       stroke-opacity="1"
       stroke-miterlimit="10"
       d="M 37.067667,141.01813 V 130.81238"
       id="path23860" />
    <path
       fill="none"
       stroke-width="0.215194"
       stroke-linecap="butt"
       stroke-linejoin="miter"
       stroke="#231f20"
       stroke-opacity="1"
       stroke-miterlimit="10"
       d="M 42.499893,141.01813 V 130.81238"
       id="path23862" />
    <path
       fill="none"
       stroke-width="0.215194"
       stroke-linecap="butt"
       stroke-linejoin="miter"
       stroke="#231f20"
       stroke-opacity="1"
       stroke-miterlimit="10"
       d="M 47.93212,141.01813 V 130.81238"
       id="path23864" />
    <path
       fill="none"
       stroke-width="0.215194"
       stroke-linecap="butt"
       stroke-linejoin="miter"
       stroke="#231f20"
       stroke-opacity="1"
       stroke-miterlimit="10"
       d="M 55.419001,141.01813 V 130.81238"
       id="path23866" />
    <path
       fill="none"
       stroke-width="0.215194"
       stroke-linecap="butt"
       stroke-linejoin="miter"
       stroke="#231f20"
       stroke-opacity="1"
       stroke-miterlimit="10"
       d="M 62.905883,141.01813 V 130.81238"
       id="path23868" />
    <path
       fill="none"
       stroke-width="0.215194"
       stroke-linecap="butt"
       stroke-linejoin="miter"
       stroke="#231f20"
       stroke-opacity="1"
       stroke-miterlimit="10"
       d="M 68.338109,141.01813 V 130.81238"
       id="path23870" />
    <path
       fill="none"
       stroke-width="0.215194"
       stroke-linecap="butt"
       stroke-linejoin="miter"
       stroke="#231f20"
       stroke-opacity="1"
       stroke-miterlimit="10"
       d="M 73.770336,141.01813 V 130.81238"
       id="path23872" />
    <path
       fill="none"
       stroke-width="0.215194"
       stroke-linecap="butt"
       stroke-linejoin="miter"
       stroke="#231f20"
       stroke-opacity="1"
       stroke-miterlimit="10"
       d="M 79.20394,141.01813 V 130.81238"
       id="path23874" />
    <path
       fill="none"
       stroke-width="0.215194"
       stroke-linecap="butt"
       stroke-linejoin="miter"
       stroke="#231f20"
       stroke-opacity="1"
       stroke-miterlimit="10"
       d="M 84.636166,141.01813 V 130.81238"
       id="path23876" />
    <path
       fill="none"
       stroke-width="0.215194"
       stroke-linecap="butt"
       stroke-linejoin="miter"
       stroke="#231f20"
       stroke-opacity="1"
       stroke-miterlimit="10"
       d="M 90.068393,141.01813 V 130.81238"
       id="path23878" />
    <path
       fill="none"
       stroke-width="0.215194"
       stroke-linecap="butt"
       stroke-linejoin="miter"
       stroke="#231f20"
       stroke-opacity="1"
       stroke-miterlimit="10"
       d="M 96.011871,141.01813 V 130.81238"
       id="path23880" />
  </g>
</svg>
