<?xml version="1.0" encoding="UTF-8" standalone="no"?>
<!-- Created with Inkscape (http://www.inkscape.org/) -->

<svg
   width="55.186516mm"
   height="34.171432mm"
   viewBox="0 0 55.186516 34.171432"
   version="1.1"
   id="svg37003"
   inkscape:version="1.2.2 (732a01da63, 2022-12-09)"
   sodipodi:docname="whatever_first_search_Jeff.svg"
   xmlns:inkscape="http://www.inkscape.org/namespaces/inkscape"
   xmlns:sodipodi="http://sodipodi.sourceforge.net/DTD/sodipodi-0.dtd"
   xmlns="http://www.w3.org/2000/svg"
   xmlns:svg="http://www.w3.org/2000/svg">
  <sodipodi:namedview
     id="namedview37005"
     pagecolor="#ffffff"
     bordercolor="#666666"
     borderopacity="1.0"
     inkscape:showpageshadow="2"
     inkscape:pageopacity="0.0"
     inkscape:pagecheckerboard="0"
     inkscape:deskcolor="#d1d1d1"
     inkscape:document-units="mm"
     showgrid="false"
     inkscape:zoom="4.4211516"
     inkscape:cx="104.38457"
     inkscape:cy="64.575936"
     inkscape:window-width="997"
     inkscape:window-height="710"
     inkscape:window-x="0"
     inkscape:window-y="25"
     inkscape:window-maximized="0"
     inkscape:current-layer="layer1" />
  <defs
     id="defs37000" />
  <g
     inkscape:label="Layer 1"
     inkscape:groupmode="layer"
     id="layer1"
     transform="translate(-91.961827,-89.884623)">
    <g
       id="g36812"
       transform="matrix(0.35277777,0,0,0.35277777,37.745782,31.723254)">
      <path
         fill="none"
         stroke-width="0.61"
         stroke-linecap="butt"
         stroke-linejoin="miter"
         stroke="#231f20"
         stroke-opacity="1"
         stroke-miterlimit="10"
         d="M 0.00159375,0.001125 H 156.43519"
         transform="matrix(1,0,0,-1,153.682,165.173)"
         id="path32941" />
      <g
         fill="#231f20"
         fill-opacity="1"
         id="g32945">
        <g
           id="use32943"
           transform="translate(160.269,173.847)">
          <path
             d="M 2.203125,0 H 2.84375 L 4.4375,-5.234375 6.046875,0 h 0.65625 l 1.515625,-5.90625 0.640625,-0.125 v -0.390625 h -1.96875 v 0.390625 l 0.640625,0.109375 0.09375,0.140625 -1.15625,4.484375 -1.5625,-5.125 H 4.234375 l -1.53125,5.015625 -1.234375,-4.421875 0.078125,-0.125 0.59375,-0.078125 V -6.421875 H 0 v 0.390625 l 0.609375,0.125 z m 0,0"
             id="path37661" />
        </g>
      </g>
      <g
         fill="#231f20"
         fill-opacity="1"
         id="g32951">
        <g
           id="use32947"
           transform="translate(168.73332,173.847)">
          <path
             d="m 0.421875,-4.71875 v 0.375 l 0.53125,0.046875 0.171875,0.09375 v 3.6875 l -0.171875,0.09375 -0.53125,0.03125 v 0.375 H 2.53125 v -0.375 L 2.0625,-0.421875 1.9375,-0.515625 V -2.25 H 4.5 v 1.734375 l -0.140625,0.09375 -0.453125,0.03125 v 0.375 h 2.109375 v -0.375 L 5.46875,-0.421875 5.3125,-0.515625 v -3.6875 l 0.15625,-0.09375 0.546875,-0.046875 v -0.375 H 3.90625 v 0.375 L 4.359375,-4.296875 4.5,-4.203125 V -2.6875 H 1.9375 v -1.515625 l 0.125,-0.09375 0.46875,-0.046875 v -0.375 z m 0,0"
             id="path37653" />
        </g>
        <g
           id="use32949"
           transform="translate(175.16046,173.847)">
          <path
             d="m 2.234375,-4.765625 -1.6875,4.3125 L 0.140625,-0.375 V 0 h 1.40625 V -0.375 L 1.109375,-0.40625 1.046875,-0.5 1.515625,-1.71875 H 3.1875 L 3.703125,-0.5 3.65625,-0.40625 3.21875,-0.375 V 0 H 4.9375 V -0.375 L 4.5,-0.453125 2.796875,-4.765625 Z m 0.109375,0.71875 0.734375,1.90625 h -1.4375 z m 0,0"
             id="path37645" />
        </g>
      </g>
      <g
         fill="#231f20"
         fill-opacity="1"
         id="g32969">
        <g
           id="use32953"
           transform="translate(179.54086,173.847)">
          <path
             d="m 0.296875,-4.71875 v 1.40625 h 0.5 L 0.90625,-4.15625 1.015625,-4.296875 h 1.21875 V -0.5 L 2.09375,-0.421875 1.5625,-0.390625 v 0.375 h 2.171875 v -0.375 L 3.203125,-0.421875 3.0625,-0.5 V -4.296875 H 4.28125 L 4.390625,-4.15625 4.5,-3.3125 h 0.484375 v -1.40625 z m 0,0"
             id="path37637" />
        </g>
        <g
           id="use32955"
           transform="translate(184.82986,173.847)">
          <path
             d="m 0.421875,-0.015625 h 4.625 V -1.1875 H 4.578125 L 4.421875,-0.53125 4.28125,-0.4375 H 1.9375 v -1.796875 h 1.296875 l 0.109375,0.09375 0.078125,0.46875 h 0.4375 V -3.21875 h -0.4375 L 3.34375,-2.75 3.234375,-2.671875 H 1.9375 v -1.625 h 1.875 L 4,-4.203125 4.203125,-3.65625 H 4.71875 v -1.0625 H 0.421875 v 0.375 l 0.53125,0.015625 0.171875,0.125 v 3.6875 L 0.953125,-0.40625 0.421875,-0.375 Z m 0,0"
             id="path37625" />
        </g>
        <g
           id="use32957"
           transform="translate(190.25276,173.847)">
          <path
             d="m 0.03125,-4.71875 v 0.375 L 0.453125,-4.25 2.140625,0.015625 H 2.65625 L 4.296875,-4.25 4.75,-4.34375 v -0.375 H 3.328125 v 0.375 l 0.375,0.046875 0.078125,0.09375 L 2.484375,-0.75 1.203125,-4.203125 1.28125,-4.296875 1.703125,-4.34375 v -0.375 z m 0,0"
             id="path38093" />
        </g>
        <g
           id="use32959"
           transform="translate(195.054,173.847)">
          <path
             d="m 0.421875,-0.015625 h 4.625 V -1.1875 H 4.578125 L 4.421875,-0.53125 4.28125,-0.4375 H 1.9375 v -1.796875 h 1.296875 l 0.109375,0.09375 0.078125,0.46875 h 0.4375 V -3.21875 h -0.4375 L 3.34375,-2.75 3.234375,-2.671875 H 1.9375 v -1.625 h 1.875 L 4,-4.203125 4.203125,-3.65625 H 4.71875 v -1.0625 H 0.421875 v 0.375 l 0.53125,0.015625 0.171875,0.125 v 3.6875 L 0.953125,-0.40625 0.421875,-0.375 Z m 0,0"
             id="path37629" />
        </g>
        <g
           id="use32961"
           transform="translate(200.4769,173.847)">
          <path
             d="m 0.421875,-4.71875 v 0.375 L 0.953125,-4.3125 1.125,-4.203125 v 3.6875 l -0.171875,0.09375 -0.53125,0.03125 v 0.375 H 2.5 v -0.375 l -0.4375,-0.03125 -0.125,-0.09375 v -1.53125 C 2.078125,-2.0625 2.21875,-2.0625 2.34375,-2.0625 c 0.75,0 1.0625,0.171875 1.28125,0.75 0.171875,0.4375 0.203125,0.875 0.609375,1.171875 0.1875,0.125 0.453125,0.203125 0.8125,0.203125 0.1875,0 0.390625,-0.03125 0.640625,-0.078125 V -0.375 H 5.609375 c -0.640625,0 -0.921875,-0.078125 -1.09375,-0.46875 -0.15625,-0.328125 -0.171875,-0.703125 -0.40625,-1 C 3.9375,-2.0625 3.65625,-2.203125 3.234375,-2.296875 4.15625,-2.46875 4.625,-2.859375 4.625,-3.46875 c 0,-0.859375 -0.671875,-1.25 -2.046875,-1.25 z M 1.9375,-4.296875 h 0.359375 c 0.953125,0 1.421875,0.25 1.421875,0.921875 0,0.640625 -0.4375,0.890625 -1.359375,0.890625 -0.046875,0 -0.171875,0 -0.421875,-0.015625 z m 0,0"
             id="path38081" />
        </g>
        <g
           id="use32963"
           transform="translate(206.28236,173.847)">
          <path
             d="M 0.3125,0 H 2.71875 V -0.390625 L 2.046875,-0.4375 1.890625,-0.578125 v -2.4375 h 1.5625 L 3.578125,-2.875 3.6875,-2.1875 H 4.125 V -4.296875 H 3.6875 l -0.109375,0.703125 -0.125,0.125 h -1.5625 v -2.5 H 4.03125 l 0.125,0.140625 0.140625,0.90625 h 0.53125 v -1.5 h -4.59375 v 0.390625 l 0.625,0.0625 0.15625,0.125 v 5.265625 L 0.859375,-0.4375 0.3125,-0.390625 Z m 0,0"
             id="path38077" />
        </g>
        <g
           id="use32965"
           transform="translate(211.41833,173.847)">
          <path
             d="M 0.4375,-0.015625 H 2.75 v -0.375 L 2.15625,-0.4375 2.015625,-0.515625 v -3.6875 L 2.15625,-4.296875 2.75,-4.34375 v -0.375 H 0.4375 v 0.375 l 0.578125,0.046875 0.15625,0.09375 v 3.6875 L 1.015625,-0.4375 0.4375,-0.390625 Z m 0,0"
             id="path38073" />
        </g>
        <g
           id="use32967"
           transform="translate(214.60323,173.847)">
          <path
             d="m 0.421875,-4.71875 v 0.375 L 0.953125,-4.3125 1.125,-4.203125 v 3.6875 l -0.171875,0.09375 -0.53125,0.03125 v 0.375 H 2.5 v -0.375 l -0.4375,-0.03125 -0.125,-0.09375 v -1.53125 C 2.078125,-2.0625 2.21875,-2.0625 2.34375,-2.0625 c 0.75,0 1.0625,0.171875 1.28125,0.75 0.171875,0.4375 0.203125,0.875 0.609375,1.171875 0.1875,0.125 0.453125,0.203125 0.8125,0.203125 0.1875,0 0.390625,-0.03125 0.640625,-0.078125 V -0.375 H 5.609375 c -0.640625,0 -0.921875,-0.078125 -1.09375,-0.46875 -0.15625,-0.328125 -0.171875,-0.703125 -0.40625,-1 C 3.9375,-2.0625 3.65625,-2.203125 3.234375,-2.296875 4.15625,-2.46875 4.625,-2.859375 4.625,-3.46875 c 0,-0.859375 -0.671875,-1.25 -2.046875,-1.25 z M 1.9375,-4.296875 h 0.359375 c 0.953125,0 1.421875,0.25 1.421875,0.921875 0,0.640625 -0.4375,0.890625 -1.359375,0.890625 -0.046875,0 -0.171875,0 -0.421875,-0.015625 z m 0,0"
             id="path38085" />
        </g>
      </g>
      <g
         fill="#231f20"
         fill-opacity="1"
         id="g32977">
        <g
           id="use32971"
           transform="translate(220.47563,173.847)">
          <path
             d="m 0.609375,-0.203125 c 0.375,0.1875 0.890625,0.296875 1.484375,0.296875 1.328125,0 2.15625,-0.578125 2.15625,-1.390625 0,-0.296875 -0.125,-0.546875 -0.359375,-0.75 -0.375,-0.3125 -0.796875,-0.421875 -1.21875,-0.5625 -0.734375,-0.265625 -1.125,-0.4375 -1.125,-0.90625 C 1.546875,-4 1.9375,-4.34375 2.59375,-4.34375 c 0.265625,0 0.484375,0.046875 0.671875,0.140625 l 0.125,0.109375 0.125,0.625 H 4 v -1.078125 c -0.484375,-0.171875 -0.953125,-0.25 -1.40625,-0.25 -1.15625,0 -1.890625,0.53125 -1.890625,1.3125 0,0.65625 0.46875,0.90625 1.359375,1.234375 0.875,0.328125 1.34375,0.453125 1.34375,1.015625 C 3.40625,-0.75 3,-0.40625 2.234375,-0.40625 1.890625,-0.40625 1.59375,-0.46875 1.375,-0.5625 L 1.25,-0.671875 1.140625,-1.4375 h -0.53125 z m 0,0"
             id="path38069" />
        </g>
        <g
           id="use32973"
           transform="translate(225.29599,173.847)">
          <path
             d="m 0.296875,-4.71875 v 1.40625 h 0.5 L 0.90625,-4.15625 1.015625,-4.296875 h 1.21875 V -0.5 L 2.09375,-0.421875 1.5625,-0.390625 v 0.375 h 2.171875 v -0.375 L 3.203125,-0.421875 3.0625,-0.5 V -4.296875 H 4.28125 L 4.390625,-4.15625 4.5,-3.3125 h 0.484375 v -1.40625 z m 0,0"
             id="path37641" />
        </g>
        <g
           id="use32975"
           transform="translate(230.58499,173.847)">
          <path
             d="m 0.578125,-0.1875 c 0.4375,0.1875 1.03125,0.296875 1.71875,0.296875 1.53125,0 2.46875,-0.78125 2.46875,-1.921875 0,-0.421875 -0.140625,-0.765625 -0.421875,-1.046875 -0.4375,-0.4375 -0.953125,-0.578125 -1.4375,-0.78125 -0.875,-0.375 -1.34375,-0.609375 -1.34375,-1.25 0,-0.703125 0.5,-1.15625 1.3125,-1.15625 0.328125,0 0.609375,0.0625 0.859375,0.1875 L 3.875,-5.6875 4.015625,-4.78125 h 0.5 V -6.265625 C 3.953125,-6.4375 3.40625,-6.53125 2.890625,-6.53125 c -1.359375,0 -2.21875,0.75 -2.21875,1.84375 0,0.921875 0.5625,1.28125 1.625,1.734375 1.046875,0.453125 1.59375,0.625 1.59375,1.40625 0,0.671875 -0.515625,1.15625 -1.4375,1.15625 -0.4375,0 -0.796875,-0.078125 -1.078125,-0.21875 L 1.25,-0.78125 1.140625,-1.875 h -0.5625 z m 0,0"
             id="path38065" />
        </g>
      </g>
      <g
         fill="#231f20"
         fill-opacity="1"
         id="g32983">
        <g
           id="use32979"
           transform="translate(235.67316,173.847)">
          <path
             d="m 0.421875,-0.015625 h 4.625 V -1.1875 H 4.578125 L 4.421875,-0.53125 4.28125,-0.4375 H 1.9375 v -1.796875 h 1.296875 l 0.109375,0.09375 0.078125,0.46875 h 0.4375 V -3.21875 h -0.4375 L 3.34375,-2.75 3.234375,-2.671875 H 1.9375 v -1.625 h 1.875 L 4,-4.203125 4.203125,-3.65625 H 4.71875 v -1.0625 H 0.421875 v 0.375 l 0.53125,0.015625 0.171875,0.125 v 3.6875 L 0.953125,-0.40625 0.421875,-0.375 Z m 0,0"
             id="path37633" />
        </g>
        <g
           id="use32981"
           transform="translate(241.09605,173.847)">
          <path
             d="m 2.234375,-4.765625 -1.6875,4.3125 L 0.140625,-0.375 V 0 h 1.40625 V -0.375 L 1.109375,-0.40625 1.046875,-0.5 1.515625,-1.71875 H 3.1875 L 3.703125,-0.5 3.65625,-0.40625 3.21875,-0.375 V 0 H 4.9375 V -0.375 L 4.5,-0.453125 2.796875,-4.765625 Z m 0.109375,0.71875 0.734375,1.90625 h -1.4375 z m 0,0"
             id="path37649" />
        </g>
      </g>
      <g
         fill="#231f20"
         fill-opacity="1"
         id="g32987">
        <g
           id="use32985"
           transform="translate(245.92598,173.847)">
          <path
             d="m 0.421875,-4.71875 v 0.375 L 0.953125,-4.3125 1.125,-4.203125 v 3.6875 l -0.171875,0.09375 -0.53125,0.03125 v 0.375 H 2.5 v -0.375 l -0.4375,-0.03125 -0.125,-0.09375 v -1.53125 C 2.078125,-2.0625 2.21875,-2.0625 2.34375,-2.0625 c 0.75,0 1.0625,0.171875 1.28125,0.75 0.171875,0.4375 0.203125,0.875 0.609375,1.171875 0.1875,0.125 0.453125,0.203125 0.8125,0.203125 0.1875,0 0.390625,-0.03125 0.640625,-0.078125 V -0.375 H 5.609375 c -0.640625,0 -0.921875,-0.078125 -1.09375,-0.46875 -0.15625,-0.328125 -0.171875,-0.703125 -0.40625,-1 C 3.9375,-2.0625 3.65625,-2.203125 3.234375,-2.296875 4.15625,-2.46875 4.625,-2.859375 4.625,-3.46875 c 0,-0.859375 -0.671875,-1.25 -2.046875,-1.25 z M 1.9375,-4.296875 h 0.359375 c 0.953125,0 1.421875,0.25 1.421875,0.921875 0,0.640625 -0.4375,0.890625 -1.359375,0.890625 -0.046875,0 -0.171875,0 -0.421875,-0.015625 z m 0,0"
             id="path38089" />
        </g>
      </g>
      <g
         fill="#231f20"
         fill-opacity="1"
         id="g32993">
        <g
           id="use32989"
           transform="translate(251.13846,173.847)">
          <path
             d="M 4.765625,-0.234375 V -1.34375 h -0.5 L 4.109375,-0.609375 3.984375,-0.5 c -0.21875,0.0625 -0.421875,0.09375 -0.640625,0.09375 -1.1875,0 -1.921875,-0.734375 -1.921875,-2 0,-1.1875 0.703125,-1.90625 1.8125,-1.90625 0.28125,0 0.546875,0.0625 0.8125,0.171875 l 0.109375,0.109375 0.109375,0.625 h 0.5 V -4.5 c -0.5625,-0.21875 -1.09375,-0.3125 -1.546875,-0.3125 -1.640625,0 -2.734375,0.984375 -2.734375,2.453125 C 0.484375,-1.4375 1,-0.625 1.84375,-0.1875 c 0.359375,0.171875 0.828125,0.28125 1.34375,0.28125 0.515625,0 1.0625,-0.109375 1.578125,-0.328125 z m 0,0"
             id="path38061" />
        </g>
        <g
           id="use32991"
           transform="translate(256.39877,173.847)">
          <path
             d="m 0.421875,-4.71875 v 0.375 l 0.53125,0.046875 0.171875,0.09375 v 3.6875 l -0.171875,0.09375 -0.53125,0.03125 v 0.375 H 2.53125 v -0.375 L 2.0625,-0.421875 1.9375,-0.515625 V -2.25 H 4.5 v 1.734375 l -0.140625,0.09375 -0.453125,0.03125 v 0.375 h 2.109375 v -0.375 L 5.46875,-0.421875 5.3125,-0.515625 v -3.6875 l 0.15625,-0.09375 0.546875,-0.046875 v -0.375 H 3.90625 v 0.375 L 4.359375,-4.296875 4.5,-4.203125 V -2.6875 H 1.9375 v -1.515625 l 0.125,-0.09375 0.46875,-0.046875 v -0.375 z m 0,0"
             id="path37657" />
        </g>
      </g>
      <g
         fill="#231f20"
         fill-opacity="1"
         id="g32997">
        <g
           id="use32995"
           transform="translate(262.82599,173.847)">
          <path
             d="m 1.34375,-2.75 c 0,-2.625 0.765625,-3.921875 1.875,-4.109375 V -7.3125 c -1.59375,0.203125 -2.6875,1.671875 -2.6875,4.5625 0,2.890625 1.09375,4.359375 2.6875,4.546875 v -0.4375 c -1.109375,-0.1875 -1.875,-1.5 -1.875,-4.109375 z m 0,0"
             id="path37701" />
        </g>
      </g>
      <g
         fill="#231f20"
         fill-opacity="1"
         id="g33001">
        <g
           id="use32999"
           transform="translate(266.58499,173.847)">
          <path
             d="M 2.546875,-3.53125 C 2.890625,-3.546875 3.09375,-3.75 3.09375,-4.015625 c 0,-0.328125 -0.34375,-0.59375 -0.890625,-0.59375 -0.90625,0 -1.640625,0.65625 -1.640625,1.4375 0,0.546875 0.359375,0.796875 0.90625,1.21875 0.40625,0.296875 0.65625,0.515625 0.65625,0.875 0,0.515625 -0.3125,0.8125 -0.859375,0.8125 -0.296875,0 -0.53125,-0.109375 -0.6875,-0.328125 L 0.75,-1.078125 C 0.59375,-1.1875 0.46875,-1.25 0.328125,-1.25 c -0.296875,0 -0.484375,0.203125 -0.484375,0.5 0,0.484375 0.46875,0.84375 1.265625,0.84375 1.046875,0 1.75,-0.640625 1.75,-1.484375 0,-0.5625 -0.390625,-0.8125 -0.96875,-1.265625 C 1.4375,-3 1.171875,-3.1875 1.171875,-3.53125 c 0,-0.375 0.296875,-0.640625 0.671875,-0.640625 0.109375,0 0.203125,0.015625 0.296875,0.09375 z m 0,0"
             id="path37689" />
        </g>
      </g>
      <g
         fill="#231f20"
         fill-opacity="1"
         id="g33005">
        <g
           id="use33003"
           transform="translate(270.36301,173.847)">
          <path
             d="m 2.40625,-2.75 c 0,2.609375 -0.765625,3.921875 -1.875,4.109375 v 0.4375 C 2.125,1.609375 3.21875,0.140625 3.21875,-2.75 c 0,-2.890625 -1.09375,-4.359375 -2.6875,-4.5625 v 0.453125 c 1.109375,0.1875 1.875,1.484375 1.875,4.109375 z m 0,0"
             id="path37697" />
        </g>
      </g>
      <g
         fill="#231f20"
         fill-opacity="1"
         id="g33009">
        <g
           id="use33007"
           transform="translate(274.121,173.847)">
          <path
             d="m 1.515625,-4.59375 c -0.328125,0 -0.59375,0.25 -0.59375,0.59375 0,0.34375 0.265625,0.609375 0.59375,0.609375 C 1.859375,-3.390625 2.125,-3.65625 2.125,-4 c 0,-0.34375 -0.265625,-0.59375 -0.609375,-0.59375 z m 0,3.46875 c -0.328125,0 -0.59375,0.265625 -0.59375,0.609375 0,0.34375 0.265625,0.609375 0.59375,0.609375 C 1.859375,0.09375 2.125,-0.1875 2.125,-0.515625 2.125,-0.859375 1.859375,-1.125 1.515625,-1.125 Z m 0,0"
             id="path38057" />
        </g>
      </g>
      <path
         fill="none"
         stroke-width="0.574"
         stroke-linecap="butt"
         stroke-linejoin="miter"
         stroke="#231f20"
         stroke-opacity="1"
         stroke-miterlimit="10"
         d="M 5.3125e-4,0.00121875 H 116.90287"
         transform="matrix(1,0,0,-1,160.269,175.927)"
         id="path33011" />
      <g
         fill="#231f20"
         fill-opacity="1"
         id="g33019">
        <g
           id="use33013"
           transform="translate(169.834,185.802)">
          <path
             d="m 0.21875,2.078125 h 2.25 V 1.734375 L 1.859375,1.6875 1.6875,1.546875 V -0.0625 C 2.046875,0 2.34375,0.03125 2.578125,0.03125 4,0.03125 4.9375,-0.953125 4.9375,-2.453125 4.9375,-3.796875 4.15625,-4.6875 3.09375,-4.6875 2.65625,-4.6875 2.203125,-4.5 1.6875,-4.125 V -4.640625 H 1.328125 L 0.21875,-4.296875 V -4 h 0.6875 V 1.546875 L 0.734375,1.6875 0.21875,1.734375 Z m 1.46875,-2.625 v -3.21875 c 0.375,-0.21875 0.6875,-0.328125 1.015625,-0.328125 0.828125,0 1.390625,0.65625 1.390625,1.765625 0,1.171875 -0.65625,1.921875 -1.59375,1.921875 -0.21875,0 -0.484375,-0.046875 -0.8125,-0.140625 z m 0,0"
             id="path38045" />
        </g>
        <g
           id="use33015"
           transform="translate(175.10387,185.802)">
          <path
             d="M 1.359375,-4.6875 0.25,-4.34375 v 0.296875 H 0.921875 V -1.375 c 0,0.96875 0.46875,1.46875 1.28125,1.46875 0.46875,0 0.984375,-0.21875 1.5625,-0.625 V 0 h 1.40625 V -0.34375 L 4.71875,-0.390625 4.546875,-0.546875 V -4.6875 H 4.1875 l -1.109375,0.34375 v 0.296875 h 0.6875 v 3.25 C 3.359375,-0.609375 3,-0.515625 2.65625,-0.515625 c -0.640625,0 -0.9375,-0.328125 -0.9375,-1.015625 V -4.6875 Z m 0,0"
             id="path38033" />
        </g>
        <g
           id="use33017"
           transform="translate(180.5459,185.802)">
          <path
             d="m 0.84375,-4.03125 v 3.09375 c 0,0.671875 0.203125,0.96875 1,0.96875 0.359375,0 0.796875,-0.0625 1.25,-0.21875 v -0.34375 c -0.21875,0.046875 -0.4375,0.078125 -0.671875,0.078125 -0.65625,0 -0.78125,-0.328125 -0.78125,-1.046875 V -4.03125 H 3.09375 v -0.4375 H 1.640625 V -5.484375 H 1.28125 L 0.875,-4.59375 0.234375,-4.328125 v 0.296875 z m 0,0"
             id="path37989" />
        </g>
      </g>
      <g
         fill="#231f20"
         fill-opacity="1"
         id="g33023">
        <g
           id="use33021"
           transform="translate(186.399,185.802)">
          <path
             d="M 2.546875,-3.53125 C 2.890625,-3.546875 3.09375,-3.75 3.09375,-4.015625 c 0,-0.328125 -0.34375,-0.59375 -0.890625,-0.59375 -0.90625,0 -1.640625,0.65625 -1.640625,1.4375 0,0.546875 0.359375,0.796875 0.90625,1.21875 0.40625,0.296875 0.65625,0.515625 0.65625,0.875 0,0.515625 -0.3125,0.8125 -0.859375,0.8125 -0.296875,0 -0.53125,-0.109375 -0.6875,-0.328125 L 0.75,-1.078125 C 0.59375,-1.1875 0.46875,-1.25 0.328125,-1.25 c -0.296875,0 -0.484375,0.203125 -0.484375,0.5 0,0.484375 0.46875,0.84375 1.265625,0.84375 1.046875,0 1.75,-0.640625 1.75,-1.484375 0,-0.5625 -0.390625,-0.8125 -0.96875,-1.265625 C 1.4375,-3 1.171875,-3.1875 1.171875,-3.53125 c 0,-0.375 0.296875,-0.640625 0.671875,-0.640625 0.109375,0 0.203125,0.015625 0.296875,0.09375 z m 0,0"
             id="path37693" />
        </g>
      </g>
      <g
         fill="#231f20"
         fill-opacity="1"
         id="g33031">
        <g
           id="use33025"
           transform="translate(192.83501,185.802)">
          <path
             d="m 1.46875,-6.765625 c -0.296875,0 -0.546875,0.234375 -0.546875,0.546875 0,0.3125 0.25,0.546875 0.546875,0.546875 0.3125,0 0.5625,-0.234375 0.5625,-0.546875 0,-0.296875 -0.25,-0.546875 -0.5625,-0.546875 z m -0.03125,2.125 -1.109375,0.34375 V -4 H 1 v 3.453125 L 0.84375,-0.390625 0.328125,-0.34375 V 0 h 2.15625 V -0.34375 L 1.96875,-0.390625 1.796875,-0.546875 v -4.09375 z m 0,0"
             id="path37965" />
        </g>
        <g
           id="use33027"
           transform="translate(195.51297,185.802)">
          <path
             d="M 0.28125,0 H 2.375 V -0.34375 L 1.921875,-0.390625 1.765625,-0.546875 V -3.75 c 0.40625,-0.203125 0.765625,-0.3125 1.0625,-0.3125 0.703125,0 0.96875,0.28125 0.96875,0.984375 v 2.53125 l -0.15625,0.15625 -0.46875,0.046875 V 0 h 2.09375 V -0.34375 L 4.75,-0.390625 4.59375,-0.546875 v -2.6875 c 0,-0.96875 -0.46875,-1.453125 -1.296875,-1.453125 -0.40625,0 -0.890625,0.21875 -1.53125,0.5625 v -0.515625 h -0.375 L 0.28125,-4.296875 V -4 h 0.6875 v 3.453125 L 0.796875,-0.390625 0.28125,-0.34375 Z m 0,0"
             id="path37949" />
        </g>
        <g
           id="use33029"
           transform="translate(200.94543,185.802)">
          <path
             d="m 0.84375,-4.03125 v 3.09375 c 0,0.671875 0.203125,0.96875 1,0.96875 0.359375,0 0.796875,-0.0625 1.25,-0.21875 v -0.34375 c -0.21875,0.046875 -0.4375,0.078125 -0.671875,0.078125 -0.65625,0 -0.78125,-0.328125 -0.78125,-1.046875 V -4.03125 H 3.09375 v -0.4375 H 1.640625 V -5.484375 H 1.28125 L 0.875,-4.59375 0.234375,-4.328125 v 0.296875 z m 0,0"
             id="path37993" />
        </g>
      </g>
      <g
         fill="#231f20"
         fill-opacity="1"
         id="g33035">
        <g
           id="use33033"
           transform="translate(204.10162,185.802)">
          <path
             d="m 2.578125,-4.6875 c -1.296875,0 -2.21875,0.953125 -2.21875,2.390625 0,1.40625 0.9375,2.390625 2.21875,2.390625 1.28125,0 2.21875,-0.984375 2.21875,-2.390625 0,-1.421875 -0.9375,-2.390625 -2.21875,-2.390625 z m 0,0.40625 c 0.765625,0 1.328125,0.75 1.328125,1.984375 0,1.234375 -0.5625,1.96875 -1.328125,1.96875 -0.765625,0 -1.328125,-0.75 -1.328125,-1.96875 0,-1.25 0.546875,-1.984375 1.328125,-1.984375 z m 0,0"
             id="path37929" />
        </g>
      </g>
      <g
         fill="#231f20"
         fill-opacity="1"
         id="g33043">
        <g
           id="use33037"
           transform="translate(211.91557,185.802)">
          <path
             d="m 0.84375,-4.03125 v 3.09375 c 0,0.671875 0.203125,0.96875 1,0.96875 0.359375,0 0.796875,-0.0625 1.25,-0.21875 v -0.34375 c -0.21875,0.046875 -0.4375,0.078125 -0.671875,0.078125 -0.65625,0 -0.78125,-0.328125 -0.78125,-1.046875 V -4.03125 H 3.09375 v -0.4375 H 1.640625 V -5.484375 H 1.28125 L 0.875,-4.59375 0.234375,-4.328125 v 0.296875 z m 0,0"
             id="path37997" />
        </g>
        <g
           id="use33039"
           transform="translate(215.11002,185.802)">
          <path
             d="M 1.34375,-7.03125 0.1875,-6.6875 v 0.296875 h 0.734375 v 5.84375 L 0.75,-0.390625 0.234375,-0.34375 V 0 h 2.09375 V -0.34375 L 1.890625,-0.390625 1.71875,-0.546875 V -3.75 c 0.40625,-0.203125 0.765625,-0.3125 1.0625,-0.3125 0.703125,0 0.96875,0.28125 0.96875,0.984375 v 2.53125 l -0.171875,0.15625 -0.4375,0.046875 V 0 H 5.21875 v -0.34375 l -0.5,-0.046875 -0.171875,-0.15625 v -2.6875 c 0,-0.96875 -0.453125,-1.453125 -1.28125,-1.453125 -0.421875,0 -0.90625,0.21875 -1.546875,0.5625 v -2.90625 z m 0,0"
             id="path37905" />
        </g>
        <g
           id="use33041"
           transform="translate(220.50423,185.802)">
          <path
             d="m 4.28125,-1.015625 c -0.546875,0.359375 -1.015625,0.5625 -1.5,0.5625 -0.96875,0 -1.609375,-0.734375 -1.609375,-1.953125 V -2.515625 H 4.28125 c 0,-0.109375 0,-0.203125 0,-0.296875 0,-1.171875 -0.671875,-1.875 -1.71875,-1.875 -1.28125,0 -2.203125,0.984375 -2.203125,2.421875 0,1.40625 0.859375,2.359375 2.125,2.359375 0.609375,0 1.21875,-0.203125 1.796875,-0.578125 z M 3.4375,-2.921875 H 1.21875 c 0.0625,-0.8125 0.609375,-1.34375 1.21875,-1.34375 0.640625,0 1,0.421875 1,1.203125 z m 0,0"
             id="path37861" />
        </g>
      </g>
      <g
         fill="#231f20"
         fill-opacity="1"
         id="g33051">
        <g
           id="use33045"
           transform="translate(227.8591,185.802)">
          <path
             d="M 1.25,-7.03125 0.078125,-6.6875 v 0.296875 h 0.75 V 0 h 1.21875 C 3.875,0 4.8125,-0.875 4.8125,-2.515625 4.8125,-3.8125 4.046875,-4.6875 2.921875,-4.6875 c -0.421875,0 -0.84375,0.109375 -1.3125,0.328125 V -7.03125 Z M 1.609375,-0.4375 V -4.03125 C 1.9375,-4.125 2.21875,-4.1875 2.453125,-4.1875 c 0.953125,0 1.5,0.65625 1.5,1.859375 0,1.3125 -0.5625,1.890625 -1.8125,1.890625 -0.046875,0 -0.234375,0 -0.53125,0 z m 0,0"
             id="path37845" />
        </g>
        <g
           id="use33047"
           transform="translate(233.01421,185.802)">
          <path
             d="M 3.1875,-0.546875 3.3125,0 H 4.671875 V -0.34375 L 4.15625,-0.390625 3.984375,-0.546875 V -3.3125 c 0,-0.96875 -0.421875,-1.375 -1.421875,-1.375 -1.203125,0 -1.9375,0.484375 -1.9375,1.078125 0,0.21875 0.078125,0.296875 0.296875,0.296875 H 1.59375 V -4.125 c 0.25,-0.109375 0.484375,-0.15625 0.71875,-0.15625 0.6875,0 0.875,0.328125 0.875,1.078125 v 0.3125 C 1.28125,-2.4375 0.40625,-2.15625 0.40625,-1.15625 c 0,0.71875 0.46875,1.21875 1.21875,1.21875 0.453125,0 0.96875,-0.203125 1.5625,-0.609375 z m 0,-0.328125 C 2.71875,-0.609375 2.328125,-0.453125 2.015625,-0.453125 1.53125,-0.453125 1.25,-0.765625 1.25,-1.234375 1.25,-1.9375 1.84375,-2.1875 3.1875,-2.5625 Z m 0,0"
             id="path37813" />
        </g>
        <g
           id="use33049"
           transform="translate(237.86325,185.802)">
          <path
             d="M 3.53125,-4.421875 C 3.171875,-4.609375 2.8125,-4.6875 2.453125,-4.6875 c -1.140625,0 -1.859375,0.640625 -1.859375,1.5625 0,0.71875 0.453125,1.28125 1.1875,1.453125 -0.3125,0.359375 -0.46875,0.65625 -0.46875,0.90625 0,0.15625 0.046875,0.296875 0.109375,0.4375 C 0.765625,-0.21875 0.375,0.234375 0.375,0.84375 0.375,1.609375 1.015625,2.078125 2.109375,2.078125 2.84375,2.078125 3.5,1.859375 4,1.453125 4.375,1.140625 4.578125,0.734375 4.578125,0.375 c 0,-0.703125 -0.5,-1 -1.625,-1.171875 L 2.03125,-0.9375 c 0,-0.109375 -0.015625,-0.1875 -0.015625,-0.234375 0,-0.140625 0.046875,-0.296875 0.109375,-0.421875 h 0.15625 c 1.109375,0 1.828125,-0.640625 1.828125,-1.5 0,-0.328125 -0.078125,-0.609375 -0.265625,-0.890625 h 1.046875 v -0.4375 z m -1.171875,0.09375 c 0.546875,0 0.9375,0.453125 0.9375,1.1875 0,0.71875 -0.390625,1.171875 -0.9375,1.171875 -0.5625,0 -0.9375,-0.453125 -0.9375,-1.171875 0,-0.734375 0.375,-1.1875 0.9375,-1.1875 z M 1.96875,-0.28125 2.890625,-0.109375 C 3.5625,0.015625 3.875,0.109375 3.875,0.625 c 0,0.546875 -0.578125,1.015625 -1.421875,1.015625 -0.796875,0 -1.3125,-0.4375 -1.3125,-0.984375 0,-0.421875 0.296875,-0.78125 0.828125,-0.9375 z m 0,0"
             id="path37793" />
        </g>
      </g>
      <g
         fill="#231f20"
         fill-opacity="1"
         id="g33061">
        <g
           id="use33053"
           transform="translate(169.834,197.757)">
          <path
             d="M -0.015625,-4.59375 V -4.25 L 0.5625,-4.1875 1.84375,0 H 2.421875 L 3.71875,-3.625 4.875,0 H 5.46875 L 6.84375,-4.171875 7.375,-4.25 V -4.59375 H 5.6875 V -4.25 l 0.515625,0.046875 0.0625,0.15625 -0.96875,3.09375 -1.125,-3.640625 H 3.578125 L 2.296875,-0.953125 1.4375,-4.046875 1.546875,-4.203125 2.0625,-4.25 v -0.34375 z m 0,0"
             id="path37789" />
        </g>
        <g
           id="use33055"
           transform="translate(177.20799,197.757)">
          <path
             d="M 1.34375,-7.03125 0.1875,-6.6875 v 0.296875 h 0.734375 v 5.84375 L 0.75,-0.390625 0.234375,-0.34375 V 0 h 2.09375 V -0.34375 L 1.890625,-0.390625 1.71875,-0.546875 V -3.75 c 0.40625,-0.203125 0.765625,-0.3125 1.0625,-0.3125 0.703125,0 0.96875,0.28125 0.96875,0.984375 v 2.53125 l -0.171875,0.15625 -0.4375,0.046875 V 0 H 5.21875 v -0.34375 l -0.5,-0.046875 -0.171875,-0.15625 v -2.6875 c 0,-0.96875 -0.453125,-1.453125 -1.28125,-1.453125 -0.421875,0 -0.90625,0.21875 -1.546875,0.5625 v -2.90625 z m 0,0"
             id="path37909" />
        </g>
        <g
           id="use33057"
           transform="translate(182.6022,197.757)">
          <path
             d="m 1.46875,-6.765625 c -0.296875,0 -0.546875,0.234375 -0.546875,0.546875 0,0.3125 0.25,0.546875 0.546875,0.546875 0.3125,0 0.5625,-0.234375 0.5625,-0.546875 0,-0.296875 -0.25,-0.546875 -0.5625,-0.546875 z m -0.03125,2.125 -1.109375,0.34375 V -4 H 1 v 3.453125 L 0.84375,-0.390625 0.328125,-0.34375 V 0 h 2.15625 V -0.34375 L 1.96875,-0.390625 1.796875,-0.546875 v -4.09375 z m 0,0"
             id="path37969" />
        </g>
        <g
           id="use33059"
           transform="translate(185.28018,197.757)">
          <path
             d="M 0.265625,0 H 2.5 V -0.34375 L 1.953125,-0.390625 1.78125,-0.546875 V -7.03125 H 1.421875 l -1.15625,0.34375 v 0.296875 H 1 v 5.84375 l -0.171875,0.15625 -0.5625,0.046875 z m 0,0"
             id="path37785" />
        </g>
      </g>
      <g
         fill="#231f20"
         fill-opacity="1"
         id="g33065">
        <g
           id="use33063"
           transform="translate(187.88164,197.757)">
          <path
             d="m 4.28125,-1.015625 c -0.546875,0.359375 -1.015625,0.5625 -1.5,0.5625 -0.96875,0 -1.609375,-0.734375 -1.609375,-1.953125 V -2.515625 H 4.28125 c 0,-0.109375 0,-0.203125 0,-0.296875 0,-1.171875 -0.671875,-1.875 -1.71875,-1.875 -1.28125,0 -2.203125,0.984375 -2.203125,2.421875 0,1.40625 0.859375,2.359375 2.125,2.359375 0.609375,0 1.21875,-0.203125 1.796875,-0.578125 z M 3.4375,-2.921875 H 1.21875 c 0.0625,-0.8125 0.609375,-1.34375 1.21875,-1.34375 0.640625,0 1,0.421875 1,1.203125 z m 0,0"
             id="path37865" />
        </g>
      </g>
      <g
         fill="#231f20"
         fill-opacity="1"
         id="g33073">
        <g
           id="use33067"
           transform="translate(195.23651,197.757)">
          <path
             d="m 0.84375,-4.03125 v 3.09375 c 0,0.671875 0.203125,0.96875 1,0.96875 0.359375,0 0.796875,-0.0625 1.25,-0.21875 v -0.34375 c -0.21875,0.046875 -0.4375,0.078125 -0.671875,0.078125 -0.65625,0 -0.78125,-0.328125 -0.78125,-1.046875 V -4.03125 H 3.09375 v -0.4375 H 1.640625 V -5.484375 H 1.28125 L 0.875,-4.59375 0.234375,-4.328125 v 0.296875 z m 0,0"
             id="path38001" />
        </g>
        <g
           id="use33069"
           transform="translate(198.43095,197.757)">
          <path
             d="M 1.34375,-7.03125 0.1875,-6.6875 v 0.296875 h 0.734375 v 5.84375 L 0.75,-0.390625 0.234375,-0.34375 V 0 h 2.09375 V -0.34375 L 1.890625,-0.390625 1.71875,-0.546875 V -3.75 c 0.40625,-0.203125 0.765625,-0.3125 1.0625,-0.3125 0.703125,0 0.96875,0.28125 0.96875,0.984375 v 2.53125 l -0.171875,0.15625 -0.4375,0.046875 V 0 H 5.21875 v -0.34375 l -0.5,-0.046875 -0.171875,-0.15625 v -2.6875 c 0,-0.96875 -0.453125,-1.453125 -1.28125,-1.453125 -0.421875,0 -0.90625,0.21875 -1.546875,0.5625 v -2.90625 z m 0,0"
             id="path37913" />
        </g>
        <g
           id="use33071"
           transform="translate(203.82516,197.757)">
          <path
             d="m 4.28125,-1.015625 c -0.546875,0.359375 -1.015625,0.5625 -1.5,0.5625 -0.96875,0 -1.609375,-0.734375 -1.609375,-1.953125 V -2.515625 H 4.28125 c 0,-0.109375 0,-0.203125 0,-0.296875 0,-1.171875 -0.671875,-1.875 -1.71875,-1.875 -1.28125,0 -2.203125,0.984375 -2.203125,2.421875 0,1.40625 0.859375,2.359375 2.125,2.359375 0.609375,0 1.21875,-0.203125 1.796875,-0.578125 z M 3.4375,-2.921875 H 1.21875 c 0.0625,-0.8125 0.609375,-1.34375 1.21875,-1.34375 0.640625,0 1,0.421875 1,1.203125 z m 0,0"
             id="path37869" />
        </g>
      </g>
      <g
         fill="#231f20"
         fill-opacity="1"
         id="g33081">
        <g
           id="use33075"
           transform="translate(211.18004,197.757)">
          <path
             d="M 1.25,-7.03125 0.078125,-6.6875 v 0.296875 h 0.75 V 0 h 1.21875 C 3.875,0 4.8125,-0.875 4.8125,-2.515625 4.8125,-3.8125 4.046875,-4.6875 2.921875,-4.6875 c -0.421875,0 -0.84375,0.109375 -1.3125,0.328125 V -7.03125 Z M 1.609375,-0.4375 V -4.03125 C 1.9375,-4.125 2.21875,-4.1875 2.453125,-4.1875 c 0.953125,0 1.5,0.65625 1.5,1.859375 0,1.3125 -0.5625,1.890625 -1.8125,1.890625 -0.046875,0 -0.234375,0 -0.53125,0 z m 0,0"
             id="path37849" />
        </g>
        <g
           id="use33077"
           transform="translate(216.33514,197.757)">
          <path
             d="M 3.1875,-0.546875 3.3125,0 H 4.671875 V -0.34375 L 4.15625,-0.390625 3.984375,-0.546875 V -3.3125 c 0,-0.96875 -0.421875,-1.375 -1.421875,-1.375 -1.203125,0 -1.9375,0.484375 -1.9375,1.078125 0,0.21875 0.078125,0.296875 0.296875,0.296875 H 1.59375 V -4.125 c 0.25,-0.109375 0.484375,-0.15625 0.71875,-0.15625 0.6875,0 0.875,0.328125 0.875,1.078125 v 0.3125 C 1.28125,-2.4375 0.40625,-2.15625 0.40625,-1.15625 c 0,0.71875 0.46875,1.21875 1.21875,1.21875 0.453125,0 0.96875,-0.203125 1.5625,-0.609375 z m 0,-0.328125 C 2.71875,-0.609375 2.328125,-0.453125 2.015625,-0.453125 1.53125,-0.453125 1.25,-0.765625 1.25,-1.234375 1.25,-1.9375 1.84375,-2.1875 3.1875,-2.5625 Z m 0,0"
             id="path37817" />
        </g>
        <g
           id="use33079"
           transform="translate(221.18419,197.757)">
          <path
             d="M 3.53125,-4.421875 C 3.171875,-4.609375 2.8125,-4.6875 2.453125,-4.6875 c -1.140625,0 -1.859375,0.640625 -1.859375,1.5625 0,0.71875 0.453125,1.28125 1.1875,1.453125 -0.3125,0.359375 -0.46875,0.65625 -0.46875,0.90625 0,0.15625 0.046875,0.296875 0.109375,0.4375 C 0.765625,-0.21875 0.375,0.234375 0.375,0.84375 0.375,1.609375 1.015625,2.078125 2.109375,2.078125 2.84375,2.078125 3.5,1.859375 4,1.453125 4.375,1.140625 4.578125,0.734375 4.578125,0.375 c 0,-0.703125 -0.5,-1 -1.625,-1.171875 L 2.03125,-0.9375 c 0,-0.109375 -0.015625,-0.1875 -0.015625,-0.234375 0,-0.140625 0.046875,-0.296875 0.109375,-0.421875 h 0.15625 c 1.109375,0 1.828125,-0.640625 1.828125,-1.5 0,-0.328125 -0.078125,-0.609375 -0.265625,-0.890625 h 1.046875 v -0.4375 z m -1.171875,0.09375 c 0.546875,0 0.9375,0.453125 0.9375,1.1875 0,0.71875 -0.390625,1.171875 -0.9375,1.171875 -0.5625,0 -0.9375,-0.453125 -0.9375,-1.171875 0,-0.734375 0.375,-1.1875 0.9375,-1.1875 z M 1.96875,-0.28125 2.890625,-0.109375 C 3.5625,0.015625 3.875,0.109375 3.875,0.625 c 0,0.546875 -0.578125,1.015625 -1.421875,1.015625 -0.796875,0 -1.3125,-0.4375 -1.3125,-0.984375 0,-0.421875 0.296875,-0.78125 0.828125,-0.9375 z m 0,0"
             id="path37797" />
        </g>
      </g>
      <g
         fill="#231f20"
         fill-opacity="1"
         id="g33087">
        <g
           id="use33083"
           transform="translate(228.84511,197.757)">
          <path
             d="m 1.46875,-6.765625 c -0.296875,0 -0.546875,0.234375 -0.546875,0.546875 0,0.3125 0.25,0.546875 0.546875,0.546875 0.3125,0 0.5625,-0.234375 0.5625,-0.546875 0,-0.296875 -0.25,-0.546875 -0.5625,-0.546875 z m -0.03125,2.125 -1.109375,0.34375 V -4 H 1 v 3.453125 L 0.84375,-0.390625 0.328125,-0.34375 V 0 h 2.15625 V -0.34375 L 1.96875,-0.390625 1.796875,-0.546875 v -4.09375 z m 0,0"
             id="path37973" />
        </g>
        <g
           id="use33085"
           transform="translate(231.52309,197.757)">
          <path
             d="M 3.296875,-4.484375 C 2.96875,-4.625 2.59375,-4.6875 2.171875,-4.6875 c -1.09375,0 -1.6875,0.484375 -1.6875,1.328125 0,0.640625 0.421875,0.953125 1.234375,1.3125 0.625,0.28125 0.96875,0.453125 0.96875,0.953125 0,0.453125 -0.34375,0.78125 -0.90625,0.78125 -0.265625,0 -0.53125,-0.078125 -0.8125,-0.234375 l -0.109375,-0.8125 H 0.40625 v 1.25 c 0.328125,0.125 0.75,0.203125 1.234375,0.203125 1.125,0 1.796875,-0.546875 1.796875,-1.4375 0,-0.359375 -0.140625,-0.640625 -0.375,-0.828125 -0.3125,-0.25 -0.671875,-0.390625 -1,-0.546875 C 1.515625,-2.984375 1.25,-3.1875 1.25,-3.59375 c 0,-0.4375 0.28125,-0.6875 0.78125,-0.6875 0.234375,0 0.46875,0.0625 0.71875,0.203125 l 0.078125,0.671875 h 0.46875 z m 0,0"
             id="path37777" />
        </g>
      </g>
      <g
         fill="#231f20"
         fill-opacity="1"
         id="g33091">
        <g
           id="use33089"
           transform="translate(238.00761,197.757)">
          <path
             d="M 0.28125,0 H 2.375 V -0.34375 L 1.921875,-0.390625 1.765625,-0.546875 V -3.75 c 0.40625,-0.203125 0.765625,-0.3125 1.0625,-0.3125 0.703125,0 0.96875,0.28125 0.96875,0.984375 v 2.53125 l -0.15625,0.15625 -0.46875,0.046875 V 0 h 2.09375 V -0.34375 L 4.75,-0.390625 4.59375,-0.546875 v -2.6875 c 0,-0.96875 -0.46875,-1.453125 -1.296875,-1.453125 -0.40625,0 -0.890625,0.21875 -1.53125,0.5625 v -0.515625 h -0.375 L 0.28125,-4.296875 V -4 h 0.6875 v 3.453125 L 0.796875,-0.390625 0.28125,-0.34375 Z m 0,0"
             id="path37953" />
        </g>
      </g>
      <g
         fill="#231f20"
         fill-opacity="1"
         id="g33097">
        <g
           id="use33093"
           transform="translate(243.28706,197.757)">
          <path
             d="m 2.578125,-4.6875 c -1.296875,0 -2.21875,0.953125 -2.21875,2.390625 0,1.40625 0.9375,2.390625 2.21875,2.390625 1.28125,0 2.21875,-0.984375 2.21875,-2.390625 0,-1.421875 -0.9375,-2.390625 -2.21875,-2.390625 z m 0,0.40625 c 0.765625,0 1.328125,0.75 1.328125,1.984375 0,1.234375 -0.5625,1.96875 -1.328125,1.96875 -0.765625,0 -1.328125,-0.75 -1.328125,-1.96875 0,-1.25 0.546875,-1.984375 1.328125,-1.984375 z m 0,0"
             id="path37933" />
        </g>
        <g
           id="use33095"
           transform="translate(248.44215,197.757)">
          <path
             d="m 0.84375,-4.03125 v 3.09375 c 0,0.671875 0.203125,0.96875 1,0.96875 0.359375,0 0.796875,-0.0625 1.25,-0.21875 v -0.34375 c -0.21875,0.046875 -0.4375,0.078125 -0.671875,0.078125 -0.65625,0 -0.78125,-0.328125 -0.78125,-1.046875 V -4.03125 H 3.09375 v -0.4375 H 1.640625 V -5.484375 H 1.28125 L 0.875,-4.59375 0.234375,-4.328125 v 0.296875 z m 0,0"
             id="path38005" />
        </g>
      </g>
      <g
         fill="#231f20"
         fill-opacity="1"
         id="g33107">
        <g
           id="use33099"
           transform="translate(254.29546,197.757)">
          <path
             d="m 4.28125,-1.015625 c -0.546875,0.359375 -1.015625,0.5625 -1.5,0.5625 -0.96875,0 -1.609375,-0.734375 -1.609375,-1.953125 V -2.515625 H 4.28125 c 0,-0.109375 0,-0.203125 0,-0.296875 0,-1.171875 -0.671875,-1.875 -1.71875,-1.875 -1.28125,0 -2.203125,0.984375 -2.203125,2.421875 0,1.40625 0.859375,2.359375 2.125,2.359375 0.609375,0 1.21875,-0.203125 1.796875,-0.578125 z M 3.4375,-2.921875 H 1.21875 c 0.0625,-0.8125 0.609375,-1.34375 1.21875,-1.34375 0.640625,0 1,0.421875 1,1.203125 z m 0,0"
             id="path37873" />
        </g>
        <g
           id="use33101"
           transform="translate(258.99149,197.757)">
          <path
             d="M 4.34375,-4.046875 C 4.125,-4.46875 3.765625,-4.6875 3.296875,-4.6875 c -0.40625,0 -0.90625,0.1875 -1.53125,0.5625 v -0.515625 h -0.375 L 0.28125,-4.296875 V -4 h 0.6875 v 3.453125 L 0.796875,-0.390625 0.28125,-0.34375 V 0 H 2.375 V -0.34375 L 1.921875,-0.390625 1.765625,-0.546875 V -3.75 C 2.1875,-3.953125 2.53125,-4.0625 2.84375,-4.0625 c 0.578125,0 0.84375,0.3125 0.84375,0.984375 v 2.53125 L 3.53125,-0.390625 3.0625,-0.34375 V 0 H 5.109375 V -0.34375 L 4.65625,-0.390625 4.484375,-0.546875 V -3.75 c 0.40625,-0.203125 0.78125,-0.3125 1.078125,-0.3125 0.59375,0 0.859375,0.3125 0.859375,0.984375 v 2.53125 L 6.25,-0.390625 5.796875,-0.34375 V 0 h 2.09375 V -0.34375 L 7.375,-0.390625 7.21875,-0.546875 v -2.6875 c 0,-0.953125 -0.484375,-1.453125 -1.234375,-1.453125 -0.375,0 -0.921875,0.21875 -1.640625,0.640625 z m 0,0"
             id="path37761" />
        </g>
        <g
           id="use33103"
           transform="translate(267.05411,197.757)">
          <path
             d="m 0.21875,2.078125 h 2.25 V 1.734375 L 1.859375,1.6875 1.6875,1.546875 V -0.0625 C 2.046875,0 2.34375,0.03125 2.578125,0.03125 4,0.03125 4.9375,-0.953125 4.9375,-2.453125 4.9375,-3.796875 4.15625,-4.6875 3.09375,-4.6875 2.65625,-4.6875 2.203125,-4.5 1.6875,-4.125 V -4.640625 H 1.328125 L 0.21875,-4.296875 V -4 h 0.6875 V 1.546875 L 0.734375,1.6875 0.21875,1.734375 Z m 1.46875,-2.625 v -3.21875 c 0.375,-0.21875 0.6875,-0.328125 1.015625,-0.328125 0.828125,0 1.390625,0.65625 1.390625,1.765625 0,1.171875 -0.65625,1.921875 -1.59375,1.921875 -0.21875,0 -0.484375,-0.046875 -0.8125,-0.140625 z m 0,0"
             id="path38049" />
        </g>
        <g
           id="use33105"
           transform="translate(272.32397,197.757)">
          <path
             d="m 0.84375,-4.03125 v 3.09375 c 0,0.671875 0.203125,0.96875 1,0.96875 0.359375,0 0.796875,-0.0625 1.25,-0.21875 v -0.34375 c -0.21875,0.046875 -0.4375,0.078125 -0.671875,0.078125 -0.65625,0 -0.78125,-0.328125 -0.78125,-1.046875 V -4.03125 H 3.09375 v -0.4375 H 1.640625 V -5.484375 H 1.28125 L 0.875,-4.59375 0.234375,-4.328125 v 0.296875 z m 0,0"
             id="path38009" />
        </g>
      </g>
      <g
         fill="#231f20"
         fill-opacity="1"
         id="g33111">
        <g
           id="use33109"
           transform="translate(275.93924,197.757)">
          <path
             d="M -0.015625,-4.59375 V -4.25 l 0.59375,0.0625 1.609375,4.15625 C 1.9375,0.640625 1.65625,1.125 1.40625,1.390625 L 0.484375,1.03125 c -0.15625,0.15625 -0.25,0.328125 -0.25,0.515625 0,0.3125 0.265625,0.53125 0.671875,0.53125 0.609375,0 1.078125,-0.515625 1.515625,-1.59375 L 4.34375,-4.171875 4.890625,-4.25 V -4.59375 H 3.1875 V -4.25 l 0.515625,0.046875 0.078125,0.15625 -1.1875,2.96875 -1.15625,-2.96875 0.125,-0.15625 0.5,-0.046875 v -0.34375 z m 0,0"
             id="path37757" />
        </g>
      </g>
      <g
         fill="#231f20"
         fill-opacity="1"
         id="g33115">
        <g
           id="use33113"
           transform="translate(188.96201,209.713)">
          <path
             d="m 0.84375,-4.03125 v 3.09375 c 0,0.671875 0.203125,0.96875 1,0.96875 0.359375,0 0.796875,-0.0625 1.25,-0.21875 v -0.34375 c -0.21875,0.046875 -0.4375,0.078125 -0.671875,0.078125 -0.65625,0 -0.78125,-0.328125 -0.78125,-1.046875 V -4.03125 H 3.09375 v -0.4375 H 1.640625 V -5.484375 H 1.28125 L 0.875,-4.59375 0.234375,-4.328125 v 0.296875 z m 0,0"
             id="path38013" />
        </g>
      </g>
      <g
         fill="#231f20"
         fill-opacity="1"
         id="g33119">
        <g
           id="use33117"
           transform="translate(192.34773,209.713)">
          <path
             d="M 3.1875,-0.546875 3.3125,0 H 4.671875 V -0.34375 L 4.15625,-0.390625 3.984375,-0.546875 V -3.3125 c 0,-0.96875 -0.421875,-1.375 -1.421875,-1.375 -1.203125,0 -1.9375,0.484375 -1.9375,1.078125 0,0.21875 0.078125,0.296875 0.296875,0.296875 H 1.59375 V -4.125 c 0.25,-0.109375 0.484375,-0.15625 0.71875,-0.15625 0.6875,0 0.875,0.328125 0.875,1.078125 v 0.3125 C 1.28125,-2.4375 0.40625,-2.15625 0.40625,-1.15625 c 0,0.71875 0.46875,1.21875 1.21875,1.21875 0.453125,0 0.96875,-0.203125 1.5625,-0.609375 z m 0,-0.328125 C 2.71875,-0.609375 2.328125,-0.453125 2.015625,-0.453125 1.53125,-0.453125 1.25,-0.765625 1.25,-1.234375 1.25,-1.9375 1.84375,-2.1875 3.1875,-2.5625 Z m 0,0"
             id="path37821" />
        </g>
      </g>
      <g
         fill="#231f20"
         fill-opacity="1"
         id="g33125">
        <g
           id="use33121"
           transform="translate(197.02463,209.713)">
          <path
             d="m 0.234375,0 h 2.09375 v -0.34375 l -0.4375,-0.046875 -0.171875,-0.15625 v -1.625 H 2.265625 L 3.5625,-0.3125 V 0 H 5.046875 V -0.359375 L 4.4375,-0.40625 2.75,-2.78125 4.0625,-4.171875 4.671875,-4.25 v -0.34375 h -1.8125 V -4.25 l 0.4375,0.046875 0.0625,0.125 -1.46875,1.640625 H 1.71875 v -4.59375 h -0.375 L 0.1875,-6.6875 v 0.296875 h 0.734375 v 5.84375 L 0.75,-0.390625 0.234375,-0.34375 Z m 0,0"
             id="path37745" />
        </g>
        <g
           id="use33123"
           transform="translate(201.96931,209.713)">
          <path
             d="m 4.28125,-1.015625 c -0.546875,0.359375 -1.015625,0.5625 -1.5,0.5625 -0.96875,0 -1.609375,-0.734375 -1.609375,-1.953125 V -2.515625 H 4.28125 c 0,-0.109375 0,-0.203125 0,-0.296875 0,-1.171875 -0.671875,-1.875 -1.71875,-1.875 -1.28125,0 -2.203125,0.984375 -2.203125,2.421875 0,1.40625 0.859375,2.359375 2.125,2.359375 0.609375,0 1.21875,-0.203125 1.796875,-0.578125 z M 3.4375,-2.921875 H 1.21875 c 0.0625,-0.8125 0.609375,-1.34375 1.21875,-1.34375 0.640625,0 1,0.421875 1,1.203125 z m 0,0"
             id="path37877" />
        </g>
      </g>
      <g
         fill="#231f20"
         fill-opacity="1"
         id="g33129">
        <g
           id="use33127"
           transform="translate(209.802,209.713)">
          <path
             d="m 0.890625,-4.625 -0.96875,0.3125 v 0.234375 l 0.734375,0.0625 c 0.171875,0.109375 0.25,0.375 0.296875,0.8125 L 1.1875,-0.96875 c 0,0.125 0.015625,0.234375 0.015625,0.34375 0,0.234375 -0.03125,0.4375 -0.125,0.625 H 1.53125 c 1.78125,-2.015625 2.625,-3.421875 2.625,-4.078125 0,-0.34375 -0.1875,-0.546875 -0.515625,-0.546875 -0.15625,0 -0.328125,0.0625 -0.46875,0.1875 l 0.171875,1.171875 c -0.25,0.65625 -0.734375,1.421875 -1.453125,2.359375 l -0.25,-2.625 C 1.5625,-4.296875 1.453125,-4.625 0.90625,-4.625 c 0,0 0,0 -0.015625,0 z m 0,0"
             id="path37673" />
        </g>
      </g>
      <g
         fill="#231f20"
         fill-opacity="1"
         id="g33137">
        <g
           id="use33131"
           transform="translate(217.282,209.713)">
          <path
             d="M 0.28125,0 H 2.5 V -0.34375 L 1.90625,-0.390625 1.75,-0.546875 V -4.03125 h 1.34375 v -0.4375 H 1.765625 v -0.703125 c 0,-0.796875 0.203125,-1.296875 0.609375,-1.5 L 3.25,-6.09375 c 0.25,-0.0625 0.390625,-0.25 0.390625,-0.46875 0,-0.3125 -0.296875,-0.546875 -0.75,-0.546875 -1.125,0 -1.9375,0.9375 -1.9375,2.53125 V -4.46875 L 0.34375,-4.328125 v 0.296875 h 0.609375 v 3.484375 l -0.171875,0.15625 -0.5,0.046875 z m 0,0"
             id="path37733" />
        </g>
        <g
           id="use33133"
           transform="translate(220.35211,209.713)">
          <path
             d="m 0.28125,0 h 2.3125 V -0.34375 L 1.921875,-0.390625 1.765625,-0.546875 V -3.28125 c 0.390625,-0.453125 0.71875,-0.703125 1.03125,-0.703125 0.203125,0 0.375,0.078125 0.5,0.234375 H 3.59375 V -4.578125 C 3.390625,-4.65625 3.21875,-4.6875 3.015625,-4.6875 c -0.078125,0 -0.15625,0 -0.234375,0.015625 C 2.4375,-4.40625 2.09375,-4.09375 1.765625,-3.75 v -0.890625 h -0.375 L 0.28125,-4.296875 V -4 h 0.6875 v 3.453125 L 0.796875,-0.390625 0.28125,-0.34375 Z m 0,0"
             id="path37717" />
        </g>
        <g
           id="use33135"
           transform="translate(224.00563,209.713)">
          <path
             d="m 2.578125,-4.6875 c -1.296875,0 -2.21875,0.953125 -2.21875,2.390625 0,1.40625 0.9375,2.390625 2.21875,2.390625 1.28125,0 2.21875,-0.984375 2.21875,-2.390625 0,-1.421875 -0.9375,-2.390625 -2.21875,-2.390625 z m 0,0.40625 c 0.765625,0 1.328125,0.75 1.328125,1.984375 0,1.234375 -0.5625,1.96875 -1.328125,1.96875 -0.765625,0 -1.328125,-0.75 -1.328125,-1.96875 0,-1.25 0.546875,-1.984375 1.328125,-1.984375 z m 0,0"
             id="path37937" />
        </g>
      </g>
      <g
         fill="#231f20"
         fill-opacity="1"
         id="g33141">
        <g
           id="use33139"
           transform="translate(229.05553,209.713)">
          <path
             d="M 4.34375,-4.046875 C 4.125,-4.46875 3.765625,-4.6875 3.296875,-4.6875 c -0.40625,0 -0.90625,0.1875 -1.53125,0.5625 v -0.515625 h -0.375 L 0.28125,-4.296875 V -4 h 0.6875 v 3.453125 L 0.796875,-0.390625 0.28125,-0.34375 V 0 H 2.375 V -0.34375 L 1.921875,-0.390625 1.765625,-0.546875 V -3.75 C 2.1875,-3.953125 2.53125,-4.0625 2.84375,-4.0625 c 0.578125,0 0.84375,0.3125 0.84375,0.984375 v 2.53125 L 3.53125,-0.390625 3.0625,-0.34375 V 0 H 5.109375 V -0.34375 L 4.65625,-0.390625 4.484375,-0.546875 V -3.75 c 0.40625,-0.203125 0.78125,-0.3125 1.078125,-0.3125 0.59375,0 0.859375,0.3125 0.859375,0.984375 v 2.53125 L 6.25,-0.390625 5.796875,-0.34375 V 0 h 2.09375 V -0.34375 L 7.375,-0.390625 7.21875,-0.546875 v -2.6875 c 0,-0.953125 -0.484375,-1.453125 -1.234375,-1.453125 -0.375,0 -0.921875,0.21875 -1.640625,0.640625 z m 0,0"
             id="path37765" />
        </g>
      </g>
      <g
         fill="#231f20"
         fill-opacity="1"
         id="g33149">
        <g
           id="use33143"
           transform="translate(239.77699,209.713)">
          <path
             d="m 0.84375,-4.03125 v 3.09375 c 0,0.671875 0.203125,0.96875 1,0.96875 0.359375,0 0.796875,-0.0625 1.25,-0.21875 v -0.34375 c -0.21875,0.046875 -0.4375,0.078125 -0.671875,0.078125 -0.65625,0 -0.78125,-0.328125 -0.78125,-1.046875 V -4.03125 H 3.09375 v -0.4375 H 1.640625 V -5.484375 H 1.28125 L 0.875,-4.59375 0.234375,-4.328125 v 0.296875 z m 0,0"
             id="path38017" />
        </g>
        <g
           id="use33145"
           transform="translate(242.97144,209.713)">
          <path
             d="M 1.34375,-7.03125 0.1875,-6.6875 v 0.296875 h 0.734375 v 5.84375 L 0.75,-0.390625 0.234375,-0.34375 V 0 h 2.09375 V -0.34375 L 1.890625,-0.390625 1.71875,-0.546875 V -3.75 c 0.40625,-0.203125 0.765625,-0.3125 1.0625,-0.3125 0.703125,0 0.96875,0.28125 0.96875,0.984375 v 2.53125 l -0.171875,0.15625 -0.4375,0.046875 V 0 H 5.21875 v -0.34375 l -0.5,-0.046875 -0.171875,-0.15625 v -2.6875 c 0,-0.96875 -0.453125,-1.453125 -1.28125,-1.453125 -0.421875,0 -0.90625,0.21875 -1.546875,0.5625 v -2.90625 z m 0,0"
             id="path37917" />
        </g>
        <g
           id="use33147"
           transform="translate(248.36565,209.713)">
          <path
             d="m 4.28125,-1.015625 c -0.546875,0.359375 -1.015625,0.5625 -1.5,0.5625 -0.96875,0 -1.609375,-0.734375 -1.609375,-1.953125 V -2.515625 H 4.28125 c 0,-0.109375 0,-0.203125 0,-0.296875 0,-1.171875 -0.671875,-1.875 -1.71875,-1.875 -1.28125,0 -2.203125,0.984375 -2.203125,2.421875 0,1.40625 0.859375,2.359375 2.125,2.359375 0.609375,0 1.21875,-0.203125 1.796875,-0.578125 z M 3.4375,-2.921875 H 1.21875 c 0.0625,-0.8125 0.609375,-1.34375 1.21875,-1.34375 0.640625,0 1,0.421875 1,1.203125 z m 0,0"
             id="path37881" />
        </g>
      </g>
      <g
         fill="#231f20"
         fill-opacity="1"
         id="g33157">
        <g
           id="use33151"
           transform="translate(255.72052,209.713)">
          <path
             d="M 1.25,-7.03125 0.078125,-6.6875 v 0.296875 h 0.75 V 0 h 1.21875 C 3.875,0 4.8125,-0.875 4.8125,-2.515625 4.8125,-3.8125 4.046875,-4.6875 2.921875,-4.6875 c -0.421875,0 -0.84375,0.109375 -1.3125,0.328125 V -7.03125 Z M 1.609375,-0.4375 V -4.03125 C 1.9375,-4.125 2.21875,-4.1875 2.453125,-4.1875 c 0.953125,0 1.5,0.65625 1.5,1.859375 0,1.3125 -0.5625,1.890625 -1.8125,1.890625 -0.046875,0 -0.234375,0 -0.53125,0 z m 0,0"
             id="path37853" />
        </g>
        <g
           id="use33153"
           transform="translate(260.87561,209.713)">
          <path
             d="M 3.1875,-0.546875 3.3125,0 H 4.671875 V -0.34375 L 4.15625,-0.390625 3.984375,-0.546875 V -3.3125 c 0,-0.96875 -0.421875,-1.375 -1.421875,-1.375 -1.203125,0 -1.9375,0.484375 -1.9375,1.078125 0,0.21875 0.078125,0.296875 0.296875,0.296875 H 1.59375 V -4.125 c 0.25,-0.109375 0.484375,-0.15625 0.71875,-0.15625 0.6875,0 0.875,0.328125 0.875,1.078125 v 0.3125 C 1.28125,-2.4375 0.40625,-2.15625 0.40625,-1.15625 c 0,0.71875 0.46875,1.21875 1.21875,1.21875 0.453125,0 0.96875,-0.203125 1.5625,-0.609375 z m 0,-0.328125 C 2.71875,-0.609375 2.328125,-0.453125 2.015625,-0.453125 1.53125,-0.453125 1.25,-0.765625 1.25,-1.234375 1.25,-1.9375 1.84375,-2.1875 3.1875,-2.5625 Z m 0,0"
             id="path37825" />
        </g>
        <g
           id="use33155"
           transform="translate(265.72467,209.713)">
          <path
             d="M 3.53125,-4.421875 C 3.171875,-4.609375 2.8125,-4.6875 2.453125,-4.6875 c -1.140625,0 -1.859375,0.640625 -1.859375,1.5625 0,0.71875 0.453125,1.28125 1.1875,1.453125 -0.3125,0.359375 -0.46875,0.65625 -0.46875,0.90625 0,0.15625 0.046875,0.296875 0.109375,0.4375 C 0.765625,-0.21875 0.375,0.234375 0.375,0.84375 0.375,1.609375 1.015625,2.078125 2.109375,2.078125 2.84375,2.078125 3.5,1.859375 4,1.453125 4.375,1.140625 4.578125,0.734375 4.578125,0.375 c 0,-0.703125 -0.5,-1 -1.625,-1.171875 L 2.03125,-0.9375 c 0,-0.109375 -0.015625,-0.1875 -0.015625,-0.234375 0,-0.140625 0.046875,-0.296875 0.109375,-0.421875 h 0.15625 c 1.109375,0 1.828125,-0.640625 1.828125,-1.5 0,-0.328125 -0.078125,-0.609375 -0.265625,-0.890625 h 1.046875 v -0.4375 z m -1.171875,0.09375 c 0.546875,0 0.9375,0.453125 0.9375,1.1875 0,0.71875 -0.390625,1.171875 -0.9375,1.171875 -0.5625,0 -0.9375,-0.453125 -0.9375,-1.171875 0,-0.734375 0.375,-1.1875 0.9375,-1.1875 z M 1.96875,-0.28125 2.890625,-0.109375 C 3.5625,0.015625 3.875,0.109375 3.875,0.625 c 0,0.546875 -0.578125,1.015625 -1.421875,1.015625 -0.796875,0 -1.3125,-0.4375 -1.3125,-0.984375 0,-0.421875 0.296875,-0.78125 0.828125,-0.9375 z m 0,0"
             id="path37801" />
        </g>
      </g>
      <g
         fill="#231f20"
         fill-opacity="1"
         id="g33163">
        <g
           id="use33159"
           transform="translate(188.96201,221.668)">
          <path
             d="m 1.46875,-6.765625 c -0.296875,0 -0.546875,0.234375 -0.546875,0.546875 0,0.3125 0.25,0.546875 0.546875,0.546875 0.3125,0 0.5625,-0.234375 0.5625,-0.546875 0,-0.296875 -0.25,-0.546875 -0.5625,-0.546875 z m -0.03125,2.125 -1.109375,0.34375 V -4 H 1 v 3.453125 L 0.84375,-0.390625 0.328125,-0.34375 V 0 h 2.15625 V -0.34375 L 1.96875,-0.390625 1.796875,-0.546875 v -4.09375 z m 0,0"
             id="path37977" />
        </g>
        <g
           id="use33161"
           transform="translate(191.63997,221.668)">
          <path
             d="M 0.28125,0 H 2.5 V -0.34375 L 1.90625,-0.390625 1.75,-0.546875 V -4.03125 h 1.34375 v -0.4375 H 1.765625 v -0.703125 c 0,-0.796875 0.203125,-1.296875 0.609375,-1.5 L 3.25,-6.09375 c 0.25,-0.0625 0.390625,-0.25 0.390625,-0.46875 0,-0.3125 -0.296875,-0.546875 -0.75,-0.546875 -1.125,0 -1.9375,0.9375 -1.9375,2.53125 V -4.46875 L 0.34375,-4.328125 v 0.296875 h 0.609375 v 3.484375 l -0.171875,0.15625 -0.5,0.046875 z m 0,0"
             id="path37737" />
        </g>
      </g>
      <g
         fill="#231f20"
         fill-opacity="1"
         id="g33167">
        <g
           id="use33165"
           transform="translate(197.847,221.668)">
          <path
             d="m 0.890625,-4.625 -0.96875,0.3125 v 0.234375 l 0.734375,0.0625 c 0.171875,0.109375 0.25,0.375 0.296875,0.8125 L 1.1875,-0.96875 c 0,0.125 0.015625,0.234375 0.015625,0.34375 0,0.234375 -0.03125,0.4375 -0.125,0.625 H 1.53125 c 1.78125,-2.015625 2.625,-3.421875 2.625,-4.078125 0,-0.34375 -0.1875,-0.546875 -0.515625,-0.546875 -0.15625,0 -0.328125,0.0625 -0.46875,0.1875 l 0.171875,1.171875 c -0.25,0.65625 -0.734375,1.421875 -1.453125,2.359375 l -0.25,-2.625 C 1.5625,-4.296875 1.453125,-4.625 0.90625,-4.625 c 0,0 0,0 -0.015625,0 z m 0,0"
             id="path37677" />
        </g>
      </g>
      <g
         fill="#231f20"
         fill-opacity="1"
         id="g33173">
        <g
           id="use33169"
           transform="translate(205.326,221.668)">
          <path
             d="m 1.46875,-6.765625 c -0.296875,0 -0.546875,0.234375 -0.546875,0.546875 0,0.3125 0.25,0.546875 0.546875,0.546875 0.3125,0 0.5625,-0.234375 0.5625,-0.546875 0,-0.296875 -0.25,-0.546875 -0.5625,-0.546875 z m -0.03125,2.125 -1.109375,0.34375 V -4 H 1 v 3.453125 L 0.84375,-0.390625 0.328125,-0.34375 V 0 h 2.15625 V -0.34375 L 1.96875,-0.390625 1.796875,-0.546875 v -4.09375 z m 0,0"
             id="path37981" />
        </g>
        <g
           id="use33171"
           transform="translate(208.00398,221.668)">
          <path
             d="M 3.296875,-4.484375 C 2.96875,-4.625 2.59375,-4.6875 2.171875,-4.6875 c -1.09375,0 -1.6875,0.484375 -1.6875,1.328125 0,0.640625 0.421875,0.953125 1.234375,1.3125 0.625,0.28125 0.96875,0.453125 0.96875,0.953125 0,0.453125 -0.34375,0.78125 -0.90625,0.78125 -0.265625,0 -0.53125,-0.078125 -0.8125,-0.234375 l -0.109375,-0.8125 H 0.40625 v 1.25 c 0.328125,0.125 0.75,0.203125 1.234375,0.203125 1.125,0 1.796875,-0.546875 1.796875,-1.4375 0,-0.359375 -0.140625,-0.640625 -0.375,-0.828125 -0.3125,-0.25 -0.671875,-0.390625 -1,-0.546875 C 1.515625,-2.984375 1.25,-3.1875 1.25,-3.59375 c 0,-0.4375 0.28125,-0.6875 0.78125,-0.6875 0.234375,0 0.46875,0.0625 0.71875,0.203125 l 0.078125,0.671875 h 0.46875 z m 0,0"
             id="path37781" />
        </g>
      </g>
      <g
         fill="#231f20"
         fill-opacity="1"
         id="g33191">
        <g
           id="use33175"
           transform="translate(214.48851,221.668)">
          <path
             d="M 1.359375,-4.6875 0.25,-4.34375 v 0.296875 H 0.921875 V -1.375 c 0,0.96875 0.46875,1.46875 1.28125,1.46875 0.46875,0 0.984375,-0.21875 1.5625,-0.625 V 0 h 1.40625 V -0.34375 L 4.71875,-0.390625 4.546875,-0.546875 V -4.6875 H 4.1875 l -1.109375,0.34375 v 0.296875 h 0.6875 v 3.25 C 3.359375,-0.609375 3,-0.515625 2.65625,-0.515625 c -0.640625,0 -0.9375,-0.328125 -0.9375,-1.015625 V -4.6875 Z m 0,0"
             id="path38037" />
        </g>
        <g
           id="use33177"
           transform="translate(219.93053,221.668)">
          <path
             d="M 0.28125,0 H 2.375 V -0.34375 L 1.921875,-0.390625 1.765625,-0.546875 V -3.75 c 0.40625,-0.203125 0.765625,-0.3125 1.0625,-0.3125 0.703125,0 0.96875,0.28125 0.96875,0.984375 v 2.53125 l -0.15625,0.15625 -0.46875,0.046875 V 0 h 2.09375 V -0.34375 L 4.75,-0.390625 4.59375,-0.546875 v -2.6875 c 0,-0.96875 -0.46875,-1.453125 -1.296875,-1.453125 -0.40625,0 -0.890625,0.21875 -1.53125,0.5625 v -0.515625 h -0.375 L 0.28125,-4.296875 V -4 h 0.6875 v 3.453125 L 0.796875,-0.390625 0.28125,-0.34375 Z m 0,0"
             id="path37957" />
        </g>
        <g
           id="use33179"
           transform="translate(225.36301,221.668)">
          <path
             d="M 4.34375,-4.046875 C 4.125,-4.46875 3.765625,-4.6875 3.296875,-4.6875 c -0.40625,0 -0.90625,0.1875 -1.53125,0.5625 v -0.515625 h -0.375 L 0.28125,-4.296875 V -4 h 0.6875 v 3.453125 L 0.796875,-0.390625 0.28125,-0.34375 V 0 H 2.375 V -0.34375 L 1.921875,-0.390625 1.765625,-0.546875 V -3.75 C 2.1875,-3.953125 2.53125,-4.0625 2.84375,-4.0625 c 0.578125,0 0.84375,0.3125 0.84375,0.984375 v 2.53125 L 3.53125,-0.390625 3.0625,-0.34375 V 0 H 5.109375 V -0.34375 L 4.65625,-0.390625 4.484375,-0.546875 V -3.75 c 0.40625,-0.203125 0.78125,-0.3125 1.078125,-0.3125 0.59375,0 0.859375,0.3125 0.859375,0.984375 v 2.53125 L 6.25,-0.390625 5.796875,-0.34375 V 0 h 2.09375 V -0.34375 L 7.375,-0.390625 7.21875,-0.546875 v -2.6875 c 0,-0.953125 -0.484375,-1.453125 -1.234375,-1.453125 -0.375,0 -0.921875,0.21875 -1.640625,0.640625 z m 0,0"
             id="path37769" />
        </g>
        <g
           id="use33181"
           transform="translate(233.42561,221.668)">
          <path
             d="M 3.1875,-0.546875 3.3125,0 H 4.671875 V -0.34375 L 4.15625,-0.390625 3.984375,-0.546875 V -3.3125 c 0,-0.96875 -0.421875,-1.375 -1.421875,-1.375 -1.203125,0 -1.9375,0.484375 -1.9375,1.078125 0,0.21875 0.078125,0.296875 0.296875,0.296875 H 1.59375 V -4.125 c 0.25,-0.109375 0.484375,-0.15625 0.71875,-0.15625 0.6875,0 0.875,0.328125 0.875,1.078125 v 0.3125 C 1.28125,-2.4375 0.40625,-2.15625 0.40625,-1.15625 c 0,0.71875 0.46875,1.21875 1.21875,1.21875 0.453125,0 0.96875,-0.203125 1.5625,-0.609375 z m 0,-0.328125 C 2.71875,-0.609375 2.328125,-0.453125 2.015625,-0.453125 1.53125,-0.453125 1.25,-0.765625 1.25,-1.234375 1.25,-1.9375 1.84375,-2.1875 3.1875,-2.5625 Z m 0,0"
             id="path37829" />
        </g>
        <g
           id="use33183"
           transform="translate(238.27467,221.668)">
          <path
             d="m 0.28125,0 h 2.3125 V -0.34375 L 1.921875,-0.390625 1.765625,-0.546875 V -3.28125 c 0.390625,-0.453125 0.71875,-0.703125 1.03125,-0.703125 0.203125,0 0.375,0.078125 0.5,0.234375 H 3.59375 V -4.578125 C 3.390625,-4.65625 3.21875,-4.6875 3.015625,-4.6875 c -0.078125,0 -0.15625,0 -0.234375,0.015625 C 2.4375,-4.40625 2.09375,-4.09375 1.765625,-3.75 v -0.890625 h -0.375 L 0.28125,-4.296875 V -4 h 0.6875 v 3.453125 L 0.796875,-0.390625 0.28125,-0.34375 Z m 0,0"
             id="path37721" />
        </g>
        <g
           id="use33185"
           transform="translate(241.92819,221.668)">
          <path
             d="m 0.234375,0 h 2.09375 v -0.34375 l -0.4375,-0.046875 -0.171875,-0.15625 v -1.625 H 2.265625 L 3.5625,-0.3125 V 0 H 5.046875 V -0.359375 L 4.4375,-0.40625 2.75,-2.78125 4.0625,-4.171875 4.671875,-4.25 v -0.34375 h -1.8125 V -4.25 l 0.4375,0.046875 0.0625,0.125 -1.46875,1.640625 H 1.71875 v -4.59375 h -0.375 L 0.1875,-6.6875 v 0.296875 h 0.734375 v 5.84375 L 0.75,-0.390625 0.234375,-0.34375 Z m 0,0"
             id="path37749" />
        </g>
        <g
           id="use33187"
           transform="translate(246.87288,221.668)">
          <path
             d="m 4.28125,-1.015625 c -0.546875,0.359375 -1.015625,0.5625 -1.5,0.5625 -0.96875,0 -1.609375,-0.734375 -1.609375,-1.953125 V -2.515625 H 4.28125 c 0,-0.109375 0,-0.203125 0,-0.296875 0,-1.171875 -0.671875,-1.875 -1.71875,-1.875 -1.28125,0 -2.203125,0.984375 -2.203125,2.421875 0,1.40625 0.859375,2.359375 2.125,2.359375 0.609375,0 1.21875,-0.203125 1.796875,-0.578125 z M 3.4375,-2.921875 H 1.21875 c 0.0625,-0.8125 0.609375,-1.34375 1.21875,-1.34375 0.640625,0 1,0.421875 1,1.203125 z m 0,0"
             id="path37885" />
        </g>
        <g
           id="use33189"
           transform="translate(251.56891,221.668)">
          <path
             d="M 3.65625,-6.390625 V -4.59375 C 3.359375,-4.671875 3.078125,-4.703125 2.8125,-4.703125 c -1.453125,0 -2.46875,1.015625 -2.46875,2.546875 0,1.34375 0.796875,2.25 1.84375,2.25 0.53125,0 0.984375,-0.203125 1.46875,-0.59375 V 0 H 5.078125 V -0.34375 L 4.625,-0.390625 4.453125,-0.546875 V -7.03125 H 4.09375 L 2.921875,-6.6875 v 0.296875 z m 0,5.546875 C 3.3125,-0.625 2.96875,-0.515625 2.625,-0.515625 c -0.859375,0 -1.4375,-0.671875 -1.4375,-1.796875 0,-1.203125 0.671875,-1.96875 1.640625,-1.96875 0.21875,0 0.515625,0.046875 0.828125,0.15625 z m 0,0"
             id="path37709" />
        </g>
      </g>
      <g
         fill="#231f20"
         fill-opacity="1"
         id="g33201">
        <g
           id="use33193"
           transform="translate(208.09,233.623)">
          <path
             d="M 4.34375,-4.046875 C 4.125,-4.46875 3.765625,-4.6875 3.296875,-4.6875 c -0.40625,0 -0.90625,0.1875 -1.53125,0.5625 v -0.515625 h -0.375 L 0.28125,-4.296875 V -4 h 0.6875 v 3.453125 L 0.796875,-0.390625 0.28125,-0.34375 V 0 H 2.375 V -0.34375 L 1.921875,-0.390625 1.765625,-0.546875 V -3.75 C 2.1875,-3.953125 2.53125,-4.0625 2.84375,-4.0625 c 0.578125,0 0.84375,0.3125 0.84375,0.984375 v 2.53125 L 3.53125,-0.390625 3.0625,-0.34375 V 0 H 5.109375 V -0.34375 L 4.65625,-0.390625 4.484375,-0.546875 V -3.75 c 0.40625,-0.203125 0.78125,-0.3125 1.078125,-0.3125 0.59375,0 0.859375,0.3125 0.859375,0.984375 v 2.53125 L 6.25,-0.390625 5.796875,-0.34375 V 0 h 2.09375 V -0.34375 L 7.375,-0.390625 7.21875,-0.546875 v -2.6875 c 0,-0.953125 -0.484375,-1.453125 -1.234375,-1.453125 -0.375,0 -0.921875,0.21875 -1.640625,0.640625 z m 0,0"
             id="path37773" />
        </g>
        <g
           id="use33195"
           transform="translate(216.15262,233.623)">
          <path
             d="M 3.1875,-0.546875 3.3125,0 H 4.671875 V -0.34375 L 4.15625,-0.390625 3.984375,-0.546875 V -3.3125 c 0,-0.96875 -0.421875,-1.375 -1.421875,-1.375 -1.203125,0 -1.9375,0.484375 -1.9375,1.078125 0,0.21875 0.078125,0.296875 0.296875,0.296875 H 1.59375 V -4.125 c 0.25,-0.109375 0.484375,-0.15625 0.71875,-0.15625 0.6875,0 0.875,0.328125 0.875,1.078125 v 0.3125 C 1.28125,-2.4375 0.40625,-2.15625 0.40625,-1.15625 c 0,0.71875 0.46875,1.21875 1.21875,1.21875 0.453125,0 0.96875,-0.203125 1.5625,-0.609375 z m 0,-0.328125 C 2.71875,-0.609375 2.328125,-0.453125 2.015625,-0.453125 1.53125,-0.453125 1.25,-0.765625 1.25,-1.234375 1.25,-1.9375 1.84375,-2.1875 3.1875,-2.5625 Z m 0,0"
             id="path37833" />
        </g>
        <g
           id="use33197"
           transform="translate(221.00166,233.623)">
          <path
             d="m 0.28125,0 h 2.3125 V -0.34375 L 1.921875,-0.390625 1.765625,-0.546875 V -3.28125 c 0.390625,-0.453125 0.71875,-0.703125 1.03125,-0.703125 0.203125,0 0.375,0.078125 0.5,0.234375 H 3.59375 V -4.578125 C 3.390625,-4.65625 3.21875,-4.6875 3.015625,-4.6875 c -0.078125,0 -0.15625,0 -0.234375,0.015625 C 2.4375,-4.40625 2.09375,-4.09375 1.765625,-3.75 v -0.890625 h -0.375 L 0.28125,-4.296875 V -4 h 0.6875 v 3.453125 L 0.796875,-0.390625 0.28125,-0.34375 Z m 0,0"
             id="path37725" />
        </g>
        <g
           id="use33199"
           transform="translate(224.6552,233.623)">
          <path
             d="m 0.234375,0 h 2.09375 v -0.34375 l -0.4375,-0.046875 -0.171875,-0.15625 v -1.625 H 2.265625 L 3.5625,-0.3125 V 0 H 5.046875 V -0.359375 L 4.4375,-0.40625 2.75,-2.78125 4.0625,-4.171875 4.671875,-4.25 v -0.34375 h -1.8125 V -4.25 l 0.4375,0.046875 0.0625,0.125 -1.46875,1.640625 H 1.71875 v -4.59375 h -0.375 L 0.1875,-6.6875 v 0.296875 h 0.734375 v 5.84375 L 0.75,-0.390625 0.234375,-0.34375 Z m 0,0"
             id="path37753" />
        </g>
      </g>
      <g
         fill="#231f20"
         fill-opacity="1"
         id="g33205">
        <g
           id="use33203"
           transform="translate(232.737,233.623)">
          <path
             d="m 0.890625,-4.625 -0.96875,0.3125 v 0.234375 l 0.734375,0.0625 c 0.171875,0.109375 0.25,0.375 0.296875,0.8125 L 1.1875,-0.96875 c 0,0.125 0.015625,0.234375 0.015625,0.34375 0,0.234375 -0.03125,0.4375 -0.125,0.625 H 1.53125 c 1.78125,-2.015625 2.625,-3.421875 2.625,-4.078125 0,-0.34375 -0.1875,-0.546875 -0.515625,-0.546875 -0.15625,0 -0.328125,0.0625 -0.46875,0.1875 l 0.171875,1.171875 c -0.25,0.65625 -0.734375,1.421875 -1.453125,2.359375 l -0.25,-2.625 C 1.5625,-4.296875 1.453125,-4.625 0.90625,-4.625 c 0,0 0,0 -0.015625,0 z m 0,0"
             id="path37681" />
        </g>
      </g>
      <g
         fill="#231f20"
         fill-opacity="1"
         id="g33209">
        <g
           id="use33207"
           transform="translate(208.09,245.578)">
          <path
             d="M 0.28125,0 H 2.5 V -0.34375 L 1.90625,-0.390625 1.75,-0.546875 V -4.03125 h 1.34375 v -0.4375 H 1.765625 v -0.703125 c 0,-0.796875 0.203125,-1.296875 0.609375,-1.5 L 3.25,-6.09375 c 0.25,-0.0625 0.390625,-0.25 0.390625,-0.46875 0,-0.3125 -0.296875,-0.546875 -0.75,-0.546875 -1.125,0 -1.9375,0.9375 -1.9375,2.53125 V -4.46875 L 0.34375,-4.328125 v 0.296875 h 0.609375 v 3.484375 l -0.171875,0.15625 -0.5,0.046875 z m 0,0"
             id="path37741" />
        </g>
      </g>
      <g
         fill="#231f20"
         fill-opacity="1"
         id="g33215">
        <g
           id="use33211"
           transform="translate(210.94969,245.578)">
          <path
             d="m 2.578125,-4.6875 c -1.296875,0 -2.21875,0.953125 -2.21875,2.390625 0,1.40625 0.9375,2.390625 2.21875,2.390625 1.28125,0 2.21875,-0.984375 2.21875,-2.390625 0,-1.421875 -0.9375,-2.390625 -2.21875,-2.390625 z m 0,0.40625 c 0.765625,0 1.328125,0.75 1.328125,1.984375 0,1.234375 -0.5625,1.96875 -1.328125,1.96875 -0.765625,0 -1.328125,-0.75 -1.328125,-1.96875 0,-1.25 0.546875,-1.984375 1.328125,-1.984375 z m 0,0"
             id="path37941" />
        </g>
        <g
           id="use33213"
           transform="translate(216.1048,245.578)">
          <path
             d="m 0.28125,0 h 2.3125 V -0.34375 L 1.921875,-0.390625 1.765625,-0.546875 V -3.28125 c 0.390625,-0.453125 0.71875,-0.703125 1.03125,-0.703125 0.203125,0 0.375,0.078125 0.5,0.234375 H 3.59375 V -4.578125 C 3.390625,-4.65625 3.21875,-4.6875 3.015625,-4.6875 c -0.078125,0 -0.15625,0 -0.234375,0.015625 C 2.4375,-4.40625 2.09375,-4.09375 1.765625,-3.75 v -0.890625 h -0.375 L 0.28125,-4.296875 V -4 h 0.6875 v 3.453125 L 0.796875,-0.390625 0.28125,-0.34375 Z m 0,0"
             id="path37729" />
        </g>
      </g>
      <g
         fill="#231f20"
         fill-opacity="1"
         id="g33225">
        <g
           id="use33217"
           transform="translate(222.41718,245.578)">
          <path
             d="m 4.28125,-1.015625 c -0.546875,0.359375 -1.015625,0.5625 -1.5,0.5625 -0.96875,0 -1.609375,-0.734375 -1.609375,-1.953125 V -2.515625 H 4.28125 c 0,-0.109375 0,-0.203125 0,-0.296875 0,-1.171875 -0.671875,-1.875 -1.71875,-1.875 -1.28125,0 -2.203125,0.984375 -2.203125,2.421875 0,1.40625 0.859375,2.359375 2.125,2.359375 0.609375,0 1.21875,-0.203125 1.796875,-0.578125 z M 3.4375,-2.921875 H 1.21875 c 0.0625,-0.8125 0.609375,-1.34375 1.21875,-1.34375 0.640625,0 1,0.421875 1,1.203125 z m 0,0"
             id="path37889" />
        </g>
        <g
           id="use33219"
           transform="translate(227.11319,245.578)">
          <path
             d="M 3.1875,-0.546875 3.3125,0 H 4.671875 V -0.34375 L 4.15625,-0.390625 3.984375,-0.546875 V -3.3125 c 0,-0.96875 -0.421875,-1.375 -1.421875,-1.375 -1.203125,0 -1.9375,0.484375 -1.9375,1.078125 0,0.21875 0.078125,0.296875 0.296875,0.296875 H 1.59375 V -4.125 c 0.25,-0.109375 0.484375,-0.15625 0.71875,-0.15625 0.6875,0 0.875,0.328125 0.875,1.078125 v 0.3125 C 1.28125,-2.4375 0.40625,-2.15625 0.40625,-1.15625 c 0,0.71875 0.46875,1.21875 1.21875,1.21875 0.453125,0 0.96875,-0.203125 1.5625,-0.609375 z m 0,-0.328125 C 2.71875,-0.609375 2.328125,-0.453125 2.015625,-0.453125 1.53125,-0.453125 1.25,-0.765625 1.25,-1.234375 1.25,-1.9375 1.84375,-2.1875 3.1875,-2.5625 Z m 0,0"
             id="path37837" />
        </g>
        <g
           id="use33221"
           transform="translate(231.96225,245.578)">
          <path
             d="m 4.0625,-0.40625 v -0.5 C 3.65625,-0.625 3.265625,-0.5 2.84375,-0.5 c -0.984375,0 -1.625,-0.6875 -1.625,-1.875 0,-1.203125 0.59375,-1.9375 1.40625,-1.9375 0.171875,0 0.3125,0.046875 0.46875,0.140625 v 0.78125 C 3.234375,-3.296875 3.375,-3.25 3.515625,-3.25 c 0.328125,0 0.53125,-0.203125 0.53125,-0.515625 C 4.046875,-4.3125 3.53125,-4.6875 2.625,-4.6875 c -1.34375,0 -2.265625,0.953125 -2.265625,2.390625 0,1.40625 0.84375,2.359375 2.140625,2.359375 0.515625,0 1.03125,-0.15625 1.5625,-0.46875 z m 0,0"
             id="path37705" />
        </g>
        <g
           id="use33223"
           transform="translate(236.22787,245.578)">
          <path
             d="M 1.34375,-7.03125 0.1875,-6.6875 v 0.296875 h 0.734375 v 5.84375 L 0.75,-0.390625 0.234375,-0.34375 V 0 h 2.09375 V -0.34375 L 1.890625,-0.390625 1.71875,-0.546875 V -3.75 c 0.40625,-0.203125 0.765625,-0.3125 1.0625,-0.3125 0.703125,0 0.96875,0.28125 0.96875,0.984375 v 2.53125 l -0.171875,0.15625 -0.4375,0.046875 V 0 H 5.21875 v -0.34375 l -0.5,-0.046875 -0.171875,-0.15625 v -2.6875 c 0,-0.96875 -0.453125,-1.453125 -1.28125,-1.453125 -0.421875,0 -0.90625,0.21875 -1.546875,0.5625 v -2.90625 z m 0,0"
             id="path37921" />
        </g>
      </g>
      <g
         fill="#231f20"
         fill-opacity="1"
         id="g33235">
        <g
           id="use33227"
           transform="translate(244.28093,245.578)">
          <path
             d="m 4.28125,-1.015625 c -0.546875,0.359375 -1.015625,0.5625 -1.5,0.5625 -0.96875,0 -1.609375,-0.734375 -1.609375,-1.953125 V -2.515625 H 4.28125 c 0,-0.109375 0,-0.203125 0,-0.296875 0,-1.171875 -0.671875,-1.875 -1.71875,-1.875 -1.28125,0 -2.203125,0.984375 -2.203125,2.421875 0,1.40625 0.859375,2.359375 2.125,2.359375 0.609375,0 1.21875,-0.203125 1.796875,-0.578125 z M 3.4375,-2.921875 H 1.21875 c 0.0625,-0.8125 0.609375,-1.34375 1.21875,-1.34375 0.640625,0 1,0.421875 1,1.203125 z m 0,0"
             id="path37893" />
        </g>
        <g
           id="use33229"
           transform="translate(248.97696,245.578)">
          <path
             d="M 3.65625,-6.390625 V -4.59375 C 3.359375,-4.671875 3.078125,-4.703125 2.8125,-4.703125 c -1.453125,0 -2.46875,1.015625 -2.46875,2.546875 0,1.34375 0.796875,2.25 1.84375,2.25 0.53125,0 0.984375,-0.203125 1.46875,-0.59375 V 0 H 5.078125 V -0.34375 L 4.625,-0.390625 4.453125,-0.546875 V -7.03125 H 4.09375 L 2.921875,-6.6875 v 0.296875 z m 0,5.546875 C 3.3125,-0.625 2.96875,-0.515625 2.625,-0.515625 c -0.859375,0 -1.4375,-0.671875 -1.4375,-1.796875 0,-1.203125 0.671875,-1.96875 1.640625,-1.96875 0.21875,0 0.515625,0.046875 0.828125,0.15625 z m 0,0"
             id="path37713" />
        </g>
        <g
           id="use33231"
           transform="translate(254.38072,245.578)">
          <path
             d="M 3.53125,-4.421875 C 3.171875,-4.609375 2.8125,-4.6875 2.453125,-4.6875 c -1.140625,0 -1.859375,0.640625 -1.859375,1.5625 0,0.71875 0.453125,1.28125 1.1875,1.453125 -0.3125,0.359375 -0.46875,0.65625 -0.46875,0.90625 0,0.15625 0.046875,0.296875 0.109375,0.4375 C 0.765625,-0.21875 0.375,0.234375 0.375,0.84375 0.375,1.609375 1.015625,2.078125 2.109375,2.078125 2.84375,2.078125 3.5,1.859375 4,1.453125 4.375,1.140625 4.578125,0.734375 4.578125,0.375 c 0,-0.703125 -0.5,-1 -1.625,-1.171875 L 2.03125,-0.9375 c 0,-0.109375 -0.015625,-0.1875 -0.015625,-0.234375 0,-0.140625 0.046875,-0.296875 0.109375,-0.421875 h 0.15625 c 1.109375,0 1.828125,-0.640625 1.828125,-1.5 0,-0.328125 -0.078125,-0.609375 -0.265625,-0.890625 h 1.046875 v -0.4375 z m -1.171875,0.09375 c 0.546875,0 0.9375,0.453125 0.9375,1.1875 0,0.71875 -0.390625,1.171875 -0.9375,1.171875 -0.5625,0 -0.9375,-0.453125 -0.9375,-1.171875 0,-0.734375 0.375,-1.1875 0.9375,-1.1875 z M 1.96875,-0.28125 2.890625,-0.109375 C 3.5625,0.015625 3.875,0.109375 3.875,0.625 c 0,0.546875 -0.578125,1.015625 -1.421875,1.015625 -0.796875,0 -1.3125,-0.4375 -1.3125,-0.984375 0,-0.421875 0.296875,-0.78125 0.828125,-0.9375 z m 0,0"
             id="path37805" />
        </g>
        <g
           id="use33233"
           transform="translate(259.38281,245.578)">
          <path
             d="m 4.28125,-1.015625 c -0.546875,0.359375 -1.015625,0.5625 -1.5,0.5625 -0.96875,0 -1.609375,-0.734375 -1.609375,-1.953125 V -2.515625 H 4.28125 c 0,-0.109375 0,-0.203125 0,-0.296875 0,-1.171875 -0.671875,-1.875 -1.71875,-1.875 -1.28125,0 -2.203125,0.984375 -2.203125,2.421875 0,1.40625 0.859375,2.359375 2.125,2.359375 0.609375,0 1.21875,-0.203125 1.796875,-0.578125 z M 3.4375,-2.921875 H 1.21875 c 0.0625,-0.8125 0.609375,-1.34375 1.21875,-1.34375 0.640625,0 1,0.421875 1,1.203125 z m 0,0"
             id="path37897" />
        </g>
      </g>
      <g
         fill="#231f20"
         fill-opacity="1"
         id="g33239">
        <g
           id="use33237"
           transform="translate(267.216,245.578)">
          <path
             d="m 0.890625,-4.625 -0.96875,0.3125 v 0.234375 l 0.734375,0.0625 c 0.171875,0.109375 0.25,0.375 0.296875,0.8125 L 1.1875,-0.96875 c 0,0.125 0.015625,0.234375 0.015625,0.34375 0,0.234375 -0.03125,0.4375 -0.125,0.625 H 1.53125 c 1.78125,-2.015625 2.625,-3.421875 2.625,-4.078125 0,-0.34375 -0.1875,-0.546875 -0.515625,-0.546875 -0.15625,0 -0.328125,0.0625 -0.46875,0.1875 l 0.171875,1.171875 c -0.25,0.65625 -0.734375,1.421875 -1.453125,2.359375 l -0.25,-2.625 C 1.5625,-4.296875 1.453125,-4.625 0.90625,-4.625 c 0,0 0,0 -0.015625,0 z m 0,0"
             id="path37685" />
        </g>
      </g>
      <g
         fill="#231f20"
         fill-opacity="1"
         id="g33243">
        <g
           id="use33241"
           transform="translate(272.27545,245.578)">
          <path
             d="M 1.09375,-4.640625 0,-4.3125 v 0.234375 L 0.703125,-4 0.96875,-0.203125 0.890625,0 h 0.625 C 2.484375,-1.671875 3.09375,-2.796875 3.34375,-3.34375 L 3.5625,0 H 4.125 c 1.578125,-2.078125 2.453125,-3.359375 2.453125,-4.078125 0,-0.34375 -0.1875,-0.546875 -0.5,-0.546875 -0.203125,0 -0.359375,0.0625 -0.484375,0.21875 l 0.1875,1.109375 C 5.5625,-2.625 5.03125,-1.78125 4.234375,-0.71875 c -0.125,-1.609375 -0.21875,-2.859375 -0.25,-3.75 l -0.578125,0.0625 c -0.515625,1.1875 -1.125,2.359375 -1.765625,3.5625 L 1.4375,-4.625 Z m 0,0"
             id="path37665" />
        </g>
      </g>
      <g
         fill="#231f20"
         fill-opacity="1"
         id="g33251">
        <g
           id="use33245"
           transform="translate(227.21899,257.53299)">
          <path
             d="m 0.21875,2.078125 h 2.25 V 1.734375 L 1.859375,1.6875 1.6875,1.546875 V -0.0625 C 2.046875,0 2.34375,0.03125 2.578125,0.03125 4,0.03125 4.9375,-0.953125 4.9375,-2.453125 4.9375,-3.796875 4.15625,-4.6875 3.09375,-4.6875 2.65625,-4.6875 2.203125,-4.5 1.6875,-4.125 V -4.640625 H 1.328125 L 0.21875,-4.296875 V -4 h 0.6875 V 1.546875 L 0.734375,1.6875 0.21875,1.734375 Z m 1.46875,-2.625 v -3.21875 c 0.375,-0.21875 0.6875,-0.328125 1.015625,-0.328125 0.828125,0 1.390625,0.65625 1.390625,1.765625 0,1.171875 -0.65625,1.921875 -1.59375,1.921875 -0.21875,0 -0.484375,-0.046875 -0.8125,-0.140625 z m 0,0"
             id="path38053" />
        </g>
        <g
           id="use33247"
           transform="translate(232.48888,257.53299)">
          <path
             d="M 1.359375,-4.6875 0.25,-4.34375 v 0.296875 H 0.921875 V -1.375 c 0,0.96875 0.46875,1.46875 1.28125,1.46875 0.46875,0 0.984375,-0.21875 1.5625,-0.625 V 0 h 1.40625 V -0.34375 L 4.71875,-0.390625 4.546875,-0.546875 V -4.6875 H 4.1875 l -1.109375,0.34375 v 0.296875 h 0.6875 v 3.25 C 3.359375,-0.609375 3,-0.515625 2.65625,-0.515625 c -0.640625,0 -0.9375,-0.328125 -0.9375,-1.015625 V -4.6875 Z m 0,0"
             id="path38041" />
        </g>
        <g
           id="use33249"
           transform="translate(237.93091,257.53299)">
          <path
             d="m 0.84375,-4.03125 v 3.09375 c 0,0.671875 0.203125,0.96875 1,0.96875 0.359375,0 0.796875,-0.0625 1.25,-0.21875 v -0.34375 c -0.21875,0.046875 -0.4375,0.078125 -0.671875,0.078125 -0.65625,0 -0.78125,-0.328125 -0.78125,-1.046875 V -4.03125 H 3.09375 v -0.4375 H 1.640625 V -5.484375 H 1.28125 L 0.875,-4.59375 0.234375,-4.328125 v 0.296875 z m 0,0"
             id="path38021" />
        </g>
      </g>
      <g
         fill="#231f20"
         fill-opacity="1"
         id="g33255">
        <g
           id="use33253"
           transform="translate(244.02299,257.53299)">
          <path
             d="M 1.09375,-4.640625 0,-4.3125 v 0.234375 L 0.703125,-4 0.96875,-0.203125 0.890625,0 h 0.625 C 2.484375,-1.671875 3.09375,-2.796875 3.34375,-3.34375 L 3.5625,0 H 4.125 c 1.578125,-2.078125 2.453125,-3.359375 2.453125,-4.078125 0,-0.34375 -0.1875,-0.546875 -0.5,-0.546875 -0.203125,0 -0.359375,0.0625 -0.484375,0.21875 l 0.1875,1.109375 C 5.5625,-2.625 5.03125,-1.78125 4.234375,-0.71875 c -0.125,-1.609375 -0.21875,-2.859375 -0.25,-3.75 l -0.578125,0.0625 c -0.515625,1.1875 -1.125,2.359375 -1.765625,3.5625 L 1.4375,-4.625 Z m 0,0"
             id="path37669" />
        </g>
      </g>
      <g
         fill="#231f20"
         fill-opacity="1"
         id="g33263">
        <g
           id="use33257"
           transform="translate(253.50101,257.53299)">
          <path
             d="m 1.46875,-6.765625 c -0.296875,0 -0.546875,0.234375 -0.546875,0.546875 0,0.3125 0.25,0.546875 0.546875,0.546875 0.3125,0 0.5625,-0.234375 0.5625,-0.546875 0,-0.296875 -0.25,-0.546875 -0.5625,-0.546875 z m -0.03125,2.125 -1.109375,0.34375 V -4 H 1 v 3.453125 L 0.84375,-0.390625 0.328125,-0.34375 V 0 h 2.15625 V -0.34375 L 1.96875,-0.390625 1.796875,-0.546875 v -4.09375 z m 0,0"
             id="path37985" />
        </g>
        <g
           id="use33259"
           transform="translate(256.17899,257.53299)">
          <path
             d="M 0.28125,0 H 2.375 V -0.34375 L 1.921875,-0.390625 1.765625,-0.546875 V -3.75 c 0.40625,-0.203125 0.765625,-0.3125 1.0625,-0.3125 0.703125,0 0.96875,0.28125 0.96875,0.984375 v 2.53125 l -0.15625,0.15625 -0.46875,0.046875 V 0 h 2.09375 V -0.34375 L 4.75,-0.390625 4.59375,-0.546875 v -2.6875 c 0,-0.96875 -0.46875,-1.453125 -1.296875,-1.453125 -0.40625,0 -0.890625,0.21875 -1.53125,0.5625 v -0.515625 h -0.375 L 0.28125,-4.296875 V -4 h 0.6875 v 3.453125 L 0.796875,-0.390625 0.28125,-0.34375 Z m 0,0"
             id="path37961" />
        </g>
        <g
           id="use33261"
           transform="translate(261.61145,257.53299)">
          <path
             d="m 0.84375,-4.03125 v 3.09375 c 0,0.671875 0.203125,0.96875 1,0.96875 0.359375,0 0.796875,-0.0625 1.25,-0.21875 v -0.34375 c -0.21875,0.046875 -0.4375,0.078125 -0.671875,0.078125 -0.65625,0 -0.78125,-0.328125 -0.78125,-1.046875 V -4.03125 H 3.09375 v -0.4375 H 1.640625 V -5.484375 H 1.28125 L 0.875,-4.59375 0.234375,-4.328125 v 0.296875 z m 0,0"
             id="path38025" />
        </g>
      </g>
      <g
         fill="#231f20"
         fill-opacity="1"
         id="g33267">
        <g
           id="use33265"
           transform="translate(264.76764,257.53299)">
          <path
             d="m 2.578125,-4.6875 c -1.296875,0 -2.21875,0.953125 -2.21875,2.390625 0,1.40625 0.9375,2.390625 2.21875,2.390625 1.28125,0 2.21875,-0.984375 2.21875,-2.390625 0,-1.421875 -0.9375,-2.390625 -2.21875,-2.390625 z m 0,0.40625 c 0.765625,0 1.328125,0.75 1.328125,1.984375 0,1.234375 -0.5625,1.96875 -1.328125,1.96875 -0.765625,0 -1.328125,-0.75 -1.328125,-1.96875 0,-1.25 0.546875,-1.984375 1.328125,-1.984375 z m 0,0"
             id="path37945" />
        </g>
      </g>
      <g
         fill="#231f20"
         fill-opacity="1"
         id="g33275">
        <g
           id="use33269"
           transform="translate(272.58157,257.53299)">
          <path
             d="m 0.84375,-4.03125 v 3.09375 c 0,0.671875 0.203125,0.96875 1,0.96875 0.359375,0 0.796875,-0.0625 1.25,-0.21875 v -0.34375 c -0.21875,0.046875 -0.4375,0.078125 -0.671875,0.078125 -0.65625,0 -0.78125,-0.328125 -0.78125,-1.046875 V -4.03125 H 3.09375 v -0.4375 H 1.640625 V -5.484375 H 1.28125 L 0.875,-4.59375 0.234375,-4.328125 v 0.296875 z m 0,0"
             id="path38029" />
        </g>
        <g
           id="use33271"
           transform="translate(275.77603,257.53299)">
          <path
             d="M 1.34375,-7.03125 0.1875,-6.6875 v 0.296875 h 0.734375 v 5.84375 L 0.75,-0.390625 0.234375,-0.34375 V 0 h 2.09375 V -0.34375 L 1.890625,-0.390625 1.71875,-0.546875 V -3.75 c 0.40625,-0.203125 0.765625,-0.3125 1.0625,-0.3125 0.703125,0 0.96875,0.28125 0.96875,0.984375 v 2.53125 l -0.171875,0.15625 -0.4375,0.046875 V 0 H 5.21875 v -0.34375 l -0.5,-0.046875 -0.171875,-0.15625 v -2.6875 c 0,-0.96875 -0.453125,-1.453125 -1.28125,-1.453125 -0.421875,0 -0.90625,0.21875 -1.546875,0.5625 v -2.90625 z m 0,0"
             id="path37925" />
        </g>
        <g
           id="use33273"
           transform="translate(281.17023,257.53299)">
          <path
             d="m 4.28125,-1.015625 c -0.546875,0.359375 -1.015625,0.5625 -1.5,0.5625 -0.96875,0 -1.609375,-0.734375 -1.609375,-1.953125 V -2.515625 H 4.28125 c 0,-0.109375 0,-0.203125 0,-0.296875 0,-1.171875 -0.671875,-1.875 -1.71875,-1.875 -1.28125,0 -2.203125,0.984375 -2.203125,2.421875 0,1.40625 0.859375,2.359375 2.125,2.359375 0.609375,0 1.21875,-0.203125 1.796875,-0.578125 z M 3.4375,-2.921875 H 1.21875 c 0.0625,-0.8125 0.609375,-1.34375 1.21875,-1.34375 0.640625,0 1,0.421875 1,1.203125 z m 0,0"
             id="path37901" />
        </g>
      </g>
      <g
         fill="#231f20"
         fill-opacity="1"
         id="g33283">
        <g
           id="use33277"
           transform="translate(288.52509,257.53299)">
          <path
             d="M 1.25,-7.03125 0.078125,-6.6875 v 0.296875 h 0.75 V 0 h 1.21875 C 3.875,0 4.8125,-0.875 4.8125,-2.515625 4.8125,-3.8125 4.046875,-4.6875 2.921875,-4.6875 c -0.421875,0 -0.84375,0.109375 -1.3125,0.328125 V -7.03125 Z M 1.609375,-0.4375 V -4.03125 C 1.9375,-4.125 2.21875,-4.1875 2.453125,-4.1875 c 0.953125,0 1.5,0.65625 1.5,1.859375 0,1.3125 -0.5625,1.890625 -1.8125,1.890625 -0.046875,0 -0.234375,0 -0.53125,0 z m 0,0"
             id="path37857" />
        </g>
        <g
           id="use33279"
           transform="translate(293.68021,257.53299)">
          <path
             d="M 3.1875,-0.546875 3.3125,0 H 4.671875 V -0.34375 L 4.15625,-0.390625 3.984375,-0.546875 V -3.3125 c 0,-0.96875 -0.421875,-1.375 -1.421875,-1.375 -1.203125,0 -1.9375,0.484375 -1.9375,1.078125 0,0.21875 0.078125,0.296875 0.296875,0.296875 H 1.59375 V -4.125 c 0.25,-0.109375 0.484375,-0.15625 0.71875,-0.15625 0.6875,0 0.875,0.328125 0.875,1.078125 v 0.3125 C 1.28125,-2.4375 0.40625,-2.15625 0.40625,-1.15625 c 0,0.71875 0.46875,1.21875 1.21875,1.21875 0.453125,0 0.96875,-0.203125 1.5625,-0.609375 z m 0,-0.328125 C 2.71875,-0.609375 2.328125,-0.453125 2.015625,-0.453125 1.53125,-0.453125 1.25,-0.765625 1.25,-1.234375 1.25,-1.9375 1.84375,-2.1875 3.1875,-2.5625 Z m 0,0"
             id="path37841" />
        </g>
        <g
           id="use33281"
           transform="translate(298.52927,257.53299)">
          <path
             d="M 3.53125,-4.421875 C 3.171875,-4.609375 2.8125,-4.6875 2.453125,-4.6875 c -1.140625,0 -1.859375,0.640625 -1.859375,1.5625 0,0.71875 0.453125,1.28125 1.1875,1.453125 -0.3125,0.359375 -0.46875,0.65625 -0.46875,0.90625 0,0.15625 0.046875,0.296875 0.109375,0.4375 C 0.765625,-0.21875 0.375,0.234375 0.375,0.84375 0.375,1.609375 1.015625,2.078125 2.109375,2.078125 2.84375,2.078125 3.5,1.859375 4,1.453125 4.375,1.140625 4.578125,0.734375 4.578125,0.375 c 0,-0.703125 -0.5,-1 -1.625,-1.171875 L 2.03125,-0.9375 c 0,-0.109375 -0.015625,-0.1875 -0.015625,-0.234375 0,-0.140625 0.046875,-0.296875 0.109375,-0.421875 h 0.15625 c 1.109375,0 1.828125,-0.640625 1.828125,-1.5 0,-0.328125 -0.078125,-0.609375 -0.265625,-0.890625 h 1.046875 v -0.4375 z m -1.171875,0.09375 c 0.546875,0 0.9375,0.453125 0.9375,1.1875 0,0.71875 -0.390625,1.171875 -0.9375,1.171875 -0.5625,0 -0.9375,-0.453125 -0.9375,-1.171875 0,-0.734375 0.375,-1.1875 0.9375,-1.1875 z M 1.96875,-0.28125 2.890625,-0.109375 C 3.5625,0.015625 3.875,0.109375 3.875,0.625 c 0,0.546875 -0.578125,1.015625 -1.421875,1.015625 -0.796875,0 -1.3125,-0.4375 -1.3125,-0.984375 0,-0.421875 0.296875,-0.78125 0.828125,-0.9375 z m 0,0"
             id="path37809" />
        </g>
      </g>
      <path
         fill="none"
         stroke-width="0.61"
         stroke-linecap="butt"
         stroke-linejoin="miter"
         stroke="#231f20"
         stroke-opacity="1"
         stroke-miterlimit="10"
         d="M 0.00159375,-7.8125e-4 H 156.43519"
         transform="matrix(1,0,0,-1,153.682,261.425)"
         id="path33285" />
      <path
         fill="none"
         stroke-width="0.61"
         stroke-linecap="butt"
         stroke-linejoin="miter"
         stroke="#231f20"
         stroke-opacity="1"
         stroke-miterlimit="10"
         d="M 0.00128125,-4.6875e-4 V 96.862812"
         transform="matrix(1,0,0,-1,153.987,261.73)"
         id="path33287" />
      <path
         fill="none"
         stroke-width="0.61"
         stroke-linecap="butt"
         stroke-linejoin="miter"
         stroke="#231f20"
         stroke-opacity="1"
         stroke-miterlimit="10"
         d="M -0.0015,-4.6875e-4 V 96.862812"
         transform="matrix(1,0,0,-1,309.814,261.73)"
         id="path33289" />
    </g>
  </g>
</svg>
