<?xml version="1.0" encoding="UTF-8" standalone="no"?>
<!-- Created with Inkscape (http://www.inkscape.org/) -->

<svg
   width="123.636mm"
   height="20.548309mm"
   viewBox="0 0 123.636 20.548309"
   version="1.1"
   id="svg986"
   inkscape:version="1.2 (dc2aeda, 2022-05-15)"
   sodipodi:docname="windowed_time_courses_N.svg"
   xml:space="preserve"
   xmlns:inkscape="http://www.inkscape.org/namespaces/inkscape"
   xmlns:sodipodi="http://sodipodi.sourceforge.net/DTD/sodipodi-0.dtd"
   xmlns="http://www.w3.org/2000/svg"
   xmlns:svg="http://www.w3.org/2000/svg"><sodipodi:namedview
     id="namedview988"
     pagecolor="#ffffff"
     bordercolor="#666666"
     borderopacity="1.0"
     inkscape:showpageshadow="2"
     inkscape:pageopacity="0.0"
     inkscape:pagecheckerboard="0"
     inkscape:deskcolor="#d1d1d1"
     inkscape:document-units="mm"
     showgrid="false"
     inkscape:zoom="2.916196"
     inkscape:cx="209.86244"
     inkscape:cy="99.101706"
     inkscape:window-width="1680"
     inkscape:window-height="997"
     inkscape:window-x="0"
     inkscape:window-y="25"
     inkscape:window-maximized="1"
     inkscape:current-layer="layer1" /><defs
     id="defs983"><style
       type="text/css"
       id="style4636">*{stroke-linecap:butt;stroke-linejoin:round;}</style><path
       d="M 0,0 V 3.5"
       id="m1301382a08"
       style="stroke:#000000;stroke-width:0.8" /><path
       d="M 10.59375,35.5 H 73.1875 V 27.203125 H 10.59375 Z"
       id="DejaVuSans-8722" /><path
       d="m 12.40625,8.296875 h 16.109375 v 55.625 L 10.984375,60.40625 v 8.984375 l 17.4375,3.515625 H 38.28125 V 8.296875 H 54.390625 V 0 H 12.40625 Z"
       id="DejaVuSans-49" /><path
       d="m 31.78125,66.40625 q -7.609375,0 -11.453125,-7.5 Q 16.5,51.421875 16.5,36.375 q 0,-14.984375 3.828125,-22.484375 3.84375,-7.5 11.453125,-7.5 7.671875,0 11.5,7.5 3.84375,7.5 3.84375,22.484375 0,15.046875 -3.84375,22.53125 -3.828125,7.5 -11.5,7.5 z m 0,7.8125 q 12.265625,0 18.734375,-9.703125 6.46875,-9.6875 6.46875,-28.140625 0,-18.40625 -6.46875,-28.109375 -6.46875,-9.6875 -18.734375,-9.6875 -12.25,0 -18.71875,9.6875 Q 6.59375,17.96875 6.59375,36.375 q 0,18.453125 6.46875,28.140625 6.46875,9.703125 18.71875,9.703125 z"
       id="DejaVuSans-48" /><path
       d="M 10.6875,12.40625 H 21 V 0 H 10.6875 Z"
       id="DejaVuSans-46" /><path
       d="m 8.203125,72.90625 h 46.875 V 68.703125 L 28.609375,0 H 18.3125 L 43.21875,64.59375 H 8.203125 Z"
       id="DejaVuSans-55" /><path
       d="m 10.796875,72.90625 h 38.71875 v -8.3125 h -29.6875 V 46.734375 q 2.140625,0.734375 4.28125,1.09375 2.15625,0.359375 4.3125,0.359375 Q 40.625,48.1875 47.75,41.5 54.890625,34.8125 54.890625,23.390625 54.890625,11.625 47.5625,5.09375 40.234375,-1.421875 26.90625,-1.421875 q -4.59375,0 -9.359375,0.78125 -4.75,0.78125 -9.828125,2.34375 V 11.625 q 4.390625,-2.390625 9.078125,-3.5625 4.6875,-1.171875 9.90625,-1.171875 8.453125,0 13.375,4.4375 4.9375,4.4375 4.9375,12.0625 0,7.609375 -4.9375,12.046875 -4.921875,4.453125 -13.375,4.453125 -3.953125,0 -7.890625,-0.875 -3.921875,-0.875 -8.015625,-2.734375 z"
       id="DejaVuSans-53" /><path
       d="M 19.1875,8.296875 H 53.609375 V 0 H 7.328125 v 8.296875 q 5.609375,5.8125 15.296875,15.59375 9.703125,9.796875 12.1875,12.640625 4.734375,5.3125 6.609375,9 1.890625,3.6875 1.890625,7.25 0,5.8125 -4.078125,9.46875 -4.078125,3.671875 -10.625,3.671875 -4.640625,0 -9.796875,-1.609375 -5.140625,-1.609375 -11,-4.890625 v 9.96875 Q 13.765625,71.78125 18.9375,73 q 5.1875,1.21875 9.484375,1.21875 11.328125,0 18.0625,-5.671875 6.734375,-5.65625 6.734375,-15.125 0,-4.5 -1.6875,-8.53125 Q 49.859375,40.875 45.40625,35.40625 44.1875,33.984375 37.640625,27.21875 31.109375,20.453125 19.1875,8.296875 Z"
       id="DejaVuSans-50" /><path
       d="M 0,0 H -3.5"
       id="mf675a5eb5a"
       style="stroke:#000000;stroke-width:0.8" /><path
       d="M 40.578125,39.3125 Q 47.65625,37.796875 51.625,33 q 3.984375,-4.78125 3.984375,-11.8125 0,-10.78125 -7.421875,-16.703125 -7.421875,-5.90625 -21.09375,-5.90625 -4.578125,0 -9.4375,0.90625 -4.859375,0.90625 -10.03125,2.71875 v 9.515625 q 4.09375,-2.390625 8.96875,-3.609375 4.890625,-1.21875 10.21875,-1.21875 9.265625,0 14.125,3.65625 4.859375,3.65625 4.859375,10.640625 0,6.453125 -4.515625,10.078125 -4.515625,3.640625 -12.5625,3.640625 h -8.5 v 8.109375 h 8.890625 q 7.265625,0 11.125,2.90625 3.859375,2.90625 3.859375,8.375 0,5.609375 -3.984375,8.609375 -3.96875,3.015625 -11.390625,3.015625 -4.0625,0 -8.703125,-0.890625 Q 15.375,64.15625 9.8125,62.3125 v 8.78125 q 5.625,1.5625 10.53125,2.34375 4.90625,0.78125 9.25,0.78125 11.234375,0 17.765625,-5.109375 6.546875,-5.09375 6.546875,-13.78125 0,-6.0625 -3.46875,-10.234375 -3.46875,-4.171875 -9.859375,-5.78125 z"
       id="DejaVuSans-51" /><path
       d="M 37.796875,64.3125 12.890625,25.390625 h 24.90625 z m -2.59375,8.59375 h 12.40625 V 25.390625 h 10.40625 V 17.1875 H 47.609375 V 0 h -9.8125 V 17.1875 H 4.890625 v 9.515625 z"
       id="DejaVuSans-52" /><style
       type="text/css"
       id="style6074">*{stroke-linecap:butt;stroke-linejoin:round;}</style><path
       d="M 0,0 V 3.5"
       id="m383736b292"
       style="stroke:#000000;stroke-width:0.8" /><path
       d="M 10.59375,35.5 H 73.1875 V 27.203125 H 10.59375 Z"
       id="DejaVuSans-8722-8" /><path
       d="m 12.40625,8.296875 h 16.109375 v 55.625 L 10.984375,60.40625 v 8.984375 l 17.4375,3.515625 H 38.28125 V 8.296875 H 54.390625 V 0 H 12.40625 Z"
       id="DejaVuSans-49-1" /><path
       d="m 31.78125,66.40625 q -7.609375,0 -11.453125,-7.5 Q 16.5,51.421875 16.5,36.375 q 0,-14.984375 3.828125,-22.484375 3.84375,-7.5 11.453125,-7.5 7.671875,0 11.5,7.5 3.84375,7.5 3.84375,22.484375 0,15.046875 -3.84375,22.53125 -3.828125,7.5 -11.5,7.5 z m 0,7.8125 q 12.265625,0 18.734375,-9.703125 6.46875,-9.6875 6.46875,-28.140625 0,-18.40625 -6.46875,-28.109375 -6.46875,-9.6875 -18.734375,-9.6875 -12.25,0 -18.71875,9.6875 Q 6.59375,17.96875 6.59375,36.375 q 0,18.453125 6.46875,28.140625 6.46875,9.703125 18.71875,9.703125 z"
       id="DejaVuSans-48-5" /><path
       d="M 10.6875,12.40625 H 21 V 0 H 10.6875 Z"
       id="DejaVuSans-46-3" /><path
       d="m 8.203125,72.90625 h 46.875 V 68.703125 L 28.609375,0 H 18.3125 L 43.21875,64.59375 H 8.203125 Z"
       id="DejaVuSans-55-5" /><path
       d="m 10.796875,72.90625 h 38.71875 v -8.3125 h -29.6875 V 46.734375 q 2.140625,0.734375 4.28125,1.09375 2.15625,0.359375 4.3125,0.359375 Q 40.625,48.1875 47.75,41.5 54.890625,34.8125 54.890625,23.390625 54.890625,11.625 47.5625,5.09375 40.234375,-1.421875 26.90625,-1.421875 q -4.59375,0 -9.359375,0.78125 -4.75,0.78125 -9.828125,2.34375 V 11.625 q 4.390625,-2.390625 9.078125,-3.5625 4.6875,-1.171875 9.90625,-1.171875 8.453125,0 13.375,4.4375 4.9375,4.4375 4.9375,12.0625 0,7.609375 -4.9375,12.046875 -4.921875,4.453125 -13.375,4.453125 -3.953125,0 -7.890625,-0.875 -3.921875,-0.875 -8.015625,-2.734375 z"
       id="DejaVuSans-53-4" /><path
       d="M 19.1875,8.296875 H 53.609375 V 0 H 7.328125 v 8.296875 q 5.609375,5.8125 15.296875,15.59375 9.703125,9.796875 12.1875,12.640625 4.734375,5.3125 6.609375,9 1.890625,3.6875 1.890625,7.25 0,5.8125 -4.078125,9.46875 -4.078125,3.671875 -10.625,3.671875 -4.640625,0 -9.796875,-1.609375 -5.140625,-1.609375 -11,-4.890625 v 9.96875 Q 13.765625,71.78125 18.9375,73 q 5.1875,1.21875 9.484375,1.21875 11.328125,0 18.0625,-5.671875 6.734375,-5.65625 6.734375,-15.125 0,-4.5 -1.6875,-8.53125 Q 49.859375,40.875 45.40625,35.40625 44.1875,33.984375 37.640625,27.21875 31.109375,20.453125 19.1875,8.296875 Z"
       id="DejaVuSans-50-3" /><path
       d="M 0,0 H -3.5"
       id="m5429d7820c"
       style="stroke:#000000;stroke-width:0.8" /><path
       d="M 40.578125,39.3125 Q 47.65625,37.796875 51.625,33 q 3.984375,-4.78125 3.984375,-11.8125 0,-10.78125 -7.421875,-16.703125 -7.421875,-5.90625 -21.09375,-5.90625 -4.578125,0 -9.4375,0.90625 -4.859375,0.90625 -10.03125,2.71875 v 9.515625 q 4.09375,-2.390625 8.96875,-3.609375 4.890625,-1.21875 10.21875,-1.21875 9.265625,0 14.125,3.65625 4.859375,3.65625 4.859375,10.640625 0,6.453125 -4.515625,10.078125 -4.515625,3.640625 -12.5625,3.640625 h -8.5 v 8.109375 h 8.890625 q 7.265625,0 11.125,2.90625 3.859375,2.90625 3.859375,8.375 0,5.609375 -3.984375,8.609375 -3.96875,3.015625 -11.390625,3.015625 -4.0625,0 -8.703125,-0.890625 Q 15.375,64.15625 9.8125,62.3125 v 8.78125 q 5.625,1.5625 10.53125,2.34375 4.90625,0.78125 9.25,0.78125 11.234375,0 17.765625,-5.109375 6.546875,-5.09375 6.546875,-13.78125 0,-6.0625 -3.46875,-10.234375 -3.46875,-4.171875 -9.859375,-5.78125 z"
       id="DejaVuSans-51-6" /><path
       d="M 37.796875,64.3125 12.890625,25.390625 h 24.90625 z m -2.59375,8.59375 h 12.40625 V 25.390625 h 10.40625 V 17.1875 H 47.609375 V 0 h -9.8125 V 17.1875 H 4.890625 v 9.515625 z"
       id="DejaVuSans-52-5" /><clipPath
       id="p7fe54dfeb9"><rect
         height="266.112"
         width="357.12"
         x="57.599998"
         y="41.472"
         id="rect6437" /></clipPath></defs><g
     inkscape:label="Layer 1"
     inkscape:groupmode="layer"
     id="layer1"
     transform="translate(-34.476124,-151.4988)"><path
       id="path2372"
       d="m 34.563565,163.07411 0.844737,-6.41477 0.348644,0.6904 0.58291,-2.76159 0.348644,1.63986 0.58291,-1.58198 0.639409,8.11113 0.873677,-8.45702 0.377582,4.20026 0.640788,0.77584 0.931554,-4.71703 0.494715,3.45199 0.931554,1.5241 0.494716,-2.9049 0.20395,0.83371 0.639409,-1.52411 0.378961,6.24252 0.494715,-0.86403 0.348644,0.57602 0.465777,-2.38814 0.496094,2.93384 0.872298,-5.29167 0.523654,2.21451 0.582911,-3.19291 0.698665,4.2857 0.610471,-4.83278 1.135503,7.16304 0.552594,-3.48093 0.407899,1.89894 0.552593,-4.2292 0.378961,0.74827 0.814421,-3.27973 0.669726,7.73907 0.407899,-2.61828 0.348644,0.48921 0.436838,-1.1796 0.465777,2.58933 1.134125,-9.09092 0.378961,4.83278 0.37896,-0.63252 0.610471,4.68947 0.785482,-4.17133 0.552593,5.95451 0.582911,-5.52318 0.669726,6.47265 0.552593,-0.71934 0.407899,-2.27238 0.348644,0.77583 0.582912,-5.17729 0.727604,3.7965 0.348643,-1.06385 1.19338,5.81119 0.610471,-7.79556 0.611848,0.17225 0.407899,3.1061 0.756546,-4.60265 c 0,0 0.669724,1.23748 0.727604,1.1231 0.05788,-0.11575 0.698662,-2.99172 0.698662,-2.99172 l 0.377586,5.63756 0.37896,1.6688 0.4079,2.96278 1.076247,-3.68212 0.232886,-5.4088 0.669728,-0.89159 1.047309,8.08358 1.164442,-10.41246 0.902617,11.62099 0.698662,-7.16304 0.756546,7.04729 0.552591,-2.38676 0.552595,3.42305 0.757922,-2.67615 0.552591,-4.02663 0.669727,4.37251 0.872296,-6.93291 0.378961,2.76159 0.46578,-3.27835 0.319705,3.19153 0.640785,0.46165 0.843361,6.47126 1.106565,-9.95219 1.134124,8.68715 c 0,0 0.698666,-2.81946 0.727605,-2.73264 0.02893,0.0854 0.78686,1.86999 0.78686,1.86999 l 0.435458,-4.51721 0.757922,5.03398 0.523656,2.3592 1.19338,-7.90994 c 0,0 0.494715,2.18557 0.523653,2.01331 0.02893,-0.17225 0.436838,-4.20026 0.436838,-4.20026 l 0.436841,7.04729 0.40652,-0.71933 0.931552,3.42442 0.581533,-2.73403 c 0,0 0.465776,-0.46026 0.436838,-0.66146 -0.02893,-0.20119 0.37896,-3.96875 0.37896,-3.96875 l 0.756543,2.90491 0.523656,0.80615 0.814419,5.80981 0.698666,-6.87503 0.873676,1.52411 c 0,0 0.261828,1.49655 0.261828,1.32429 0,-0.17363 1.280198,-7.1341 1.280198,-7.1341 0,0 0.844737,10.26914 0.873676,10.12582 0.02893,-0.14469 1.106563,-13.83688 1.106563,-13.83688 l 1.51309,13.89338 0.52365,-2.21451 0.46578,1.92788 0.34864,-5.17867 0.84474,-1.40973 0.3197,4.80384 1.31052,-5.3206 0.66835,3.07715 0.55397,-9.49192 0.11575,6.011 1.3684,1.35323 c 0,0 0.26182,6.32795 0.40789,5.95451 0.1447,-0.37483 0.98944,-5.03398 0.98944,-5.03398 0,0 0.90123,5.06154 0.90123,4.94716 0,-0.11576 0.52504,-4.63159 0.52504,-4.63159 l 0.43546,1.46762 0.26182,-3.56774 0.20395,1.98575 0.61185,0.14331 0.55259,1.89894 0.49472,-7.71012 0.58291,4.40145 0.78548,-3.88331 c 0,0 0.8723,6.93291 0.96049,6.61596 0.0868,-0.31557 0.90262,-3.56636 0.90262,-3.56636 0,0 0.8723,3.79649 0.8723,3.62424 0,-0.17226 0.78548,-4.66053 0.78548,-4.66053 l 1.10656,7.2788 0.49472,-5.46668 0.69866,5.9545 0.66973,-6.84609 0.61047,8.34264 1.25126,-9.72343 0.93293,4.83278 0.43546,-4.86172 0.5526,1.92787 0.93155,-2.01331 c 0,0 1.33945,8.60034 1.22232,8.62928 -0.11576,0.0289 0.78686,-6.8461 0.78686,-6.8461 l 0.43684,0.86265 0.4644,-1.75424 0.4079,3.82543 0.69866,-3.10609 0.61047,4.51583 0.46578,-2.86081 h -0.04 l 0.33486,-4.15754 0.35003,0.6904 0.58153,-2.76159 0.34864,1.63986 0.58291,-1.58198 0.63941,8.11113 0.87368,-8.45702 0.37896,4.20026 0.63941,0.77584 0.93155,-4.71703 0.49472,3.45199 0.93155,1.5241 0.49472,-2.9049 0.20394,0.83371 0.64079,-1.52411 0.37758,6.24252 0.49472,-0.86403 0.35001,0.57602 0.46578,-2.38814 0.49472,2.93384 0.8723,-5.29167 0.52365,2.21451 0.58291,-3.19291 0.69867,4.2857 0.61047,-4.83278 1.1355,7.16304 0.55259,-3.48093 0.4079,1.89894 0.5526,-4.2292 0.37896,0.74827 0.81442,-3.27973 0.66973,7.73907 0.4079,-2.61828 0.34864,0.48921 0.43684,-1.1796 0.46577,2.58933 1.13551,-9.09092 0.37758,4.83278 0.37896,-0.63252 0.61047,4.68947 0.78548,-4.17133 0.55397,5.95451 0.58153,-5.52318 0.66973,6.47265 0.5526,-0.71934 0.4079,-2.27238 0.34864,0.77583"
       style="fill:none;stroke:#333f99;stroke-width:0.176389;stroke-linecap:butt;stroke-linejoin:miter;stroke-miterlimit:10;stroke-opacity:1" /><path
       id="path2374"
       d="m 35.285657,163.15955 0.552593,-9.49193 0.117133,6.011 1.368392,1.35323 c 0,0 0.261827,6.32796 0.406521,5.95451 0.146073,-0.37483 0.989432,-5.03398 0.989432,-5.03398 0,0 0.902615,5.06154 0.902615,4.94716 0,-0.11575 0.523655,-4.63159 0.523655,-4.63159 l 0.436838,1.46761 0.261827,-3.56774 0.203949,1.98576 0.611849,0.14331 0.552594,1.89894 0.494715,-7.71012 0.581533,4.40145 0.786859,-3.88331 c 0,0 0.872298,6.93291 0.960493,6.61596 0.08682,-0.31557 0.901237,-3.56636 0.901237,-3.56636 0,0 0.873676,3.79649 0.873676,3.62424 0,-0.17226 0.785482,-4.66053 0.785482,-4.66053 l 1.106564,7.2788 0.494716,-5.46668 0.698666,5.95451 0.668348,-6.8461 0.611849,8.34264 1.251259,-9.72343 0.931554,4.83278 0.436838,-4.86172 0.552593,1.92788 0.931554,-2.01332 c 0,0 1.339453,8.60034 1.22232,8.62927 -0.115756,0.0289 0.785481,-6.84609 0.785481,-6.84609 l 0.436838,0.86265 0.465777,-1.75424 0.407899,3.82544 0.698666,-3.1061 0.610471,4.51583 0.465777,-2.86081 h -0.03996 l 0.334863,-4.15754 0.348644,0.6904 0.581532,-2.76159 0.350021,1.63986 0.581533,-1.58198 0.640786,8.11113 0.873679,-8.45702 0.377581,4.20026 0.640789,0.77583 0.931552,-4.71702 0.494715,3.45198 0.931555,1.52411 0.494715,-2.9049 0.203951,0.83371 0.63941,-1.52411 0.378961,6.24252 0.494714,-0.86403 0.348643,0.57602 0.465776,-2.38814 0.494718,2.93522 0.873676,-5.29305 0.523656,2.21451 0.582909,-3.19291 0.697286,4.2857 0.611851,-4.83279 1.135503,7.16305 0.552591,-3.48093 0.406524,1.89894 0.55397,-4.2292 0.378961,0.74828 0.814419,-3.27974 0.669728,7.73907 0.40652,-2.61827 0.350022,0.4892 0.436838,-1.1796 0.465776,2.58933 1.134128,-9.09092 0.378961,4.83278 0.377581,-0.63252 0.611847,4.68947 0.785485,-4.17132 0.552591,5.9545 0.582912,-5.52318 0.669724,6.47265 0.552595,-0.71934 0.40652,-2.27238 0.350022,0.77583 0.581533,-5.17729 0.727604,3.7965 0.350023,-1.06385 1.19338,5.81119 0.610472,-7.79556 0.611847,0.17225 0.407899,3.1061 0.756543,-4.60127 c 0,0 0.669727,1.2361 0.727604,1.12172 0.05788,-0.11575 0.698665,-2.99172 0.698665,-2.99172 l 0.377582,5.63756 0.378961,1.6688 0.406523,2.96278 1.077624,-3.68211 0.232889,-5.40743 0.669728,-0.89297 1.047309,8.08358 1.164442,-10.41246 0.901237,11.62099 0.698661,-7.16304 0.75655,7.04729 0.55397,-2.38676 0.55259,3.42305 0.75654,-2.67478 0.55398,-4.028 0.66834,4.37251 0.87368,-6.93291 0.37758,2.76159 0.46578,-3.27835 0.32108,3.19291 0.63941,0.46027 0.84474,6.47126 1.10519,-9.95219 1.1355,8.68715 c 0,0 0.69867,-2.81946 0.7276,-2.73264 0.0303,0.0854 0.78548,1.86999 0.78548,1.86999 l 0.43684,-4.51721 0.75655,5.03398 0.52503,2.3592 1.19338,-7.90994 c 0,0 0.49472,2.18557 0.52365,2.01331 0.0289,-0.17225 0.43684,-4.20026 0.43684,-4.20026 l 0.43546,7.04729 0.4079,-0.71796 0.93155,3.42305 0.58154,-2.73265 c 0,0 0.46577,-0.46026 0.43684,-0.66284 -0.0289,-0.20119 0.37896,-3.96875 0.37896,-3.96875 l 0.75654,2.90491 0.52365,0.80615 0.81442,5.80981 0.69867,-6.87503 0.87368,1.52549 c 0,0 0.26182,1.49517 0.26182,1.32291 0,-0.17225 1.2802,-7.1341 1.2802,-7.1341 0,0 0.84474,10.26914 0.87368,10.12582 0.0289,-0.14469 1.10518,-13.83688 1.10518,-13.83688 l 1.51447,13.89338 0.52365,-2.21451 0.46578,1.92788 0.34864,-5.17867 0.84474,-1.40973 0.3197,4.80384 1.30914,-5.3206 0.66973,3.07716 0.55397,-9.49193 0.11575,6.011 1.3684,1.35323 c 0,0 0.26182,6.32796 0.4079,5.95451 0.14469,-0.37483 0.98805,-5.03398 0.98805,-5.03398 0,0 0.90261,5.06154 0.90261,4.94716 0,-0.11575 0.52366,-4.63159 0.52366,-4.63159 l 0.43684,1.46761 0.2632,-3.56774 0.20257,1.98576 0.61185,0.14331 0.55259,1.89894 0.49472,-7.71012 0.58153,4.40145 0.78686,-3.88331 c 0,0 0.87367,6.93291 0.96049,6.61596 0.0868,-0.31557 0.90124,-3.56636 0.90124,-3.56636 0,0 0.87367,3.79649 0.87367,3.62424 0,-0.17226 0.78548,-4.66053 0.78548,-4.66053 l 1.10657,7.2788 0.49471,-5.46668 0.69867,5.95451 0.66973,-6.8461 0.61047,8.34264 1.25263,-9.72343 0.93018,4.83278 0.43684,-4.86172 0.55259,1.92788 0.93155,-2.01332 c 0,0 1.33946,8.60034 1.22233,8.62927 -0.11576,0.0289 0.78548,-6.84609 0.78548,-6.84609 l 0.43683,0.86265 0.46578,-1.75424 0.4079,3.82544 0.69867,-3.1061 0.61047,4.51583 0.46577,-2.96279"
       style="fill:none;stroke:#f5eb3f;stroke-width:0.176389;stroke-linecap:butt;stroke-linejoin:miter;stroke-miterlimit:10;stroke-opacity:1" /><path
       id="path2376"
       d="m 34.67243,154.80312 0.37896,5.63756 0.377583,1.6688 0.407899,2.96278 1.076248,-3.68212 0.232888,-5.40742 0.669727,-0.89159 1.047309,8.0822 1.164442,-10.41246 0.902615,11.62099 0.698666,-7.16304 0.756542,7.04729 0.552594,-2.38676 0.553971,3.42305 0.756543,-2.67478 0.552593,-4.028 0.669727,4.37251 0.872298,-6.93291 0.378961,2.76159 0.465776,-3.27835 0.319705,3.19291 0.640788,0.46027 0.843359,6.47126 1.106565,-9.95219 1.135504,8.68715 c 0,0 0.698665,-2.81946 0.727604,-2.73264 0.02894,0.0868 0.785482,1.86999 0.785482,1.86999 l 0.436838,-4.51721 0.756543,5.03398 0.523654,2.3592 1.193381,-7.90994 c 0,0 0.494716,2.18557 0.523655,2.01331 0.02894,-0.17225 0.436838,-4.20026 0.436838,-4.20026 l 0.436838,7.04729 0.407899,-0.71796 0.931554,3.42305 0.581532,-2.73265 c 0,0 0.465777,-0.46026 0.436838,-0.66284 -0.03032,-0.20119 0.377582,-3.96875 0.377582,-3.96875 l 0.756544,2.90491 0.525032,0.80615 0.81442,5.80981 0.698666,-6.87503 0.872299,1.52549 c 0,0 0.261828,1.49517 0.261828,1.32291 0,-0.17225 1.281575,-7.1341 1.281575,-7.1341 0,0 0.843357,10.26914 0.872296,10.12582 0.02893,-0.14469 1.106565,-13.83688 1.106565,-13.83688 l 1.513088,13.89476 0.523653,-2.21589 0.465776,1.92788 0.350023,-5.17867 0.843357,-1.40835 0.321084,4.80384 1.309138,-5.32198 0.669727,3.07716 0.552591,-9.49193 0.117133,6.01238 1.367014,1.35186 c 0,0 0.261828,6.32795 0.407899,5.9545 0.146075,-0.37483 0.989432,-5.03398 0.989432,-5.03398 0,0 0.902614,5.06291 0.902614,4.94716 0,-0.11438 0.523656,-4.63159 0.523656,-4.63159 l 0.436838,1.46762 0.261828,-3.56775 0.203948,1.98576 0.610471,0.14331 0.552595,1.89894 0.494714,-7.71012 0.582913,4.40145 0.785481,-3.88331 c 0,0 0.873675,6.93291 0.96049,6.61596 0.08819,-0.31557 0.902617,-3.56636 0.902617,-3.56636 0,0 0.873675,3.79649 0.873675,3.62424 0,-0.17226 0.785481,-4.66053 0.785481,-4.66053 l 1.10519,7.2788 0.494714,-5.4653 0.698666,5.9545 0.669727,-6.84747 0.611847,8.34264 1.251261,-9.72343 0.931552,4.83278 0.435462,-4.86034 0.55397,1.92649 0.931552,-2.01331 c 0,0 1.338076,8.60034 1.222322,8.62928 -0.117133,0.0289 0.785481,-6.8461 0.785481,-6.8461 l 0.436838,0.86265 0.465776,-1.75424 0.407899,3.82544 0.69729,-3.1061 0.611847,4.51583 0.465776,-2.86081 h -0.03996 l 0.333484,-4.15754 0.350022,0.6904 0.581533,-2.76159 0.350023,1.63986 0.581526,-1.58198 0.64079,8.11113 0.8723,-8.45702 0.37896,4.20026 0.64079,0.77583 0.93155,-4.71702 0.49334,3.45198 0.93293,1.52411 0.49334,-2.9049 0.20395,0.83371 0.64079,-1.52411 0.37896,6.24252 0.49333,-0.86265 0.35003,0.57464 0.46577,-2.38814 0.49472,2.93522 0.87368,-5.29305 0.52365,2.21451 0.58153,-3.19291 0.69867,4.2857 0.61185,-4.83278 1.13412,7.16304 0.55397,-3.48093 0.40652,1.89894 0.5526,-4.2292 0.37896,0.74827 0.81442,-3.27835 0.66973,7.73769 0.4079,-2.61828 0.34864,0.48921 0.43684,-1.1796 0.46577,2.58933 1.13551,-9.08954 0.37758,4.8314 0.37896,-0.63252 0.61047,4.68947 0.78686,-4.17133 0.55259,5.95451 0.58154,-5.52318 0.66972,6.47265 0.5526,-0.71934 0.40789,-2.27238 0.35003,0.77583 0.58153,-5.17729 0.7276,3.79787 0.34865,-1.06522 1.19338,5.81119 0.61185,-7.79556 0.61185,0.17225 0.40652,3.10748 0.75654,-4.60265 c 0,0 0.66973,1.2361 0.7276,1.12172 0.0593,-0.11575 0.69867,-2.99172 0.69867,-2.99172 l 0.37896,5.63756 0.37758,1.6688 0.4079,2.96278 1.07763,-3.68212 0.23151,-5.40742 0.6711,-0.89159 1.04731,8.0822 1.16307,-10.41246 0.90261,11.62099 0.69866,-7.16304 0.75655,7.04729 0.55259,-2.38676 0.55397,3.42305 0.75654,-2.67478 0.55259,-4.028 0.66973,4.37251 0.87368,-6.93291 0.37758,2.76159 0.46578,-3.27835 0.3197,3.19291 0.64079,0.46027 0.84474,6.47126 1.10518,-9.95219 1.13551,8.68715 c 0,0 0.69866,-2.81946 0.7276,-2.73264 0.0289,0.0868 0.78548,1.86999 0.78548,1.86999 l 0.43684,-4.51721 0.75654,5.03398 0.52366,2.3592 1.19338,-7.90994 c 0,0 0.49471,2.18557 0.52365,2.01331 0.0289,-0.17225 0.43684,-4.20026 0.43684,-4.20026 l 0.43684,7.04729 0.4079,-0.71796 0.93155,3.42305 0.58154,-2.73265 c 0,0 0.46577,-0.46026 0.43683,-0.66284 -0.0289,-0.20119 0.37896,-3.96875 0.37896,-3.96875 l 0.75517,2.90491 0.52503,0.80615"
       style="fill:none;stroke:#e82323;stroke-width:0.176389;stroke-linecap:butt;stroke-linejoin:miter;stroke-miterlimit:10;stroke-opacity:1" /><path
       id="path2378"
       d="m 34.563565,157.76039 0.844737,6.41477 0.348644,-0.6904 0.58291,2.76021 0.348644,-1.63848 0.58291,1.58198 0.639409,-8.11251 0.873677,8.45702 0.377582,-4.19888 0.640788,-0.77721 0.931554,4.71702 0.494715,-3.45198 0.931554,-1.52412 0.494716,2.90491 0.20395,-0.83371 0.639409,1.52411 0.378961,-6.24114 0.494715,0.86266 0.348644,-0.57603 0.465777,2.38815 0.496094,-2.93385 0.872298,5.29305 0.523654,-2.21589 0.582911,3.19292 0.698665,-4.2857 0.610471,4.83278 1.135503,-7.16305 0.552594,3.48093 0.407899,-1.89894 0.552593,4.2292 0.378961,-0.74828 0.814421,3.27974 0.669726,-7.73769 0.407899,2.6169 0.348644,-0.48921 0.436838,1.1796 0.465777,-2.58933 1.134125,9.09092 0.378961,-4.83278 0.37896,0.63252 0.610471,-4.68809 0.785482,4.16994 0.552593,-5.9545 0.582911,5.52318 0.669726,-6.47127 0.552593,0.71796 0.407899,2.27239 0.348644,-0.77584 0.582912,5.17729 0.727604,-3.7965 0.348643,1.06385 1.19338,-5.80981 0.610471,7.79556 0.611848,-0.17363 0.407899,-3.1061 0.756546,4.60265 c 0,0 0.669724,-1.23748 0.727604,-1.12172 0.05788,0.11437 0.698662,2.99172 0.698662,2.99172 l 0.377586,-5.63894 0.37896,-1.6688 0.4079,-2.96278 1.076247,3.68212 0.232886,5.40879 0.669728,0.8916 1.047309,-8.08357 1.164442,10.41383 0.902617,-11.62237 0.698662,7.16304 0.756546,-7.04729 0.552591,2.38676 0.552595,-3.42304 0.757922,2.67615 0.552591,4.02662 0.669727,-4.37251 0.872296,6.93291 0.378961,-2.76159 0.46578,3.27973 0.319705,-3.19291 0.640785,-0.46027 0.843361,-6.47264 1.106565,9.95357 1.134124,-8.68854 c 0,0 0.698666,2.81947 0.727605,2.73266 0.02893,-0.0854 0.78686,-1.86863 0.78686,-1.86863 l 0.435458,4.51583 0.757922,-5.03397 0.523656,-2.3592 1.19338,7.91132 c 0,0 0.494715,-2.18695 0.523653,-2.01469 0.02893,0.17363 0.436838,4.20026 0.436838,4.20026 l 0.436841,-7.04729 0.40652,0.71934 0.931552,-3.42305 0.581533,2.73265 c 0,0 0.465776,0.46026 0.436838,0.66146 -0.02893,0.20119 0.37896,3.97012 0.37896,3.97012 l 0.756543,-2.90628 0.523656,-0.80477 0.814419,-5.81119 0.698666,6.87504 0.873676,-1.52412 c 0,0 0.261828,-1.49654 0.261828,-1.32291 0,0.17225 1.280198,7.13272 1.280198,7.13272 0,0 0.844737,-10.26914 0.873676,-10.12445 0.02893,0.14332 1.106563,13.83551 1.106563,13.83551 l 1.51309,-13.89338 0.52365,2.21451 0.46578,-1.9265 0.34864,5.17729 0.84474,1.40973 0.3197,-4.80384 1.31052,5.32198 0.66835,-3.07853 0.55397,9.4933 0.11575,-6.01238 1.3684,-1.35185 c 0,0 0.26182,-6.32933 0.40789,-5.95589 0.1447,0.37483 0.98944,5.03535 0.98944,5.03535 0,0 0.90123,-5.06291 0.90123,-4.94853 0,0.11575 0.52504,4.63159 0.52504,4.63159 l 0.43546,-1.46623 0.26182,3.56636 0.20395,-1.98438 0.61185,-0.14469 0.55259,-1.89756 0.49472,7.70875 0.58291,-4.40146 0.78548,3.88331 c 0,0 0.8723,-6.93291 0.96049,-6.61596 0.0868,0.31695 0.90262,3.56636 0.90262,3.56636 0,0 0.8723,-3.79649 0.8723,-3.62424 0,0.17364 0.78548,4.66053 0.78548,4.66053 l 1.10656,-7.27742 0.49472,5.4653 0.69866,-5.95451 0.66973,6.8461 0.61047,-8.34264 1.25126,9.72344 0.93293,-4.83279 0.43546,4.86172 0.5526,-1.92787 0.93155,2.01331 c 0,0 1.33945,-8.60033 1.22232,-8.62927 -0.11576,-0.0289 0.78686,6.84609 0.78686,6.84609 l 0.43684,-0.86265 0.4644,1.75424 0.4079,-3.82543 0.69866,3.10609 0.61047,-4.51583 0.46578,2.86081 h -0.04 l 0.33486,4.15892 0.35003,-0.6904 0.58153,2.76021 0.34864,-1.63848 0.58291,1.58198 0.63941,-8.11251 0.87368,8.45702 0.37896,-4.19888 0.63941,-0.77721 0.93155,4.71702 0.49472,-3.45198 0.93155,-1.52411 0.49472,2.9049 0.20394,-0.83371 0.64079,1.52411 0.37758,-6.24114 0.49472,0.86266 0.35001,-0.57602 0.46578,2.38814 0.49472,-2.93385 0.8723,5.29305 0.52365,-2.21589 0.58291,3.19292 0.69867,-4.2857 0.61047,4.83278 1.1355,-7.16305 0.55259,3.48093 0.4079,-1.89894 0.5526,4.2292 0.37896,-0.74828 0.81442,3.27974 0.66973,-7.73769 0.4079,2.6169 0.34864,-0.4892 0.43684,1.17959 0.46577,-2.58933 1.13551,9.09092 0.37758,-4.83278 0.37896,0.63252 0.61047,-4.68809 0.78548,4.16994 0.55397,-5.9545 0.58153,5.52318 0.66973,-6.47127 0.5526,0.71796 0.4079,2.27239 0.34864,-0.77584"
       style="fill:none;stroke:#8a6138;stroke-width:0.176389;stroke-linecap:butt;stroke-linejoin:miter;stroke-miterlimit:10;stroke-opacity:1" /><path
       id="path2380"
       d="m 35.285657,161.27852 0.552593,9.49193 0.117133,-6.011 1.368392,-1.35186 c 0,0 0.261827,-6.32933 0.406521,-5.95588 0.146073,0.37483 0.989432,5.03535 0.989432,5.03535 0,0 0.902615,-5.06291 0.902615,-4.94853 0,0.11575 0.523655,4.63158 0.523655,4.63158 l 0.436838,-1.46761 0.261827,3.56775 0.203949,-1.98438 0.611849,-0.14469 0.552594,-1.89894 0.494715,7.71012 0.581533,-4.40145 0.786859,3.88331 c 0,0 0.872298,-6.93291 0.960493,-6.61596 0.08682,0.31557 0.901237,3.56636 0.901237,3.56636 0,0 0.873676,-3.79649 0.873676,-3.62424 0,0.17226 0.785482,4.66052 0.785482,4.66052 l 1.106564,-7.27879 0.494716,5.46668 0.698666,-5.95451 0.668348,6.8461 0.611849,-8.34265 1.251259,9.72344 0.931554,-4.83278 0.436838,4.86172 0.552593,-1.92788 0.931554,2.01332 c 0,0 1.339453,-8.60034 1.22232,-8.62928 -0.115756,-0.0289 0.785481,6.8461 0.785481,6.8461 l 0.436838,-0.86266 0.465777,1.75425 0.407899,-3.82544 0.698666,3.1061 0.610471,-4.51583 0.465777,2.86081 h -0.03996 l 0.334863,4.15754 0.348644,-0.6904 0.581532,2.76159 0.350021,-1.63987 0.581533,1.58337 0.640786,-8.11251 0.873679,8.45702 0.377581,-4.20026 0.640789,-0.77583 0.931552,4.71702 0.494715,-3.45199 0.931555,-1.52411 0.494715,2.90491 0.203951,-0.83372 0.63941,1.52412 0.378961,-6.24252 0.494714,0.86403 0.348643,-0.57602 0.465776,2.38814 0.494718,-2.93384 0.873676,5.29167 0.523656,-2.21451 0.582909,3.19291 0.697286,-4.2857 0.611851,4.83278 1.135503,-7.16304 0.552591,3.48092 0.406524,-1.89893 0.55397,4.2292 0.378961,-0.74828 0.814419,3.27973 0.669728,-7.73906 0.40652,2.61827 0.350022,-0.4892 0.436838,1.1796 0.465776,-2.58933 1.134128,9.09092 0.378961,-4.83278 0.377581,0.63252 0.611847,-4.68809 0.785485,4.16994 0.552591,-5.9545 0.582912,5.52318 0.669724,-6.47265 0.552595,0.71934 0.40652,2.27238 0.350022,-0.77583 0.581533,5.17729 0.727604,-3.7965 0.350023,1.06385 1.19338,-5.81119 0.610472,7.79556 0.611847,-0.17225 0.407899,-3.1061 0.756543,4.60265 c 0,0 0.669727,-1.23748 0.727604,-1.1231 0.05788,0.11575 0.698665,2.99171 0.698665,2.99171 l 0.377582,-5.63755 0.378961,-1.6688 0.406523,-2.96278 1.077624,3.68211 0.232889,5.4088 0.669728,0.89159 1.047309,-8.08357 1.164442,10.41246 0.901237,-11.621 0.698661,7.16305 0.75655,-7.04729 0.55397,2.38814 0.55259,-3.42443 0.75654,2.67615 0.55398,4.02663 0.66834,-4.37252 0.87368,6.93292 0.37758,-2.76159 0.46578,3.27973 0.32108,-3.19429 0.63941,-0.46027 0.84474,-6.47127 1.10519,9.95219 1.1355,-8.68715 c 0,0 0.69867,2.81947 0.7276,2.73265 0.0303,-0.0854 0.78548,-1.87 0.78548,-1.87 l 0.43684,4.51721 0.75655,-5.03397 0.52503,-2.3592 1.19338,7.90994 c 0,0 0.49472,-2.18557 0.52365,-2.01332 0.0289,0.17364 0.43684,4.20026 0.43684,4.20026 l 0.43546,-7.04728 0.4079,0.71933 0.93155,-3.42442 0.58154,2.73403 c 0,0 0.46577,0.46026 0.43684,0.66145 -0.0289,0.2012 0.37896,3.96875 0.37896,3.96875 l 0.75654,-2.9049 0.52365,-0.80477 0.81442,-5.81119 0.69867,6.87503 0.87368,-1.52411 c 0,0 0.26182,-1.49655 0.26182,-1.3243 0,0.17364 1.2802,7.13411 1.2802,7.13411 0,0 0.84474,-10.26914 0.87368,-10.12583 0.0289,0.1447 1.10518,13.83689 1.10518,13.83689 l 1.51447,-13.89338 0.52365,2.2145 0.46578,-1.92787 0.34864,5.17867 0.84474,1.40973 0.3197,-4.80384 1.30914,5.3206 0.66973,-3.07716 0.55397,9.49193 0.11575,-6.011 1.3684,-1.35186 c 0,0 0.26182,-6.32933 0.4079,-5.95588 0.14469,0.37483 0.98805,5.03535 0.98805,5.03535 0,0 0.90261,-5.06291 0.90261,-4.94853 0,0.11575 0.52366,4.63158 0.52366,4.63158 l 0.43684,-1.46761 0.2632,3.56775 0.20257,-1.98438 0.61185,-0.14469 0.55259,-1.89894 0.49472,7.71012 0.58153,-4.40145 0.78686,3.88331 c 0,0 0.87367,-6.93291 0.96049,-6.61596 0.0868,0.31557 0.90124,3.56636 0.90124,3.56636 0,0 0.87367,-3.79649 0.87367,-3.62424 0,0.17226 0.78548,4.66052 0.78548,4.66052 l 1.10657,-7.27879 0.49471,5.46668 0.69867,-5.95451 0.66973,6.8461 0.61047,-8.34265 1.25263,9.72344 0.93018,-4.83278 0.43684,4.86172 0.55259,-1.92788 0.93155,2.01332 c 0,0 1.33946,-8.60034 1.22233,-8.62928 -0.11576,-0.0289 0.78548,6.8461 0.78548,6.8461 l 0.43683,-0.86266 0.46578,1.75425 0.4079,-3.82544 0.69867,3.1061 0.61047,-4.51583 0.46577,2.96278"
       style="fill:none;stroke:#57575c;stroke-width:0.176389;stroke-linecap:butt;stroke-linejoin:miter;stroke-miterlimit:10;stroke-opacity:1" /><path
       id="path2382"
       d="m 34.67243,167.23027 0.37896,-5.63755 0.377583,-1.66881 0.407899,-2.96278 1.076248,3.68212 0.232888,5.40742 0.669727,0.89297 1.047309,-8.08357 1.164442,10.41245 0.902615,-11.62099 0.698666,7.16304 0.756542,-7.04729 0.552594,2.38677 0.553971,-3.42305 0.756543,2.67477 0.552593,4.028 0.669727,-4.37251 0.872298,6.93291 0.378961,-2.76159 0.465776,3.27835 0.319705,-3.19291 0.640788,-0.46026 0.843359,-6.47127 1.106565,9.95219 1.135504,-8.68715 c 0,0 0.698665,2.81946 0.727604,2.73265 0.02894,-0.0854 0.785482,-1.87 0.785482,-1.87 l 0.436838,4.51721 0.756543,-5.03397 0.523654,-2.35921 1.193381,7.90994 c 0,0 0.494716,-2.18557 0.523655,-2.01331 0.02894,0.17225 0.436838,4.20026 0.436838,4.20026 l 0.436838,-7.04729 0.407899,0.71796 0.931554,-3.42305 0.581532,2.73265 c 0,0 0.465777,0.46027 0.436838,0.66284 -0.03032,0.20119 0.377582,3.96875 0.377582,3.96875 l 0.756544,-2.90491 0.525032,-0.80615 0.81442,-5.80981 0.698666,6.87504 0.872299,-1.52549 c 0,0 0.261828,-1.49517 0.261828,-1.32292 0,0.17225 1.281575,7.13411 1.281575,7.13411 0,0 0.843357,-10.26915 0.872296,-10.12583 0.02893,0.14469 1.106565,13.83688 1.106565,13.83688 l 1.513088,-13.89338 0.523653,2.21451 0.465776,-1.92788 0.350023,5.17867 0.843357,1.40973 0.321084,-4.80522 1.309138,5.32199 0.669727,-3.07716 0.552591,9.49192 0.117133,-6.011 1.367014,-1.35323 c 0,0 0.261828,-6.32795 0.407899,-5.9545 0.146075,0.37482 0.989432,5.03397 0.989432,5.03397 0,0 0.902614,-5.06154 0.902614,-4.94716 0,0.11576 0.523656,4.63159 0.523656,4.63159 l 0.436838,-1.46761 0.261828,3.56774 0.203948,-1.98575 0.610471,-0.14332 0.552595,-1.89894 0.494714,7.71013 0.582913,-4.40146 0.785481,3.88331 c 0,0 0.873675,-6.93291 0.96049,-6.61596 0.08819,0.31557 0.902617,3.56637 0.902617,3.56637 0,0 0.873675,-3.7965 0.873675,-3.62425 0,0.17226 0.785481,4.66053 0.785481,4.66053 l 1.10519,-7.2788 0.494714,5.46668 0.698666,-5.9545 0.669727,6.84609 0.611847,-8.34264 1.251261,9.72344 0.931552,-4.83278 0.435462,4.86033 0.55397,-1.92649 0.931552,2.01331 c 0,0 1.338076,-8.60033 1.222322,-8.62927 -0.117133,-0.0289 0.785481,6.84609 0.785481,6.84609 l 0.436838,-0.86265 0.465776,1.75424 0.407899,-3.82543 0.69729,3.1061 0.611847,-4.51584 0.465776,2.86081 h -0.03996 l 0.333484,4.15754 0.350022,-0.69039 0.581533,2.76158 0.350023,-1.63986 0.581526,1.58199 0.64079,-8.11114 0.8723,8.45702 0.37896,-4.20026 0.64079,-0.77583 0.93155,4.71702 0.49334,-3.45198 0.93293,-1.52411 0.49334,2.9049 0.20395,-0.83371 0.64079,1.52411 0.37896,-6.24251 0.49333,0.86403 0.35003,-0.57602 0.46577,2.38814 0.49472,-2.93522 0.87368,5.29304 0.52365,-2.21451 0.58153,3.19292 0.69867,-4.2857 0.61185,4.83278 1.13412,-7.16305 0.55397,3.48093 0.40652,-1.89894 0.5526,4.2292 0.37896,-0.74827 0.81442,3.27973 0.66973,-7.73906 0.4079,2.61827 0.34864,-0.4892 0.43684,1.1796 0.46577,-2.58934 1.13551,9.09092 0.37758,-4.83278 0.37896,0.63252 0.61047,-4.68946 0.78686,4.17132 0.55259,-5.95451 0.58154,5.52318 0.66972,-6.47265 0.5526,0.71934 0.40789,2.27239 0.35003,-0.77584 0.58153,5.17729 0.7276,-3.7965 0.34865,1.06385 1.19338,-5.81119 0.61185,7.79557 0.61185,-0.17226 0.40652,-3.1061 0.75654,4.60127 c 0,0 0.66973,-1.2361 0.7276,-1.12172 0.0593,0.11576 0.69867,2.99172 0.69867,2.99172 l 0.37896,-5.63755 0.37758,-1.66881 0.4079,-2.96278 1.07763,3.68212 0.23151,5.40742 0.6711,0.89297 1.04731,-8.08357 1.16307,10.41245 0.90261,-11.62099 0.69866,7.16304 0.75655,-7.04729 0.55259,2.38677 0.55397,-3.42305 0.75654,2.67477 0.55259,4.028 0.66973,-4.37251 0.87368,6.93291 0.37758,-2.76159 0.46578,3.27835 0.3197,-3.19291 0.64079,-0.46026 0.84474,-6.47127 1.10518,9.95219 1.13551,-8.68715 c 0,0 0.69866,2.81946 0.7276,2.73265 0.0289,-0.0854 0.78548,-1.87 0.78548,-1.87 l 0.43684,4.51721 0.75654,-5.03397 0.52366,-2.35921 1.19338,7.90994 c 0,0 0.49471,-2.18557 0.52365,-2.01331 0.0289,0.17225 0.43684,4.20026 0.43684,4.20026 l 0.43684,-7.04729 0.4079,0.71796 0.93155,-3.42305 0.58154,2.73265 c 0,0 0.46577,0.46027 0.43683,0.66284 -0.0289,0.20119 0.37896,3.96875 0.37896,3.96875 l 0.75517,-2.90491 0.52503,-0.80615"
       style="fill:none;stroke:#000000;stroke-width:0.176389;stroke-linecap:butt;stroke-linejoin:miter;stroke-miterlimit:10;stroke-opacity:1" /><rect
       style="fill:#ffffff;fill-opacity:0.77;stroke-width:1.60239"
       id="rect175-7"
       width="76.644814"
       height="20.222"
       x="81.467316"
       y="151.69139" /><rect
       style="fill:#ffffff;fill-opacity:0.77"
       id="rect175-9"
       width="16.793991"
       height="19.290621"
       x="34.476124"
       y="151.69138"
       ry="2.847512"
       rx="2.78407" /><g
       id="g7133"
       transform="matrix(0.91198142,0,0,0.91198142,74.368608,-64.351964)"><path
         clip-path="none"
         d="m -42.011533,258.40478 26.521766,0.27821 0.435437,-0.0213 0.287949,-0.0325 0.221932,-0.0438 0.184008,-0.0554 0.161532,-0.0686 0.144677,-0.0821 0.134845,-0.0986 0.127822,-0.11747 0.123607,-0.14007 0.120798,-0.16637 0.120799,-0.20002 0.120798,-0.23843 0.122204,-0.28532 0.123607,-0.33897 0.126417,-0.40448 0.129227,-0.47928 0.134845,-0.57632 0.140463,-0.68779 0.147486,-0.82158 0.157319,-0.98939 0.169961,-1.19593 0.189625,-1.476 0.228955,-1.94204 0.797832,-6.91813 0.155914,-1.10189 0.13063,-0.79297 0.113776,-0.57785 0.09833,-0.4059 0.08709,-0.28217 0.07444,-0.18105 0.06461,-0.11092 0.05619,-0.061 0.04776,-0.0256 0.043544,-0.002 0.043544,0.0178 0.046353,0.041 0.053376,0.0752 0.060399,0.12082 0.068828,0.18307 0.078659,0.26679 0.089897,0.37702 0.1025384,0.51837 0.1165842,0.694 0.1348448,0.92453 0.161533,1.24829 0.2092906,1.77912 0.7964263,6.9274 0.1924351,1.42154 0.1727694,1.13669 0.1601288,0.92868 0.1502958,0.76189 0.1432725,0.63022 0.1376534,0.52183 0.1334405,0.43309 0.1306309,0.3605 0.1278214,0.2979 0.1264171,0.24706 0.1250119,0.20336 0.1264171,0.16958 0.1278214,0.13979 0.1320362,0.11608 0.1376534,0.0955 0.1474872,0.0788 0.1615322,0.0642 0.1826023,0.0514 0.2149087,0.0399 0.2668809,0.029 0.3652046,0.019 0.6025868,0.01 1.9018737,0.002 h 6.0989157 l 77.5595407,-0.2878"
         style="fill:none;stroke:#1f77b4;stroke-width:0.749995;stroke-linecap:square"
         id="path4973"
         sodipodi:nodetypes="cccccccccccccccccccccccccccccccccccccccccccccccccccccccccccccccccccccccccc"
         mask="none" /><path
         clip-path="none"
         d="m -42.011533,258.40478 10.470045,0.25958 1.862378,-0.0441 1.244462,-0.0671 0.968551,-0.0905 0.807605,-0.11414 0.701267,-0.1381 0.629414,-0.16354 0.577682,-0.1905 0.537447,-0.21848 0.508705,-0.24916 0.488586,-0.28329 0.471343,-0.31881 0.462721,-0.36068 0.456973,-0.40641 0.456973,-0.45973 0.459847,-0.51938 0.465594,-0.58621 0.477091,-0.6652 0.49146,-0.75392 0.514455,-0.86266 0.546067,-0.99415 0.594926,-1.16705 0.678275,-1.42069 0.870834,-1.9225 1.853756,-4.11811 0.615046,-1.25304 0.508704,-0.95027 0.445476,-0.75152 0.399492,-0.59927 0.365003,-0.47863 0.336264,-0.37779 0.313269,-0.29405 0.293152,-0.22224 0.275908,-0.16084 0.264413,-0.10913 0.252915,-0.0625 0.247169,-0.0212 0.247167,0.0184 0.247167,0.0579 0.252917,0.0998 0.264411,0.1475 0.275908,0.2 0.293152,0.26257 0.310396,0.33205 0.336263,0.41921 0.362129,0.51601 0.399493,0.64014 0.442601,0.78597 0.5058328,0.98147 0.6064215,1.26706 0.827724,1.82921 1.8451342,4.1023 0.698392,1.44028 0.6092967,1.16842 0.5575646,0.98572 0.5230748,0.84644 0.5000839,0.73586 0.4857133,0.64566 0.4742161,0.56571 0.4684693,0.49815 0.4655941,0.43812 0.4655941,0.38469 0.4713427,0.33893 0.4828399,0.29894 0.4972088,0.26172 0.5202013,0.22932 0.5489426,0.19887 0.5891775,0.17135 0.6437865,0.14574 0.7185095,0.12152 0.8219754,0.0982 0.9800487,0.0761 1.2387126,0.0547 1.7359201,0.0341 3.095342,0.0152 3.937436,0.002 62.974378,-0.27923"
         style="fill:none;stroke:#2ca02c;stroke-width:0.75;stroke-linecap:square"
         id="path6417"
         sodipodi:nodetypes="cccccccccccccccccccccccccccccccccccccccccccccccccccccccccccccccccccccccccccccc" /><path
         clip-path="none"
         d="m -42.24906,257.81492 1.386778,-0.33006 1.2989,-0.3182 1.225784,-0.36045 1.174171,-0.40642 1.135461,-0.45528 1.109655,-0.50847 1.092453,-0.5654 1.092452,-0.63214 1.096755,-0.70311 1.118258,-0.78746 1.156966,-0.88781 1.212881,-1.006 1.3118,-1.16603 1.496747,-1.41205 1.969855,-1.94616 3.462299,-3.42795 1.367714,-1.2618 1.135463,-0.96954 1.00213,-0.78018 0.916111,-0.63996 0.851596,-0.52405 0.799985,-0.42415 0.761276,-0.33793 0.731169,-0.26101 0.709662,-0.19138 0.69246,-0.12626 0.68386,-0.065 0.6795569,-0.005 0.679557,0.0539 0.683857,0.11357 0.6967599,0.17588 0.7139654,0.24165 0.7354683,0.31165 0.7698793,0.3912 0.8085851,0.47807 0.8601991,0.57825 0.9290158,0.69704 1.0236355,0.84369 1.16126645,1.03594 1.40642519,1.33743 2.11178776,2.10003 2.8472562,2.81788 1.5569588,1.45503 1.3419112,1.17489 1.2343832,1.00344 1.1698689,0.87582 1.131164,0.77378 1.109655,0.68804 1.101052,0.6136 1.105355,0.54855 1.118258,0.48914 1.144064,0.43596 1.182775,0.38729 1.234383,0.34172 1.303203,0.29911 1.397822,0.25957 1.51825,0.22114 1.685987,0.18496 1.922544,0.15019 2.275226,0.11661 2.765537,0.0824 58.119834,-0.30963"
         style="fill:none;stroke:#d62728;stroke-width:0.75;stroke-linecap:square"
         id="path6420"
         sodipodi:nodetypes="ccccccccccccccccccccccccccccccccccccccccccccccccccccccccccccccc" /></g></g></svg>
