<?xml version="1.0" encoding="UTF-8" standalone="no"?>
<!-- Created with Inkscape (http://www.inkscape.org/) -->

<svg
   width="123.63455mm"
   height="20.548309mm"
   viewBox="0 0 123.63455 20.548309"
   version="1.1"
   id="svg986"
   inkscape:version="1.2 (dc2aeda, 2022-05-15)"
   sodipodi:docname="windowed_time_courses.svg"
   xmlns:inkscape="http://www.inkscape.org/namespaces/inkscape"
   xmlns:sodipodi="http://sodipodi.sourceforge.net/DTD/sodipodi-0.dtd"
   xmlns="http://www.w3.org/2000/svg"
   xmlns:svg="http://www.w3.org/2000/svg">
  <sodipodi:namedview
     id="namedview988"
     pagecolor="#ffffff"
     bordercolor="#666666"
     borderopacity="1.0"
     inkscape:showpageshadow="2"
     inkscape:pageopacity="0.0"
     inkscape:pagecheckerboard="0"
     inkscape:deskcolor="#d1d1d1"
     inkscape:document-units="mm"
     showgrid="false"
     inkscape:zoom="1.3738391"
     inkscape:cx="224.91717"
     inkscape:cy="26.203942"
     inkscape:window-width="1680"
     inkscape:window-height="997"
     inkscape:window-x="0"
     inkscape:window-y="25"
     inkscape:window-maximized="1"
     inkscape:current-layer="layer1" />
  <defs
     id="defs983" />
  <g
     inkscape:label="Layer 1"
     inkscape:groupmode="layer"
     id="layer1"
     transform="translate(-34.476125,-151.4988)">
    <path
       id="path2372"
       d="m 34.563565,163.07411 0.844737,-6.41477 0.348644,0.6904 0.58291,-2.76159 0.348644,1.63986 0.58291,-1.58198 0.639409,8.11113 0.873677,-8.45702 0.377582,4.20026 0.640788,0.77584 0.931554,-4.71703 0.494715,3.45199 0.931554,1.5241 0.494716,-2.9049 0.20395,0.83371 0.639409,-1.52411 0.378961,6.24252 0.494715,-0.86403 0.348644,0.57602 0.465777,-2.38814 0.496094,2.93384 0.872298,-5.29167 0.523654,2.21451 0.582911,-3.19291 0.698665,4.2857 0.610471,-4.83278 1.135503,7.16304 0.552594,-3.48093 0.407899,1.89894 0.552593,-4.2292 0.378961,0.74827 0.814421,-3.27973 0.669726,7.73907 0.407899,-2.61828 0.348644,0.48921 0.436838,-1.1796 0.465777,2.58933 1.134125,-9.09092 0.378961,4.83278 0.37896,-0.63252 0.610471,4.68947 0.785482,-4.17133 0.552593,5.95451 0.582911,-5.52318 0.669726,6.47265 0.552593,-0.71934 0.407899,-2.27238 0.348644,0.77583 0.582912,-5.17729 0.727604,3.7965 0.348643,-1.06385 1.19338,5.81119 0.610471,-7.79556 0.611848,0.17225 0.407899,3.1061 0.756546,-4.60265 c 0,0 0.669724,1.23748 0.727604,1.1231 0.05788,-0.11575 0.698662,-2.99172 0.698662,-2.99172 l 0.377586,5.63756 0.37896,1.6688 0.4079,2.96278 1.076247,-3.68212 0.232886,-5.4088 0.669728,-0.89159 1.047309,8.08358 1.164442,-10.41246 0.902617,11.62099 0.698662,-7.16304 0.756546,7.04729 0.552591,-2.38676 0.552595,3.42305 0.757922,-2.67615 0.552591,-4.02663 0.669727,4.37251 0.872296,-6.93291 0.378961,2.76159 0.46578,-3.27835 0.319705,3.19153 0.640785,0.46165 0.843361,6.47126 1.106565,-9.95219 1.134124,8.68715 c 0,0 0.698666,-2.81946 0.727605,-2.73264 0.02893,0.0854 0.78686,1.86999 0.78686,1.86999 l 0.435458,-4.51721 0.757922,5.03398 0.523656,2.3592 1.19338,-7.90994 c 0,0 0.494715,2.18557 0.523653,2.01331 0.02893,-0.17225 0.436838,-4.20026 0.436838,-4.20026 l 0.436841,7.04729 0.40652,-0.71933 0.931552,3.42442 0.581533,-2.73403 c 0,0 0.465776,-0.46026 0.436838,-0.66146 -0.02893,-0.20119 0.37896,-3.96875 0.37896,-3.96875 l 0.756543,2.90491 0.523656,0.80615 0.814419,5.80981 0.698666,-6.87503 0.873676,1.52411 c 0,0 0.261828,1.49655 0.261828,1.32429 0,-0.17363 1.280198,-7.1341 1.280198,-7.1341 0,0 0.844737,10.26914 0.873676,10.12582 0.02893,-0.14469 1.106563,-13.83688 1.106563,-13.83688 l 1.51309,13.89338 0.52365,-2.21451 0.46578,1.92788 0.34864,-5.17867 0.84474,-1.40973 0.3197,4.80384 1.31052,-5.3206 0.66835,3.07715 0.55397,-9.49192 0.11575,6.011 1.3684,1.35323 c 0,0 0.26182,6.32795 0.40789,5.95451 0.1447,-0.37483 0.98944,-5.03398 0.98944,-5.03398 0,0 0.90123,5.06154 0.90123,4.94716 0,-0.11576 0.52504,-4.63159 0.52504,-4.63159 l 0.43546,1.46762 0.26182,-3.56774 0.20395,1.98575 0.61185,0.14331 0.55259,1.89894 0.49472,-7.71012 0.58291,4.40145 0.78548,-3.88331 c 0,0 0.8723,6.93291 0.96049,6.61596 0.0868,-0.31557 0.90262,-3.56636 0.90262,-3.56636 0,0 0.8723,3.79649 0.8723,3.62424 0,-0.17226 0.78548,-4.66053 0.78548,-4.66053 l 1.10656,7.2788 0.49472,-5.46668 0.69866,5.9545 0.66973,-6.84609 0.61047,8.34264 1.25126,-9.72343 0.93293,4.83278 0.43546,-4.86172 0.5526,1.92787 0.93155,-2.01331 c 0,0 1.33945,8.60034 1.22232,8.62928 -0.11576,0.0289 0.78686,-6.8461 0.78686,-6.8461 l 0.43684,0.86265 0.4644,-1.75424 0.4079,3.82543 0.69866,-3.10609 0.61047,4.51583 0.46578,-2.86081 h -0.04 l 0.33486,-4.15754 0.35003,0.6904 0.58153,-2.76159 0.34864,1.63986 0.58291,-1.58198 0.63941,8.11113 0.87368,-8.45702 0.37896,4.20026 0.63941,0.77584 0.93155,-4.71703 0.49472,3.45199 0.93155,1.5241 0.49472,-2.9049 0.20394,0.83371 0.64079,-1.52411 0.37758,6.24252 0.49472,-0.86403 0.35001,0.57602 0.46578,-2.38814 0.49472,2.93384 0.8723,-5.29167 0.52365,2.21451 0.58291,-3.19291 0.69867,4.2857 0.61047,-4.83278 1.1355,7.16304 0.55259,-3.48093 0.4079,1.89894 0.5526,-4.2292 0.37896,0.74827 0.81442,-3.27973 0.66973,7.73907 0.4079,-2.61828 0.34864,0.48921 0.43684,-1.1796 0.46577,2.58933 1.13551,-9.09092 0.37758,4.83278 0.37896,-0.63252 0.61047,4.68947 0.78548,-4.17133 0.55397,5.95451 0.58153,-5.52318 0.66973,6.47265 0.5526,-0.71934 0.4079,-2.27238 0.34864,0.77583"
       style="fill:none;stroke:#333f99;stroke-width:0.176389;stroke-linecap:butt;stroke-linejoin:miter;stroke-miterlimit:10;stroke-opacity:1" />
    <path
       id="path2374"
       d="m 35.285657,163.15955 0.552593,-9.49193 0.117133,6.011 1.368392,1.35323 c 0,0 0.261827,6.32796 0.406521,5.95451 0.146073,-0.37483 0.989432,-5.03398 0.989432,-5.03398 0,0 0.902615,5.06154 0.902615,4.94716 0,-0.11575 0.523655,-4.63159 0.523655,-4.63159 l 0.436838,1.46761 0.261827,-3.56774 0.203949,1.98576 0.611849,0.14331 0.552594,1.89894 0.494715,-7.71012 0.581533,4.40145 0.786859,-3.88331 c 0,0 0.872298,6.93291 0.960493,6.61596 0.08682,-0.31557 0.901237,-3.56636 0.901237,-3.56636 0,0 0.873676,3.79649 0.873676,3.62424 0,-0.17226 0.785482,-4.66053 0.785482,-4.66053 l 1.106564,7.2788 0.494716,-5.46668 0.698666,5.95451 0.668348,-6.8461 0.611849,8.34264 1.251259,-9.72343 0.931554,4.83278 0.436838,-4.86172 0.552593,1.92788 0.931554,-2.01332 c 0,0 1.339453,8.60034 1.22232,8.62927 -0.115756,0.0289 0.785481,-6.84609 0.785481,-6.84609 l 0.436838,0.86265 0.465777,-1.75424 0.407899,3.82544 0.698666,-3.1061 0.610471,4.51583 0.465777,-2.86081 h -0.03996 l 0.334863,-4.15754 0.348644,0.6904 0.581532,-2.76159 0.350021,1.63986 0.581533,-1.58198 0.640786,8.11113 0.873679,-8.45702 0.377581,4.20026 0.640789,0.77583 0.931552,-4.71702 0.494715,3.45198 0.931555,1.52411 0.494715,-2.9049 0.203951,0.83371 0.63941,-1.52411 0.378961,6.24252 0.494714,-0.86403 0.348643,0.57602 0.465776,-2.38814 0.494718,2.93522 0.873676,-5.29305 0.523656,2.21451 0.582909,-3.19291 0.697286,4.2857 0.611851,-4.83279 1.135503,7.16305 0.552591,-3.48093 0.406524,1.89894 0.55397,-4.2292 0.378961,0.74828 0.814419,-3.27974 0.669728,7.73907 0.40652,-2.61827 0.350022,0.4892 0.436838,-1.1796 0.465776,2.58933 1.134128,-9.09092 0.378961,4.83278 0.377581,-0.63252 0.611847,4.68947 0.785485,-4.17132 0.552591,5.9545 0.582912,-5.52318 0.669724,6.47265 0.552595,-0.71934 0.40652,-2.27238 0.350022,0.77583 0.581533,-5.17729 0.727604,3.7965 0.350023,-1.06385 1.19338,5.81119 0.610472,-7.79556 0.611847,0.17225 0.407899,3.1061 0.756543,-4.60127 c 0,0 0.669727,1.2361 0.727604,1.12172 0.05788,-0.11575 0.698665,-2.99172 0.698665,-2.99172 l 0.377582,5.63756 0.378961,1.6688 0.406523,2.96278 1.077624,-3.68211 0.232889,-5.40743 0.669728,-0.89297 1.047309,8.08358 1.164442,-10.41246 0.901237,11.62099 0.698661,-7.16304 0.75655,7.04729 0.55397,-2.38676 0.55259,3.42305 0.75654,-2.67478 0.55398,-4.028 0.66834,4.37251 0.87368,-6.93291 0.37758,2.76159 0.46578,-3.27835 0.32108,3.19291 0.63941,0.46027 0.84474,6.47126 1.10519,-9.95219 1.1355,8.68715 c 0,0 0.69867,-2.81946 0.7276,-2.73264 0.0303,0.0854 0.78548,1.86999 0.78548,1.86999 l 0.43684,-4.51721 0.75655,5.03398 0.52503,2.3592 1.19338,-7.90994 c 0,0 0.49472,2.18557 0.52365,2.01331 0.0289,-0.17225 0.43684,-4.20026 0.43684,-4.20026 l 0.43546,7.04729 0.4079,-0.71796 0.93155,3.42305 0.58154,-2.73265 c 0,0 0.46577,-0.46026 0.43684,-0.66284 -0.0289,-0.20119 0.37896,-3.96875 0.37896,-3.96875 l 0.75654,2.90491 0.52365,0.80615 0.81442,5.80981 0.69867,-6.87503 0.87368,1.52549 c 0,0 0.26182,1.49517 0.26182,1.32291 0,-0.17225 1.2802,-7.1341 1.2802,-7.1341 0,0 0.84474,10.26914 0.87368,10.12582 0.0289,-0.14469 1.10518,-13.83688 1.10518,-13.83688 l 1.51447,13.89338 0.52365,-2.21451 0.46578,1.92788 0.34864,-5.17867 0.84474,-1.40973 0.3197,4.80384 1.30914,-5.3206 0.66973,3.07716 0.55397,-9.49193 0.11575,6.011 1.3684,1.35323 c 0,0 0.26182,6.32796 0.4079,5.95451 0.14469,-0.37483 0.98805,-5.03398 0.98805,-5.03398 0,0 0.90261,5.06154 0.90261,4.94716 0,-0.11575 0.52366,-4.63159 0.52366,-4.63159 l 0.43684,1.46761 0.2632,-3.56774 0.20257,1.98576 0.61185,0.14331 0.55259,1.89894 0.49472,-7.71012 0.58153,4.40145 0.78686,-3.88331 c 0,0 0.87367,6.93291 0.96049,6.61596 0.0868,-0.31557 0.90124,-3.56636 0.90124,-3.56636 0,0 0.87367,3.79649 0.87367,3.62424 0,-0.17226 0.78548,-4.66053 0.78548,-4.66053 l 1.10657,7.2788 0.49471,-5.46668 0.69867,5.95451 0.66973,-6.8461 0.61047,8.34264 1.25263,-9.72343 0.93018,4.83278 0.43684,-4.86172 0.55259,1.92788 0.93155,-2.01332 c 0,0 1.33946,8.60034 1.22233,8.62927 -0.11576,0.0289 0.78548,-6.84609 0.78548,-6.84609 l 0.43683,0.86265 0.46578,-1.75424 0.4079,3.82544 0.69867,-3.1061 0.61047,4.51583 0.46577,-2.96279"
       style="fill:none;stroke:#f5eb3f;stroke-width:0.176389;stroke-linecap:butt;stroke-linejoin:miter;stroke-miterlimit:10;stroke-opacity:1" />
    <path
       id="path2376"
       d="m 34.67243,154.80312 0.37896,5.63756 0.377583,1.6688 0.407899,2.96278 1.076248,-3.68212 0.232888,-5.40742 0.669727,-0.89159 1.047309,8.0822 1.164442,-10.41246 0.902615,11.62099 0.698666,-7.16304 0.756542,7.04729 0.552594,-2.38676 0.553971,3.42305 0.756543,-2.67478 0.552593,-4.028 0.669727,4.37251 0.872298,-6.93291 0.378961,2.76159 0.465776,-3.27835 0.319705,3.19291 0.640788,0.46027 0.843359,6.47126 1.106565,-9.95219 1.135504,8.68715 c 0,0 0.698665,-2.81946 0.727604,-2.73264 0.02894,0.0868 0.785482,1.86999 0.785482,1.86999 l 0.436838,-4.51721 0.756543,5.03398 0.523654,2.3592 1.193381,-7.90994 c 0,0 0.494716,2.18557 0.523655,2.01331 0.02894,-0.17225 0.436838,-4.20026 0.436838,-4.20026 l 0.436838,7.04729 0.407899,-0.71796 0.931554,3.42305 0.581532,-2.73265 c 0,0 0.465777,-0.46026 0.436838,-0.66284 -0.03032,-0.20119 0.377582,-3.96875 0.377582,-3.96875 l 0.756544,2.90491 0.525032,0.80615 0.81442,5.80981 0.698666,-6.87503 0.872299,1.52549 c 0,0 0.261828,1.49517 0.261828,1.32291 0,-0.17225 1.281575,-7.1341 1.281575,-7.1341 0,0 0.843357,10.26914 0.872296,10.12582 0.02893,-0.14469 1.106565,-13.83688 1.106565,-13.83688 l 1.513088,13.89476 0.523653,-2.21589 0.465776,1.92788 0.350023,-5.17867 0.843357,-1.40835 0.321084,4.80384 1.309138,-5.32198 0.669727,3.07716 0.552591,-9.49193 0.117133,6.01238 1.367014,1.35186 c 0,0 0.261828,6.32795 0.407899,5.9545 0.146075,-0.37483 0.989432,-5.03398 0.989432,-5.03398 0,0 0.902614,5.06291 0.902614,4.94716 0,-0.11438 0.523656,-4.63159 0.523656,-4.63159 l 0.436838,1.46762 0.261828,-3.56775 0.203948,1.98576 0.610471,0.14331 0.552595,1.89894 0.494714,-7.71012 0.582913,4.40145 0.785481,-3.88331 c 0,0 0.873675,6.93291 0.96049,6.61596 0.08819,-0.31557 0.902617,-3.56636 0.902617,-3.56636 0,0 0.873675,3.79649 0.873675,3.62424 0,-0.17226 0.785481,-4.66053 0.785481,-4.66053 l 1.10519,7.2788 0.494714,-5.4653 0.698666,5.9545 0.669727,-6.84747 0.611847,8.34264 1.251261,-9.72343 0.931552,4.83278 0.435462,-4.86034 0.55397,1.92649 0.931552,-2.01331 c 0,0 1.338076,8.60034 1.222322,8.62928 -0.117133,0.0289 0.785481,-6.8461 0.785481,-6.8461 l 0.436838,0.86265 0.465776,-1.75424 0.407899,3.82544 0.69729,-3.1061 0.611847,4.51583 0.465776,-2.86081 h -0.03996 l 0.333484,-4.15754 0.350022,0.6904 0.581533,-2.76159 0.350023,1.63986 0.581526,-1.58198 0.64079,8.11113 0.8723,-8.45702 0.37896,4.20026 0.64079,0.77583 0.93155,-4.71702 0.49334,3.45198 0.93293,1.52411 0.49334,-2.9049 0.20395,0.83371 0.64079,-1.52411 0.37896,6.24252 0.49333,-0.86265 0.35003,0.57464 0.46577,-2.38814 0.49472,2.93522 0.87368,-5.29305 0.52365,2.21451 0.58153,-3.19291 0.69867,4.2857 0.61185,-4.83278 1.13412,7.16304 0.55397,-3.48093 0.40652,1.89894 0.5526,-4.2292 0.37896,0.74827 0.81442,-3.27835 0.66973,7.73769 0.4079,-2.61828 0.34864,0.48921 0.43684,-1.1796 0.46577,2.58933 1.13551,-9.08954 0.37758,4.8314 0.37896,-0.63252 0.61047,4.68947 0.78686,-4.17133 0.55259,5.95451 0.58154,-5.52318 0.66972,6.47265 0.5526,-0.71934 0.40789,-2.27238 0.35003,0.77583 0.58153,-5.17729 0.7276,3.79787 0.34865,-1.06522 1.19338,5.81119 0.61185,-7.79556 0.61185,0.17225 0.40652,3.10748 0.75654,-4.60265 c 0,0 0.66973,1.2361 0.7276,1.12172 0.0593,-0.11575 0.69867,-2.99172 0.69867,-2.99172 l 0.37896,5.63756 0.37758,1.6688 0.4079,2.96278 1.07763,-3.68212 0.23151,-5.40742 0.6711,-0.89159 1.04731,8.0822 1.16307,-10.41246 0.90261,11.62099 0.69866,-7.16304 0.75655,7.04729 0.55259,-2.38676 0.55397,3.42305 0.75654,-2.67478 0.55259,-4.028 0.66973,4.37251 0.87368,-6.93291 0.37758,2.76159 0.46578,-3.27835 0.3197,3.19291 0.64079,0.46027 0.84474,6.47126 1.10518,-9.95219 1.13551,8.68715 c 0,0 0.69866,-2.81946 0.7276,-2.73264 0.0289,0.0868 0.78548,1.86999 0.78548,1.86999 l 0.43684,-4.51721 0.75654,5.03398 0.52366,2.3592 1.19338,-7.90994 c 0,0 0.49471,2.18557 0.52365,2.01331 0.0289,-0.17225 0.43684,-4.20026 0.43684,-4.20026 l 0.43684,7.04729 0.4079,-0.71796 0.93155,3.42305 0.58154,-2.73265 c 0,0 0.46577,-0.46026 0.43683,-0.66284 -0.0289,-0.20119 0.37896,-3.96875 0.37896,-3.96875 l 0.75517,2.90491 0.52503,0.80615"
       style="fill:none;stroke:#e82323;stroke-width:0.176389;stroke-linecap:butt;stroke-linejoin:miter;stroke-miterlimit:10;stroke-opacity:1" />
    <path
       id="path2378"
       d="m 34.563565,157.76039 0.844737,6.41477 0.348644,-0.6904 0.58291,2.76021 0.348644,-1.63848 0.58291,1.58198 0.639409,-8.11251 0.873677,8.45702 0.377582,-4.19888 0.640788,-0.77721 0.931554,4.71702 0.494715,-3.45198 0.931554,-1.52412 0.494716,2.90491 0.20395,-0.83371 0.639409,1.52411 0.378961,-6.24114 0.494715,0.86266 0.348644,-0.57603 0.465777,2.38815 0.496094,-2.93385 0.872298,5.29305 0.523654,-2.21589 0.582911,3.19292 0.698665,-4.2857 0.610471,4.83278 1.135503,-7.16305 0.552594,3.48093 0.407899,-1.89894 0.552593,4.2292 0.378961,-0.74828 0.814421,3.27974 0.669726,-7.73769 0.407899,2.6169 0.348644,-0.48921 0.436838,1.1796 0.465777,-2.58933 1.134125,9.09092 0.378961,-4.83278 0.37896,0.63252 0.610471,-4.68809 0.785482,4.16994 0.552593,-5.9545 0.582911,5.52318 0.669726,-6.47127 0.552593,0.71796 0.407899,2.27239 0.348644,-0.77584 0.582912,5.17729 0.727604,-3.7965 0.348643,1.06385 1.19338,-5.80981 0.610471,7.79556 0.611848,-0.17363 0.407899,-3.1061 0.756546,4.60265 c 0,0 0.669724,-1.23748 0.727604,-1.12172 0.05788,0.11437 0.698662,2.99172 0.698662,2.99172 l 0.377586,-5.63894 0.37896,-1.6688 0.4079,-2.96278 1.076247,3.68212 0.232886,5.40879 0.669728,0.8916 1.047309,-8.08357 1.164442,10.41383 0.902617,-11.62237 0.698662,7.16304 0.756546,-7.04729 0.552591,2.38676 0.552595,-3.42304 0.757922,2.67615 0.552591,4.02662 0.669727,-4.37251 0.872296,6.93291 0.378961,-2.76159 0.46578,3.27973 0.319705,-3.19291 0.640785,-0.46027 0.843361,-6.47264 1.106565,9.95357 1.134124,-8.68854 c 0,0 0.698666,2.81947 0.727605,2.73266 0.02893,-0.0854 0.78686,-1.86863 0.78686,-1.86863 l 0.435458,4.51583 0.757922,-5.03397 0.523656,-2.3592 1.19338,7.91132 c 0,0 0.494715,-2.18695 0.523653,-2.01469 0.02893,0.17363 0.436838,4.20026 0.436838,4.20026 l 0.436841,-7.04729 0.40652,0.71934 0.931552,-3.42305 0.581533,2.73265 c 0,0 0.465776,0.46026 0.436838,0.66146 -0.02893,0.20119 0.37896,3.97012 0.37896,3.97012 l 0.756543,-2.90628 0.523656,-0.80477 0.814419,-5.81119 0.698666,6.87504 0.873676,-1.52412 c 0,0 0.261828,-1.49654 0.261828,-1.32291 0,0.17225 1.280198,7.13272 1.280198,7.13272 0,0 0.844737,-10.26914 0.873676,-10.12445 0.02893,0.14332 1.106563,13.83551 1.106563,13.83551 l 1.51309,-13.89338 0.52365,2.21451 0.46578,-1.9265 0.34864,5.17729 0.84474,1.40973 0.3197,-4.80384 1.31052,5.32198 0.66835,-3.07853 0.55397,9.4933 0.11575,-6.01238 1.3684,-1.35185 c 0,0 0.26182,-6.32933 0.40789,-5.95589 0.1447,0.37483 0.98944,5.03535 0.98944,5.03535 0,0 0.90123,-5.06291 0.90123,-4.94853 0,0.11575 0.52504,4.63159 0.52504,4.63159 l 0.43546,-1.46623 0.26182,3.56636 0.20395,-1.98438 0.61185,-0.14469 0.55259,-1.89756 0.49472,7.70875 0.58291,-4.40146 0.78548,3.88331 c 0,0 0.8723,-6.93291 0.96049,-6.61596 0.0868,0.31695 0.90262,3.56636 0.90262,3.56636 0,0 0.8723,-3.79649 0.8723,-3.62424 0,0.17364 0.78548,4.66053 0.78548,4.66053 l 1.10656,-7.27742 0.49472,5.4653 0.69866,-5.95451 0.66973,6.8461 0.61047,-8.34264 1.25126,9.72344 0.93293,-4.83279 0.43546,4.86172 0.5526,-1.92787 0.93155,2.01331 c 0,0 1.33945,-8.60033 1.22232,-8.62927 -0.11576,-0.0289 0.78686,6.84609 0.78686,6.84609 l 0.43684,-0.86265 0.4644,1.75424 0.4079,-3.82543 0.69866,3.10609 0.61047,-4.51583 0.46578,2.86081 h -0.04 l 0.33486,4.15892 0.35003,-0.6904 0.58153,2.76021 0.34864,-1.63848 0.58291,1.58198 0.63941,-8.11251 0.87368,8.45702 0.37896,-4.19888 0.63941,-0.77721 0.93155,4.71702 0.49472,-3.45198 0.93155,-1.52411 0.49472,2.9049 0.20394,-0.83371 0.64079,1.52411 0.37758,-6.24114 0.49472,0.86266 0.35001,-0.57602 0.46578,2.38814 0.49472,-2.93385 0.8723,5.29305 0.52365,-2.21589 0.58291,3.19292 0.69867,-4.2857 0.61047,4.83278 1.1355,-7.16305 0.55259,3.48093 0.4079,-1.89894 0.5526,4.2292 0.37896,-0.74828 0.81442,3.27974 0.66973,-7.73769 0.4079,2.6169 0.34864,-0.4892 0.43684,1.17959 0.46577,-2.58933 1.13551,9.09092 0.37758,-4.83278 0.37896,0.63252 0.61047,-4.68809 0.78548,4.16994 0.55397,-5.9545 0.58153,5.52318 0.66973,-6.47127 0.5526,0.71796 0.4079,2.27239 0.34864,-0.77584"
       style="fill:none;stroke:#8a6138;stroke-width:0.176389;stroke-linecap:butt;stroke-linejoin:miter;stroke-miterlimit:10;stroke-opacity:1" />
    <path
       id="path2380"
       d="m 35.285657,161.27852 0.552593,9.49193 0.117133,-6.011 1.368392,-1.35186 c 0,0 0.261827,-6.32933 0.406521,-5.95588 0.146073,0.37483 0.989432,5.03535 0.989432,5.03535 0,0 0.902615,-5.06291 0.902615,-4.94853 0,0.11575 0.523655,4.63158 0.523655,4.63158 l 0.436838,-1.46761 0.261827,3.56775 0.203949,-1.98438 0.611849,-0.14469 0.552594,-1.89894 0.494715,7.71012 0.581533,-4.40145 0.786859,3.88331 c 0,0 0.872298,-6.93291 0.960493,-6.61596 0.08682,0.31557 0.901237,3.56636 0.901237,3.56636 0,0 0.873676,-3.79649 0.873676,-3.62424 0,0.17226 0.785482,4.66052 0.785482,4.66052 l 1.106564,-7.27879 0.494716,5.46668 0.698666,-5.95451 0.668348,6.8461 0.611849,-8.34265 1.251259,9.72344 0.931554,-4.83278 0.436838,4.86172 0.552593,-1.92788 0.931554,2.01332 c 0,0 1.339453,-8.60034 1.22232,-8.62928 -0.115756,-0.0289 0.785481,6.8461 0.785481,6.8461 l 0.436838,-0.86266 0.465777,1.75425 0.407899,-3.82544 0.698666,3.1061 0.610471,-4.51583 0.465777,2.86081 h -0.03996 l 0.334863,4.15754 0.348644,-0.6904 0.581532,2.76159 0.350021,-1.63987 0.581533,1.58337 0.640786,-8.11251 0.873679,8.45702 0.377581,-4.20026 0.640789,-0.77583 0.931552,4.71702 0.494715,-3.45199 0.931555,-1.52411 0.494715,2.90491 0.203951,-0.83372 0.63941,1.52412 0.378961,-6.24252 0.494714,0.86403 0.348643,-0.57602 0.465776,2.38814 0.494718,-2.93384 0.873676,5.29167 0.523656,-2.21451 0.582909,3.19291 0.697286,-4.2857 0.611851,4.83278 1.135503,-7.16304 0.552591,3.48092 0.406524,-1.89893 0.55397,4.2292 0.378961,-0.74828 0.814419,3.27973 0.669728,-7.73906 0.40652,2.61827 0.350022,-0.4892 0.436838,1.1796 0.465776,-2.58933 1.134128,9.09092 0.378961,-4.83278 0.377581,0.63252 0.611847,-4.68809 0.785485,4.16994 0.552591,-5.9545 0.582912,5.52318 0.669724,-6.47265 0.552595,0.71934 0.40652,2.27238 0.350022,-0.77583 0.581533,5.17729 0.727604,-3.7965 0.350023,1.06385 1.19338,-5.81119 0.610472,7.79556 0.611847,-0.17225 0.407899,-3.1061 0.756543,4.60265 c 0,0 0.669727,-1.23748 0.727604,-1.1231 0.05788,0.11575 0.698665,2.99171 0.698665,2.99171 l 0.377582,-5.63755 0.378961,-1.6688 0.406523,-2.96278 1.077624,3.68211 0.232889,5.4088 0.669728,0.89159 1.047309,-8.08357 1.164442,10.41246 0.901237,-11.621 0.698661,7.16305 0.75655,-7.04729 0.55397,2.38814 0.55259,-3.42443 0.75654,2.67615 0.55398,4.02663 0.66834,-4.37252 0.87368,6.93292 0.37758,-2.76159 0.46578,3.27973 0.32108,-3.19429 0.63941,-0.46027 0.84474,-6.47127 1.10519,9.95219 1.1355,-8.68715 c 0,0 0.69867,2.81947 0.7276,2.73265 0.0303,-0.0854 0.78548,-1.87 0.78548,-1.87 l 0.43684,4.51721 0.75655,-5.03397 0.52503,-2.3592 1.19338,7.90994 c 0,0 0.49472,-2.18557 0.52365,-2.01332 0.0289,0.17364 0.43684,4.20026 0.43684,4.20026 l 0.43546,-7.04728 0.4079,0.71933 0.93155,-3.42442 0.58154,2.73403 c 0,0 0.46577,0.46026 0.43684,0.66145 -0.0289,0.2012 0.37896,3.96875 0.37896,3.96875 l 0.75654,-2.9049 0.52365,-0.80477 0.81442,-5.81119 0.69867,6.87503 0.87368,-1.52411 c 0,0 0.26182,-1.49655 0.26182,-1.3243 0,0.17364 1.2802,7.13411 1.2802,7.13411 0,0 0.84474,-10.26914 0.87368,-10.12583 0.0289,0.1447 1.10518,13.83689 1.10518,13.83689 l 1.51447,-13.89338 0.52365,2.2145 0.46578,-1.92787 0.34864,5.17867 0.84474,1.40973 0.3197,-4.80384 1.30914,5.3206 0.66973,-3.07716 0.55397,9.49193 0.11575,-6.011 1.3684,-1.35186 c 0,0 0.26182,-6.32933 0.4079,-5.95588 0.14469,0.37483 0.98805,5.03535 0.98805,5.03535 0,0 0.90261,-5.06291 0.90261,-4.94853 0,0.11575 0.52366,4.63158 0.52366,4.63158 l 0.43684,-1.46761 0.2632,3.56775 0.20257,-1.98438 0.61185,-0.14469 0.55259,-1.89894 0.49472,7.71012 0.58153,-4.40145 0.78686,3.88331 c 0,0 0.87367,-6.93291 0.96049,-6.61596 0.0868,0.31557 0.90124,3.56636 0.90124,3.56636 0,0 0.87367,-3.79649 0.87367,-3.62424 0,0.17226 0.78548,4.66052 0.78548,4.66052 l 1.10657,-7.27879 0.49471,5.46668 0.69867,-5.95451 0.66973,6.8461 0.61047,-8.34265 1.25263,9.72344 0.93018,-4.83278 0.43684,4.86172 0.55259,-1.92788 0.93155,2.01332 c 0,0 1.33946,-8.60034 1.22233,-8.62928 -0.11576,-0.0289 0.78548,6.8461 0.78548,6.8461 l 0.43683,-0.86266 0.46578,1.75425 0.4079,-3.82544 0.69867,3.1061 0.61047,-4.51583 0.46577,2.96278"
       style="fill:none;stroke:#57575c;stroke-width:0.176389;stroke-linecap:butt;stroke-linejoin:miter;stroke-miterlimit:10;stroke-opacity:1" />
    <path
       id="path2382"
       d="m 34.67243,167.23027 0.37896,-5.63755 0.377583,-1.66881 0.407899,-2.96278 1.076248,3.68212 0.232888,5.40742 0.669727,0.89297 1.047309,-8.08357 1.164442,10.41245 0.902615,-11.62099 0.698666,7.16304 0.756542,-7.04729 0.552594,2.38677 0.553971,-3.42305 0.756543,2.67477 0.552593,4.028 0.669727,-4.37251 0.872298,6.93291 0.378961,-2.76159 0.465776,3.27835 0.319705,-3.19291 0.640788,-0.46026 0.843359,-6.47127 1.106565,9.95219 1.135504,-8.68715 c 0,0 0.698665,2.81946 0.727604,2.73265 0.02894,-0.0854 0.785482,-1.87 0.785482,-1.87 l 0.436838,4.51721 0.756543,-5.03397 0.523654,-2.35921 1.193381,7.90994 c 0,0 0.494716,-2.18557 0.523655,-2.01331 0.02894,0.17225 0.436838,4.20026 0.436838,4.20026 l 0.436838,-7.04729 0.407899,0.71796 0.931554,-3.42305 0.581532,2.73265 c 0,0 0.465777,0.46027 0.436838,0.66284 -0.03032,0.20119 0.377582,3.96875 0.377582,3.96875 l 0.756544,-2.90491 0.525032,-0.80615 0.81442,-5.80981 0.698666,6.87504 0.872299,-1.52549 c 0,0 0.261828,-1.49517 0.261828,-1.32292 0,0.17225 1.281575,7.13411 1.281575,7.13411 0,0 0.843357,-10.26915 0.872296,-10.12583 0.02893,0.14469 1.106565,13.83688 1.106565,13.83688 l 1.513088,-13.89338 0.523653,2.21451 0.465776,-1.92788 0.350023,5.17867 0.843357,1.40973 0.321084,-4.80522 1.309138,5.32199 0.669727,-3.07716 0.552591,9.49192 0.117133,-6.011 1.367014,-1.35323 c 0,0 0.261828,-6.32795 0.407899,-5.9545 0.146075,0.37482 0.989432,5.03397 0.989432,5.03397 0,0 0.902614,-5.06154 0.902614,-4.94716 0,0.11576 0.523656,4.63159 0.523656,4.63159 l 0.436838,-1.46761 0.261828,3.56774 0.203948,-1.98575 0.610471,-0.14332 0.552595,-1.89894 0.494714,7.71013 0.582913,-4.40146 0.785481,3.88331 c 0,0 0.873675,-6.93291 0.96049,-6.61596 0.08819,0.31557 0.902617,3.56637 0.902617,3.56637 0,0 0.873675,-3.7965 0.873675,-3.62425 0,0.17226 0.785481,4.66053 0.785481,4.66053 l 1.10519,-7.2788 0.494714,5.46668 0.698666,-5.9545 0.669727,6.84609 0.611847,-8.34264 1.251261,9.72344 0.931552,-4.83278 0.435462,4.86033 0.55397,-1.92649 0.931552,2.01331 c 0,0 1.338076,-8.60033 1.222322,-8.62927 -0.117133,-0.0289 0.785481,6.84609 0.785481,6.84609 l 0.436838,-0.86265 0.465776,1.75424 0.407899,-3.82543 0.69729,3.1061 0.611847,-4.51584 0.465776,2.86081 h -0.03996 l 0.333484,4.15754 0.350022,-0.69039 0.581533,2.76158 0.350023,-1.63986 0.581526,1.58199 0.64079,-8.11114 0.8723,8.45702 0.37896,-4.20026 0.64079,-0.77583 0.93155,4.71702 0.49334,-3.45198 0.93293,-1.52411 0.49334,2.9049 0.20395,-0.83371 0.64079,1.52411 0.37896,-6.24251 0.49333,0.86403 0.35003,-0.57602 0.46577,2.38814 0.49472,-2.93522 0.87368,5.29304 0.52365,-2.21451 0.58153,3.19292 0.69867,-4.2857 0.61185,4.83278 1.13412,-7.16305 0.55397,3.48093 0.40652,-1.89894 0.5526,4.2292 0.37896,-0.74827 0.81442,3.27973 0.66973,-7.73906 0.4079,2.61827 0.34864,-0.4892 0.43684,1.1796 0.46577,-2.58934 1.13551,9.09092 0.37758,-4.83278 0.37896,0.63252 0.61047,-4.68946 0.78686,4.17132 0.55259,-5.95451 0.58154,5.52318 0.66972,-6.47265 0.5526,0.71934 0.40789,2.27239 0.35003,-0.77584 0.58153,5.17729 0.7276,-3.7965 0.34865,1.06385 1.19338,-5.81119 0.61185,7.79557 0.61185,-0.17226 0.40652,-3.1061 0.75654,4.60127 c 0,0 0.66973,-1.2361 0.7276,-1.12172 0.0593,0.11576 0.69867,2.99172 0.69867,2.99172 l 0.37896,-5.63755 0.37758,-1.66881 0.4079,-2.96278 1.07763,3.68212 0.23151,5.40742 0.6711,0.89297 1.04731,-8.08357 1.16307,10.41245 0.90261,-11.62099 0.69866,7.16304 0.75655,-7.04729 0.55259,2.38677 0.55397,-3.42305 0.75654,2.67477 0.55259,4.028 0.66973,-4.37251 0.87368,6.93291 0.37758,-2.76159 0.46578,3.27835 0.3197,-3.19291 0.64079,-0.46026 0.84474,-6.47127 1.10518,9.95219 1.13551,-8.68715 c 0,0 0.69866,2.81946 0.7276,2.73265 0.0289,-0.0854 0.78548,-1.87 0.78548,-1.87 l 0.43684,4.51721 0.75654,-5.03397 0.52366,-2.35921 1.19338,7.90994 c 0,0 0.49471,-2.18557 0.52365,-2.01331 0.0289,0.17225 0.43684,4.20026 0.43684,4.20026 l 0.43684,-7.04729 0.4079,0.71796 0.93155,-3.42305 0.58154,2.73265 c 0,0 0.46577,0.46027 0.43683,0.66284 -0.0289,0.20119 0.37896,3.96875 0.37896,3.96875 l 0.75517,-2.90491 0.52503,-0.80615"
       style="fill:none;stroke:#000000;stroke-width:0.176389;stroke-linecap:butt;stroke-linejoin:miter;stroke-miterlimit:10;stroke-opacity:1" />
    <rect
       style="fill:#ffffff;fill-opacity:0.76999998;stroke-width:1.60236"
       id="rect175-7"
       width="76.643364"
       height="20.221617"
       x="81.467316"
       y="151.69139" />
    <rect
       style="fill:#ffffff;fill-opacity:0.76999998"
       id="rect175-9"
       width="17.042149"
       height="20.221617"
       x="34.476124"
       y="151.69138" />
    <path
       id="rect175"
       style="fill:none;stroke:#cc0000;stroke-width:0.705556"
       d="m 34.476125,172.04711 17.140227,-0.1341 v -20.22162 h 29.850962 v 20.22162 l 76.643366,0.1341"
       sodipodi:nodetypes="cccccc" />
  </g>
</svg>
